{"meta": {"ppqn": 480, "score_bpm": 75, "n_cells": 116, "source": "Canto Ostinato (Arranged Midi Version), Simeon ten Holt", "note": "t and dur are in BEATS (quarter notes). Schedule at script tempo, not 75."}, "cells": [{"id": 1, "measures": "m1", "meter": [10, 16], "length_ticks": 1200, "length_beats": 2.5, "notes": [{"t": 0.0, "dur": 1.24792, "note": 46, "vel": 69, "track": 8}, {"t": 0.25, "dur": 0.24792, "note": 53, "vel": 68, "track": 8}, {"t": 0.5, "dur": 0.24792, "note": 61, "vel": 88, "track": 8}, {"t": 0.75, "dur": 0.24792, "note": 58, "vel": 74, "track": 8}, {"t": 1.0, "dur": 0.24792, "note": 53, "vel": 71, "track": 8}, {"t": 1.25, "dur": 1.24792, "note": 44, "vel": 73, "track": 8}, {"t": 1.5, "dur": 0.24792, "note": 51, "vel": 69, "track": 8}, {"t": 1.75, "dur": 0.24792, "note": 60, "vel": 93, "track": 8}, {"t": 2.0, "dur": 0.24792, "note": 56, "vel": 75, "track": 8}, {"t": 2.25, "dur": 0.24792, "note": 51, "vel": 72, "track": 8}]}, {"id": 2, "measures": "m2", "meter": [10, 16], "length_ticks": 1200, "length_beats": 2.5, "notes": [{"t": 0.0, "dur": 0.99792, "note": 46, "vel": 73, "track": 9}, {"t": 0.0, "dur": 1.24792, "note": 46, "vel": 68, "track": 7}, {"t": 0.0, "dur": 1.24792, "note": 46, "vel": 80, "track": 8}, {"t": 0.0, "dur": 1.24792, "note": 69, "vel": 31, "track": 4}, {"t": 0.25, "dur": 0.24792, "note": 53, "vel": 67, "track": 7}, {"t": 0.25, "dur": 0.24792, "note": 53, "vel": 70, "track": 8}, {"t": 0.5, "dur": 0.24792, "note": 61, "vel": 90, "track": 8}, {"t": 0.5, "dur": 0.24792, "note": 61, "vel": 91, "track": 7}, {"t": 0.75, "dur": 0.24792, "note": 58, "vel": 76, "track": 8}, {"t": 0.75, "dur": 0.24792, "note": 58, "vel": 79, "track": 7}, {"t": 1.0, "dur": 0.24792, "note": 53, "vel": 72, "track": 7}, {"t": 1.0, "dur": 0.24792, "note": 53, "vel": 72, "track": 8}, {"t": 1.25, "dur": 0.99792, "note": 44, "vel": 63, "track": 9}, {"t": 1.25, "dur": 1.24792, "note": 44, "vel": 70, "track": 8}, {"t": 1.25, "dur": 1.24792, "note": 44, "vel": 77, "track": 7}, {"t": 1.25, "dur": 1.24792, "note": 69, "vel": 38, "track": 4}, {"t": 1.5, "dur": 0.24792, "note": 51, "vel": 67, "track": 7}, {"t": 1.5, "dur": 0.24792, "note": 51, "vel": 71, "track": 8}, {"t": 1.75, "dur": 0.24792, "note": 60, "vel": 94, "track": 7}, {"t": 1.75, "dur": 0.24792, "note": 60, "vel": 95, "track": 8}, {"t": 2.0, "dur": 0.24792, "note": 56, "vel": 75, "track": 8}, {"t": 2.0, "dur": 0.24792, "note": 56, "vel": 78, "track": 7}, {"t": 2.25, "dur": 0.24792, "note": 51, "vel": 72, "track": 8}, {"t": 2.25, "dur": 0.24792, "note": 51, "vel": 73, "track": 7}]}, {"id": 3, "measures": "m3", "meter": [10, 16], "length_ticks": 1200, "length_beats": 2.5, "notes": [{"t": 0.0, "dur": 0.24792, "note": 46, "vel": 68, "track": 7}, {"t": 0.0, "dur": 0.99792, "note": 46, "vel": 68, "track": 9}, {"t": 0.0, "dur": 1.24792, "note": 46, "vel": 80, "track": 8}, {"t": 0.0, "dur": 0.24792, "note": 69, "vel": 69, "track": 6}, {"t": 0.0, "dur": 0.74792, "note": 69, "vel": 40, "track": 4}, {"t": 0.0, "dur": 0.74792, "note": 69, "vel": 65, "track": 0}, {"t": 0.25, "dur": 0.24792, "note": 53, "vel": 69, "track": 8}, {"t": 0.25, "dur": 0.24792, "note": 53, "vel": 84, "track": 7}, {"t": 0.25, "dur": 0.24792, "note": 61, "vel": 61, "track": 6}, {"t": 0.5, "dur": 0.24792, "note": 61, "vel": 93, "track": 8}, {"t": 0.5, "dur": 0.24792, "note": 61, "vel": 95, "track": 7}, {"t": 0.5, "dur": 0.24792, "note": 65, "vel": 82, "track": 6}, {"t": 0.75, "dur": 0.24792, "note": 58, "vel": 78, "track": 7}, {"t": 0.75, "dur": 0.24792, "note": 58, "vel": 80, "track": 8}, {"t": 0.75, "dur": 0.24792, "note": 69, "vel": 84, "track": 6}, {"t": 0.75, "dur": 0.49792, "note": 69, "vel": 38, "track": 4}, {"t": 0.75, "dur": 0.49792, "note": 69, "vel": 75, "track": 0}, {"t": 1.0, "dur": 0.24792, "note": 53, "vel": 69, "track": 8}, {"t": 1.0, "dur": 0.24792, "note": 53, "vel": 70, "track": 7}, {"t": 1.0, "dur": 0.24792, "note": 65, "vel": 66, "track": 6}, {"t": 1.25, "dur": 0.24792, "note": 44, "vel": 65, "track": 7}, {"t": 1.25, "dur": 0.99792, "note": 44, "vel": 69, "track": 9}, {"t": 1.25, "dur": 1.24792, "note": 44, "vel": 77, "track": 8}, {"t": 1.25, "dur": 0.24792, "note": 69, "vel": 81, "track": 6}, {"t": 1.25, "dur": 0.74792, "note": 69, "vel": 40, "track": 4}, {"t": 1.25, "dur": 0.74792, "note": 69, "vel": 77, "track": 0}, {"t": 1.5, "dur": 0.24792, "note": 51, "vel": 71, "track": 8}, {"t": 1.5, "dur": 0.24792, "note": 51, "vel": 83, "track": 7}, {"t": 1.5, "dur": 0.24792, "note": 63, "vel": 60, "track": 6}, {"t": 1.75, "dur": 0.24792, "note": 60, "vel": 89, "track": 8}, {"t": 1.75, "dur": 0.24792, "note": 60, "vel": 95, "track": 7}, {"t": 1.75, "dur": 0.24792, "note": 68, "vel": 85, "track": 6}, {"t": 2.0, "dur": 0.24792, "note": 56, "vel": 75, "track": 8}, {"t": 2.0, "dur": 0.24792, "note": 56, "vel": 76, "track": 7}, {"t": 2.0, "dur": 0.24792, "note": 69, "vel": 78, "track": 6}, {"t": 2.0, "dur": 0.49792, "note": 69, "vel": 41, "track": 4}, {"t": 2.0, "dur": 0.49792, "note": 69, "vel": 78, "track": 0}, {"t": 2.25, "dur": 0.24792, "note": 51, "vel": 75, "track": 7}, {"t": 2.25, "dur": 0.24792, "note": 51, "vel": 75, "track": 8}, {"t": 2.25, "dur": 0.24792, "note": 68, "vel": 75, "track": 6}]}, {"id": 4, "measures": "m4", "meter": [10, 16], "length_ticks": 1200, "length_beats": 2.5, "notes": [{"t": 0.0, "dur": 0.24792, "note": 46, "vel": 67, "track": 7}, {"t": 0.0, "dur": 0.99792, "note": 46, "vel": 68, "track": 9}, {"t": 0.0, "dur": 0.49792, "note": 58, "vel": 70, "track": 10}, {"t": 0.0, "dur": 0.49792, "note": 58, "vel": 81, "track": 8}, {"t": 0.0, "dur": 0.24792, "note": 61, "vel": 68, "track": 2}, {"t": 0.0, "dur": 0.49792, "note": 61, "vel": 70, "track": 3}, {"t": 0.0, "dur": 0.24792, "note": 69, "vel": 78, "track": 6}, {"t": 0.0, "dur": 0.74792, "note": 69, "vel": 41, "track": 4}, {"t": 0.0, "dur": 0.74792, "note": 69, "vel": 79, "track": 0}, {"t": 0.25, "dur": 0.24792, "note": 53, "vel": 83, "track": 7}, {"t": 0.25, "dur": 0.24792, "note": 61, "vel": 58, "track": 6}, {"t": 0.25, "dur": 0.24792, "note": 65, "vel": 78, "track": 2}, {"t": 0.5, "dur": 0.49792, "note": 46, "vel": 65, "track": 8}, {"t": 0.5, "dur": 0.49792, "note": 46, "vel": 78, "track": 10}, {"t": 0.5, "dur": 0.24792, "note": 61, "vel": 89, "track": 7}, {"t": 0.5, "dur": 0.24792, "note": 65, "vel": 83, "track": 6}, {"t": 0.5, "dur": 0.24792, "note": 69, "vel": 86, "track": 2}, {"t": 0.5, "dur": 0.49792, "note": 69, "vel": 93, "track": 3}, {"t": 0.75, "dur": 0.24792, "note": 58, "vel": 75, "track": 7}, {"t": 0.75, "dur": 0.24792, "note": 65, "vel": 70, "track": 2}, {"t": 0.75, "dur": 0.24792, "note": 69, "vel": 87, "track": 6}, {"t": 0.75, "dur": 0.49792, "note": 69, "vel": 39, "track": 4}, {"t": 0.75, "dur": 0.49792, "note": 69, "vel": 77, "track": 0}, {"t": 1.0, "dur": 0.24792, "note": 53, "vel": 70, "track": 7}, {"t": 1.0, "dur": 0.24792, "note": 58, "vel": 85, "track": 8}, {"t": 1.0, "dur": 0.24792, "note": 58, "vel": 88, "track": 10}, {"t": 1.0, "dur": 0.24792, "note": 65, "vel": 70, "track": 6}, {"t": 1.0, "dur": 0.24792, "note": 69, "vel": 78, "track": 3}, {"t": 1.0, "dur": 0.24792, "note": 69, "vel": 82, "track": 2}, {"t": 1.25, "dur": 0.24792, "note": 44, "vel": 67, "track": 7}, {"t": 1.25, "dur": 0.99792, "note": 44, "vel": 71, "track": 9}, {"t": 1.25, "dur": 0.49792, "note": 56, "vel": 75, "track": 8}, {"t": 1.25, "dur": 0.49792, "note": 56, "vel": 77, "track": 10}, {"t": 1.25, "dur": 0.24792, "note": 63, "vel": 65, "track": 2}, {"t": 1.25, "dur": 0.49792, "note": 63, "vel": 61, "track": 3}, {"t": 1.25, "dur": 0.24792, "note": 69, "vel": 83, "track": 6}, {"t": 1.25, "dur": 0.74792, "note": 69, "vel": 42, "track": 4}, {"t": 1.25, "dur": 0.74792, "note": 69, "vel": 74, "track": 0}, {"t": 1.5, "dur": 0.24792, "note": 51, "vel": 89, "track": 7}, {"t": 1.5, "dur": 0.24792, "note": 63, "vel": 65, "track": 6}, {"t": 1.5, "dur": 0.24792, "note": 68, "vel": 84, "track": 2}, {"t": 1.75, "dur": 0.49792, "note": 44, "vel": 63, "track": 8}, {"t": 1.75, "dur": 0.49792, "note": 44, "vel": 76, "track": 10}, {"t": 1.75, "dur": 0.24792, "note": 60, "vel": 92, "track": 7}, {"t": 1.75, "dur": 0.24792, "note": 68, "vel": 84, "track": 6}, {"t": 1.75, "dur": 0.24792, "note": 69, "vel": 80, "track": 2}, {"t": 1.75, "dur": 0.49792, "note": 69, "vel": 91, "track": 3}, {"t": 2.0, "dur": 0.24792, "note": 56, "vel": 80, "track": 7}, {"t": 2.0, "dur": 0.24792, "note": 68, "vel": 71, "track": 2}, {"t": 2.0, "dur": 0.24792, "note": 69, "vel": 83, "track": 6}, {"t": 2.0, "dur": 0.49792, "note": 69, "vel": 40, "track": 4}, {"t": 2.0, "dur": 0.49792, "note": 69, "vel": 77, "track": 0}, {"t": 2.25, "dur": 0.24792, "note": 51, "vel": 73, "track": 7}, {"t": 2.25, "dur": 0.24792, "note": 56, "vel": 86, "track": 8}, {"t": 2.25, "dur": 0.24792, "note": 56, "vel": 86, "track": 10}, {"t": 2.25, "dur": 0.24792, "note": 68, "vel": 69, "track": 6}, {"t": 2.25, "dur": 0.24792, "note": 69, "vel": 74, "track": 2}, {"t": 2.25, "dur": 0.24792, "note": 69, "vel": 76, "track": 3}]}, {"id": 5, "measures": "m5", "meter": [10, 16], "length_ticks": 1200, "length_beats": 2.5, "notes": [{"t": 0.0, "dur": 0.24792, "note": 46, "vel": 73, "track": 7}, {"t": 0.0, "dur": 0.99792, "note": 46, "vel": 70, "track": 9}, {"t": 0.0, "dur": 0.49792, "note": 58, "vel": 82, "track": 8}, {"t": 0.0, "dur": 0.24792, "note": 61, "vel": 58, "track": 2}, {"t": 0.0, "dur": 0.49792, "note": 61, "vel": 61, "track": 3}, {"t": 0.0, "dur": 0.24792, "note": 70, "vel": 82, "track": 6}, {"t": 0.0, "dur": 0.74792, "note": 70, "vel": 35, "track": 5}, {"t": 0.0, "dur": 0.74792, "note": 70, "vel": 74, "track": 0}, {"t": 0.25, "dur": 0.24792, "note": 53, "vel": 88, "track": 7}, {"t": 0.25, "dur": 0.24792, "note": 61, "vel": 57, "track": 6}, {"t": 0.25, "dur": 0.24792, "note": 65, "vel": 82, "track": 2}, {"t": 0.5, "dur": 0.49792, "note": 46, "vel": 68, "track": 8}, {"t": 0.5, "dur": 0.24792, "note": 61, "vel": 88, "track": 7}, {"t": 0.5, "dur": 0.24792, "note": 65, "vel": 84, "track": 6}, {"t": 0.5, "dur": 0.24792, "note": 70, "vel": 87, "track": 2}, {"t": 0.5, "dur": 0.49792, "note": 70, "vel": 90, "track": 3}, {"t": 0.75, "dur": 0.24792, "note": 58, "vel": 79, "track": 7}, {"t": 0.75, "dur": 0.24792, "note": 65, "vel": 68, "track": 2}, {"t": 0.75, "dur": 0.0, "note": 70, "vel": 36, "track": 4}, {"t": 0.75, "dur": 0.24792, "note": 70, "vel": 85, "track": 6}, {"t": 0.75, "dur": 0.49792, "note": 70, "vel": 36, "track": 5}, {"t": 0.75, "dur": 0.49792, "note": 70, "vel": 78, "track": 0}, {"t": 1.0, "dur": 0.24792, "note": 53, "vel": 72, "track": 7}, {"t": 1.0, "dur": 0.24792, "note": 58, "vel": 86, "track": 8}, {"t": 1.0, "dur": 0.24792, "note": 65, "vel": 63, "track": 6}, {"t": 1.0, "dur": 0.24792, "note": 70, "vel": 84, "track": 3}, {"t": 1.0, "dur": 0.24792, "note": 70, "vel": 86, "track": 2}, {"t": 1.25, "dur": 0.24792, "note": 44, "vel": 69, "track": 7}, {"t": 1.25, "dur": 0.99792, "note": 44, "vel": 69, "track": 9}, {"t": 1.25, "dur": 0.49792, "note": 56, "vel": 76, "track": 8}, {"t": 1.25, "dur": 0.24792, "note": 63, "vel": 61, "track": 2}, {"t": 1.25, "dur": 0.49792, "note": 63, "vel": 62, "track": 3}, {"t": 1.25, "dur": 0.0, "note": 70, "vel": 40, "track": 4}, {"t": 1.25, "dur": 0.24792, "note": 70, "vel": 85, "track": 6}, {"t": 1.25, "dur": 0.74792, "note": 70, "vel": 40, "track": 5}, {"t": 1.25, "dur": 0.74792, "note": 70, "vel": 73, "track": 0}, {"t": 1.5, "dur": 0.24792, "note": 51, "vel": 80, "track": 7}, {"t": 1.5, "dur": 0.24792, "note": 63, "vel": 68, "track": 6}, {"t": 1.5, "dur": 0.24792, "note": 68, "vel": 83, "track": 2}, {"t": 1.75, "dur": 0.49792, "note": 44, "vel": 61, "track": 8}, {"t": 1.75, "dur": 0.24792, "note": 60, "vel": 88, "track": 7}, {"t": 1.75, "dur": 0.24792, "note": 68, "vel": 82, "track": 6}, {"t": 1.75, "dur": 0.24792, "note": 70, "vel": 86, "track": 2}, {"t": 1.75, "dur": 0.49792, "note": 70, "vel": 85, "track": 3}, {"t": 2.0, "dur": 0.24792, "note": 56, "vel": 77, "track": 7}, {"t": 2.0, "dur": 0.24792, "note": 65, "vel": 66, "track": 2}, {"t": 2.0, "dur": 0.0, "note": 70, "vel": 40, "track": 4}, {"t": 2.0, "dur": 0.24792, "note": 70, "vel": 81, "track": 6}, {"t": 2.0, "dur": 0.49792, "note": 70, "vel": 40, "track": 5}, {"t": 2.0, "dur": 0.49792, "note": 70, "vel": 79, "track": 0}, {"t": 2.25, "dur": 0.24792, "note": 51, "vel": 68, "track": 7}, {"t": 2.25, "dur": 0.24792, "note": 56, "vel": 88, "track": 8}, {"t": 2.25, "dur": 0.24792, "note": 68, "vel": 70, "track": 6}, {"t": 2.25, "dur": 0.24792, "note": 70, "vel": 76, "track": 3}, {"t": 2.25, "dur": 0.24792, "note": 70, "vel": 83, "track": 2}]}, {"id": 6, "measures": "m6", "meter": [10, 16], "length_ticks": 1200, "length_beats": 2.5, "notes": [{"t": 0.0, "dur": 0.24792, "note": 46, "vel": 69, "track": 7}, {"t": 0.0, "dur": 0.99792, "note": 46, "vel": 65, "track": 9}, {"t": 0.0, "dur": 0.49792, "note": 58, "vel": 83, "track": 8}, {"t": 0.0, "dur": 0.24792, "note": 61, "vel": 64, "track": 2}, {"t": 0.0, "dur": 0.49792, "note": 61, "vel": 55, "track": 3}, {"t": 0.0, "dur": 0.74792, "note": 70, "vel": 42, "track": 5}, {"t": 0.0, "dur": 0.24792, "note": 72, "vel": 86, "track": 6}, {"t": 0.0, "dur": 0.74792, "note": 72, "vel": 42, "track": 4}, {"t": 0.0, "dur": 0.74792, "note": 72, "vel": 82, "track": 0}, {"t": 0.25, "dur": 0.24792, "note": 53, "vel": 82, "track": 7}, {"t": 0.25, "dur": 0.24792, "note": 61, "vel": 58, "track": 6}, {"t": 0.25, "dur": 0.24792, "note": 65, "vel": 81, "track": 2}, {"t": 0.5, "dur": 0.49792, "note": 46, "vel": 63, "track": 8}, {"t": 0.5, "dur": 0.24792, "note": 61, "vel": 94, "track": 7}, {"t": 0.5, "dur": 0.24792, "note": 65, "vel": 83, "track": 6}, {"t": 0.5, "dur": 0.24792, "note": 72, "vel": 93, "track": 2}, {"t": 0.5, "dur": 0.49792, "note": 72, "vel": 95, "track": 3}, {"t": 0.75, "dur": 0.24792, "note": 58, "vel": 76, "track": 7}, {"t": 0.75, "dur": 0.24792, "note": 65, "vel": 68, "track": 2}, {"t": 0.75, "dur": 0.49792, "note": 70, "vel": 38, "track": 5}, {"t": 0.75, "dur": 0.24792, "note": 72, "vel": 93, "track": 6}, {"t": 0.75, "dur": 0.49792, "note": 72, "vel": 38, "track": 4}, {"t": 0.75, "dur": 0.49792, "note": 72, "vel": 76, "track": 0}, {"t": 1.0, "dur": 0.24792, "note": 53, "vel": 66, "track": 7}, {"t": 1.0, "dur": 0.24792, "note": 58, "vel": 88, "track": 8}, {"t": 1.0, "dur": 0.24792, "note": 65, "vel": 68, "track": 6}, {"t": 1.0, "dur": 0.24792, "note": 72, "vel": 80, "track": 3}, {"t": 1.0, "dur": 0.24792, "note": 72, "vel": 91, "track": 2}, {"t": 1.25, "dur": 0.24792, "note": 44, "vel": 64, "track": 7}, {"t": 1.25, "dur": 0.99792, "note": 44, "vel": 69, "track": 9}, {"t": 1.25, "dur": 0.49792, "note": 56, "vel": 74, "track": 8}, {"t": 1.25, "dur": 0.24792, "note": 63, "vel": 57, "track": 2}, {"t": 1.25, "dur": 0.49792, "note": 63, "vel": 57, "track": 3}, {"t": 1.25, "dur": 0.74792, "note": 70, "vel": 39, "track": 5}, {"t": 1.25, "dur": 0.24792, "note": 72, "vel": 91, "track": 6}, {"t": 1.25, "dur": 0.74792, "note": 72, "vel": 39, "track": 4}, {"t": 1.25, "dur": 0.74792, "note": 72, "vel": 74, "track": 0}, {"t": 1.5, "dur": 0.24792, "note": 51, "vel": 81, "track": 7}, {"t": 1.5, "dur": 0.24792, "note": 63, "vel": 67, "track": 6}, {"t": 1.5, "dur": 0.24792, "note": 68, "vel": 86, "track": 2}, {"t": 1.75, "dur": 0.49792, "note": 44, "vel": 62, "track": 8}, {"t": 1.75, "dur": 0.24792, "note": 60, "vel": 97, "track": 7}, {"t": 1.75, "dur": 0.24792, "note": 68, "vel": 84, "track": 6}, {"t": 1.75, "dur": 0.24792, "note": 72, "vel": 83, "track": 2}, {"t": 1.75, "dur": 0.49792, "note": 72, "vel": 89, "track": 3}, {"t": 2.0, "dur": 0.24792, "note": 56, "vel": 78, "track": 7}, {"t": 2.0, "dur": 0.24792, "note": 68, "vel": 73, "track": 2}, {"t": 2.0, "dur": 0.49792, "note": 70, "vel": 39, "track": 5}, {"t": 2.0, "dur": 0.24792, "note": 72, "vel": 86, "track": 6}, {"t": 2.0, "dur": 0.49792, "note": 72, "vel": 39, "track": 4}, {"t": 2.0, "dur": 0.49792, "note": 72, "vel": 74, "track": 0}, {"t": 2.25, "dur": 0.24792, "note": 51, "vel": 72, "track": 7}, {"t": 2.25, "dur": 0.24792, "note": 56, "vel": 91, "track": 8}, {"t": 2.25, "dur": 0.24792, "note": 68, "vel": 75, "track": 6}, {"t": 2.25, "dur": 0.24792, "note": 72, "vel": 80, "track": 3}, {"t": 2.25, "dur": 0.24792, "note": 72, "vel": 83, "track": 2}]}, {"id": 7, "measures": "m7", "meter": [10, 16], "length_ticks": 1200, "length_beats": 2.5, "notes": [{"t": 0.0, "dur": 0.24792, "note": 46, "vel": 73, "track": 7}, {"t": 0.0, "dur": 0.99792, "note": 46, "vel": 68, "track": 9}, {"t": 0.0, "dur": 0.49792, "note": 58, "vel": 81, "track": 8}, {"t": 0.0, "dur": 0.24792, "note": 61, "vel": 58, "track": 2}, {"t": 0.0, "dur": 0.49792, "note": 61, "vel": 55, "track": 3}, {"t": 0.0, "dur": 0.74792, "note": 70, "vel": 40, "track": 5}, {"t": 0.0, "dur": 0.24792, "note": 72, "vel": 85, "track": 6}, {"t": 0.0, "dur": 0.74792, "note": 72, "vel": 40, "track": 4}, {"t": 0.0, "dur": 0.74792, "note": 72, "vel": 74, "track": 0}, {"t": 0.25, "dur": 0.24792, "note": 53, "vel": 80, "track": 7}, {"t": 0.25, "dur": 0.24792, "note": 61, "vel": 62, "track": 6}, {"t": 0.25, "dur": 0.24792, "note": 65, "vel": 82, "track": 2}, {"t": 0.5, "dur": 0.49792, "note": 46, "vel": 66, "track": 8}, {"t": 0.5, "dur": 0.24792, "note": 61, "vel": 91, "track": 7}, {"t": 0.5, "dur": 0.24792, "note": 65, "vel": 78, "track": 6}, {"t": 0.5, "dur": 0.24792, "note": 73, "vel": 92, "track": 2}, {"t": 0.5, "dur": 0.49792, "note": 73, "vel": 91, "track": 3}, {"t": 0.75, "dur": 0.24792, "note": 58, "vel": 74, "track": 7}, {"t": 0.75, "dur": 0.24792, "note": 65, "vel": 67, "track": 2}, {"t": 0.75, "dur": 0.49792, "note": 72, "vel": 40, "track": 5}, {"t": 0.75, "dur": 0.24792, "note": 73, "vel": 89, "track": 6}, {"t": 0.75, "dur": 0.49792, "note": 73, "vel": 40, "track": 4}, {"t": 0.75, "dur": 0.49792, "note": 73, "vel": 80, "track": 0}, {"t": 1.0, "dur": 0.24792, "note": 53, "vel": 74, "track": 7}, {"t": 1.0, "dur": 0.24792, "note": 58, "vel": 88, "track": 8}, {"t": 1.0, "dur": 0.24792, "note": 65, "vel": 63, "track": 6}, {"t": 1.0, "dur": 0.24792, "note": 73, "vel": 82, "track": 3}, {"t": 1.0, "dur": 0.24792, "note": 73, "vel": 88, "track": 2}, {"t": 1.25, "dur": 0.24792, "note": 44, "vel": 66, "track": 7}, {"t": 1.25, "dur": 0.99792, "note": 44, "vel": 72, "track": 9}, {"t": 1.25, "dur": 0.49792, "note": 56, "vel": 75, "track": 8}, {"t": 1.25, "dur": 0.24792, "note": 63, "vel": 62, "track": 2}, {"t": 1.25, "dur": 0.49792, "note": 63, "vel": 58, "track": 3}, {"t": 1.25, "dur": 0.74792, "note": 72, "vel": 39, "track": 5}, {"t": 1.25, "dur": 0.24792, "note": 73, "vel": 92, "track": 6}, {"t": 1.25, "dur": 0.74792, "note": 73, "vel": 39, "track": 4}, {"t": 1.25, "dur": 0.74792, "note": 73, "vel": 84, "track": 0}, {"t": 1.5, "dur": 0.24792, "note": 51, "vel": 82, "track": 7}, {"t": 1.5, "dur": 0.24792, "note": 63, "vel": 61, "track": 6}, {"t": 1.5, "dur": 0.24792, "note": 68, "vel": 83, "track": 2}, {"t": 1.75, "dur": 0.49792, "note": 44, "vel": 65, "track": 8}, {"t": 1.75, "dur": 0.24792, "note": 60, "vel": 92, "track": 7}, {"t": 1.75, "dur": 0.24792, "note": 68, "vel": 82, "track": 6}, {"t": 1.75, "dur": 0.24792, "note": 75, "vel": 94, "track": 2}, {"t": 1.75, "dur": 0.49792, "note": 75, "vel": 92, "track": 3}, {"t": 2.0, "dur": 0.24792, "note": 56, "vel": 72, "track": 7}, {"t": 2.0, "dur": 0.24792, "note": 68, "vel": 63, "track": 2}, {"t": 2.0, "dur": 0.49792, "note": 73, "vel": 46, "track": 5}, {"t": 2.0, "dur": 0.24792, "note": 75, "vel": 90, "track": 6}, {"t": 2.0, "dur": 0.49792, "note": 75, "vel": 46, "track": 4}, {"t": 2.0, "dur": 0.49792, "note": 75, "vel": 84, "track": 0}, {"t": 2.25, "dur": 0.24792, "note": 51, "vel": 68, "track": 7}, {"t": 2.25, "dur": 0.24792, "note": 56, "vel": 83, "track": 8}, {"t": 2.25, "dur": 0.24792, "note": 68, "vel": 64, "track": 6}, {"t": 2.25, "dur": 0.24792, "note": 75, "vel": 80, "track": 3}, {"t": 2.25, "dur": 0.24792, "note": 75, "vel": 93, "track": 2}]}, {"id": 8, "measures": "m8-9", "meter": [10, 16], "length_ticks": 2400, "length_beats": 5.0, "notes": [{"t": 0.0, "dur": 0.24792, "note": 49, "vel": 74, "track": 7}, {"t": 0.0, "dur": 0.99792, "note": 49, "vel": 63, "track": 9}, {"t": 0.0, "dur": 0.49792, "note": 61, "vel": 84, "track": 8}, {"t": 0.0, "dur": 0.49792, "note": 61, "vel": 93, "track": 10}, {"t": 0.0, "dur": 0.24792, "note": 68, "vel": 65, "track": 2}, {"t": 0.0, "dur": 0.49792, "note": 68, "vel": 63, "track": 3}, {"t": 0.0, "dur": 0.74792, "note": 73, "vel": 37, "track": 5}, {"t": 0.0, "dur": 0.24792, "note": 75, "vel": 92, "track": 6}, {"t": 0.0, "dur": 0.74792, "note": 75, "vel": 37, "track": 4}, {"t": 0.0, "dur": 0.74792, "note": 75, "vel": 73, "track": 0}, {"t": 0.25, "dur": 0.24792, "note": 56, "vel": 80, "track": 7}, {"t": 0.25, "dur": 0.24792, "note": 68, "vel": 67, "track": 6}, {"t": 0.25, "dur": 0.24792, "note": 73, "vel": 88, "track": 2}, {"t": 0.5, "dur": 0.49792, "note": 49, "vel": 69, "track": 10}, {"t": 0.5, "dur": 0.49792, "note": 49, "vel": 70, "track": 8}, {"t": 0.5, "dur": 0.24792, "note": 65, "vel": 101, "track": 7}, {"t": 0.5, "dur": 0.24792, "note": 73, "vel": 82, "track": 6}, {"t": 0.5, "dur": 0.24792, "note": 75, "vel": 81, "track": 2}, {"t": 0.5, "dur": 0.49792, "note": 75, "vel": 86, "track": 3}, {"t": 0.75, "dur": 0.24792, "note": 61, "vel": 73, "track": 7}, {"t": 0.75, "dur": 0.24792, "note": 73, "vel": 73, "track": 2}, {"t": 0.75, "dur": 0.49792, "note": 73, "vel": 41, "track": 5}, {"t": 0.75, "dur": 0.24792, "note": 75, "vel": 82, "track": 6}, {"t": 0.75, "dur": 0.49792, "note": 75, "vel": 41, "track": 4}, {"t": 0.75, "dur": 0.49792, "note": 75, "vel": 76, "track": 0}, {"t": 1.0, "dur": 0.24792, "note": 56, "vel": 69, "track": 7}, {"t": 1.0, "dur": 0.24792, "note": 61, "vel": 94, "track": 10}, {"t": 1.0, "dur": 0.24792, "note": 61, "vel": 97, "track": 8}, {"t": 1.0, "dur": 0.24792, "note": 73, "vel": 70, "track": 6}, {"t": 1.0, "dur": 0.24792, "note": 75, "vel": 79, "track": 2}, {"t": 1.0, "dur": 0.24792, "note": 75, "vel": 79, "track": 3}, {"t": 1.25, "dur": 0.24792, "note": 47, "vel": 66, "track": 7}, {"t": 1.25, "dur": 0.99792, "note": 47, "vel": 67, "track": 9}, {"t": 1.25, "dur": 0.49792, "note": 59, "vel": 76, "track": 8}, {"t": 1.25, "dur": 0.49792, "note": 59, "vel": 79, "track": 10}, {"t": 1.25, "dur": 0.24792, "note": 66, "vel": 62, "track": 2}, {"t": 1.25, "dur": 0.49792, "note": 66, "vel": 63, "track": 3}, {"t": 1.25, "dur": 0.74792, "note": 71, "vel": 42, "track": 5}, {"t": 1.25, "dur": 0.24792, "note": 75, "vel": 82, "track": 6}, {"t": 1.25, "dur": 0.74792, "note": 75, "vel": 42, "track": 4}, {"t": 1.25, "dur": 0.74792, "note": 75, "vel": 77, "track": 0}, {"t": 1.5, "dur": 0.24792, "note": 54, "vel": 78, "track": 7}, {"t": 1.5, "dur": 0.24792, "note": 66, "vel": 61, "track": 6}, {"t": 1.5, "dur": 0.24792, "note": 71, "vel": 85, "track": 2}, {"t": 1.75, "dur": 0.49792, "note": 47, "vel": 64, "track": 8}, {"t": 1.75, "dur": 0.49792, "note": 47, "vel": 65, "track": 10}, {"t": 1.75, "dur": 0.24792, "note": 63, "vel": 95, "track": 7}, {"t": 1.75, "dur": 0.24792, "note": 71, "vel": 89, "track": 6}, {"t": 1.75, "dur": 0.24792, "note": 75, "vel": 88, "track": 2}, {"t": 1.75, "dur": 0.49792, "note": 75, "vel": 94, "track": 3}, {"t": 2.0, "dur": 0.24792, "note": 59, "vel": 72, "track": 7}, {"t": 2.0, "dur": 0.24792, "note": 71, "vel": 64, "track": 2}, {"t": 2.0, "dur": 0.49792, "note": 71, "vel": 40, "track": 5}, {"t": 2.0, "dur": 0.24792, "note": 75, "vel": 85, "track": 6}, {"t": 2.0, "dur": 0.49792, "note": 75, "vel": 40, "track": 4}, {"t": 2.0, "dur": 0.49792, "note": 75, "vel": 72, "track": 0}, {"t": 2.25, "dur": 0.24792, "note": 54, "vel": 74, "track": 7}, {"t": 2.25, "dur": 0.24792, "note": 59, "vel": 87, "track": 8}, {"t": 2.25, "dur": 0.24792, "note": 59, "vel": 88, "track": 10}, {"t": 2.25, "dur": 0.24792, "note": 71, "vel": 71, "track": 6}, {"t": 2.25, "dur": 0.24792, "note": 75, "vel": 79, "track": 3}, {"t": 2.25, "dur": 0.24792, "note": 75, "vel": 82, "track": 2}, {"t": 2.5, "dur": 0.24792, "note": 49, "vel": 66, "track": 7}, {"t": 2.5, "dur": 0.99792, "note": 49, "vel": 72, "track": 9}, {"t": 2.5, "dur": 0.49792, "note": 61, "vel": 83, "track": 8}, {"t": 2.5, "dur": 0.49792, "note": 61, "vel": 89, "track": 10}, {"t": 2.5, "dur": 0.24792, "note": 68, "vel": 61, "track": 2}, {"t": 2.5, "dur": 0.49792, "note": 68, "vel": 60, "track": 3}, {"t": 2.5, "dur": 0.74792, "note": 73, "vel": 35, "track": 5}, {"t": 2.5, "dur": 0.24792, "note": 75, "vel": 86, "track": 6}, {"t": 2.5, "dur": 0.74792, "note": 75, "vel": 35, "track": 4}, {"t": 2.5, "dur": 0.74792, "note": 75, "vel": 75, "track": 0}, {"t": 2.75, "dur": 0.24792, "note": 56, "vel": 83, "track": 7}, {"t": 2.75, "dur": 0.24792, "note": 68, "vel": 64, "track": 6}, {"t": 2.75, "dur": 0.24792, "note": 73, "vel": 83, "track": 2}, {"t": 3.0, "dur": 0.49792, "note": 49, "vel": 64, "track": 10}, {"t": 3.0, "dur": 0.49792, "note": 49, "vel": 65, "track": 8}, {"t": 3.0, "dur": 0.24792, "note": 65, "vel": 96, "track": 7}, {"t": 3.0, "dur": 0.24792, "note": 73, "vel": 85, "track": 6}, {"t": 3.0, "dur": 0.24792, "note": 75, "vel": 86, "track": 2}, {"t": 3.0, "dur": 0.49792, "note": 75, "vel": 89, "track": 3}, {"t": 3.25, "dur": 0.24792, "note": 61, "vel": 69, "track": 7}, {"t": 3.25, "dur": 0.24792, "note": 73, "vel": 75, "track": 2}, {"t": 3.25, "dur": 0.49792, "note": 73, "vel": 39, "track": 5}, {"t": 3.25, "dur": 0.24792, "note": 75, "vel": 84, "track": 6}, {"t": 3.25, "dur": 0.49792, "note": 75, "vel": 39, "track": 4}, {"t": 3.25, "dur": 0.49792, "note": 75, "vel": 78, "track": 0}, {"t": 3.5, "dur": 0.24792, "note": 56, "vel": 71, "track": 7}, {"t": 3.5, "dur": 0.24792, "note": 61, "vel": 95, "track": 10}, {"t": 3.5, "dur": 0.24792, "note": 61, "vel": 96, "track": 8}, {"t": 3.5, "dur": 0.24792, "note": 73, "vel": 71, "track": 6}, {"t": 3.5, "dur": 0.24792, "note": 75, "vel": 76, "track": 3}, {"t": 3.5, "dur": 0.24792, "note": 75, "vel": 82, "track": 2}, {"t": 3.75, "dur": 0.24792, "note": 51, "vel": 71, "track": 7}, {"t": 3.75, "dur": 0.99792, "note": 51, "vel": 64, "track": 9}, {"t": 3.75, "dur": 0.49792, "note": 63, "vel": 83, "track": 8}, {"t": 3.75, "dur": 0.49792, "note": 63, "vel": 86, "track": 10}, {"t": 3.75, "dur": 0.24792, "note": 66, "vel": 60, "track": 2}, {"t": 3.75, "dur": 0.49792, "note": 66, "vel": 61, "track": 3}, {"t": 3.75, "dur": 0.74792, "note": 70, "vel": 39, "track": 5}, {"t": 3.75, "dur": 0.24792, "note": 75, "vel": 80, "track": 6}, {"t": 3.75, "dur": 0.74792, "note": 75, "vel": 39, "track": 4}, {"t": 3.75, "dur": 0.74792, "note": 75, "vel": 80, "track": 0}, {"t": 4.0, "dur": 0.24792, "note": 58, "vel": 82, "track": 7}, {"t": 4.0, "dur": 0.24792, "note": 66, "vel": 61, "track": 6}, {"t": 4.0, "dur": 0.24792, "note": 70, "vel": 78, "track": 2}, {"t": 4.25, "dur": 0.49792, "note": 51, "vel": 64, "track": 8}, {"t": 4.25, "dur": 0.49792, "note": 51, "vel": 67, "track": 10}, {"t": 4.25, "dur": 0.24792, "note": 66, "vel": 90, "track": 7}, {"t": 4.25, "dur": 0.24792, "note": 70, "vel": 82, "track": 6}, {"t": 4.25, "dur": 0.24792, "note": 75, "vel": 87, "track": 2}, {"t": 4.25, "dur": 0.49792, "note": 75, "vel": 89, "track": 3}, {"t": 4.5, "dur": 0.24792, "note": 63, "vel": 72, "track": 7}, {"t": 4.5, "dur": 0.24792, "note": 70, "vel": 66, "track": 2}, {"t": 4.5, "dur": 0.49792, "note": 70, "vel": 39, "track": 5}, {"t": 4.5, "dur": 0.24792, "note": 75, "vel": 86, "track": 6}, {"t": 4.5, "dur": 0.49792, "note": 75, "vel": 39, "track": 4}, {"t": 4.5, "dur": 0.49792, "note": 75, "vel": 78, "track": 0}, {"t": 4.75, "dur": 0.24792, "note": 58, "vel": 72, "track": 7}, {"t": 4.75, "dur": 0.24792, "note": 63, "vel": 92, "track": 8}, {"t": 4.75, "dur": 0.24792, "note": 63, "vel": 97, "track": 10}, {"t": 4.75, "dur": 0.24792, "note": 70, "vel": 65, "track": 6}, {"t": 4.75, "dur": 0.24792, "note": 75, "vel": 78, "track": 3}, {"t": 4.75, "dur": 0.24792, "note": 75, "vel": 84, "track": 2}]}, {"id": 9, "measures": "m10-11", "meter": [10, 16], "length_ticks": 2400, "length_beats": 5.0, "notes": [{"t": 0.0, "dur": 0.24792, "note": 49, "vel": 73, "track": 7}, {"t": 0.0, "dur": 0.99792, "note": 49, "vel": 70, "track": 9}, {"t": 0.0, "dur": 0.49792, "note": 61, "vel": 75, "track": 8}, {"t": 0.0, "dur": 0.24792, "note": 68, "vel": 65, "track": 2}, {"t": 0.0, "dur": 0.49792, "note": 68, "vel": 57, "track": 3}, {"t": 0.0, "dur": 0.74792, "note": 73, "vel": 39, "track": 5}, {"t": 0.0, "dur": 0.24792, "note": 75, "vel": 83, "track": 6}, {"t": 0.0, "dur": 0.74792, "note": 75, "vel": 39, "track": 4}, {"t": 0.0, "dur": 0.74792, "note": 75, "vel": 79, "track": 0}, {"t": 0.25, "dur": 0.24792, "note": 56, "vel": 81, "track": 7}, {"t": 0.25, "dur": 0.24792, "note": 68, "vel": 61, "track": 6}, {"t": 0.25, "dur": 0.24792, "note": 73, "vel": 83, "track": 2}, {"t": 0.5, "dur": 0.49792, "note": 49, "vel": 69, "track": 8}, {"t": 0.5, "dur": 0.24792, "note": 65, "vel": 87, "track": 7}, {"t": 0.5, "dur": 0.24792, "note": 73, "vel": 88, "track": 6}, {"t": 0.5, "dur": 0.24792, "note": 75, "vel": 84, "track": 2}, {"t": 0.5, "dur": 0.49792, "note": 75, "vel": 84, "track": 3}, {"t": 0.75, "dur": 0.24792, "note": 61, "vel": 71, "track": 7}, {"t": 0.75, "dur": 0.24792, "note": 73, "vel": 71, "track": 2}, {"t": 0.75, "dur": 0.49792, "note": 73, "vel": 36, "track": 5}, {"t": 0.75, "dur": 0.24792, "note": 75, "vel": 82, "track": 6}, {"t": 0.75, "dur": 0.49792, "note": 75, "vel": 36, "track": 4}, {"t": 0.75, "dur": 0.49792, "note": 75, "vel": 73, "track": 0}, {"t": 1.0, "dur": 0.24792, "note": 56, "vel": 71, "track": 7}, {"t": 1.0, "dur": 0.24792, "note": 61, "vel": 96, "track": 8}, {"t": 1.0, "dur": 0.24792, "note": 73, "vel": 71, "track": 6}, {"t": 1.0, "dur": 0.24792, "note": 75, "vel": 78, "track": 2}, {"t": 1.0, "dur": 0.24792, "note": 75, "vel": 79, "track": 3}, {"t": 1.25, "dur": 0.24792, "note": 47, "vel": 68, "track": 7}, {"t": 1.25, "dur": 0.99792, "note": 47, "vel": 68, "track": 9}, {"t": 1.25, "dur": 0.49792, "note": 59, "vel": 72, "track": 8}, {"t": 1.25, "dur": 0.24792, "note": 66, "vel": 62, "track": 2}, {"t": 1.25, "dur": 0.49792, "note": 66, "vel": 60, "track": 3}, {"t": 1.25, "dur": 0.74792, "note": 71, "vel": 39, "track": 5}, {"t": 1.25, "dur": 0.24792, "note": 75, "vel": 79, "track": 6}, {"t": 1.25, "dur": 0.74792, "note": 75, "vel": 39, "track": 4}, {"t": 1.25, "dur": 0.74792, "note": 75, "vel": 73, "track": 0}, {"t": 1.5, "dur": 0.24792, "note": 54, "vel": 79, "track": 7}, {"t": 1.5, "dur": 0.24792, "note": 66, "vel": 57, "track": 6}, {"t": 1.5, "dur": 0.24792, "note": 71, "vel": 80, "track": 2}, {"t": 1.75, "dur": 0.49792, "note": 47, "vel": 63, "track": 8}, {"t": 1.75, "dur": 0.24792, "note": 63, "vel": 93, "track": 7}, {"t": 1.75, "dur": 0.24792, "note": 71, "vel": 84, "track": 6}, {"t": 1.75, "dur": 0.24792, "note": 75, "vel": 87, "track": 2}, {"t": 1.75, "dur": 0.49792, "note": 75, "vel": 91, "track": 3}, {"t": 2.0, "dur": 0.24792, "note": 59, "vel": 76, "track": 7}, {"t": 2.0, "dur": 0.24792, "note": 71, "vel": 71, "track": 2}, {"t": 2.0, "dur": 0.49792, "note": 71, "vel": 36, "track": 5}, {"t": 2.0, "dur": 0.24792, "note": 75, "vel": 85, "track": 6}, {"t": 2.0, "dur": 0.49792, "note": 75, "vel": 36, "track": 4}, {"t": 2.0, "dur": 0.49792, "note": 75, "vel": 77, "track": 0}, {"t": 2.25, "dur": 0.24792, "note": 54, "vel": 74, "track": 7}, {"t": 2.25, "dur": 0.24792, "note": 59, "vel": 82, "track": 8}, {"t": 2.25, "dur": 0.24792, "note": 71, "vel": 72, "track": 6}, {"t": 2.25, "dur": 0.24792, "note": 75, "vel": 80, "track": 3}, {"t": 2.25, "dur": 0.24792, "note": 75, "vel": 83, "track": 2}, {"t": 2.5, "dur": 0.24792, "note": 49, "vel": 70, "track": 7}, {"t": 2.5, "dur": 0.99792, "note": 49, "vel": 73, "track": 9}, {"t": 2.5, "dur": 0.49792, "note": 61, "vel": 82, "track": 8}, {"t": 2.5, "dur": 0.24792, "note": 68, "vel": 61, "track": 2}, {"t": 2.5, "dur": 0.49792, "note": 68, "vel": 62, "track": 3}, {"t": 2.5, "dur": 0.74792, "note": 73, "vel": 44, "track": 5}, {"t": 2.5, "dur": 0.24792, "note": 77, "vel": 89, "track": 6}, {"t": 2.5, "dur": 0.74792, "note": 77, "vel": 44, "track": 4}, {"t": 2.5, "dur": 0.74792, "note": 77, "vel": 83, "track": 0}, {"t": 2.75, "dur": 0.24792, "note": 56, "vel": 82, "track": 7}, {"t": 2.75, "dur": 0.24792, "note": 68, "vel": 64, "track": 6}, {"t": 2.75, "dur": 0.24792, "note": 73, "vel": 83, "track": 2}, {"t": 3.0, "dur": 0.49792, "note": 49, "vel": 67, "track": 8}, {"t": 3.0, "dur": 0.24792, "note": 65, "vel": 95, "track": 7}, {"t": 3.0, "dur": 0.24792, "note": 73, "vel": 83, "track": 6}, {"t": 3.0, "dur": 0.24792, "note": 75, "vel": 84, "track": 2}, {"t": 3.0, "dur": 0.49792, "note": 75, "vel": 89, "track": 3}, {"t": 3.25, "dur": 0.24792, "note": 61, "vel": 74, "track": 7}, {"t": 3.25, "dur": 0.24792, "note": 73, "vel": 71, "track": 2}, {"t": 3.25, "dur": 0.49792, "note": 73, "vel": 38, "track": 5}, {"t": 3.25, "dur": 0.24792, "note": 75, "vel": 74, "track": 0}, {"t": 3.25, "dur": 0.24792, "note": 75, "vel": 75, "track": 6}, {"t": 3.25, "dur": 0.49792, "note": 75, "vel": 38, "track": 4}, {"t": 3.5, "dur": 0.24792, "note": 56, "vel": 67, "track": 7}, {"t": 3.5, "dur": 0.24792, "note": 61, "vel": 94, "track": 8}, {"t": 3.5, "dur": 0.24792, "note": 73, "vel": 73, "track": 0}, {"t": 3.5, "dur": 0.24792, "note": 73, "vel": 74, "track": 6}, {"t": 3.5, "dur": 0.24792, "note": 77, "vel": 77, "track": 3}, {"t": 3.5, "dur": 0.24792, "note": 77, "vel": 86, "track": 2}, {"t": 3.75, "dur": 0.24792, "note": 51, "vel": 72, "track": 7}, {"t": 3.75, "dur": 0.99792, "note": 51, "vel": 66, "track": 9}, {"t": 3.75, "dur": 0.49792, "note": 63, "vel": 83, "track": 8}, {"t": 3.75, "dur": 0.24792, "note": 66, "vel": 56, "track": 2}, {"t": 3.75, "dur": 0.49792, "note": 66, "vel": 57, "track": 3}, {"t": 3.75, "dur": 0.74792, "note": 70, "vel": 42, "track": 5}, {"t": 3.75, "dur": 0.24792, "note": 75, "vel": 79, "track": 6}, {"t": 3.75, "dur": 0.74792, "note": 75, "vel": 42, "track": 4}, {"t": 3.75, "dur": 0.74792, "note": 75, "vel": 78, "track": 0}, {"t": 4.0, "dur": 0.24792, "note": 58, "vel": 79, "track": 7}, {"t": 4.0, "dur": 0.24792, "note": 66, "vel": 63, "track": 6}, {"t": 4.0, "dur": 0.24792, "note": 70, "vel": 81, "track": 2}, {"t": 4.25, "dur": 0.49792, "note": 51, "vel": 68, "track": 8}, {"t": 4.25, "dur": 0.24792, "note": 66, "vel": 93, "track": 7}, {"t": 4.25, "dur": 0.24792, "note": 70, "vel": 86, "track": 6}, {"t": 4.25, "dur": 0.24792, "note": 75, "vel": 85, "track": 2}, {"t": 4.25, "dur": 0.49792, "note": 75, "vel": 96, "track": 3}, {"t": 4.5, "dur": 0.24792, "note": 63, "vel": 69, "track": 7}, {"t": 4.5, "dur": 0.24792, "note": 70, "vel": 70, "track": 2}, {"t": 4.5, "dur": 0.49792, "note": 70, "vel": 40, "track": 5}, {"t": 4.5, "dur": 0.24792, "note": 75, "vel": 90, "track": 6}, {"t": 4.5, "dur": 0.49792, "note": 75, "vel": 40, "track": 4}, {"t": 4.5, "dur": 0.49792, "note": 75, "vel": 78, "track": 0}, {"t": 4.75, "dur": 0.24792, "note": 58, "vel": 71, "track": 7}, {"t": 4.75, "dur": 0.24792, "note": 63, "vel": 96, "track": 8}, {"t": 4.75, "dur": 0.24792, "note": 70, "vel": 68, "track": 6}, {"t": 4.75, "dur": 0.24792, "note": 75, "vel": 75, "track": 3}, {"t": 4.75, "dur": 0.24792, "note": 75, "vel": 90, "track": 2}]}, {"id": 10, "measures": "m12", "meter": [10, 16], "length_ticks": 1200, "length_beats": 2.5, "notes": [{"t": 0.0, "dur": 0.24792, "note": 49, "vel": 67, "track": 7}, {"t": 0.0, "dur": 0.99792, "note": 49, "vel": 72, "track": 9}, {"t": 0.0, "dur": 0.49792, "note": 61, "vel": 76, "track": 8}, {"t": 0.0, "dur": 0.24792, "note": 68, "vel": 64, "track": 2}, {"t": 0.0, "dur": 0.49792, "note": 68, "vel": 61, "track": 3}, {"t": 0.0, "dur": 0.74792, "note": 73, "vel": 39, "track": 5}, {"t": 0.0, "dur": 0.24792, "note": 77, "vel": 85, "track": 6}, {"t": 0.0, "dur": 0.74792, "note": 77, "vel": 39, "track": 4}, {"t": 0.0, "dur": 0.74792, "note": 77, "vel": 80, "track": 0}, {"t": 0.25, "dur": 0.24792, "note": 56, "vel": 77, "track": 7}, {"t": 0.25, "dur": 0.24792, "note": 68, "vel": 61, "track": 6}, {"t": 0.25, "dur": 0.24792, "note": 73, "vel": 85, "track": 2}, {"t": 0.5, "dur": 0.49792, "note": 49, "vel": 67, "track": 8}, {"t": 0.5, "dur": 0.24792, "note": 65, "vel": 92, "track": 7}, {"t": 0.5, "dur": 0.24792, "note": 73, "vel": 84, "track": 6}, {"t": 0.5, "dur": 0.24792, "note": 75, "vel": 84, "track": 2}, {"t": 0.5, "dur": 0.49792, "note": 75, "vel": 89, "track": 3}, {"t": 0.75, "dur": 0.24792, "note": 61, "vel": 69, "track": 7}, {"t": 0.75, "dur": 0.24792, "note": 73, "vel": 73, "track": 2}, {"t": 0.75, "dur": 0.49792, "note": 73, "vel": 39, "track": 5}, {"t": 0.75, "dur": 0.24792, "note": 75, "vel": 74, "track": 0}, {"t": 0.75, "dur": 0.24792, "note": 75, "vel": 86, "track": 6}, {"t": 0.75, "dur": 0.49792, "note": 75, "vel": 39, "track": 4}, {"t": 1.0, "dur": 0.24792, "note": 56, "vel": 70, "track": 7}, {"t": 1.0, "dur": 0.24792, "note": 61, "vel": 98, "track": 8}, {"t": 1.0, "dur": 0.24792, "note": 73, "vel": 66, "track": 0}, {"t": 1.0, "dur": 0.24792, "note": 73, "vel": 70, "track": 6}, {"t": 1.0, "dur": 0.24792, "note": 77, "vel": 80, "track": 2}, {"t": 1.0, "dur": 0.24792, "note": 77, "vel": 83, "track": 3}, {"t": 1.25, "dur": 0.24792, "note": 51, "vel": 70, "track": 7}, {"t": 1.25, "dur": 0.99792, "note": 51, "vel": 69, "track": 9}, {"t": 1.25, "dur": 0.49792, "note": 63, "vel": 83, "track": 8}, {"t": 1.25, "dur": 0.24792, "note": 66, "vel": 57, "track": 2}, {"t": 1.25, "dur": 0.49792, "note": 66, "vel": 56, "track": 3}, {"t": 1.25, "dur": 0.74792, "note": 70, "vel": 37, "track": 5}, {"t": 1.25, "dur": 0.24792, "note": 75, "vel": 79, "track": 6}, {"t": 1.25, "dur": 0.74792, "note": 75, "vel": 37, "track": 4}, {"t": 1.25, "dur": 0.74792, "note": 75, "vel": 77, "track": 0}, {"t": 1.5, "dur": 0.24792, "note": 58, "vel": 86, "track": 7}, {"t": 1.5, "dur": 0.24792, "note": 66, "vel": 59, "track": 6}, {"t": 1.5, "dur": 0.24792, "note": 70, "vel": 82, "track": 2}, {"t": 1.75, "dur": 0.49792, "note": 51, "vel": 69, "track": 8}, {"t": 1.75, "dur": 0.24792, "note": 66, "vel": 90, "track": 7}, {"t": 1.75, "dur": 0.24792, "note": 70, "vel": 85, "track": 6}, {"t": 1.75, "dur": 0.24792, "note": 75, "vel": 84, "track": 2}, {"t": 1.75, "dur": 0.49792, "note": 75, "vel": 90, "track": 3}, {"t": 2.0, "dur": 0.24792, "note": 63, "vel": 74, "track": 7}, {"t": 2.0, "dur": 0.24792, "note": 70, "vel": 63, "track": 2}, {"t": 2.0, "dur": 0.49792, "note": 70, "vel": 40, "track": 5}, {"t": 2.0, "dur": 0.24792, "note": 77, "vel": 94, "track": 6}, {"t": 2.0, "dur": 0.49792, "note": 77, "vel": 40, "track": 4}, {"t": 2.0, "dur": 0.49792, "note": 77, "vel": 84, "track": 0}, {"t": 2.25, "dur": 0.24792, "note": 58, "vel": 69, "track": 7}, {"t": 2.25, "dur": 0.24792, "note": 63, "vel": 97, "track": 8}, {"t": 2.25, "dur": 0.24792, "note": 70, "vel": 59, "track": 6}, {"t": 2.25, "dur": 0.24792, "note": 77, "vel": 83, "track": 3}, {"t": 2.25, "dur": 0.24792, "note": 77, "vel": 87, "track": 2}]}, {"id": 11, "measures": "m13-14", "meter": [10, 16], "length_ticks": 2400, "length_beats": 5.0, "notes": [{"t": 0.0, "dur": 0.24792, "note": 49, "vel": 67, "track": 7}, {"t": 0.0, "dur": 0.99792, "note": 49, "vel": 68, "track": 9}, {"t": 0.0, "dur": 0.49792, "note": 61, "vel": 73, "track": 8}, {"t": 0.0, "dur": 0.24792, "note": 68, "vel": 61, "track": 2}, {"t": 0.0, "dur": 0.49792, "note": 68, "vel": 60, "track": 3}, {"t": 0.0, "dur": 0.74792, "note": 73, "vel": 37, "track": 5}, {"t": 0.0, "dur": 0.24792, "note": 77, "vel": 88, "track": 6}, {"t": 0.0, "dur": 0.74792, "note": 77, "vel": 37, "track": 4}, {"t": 0.0, "dur": 0.74792, "note": 77, "vel": 71, "track": 0}, {"t": 0.25, "dur": 0.24792, "note": 56, "vel": 83, "track": 7}, {"t": 0.25, "dur": 0.24792, "note": 68, "vel": 64, "track": 6}, {"t": 0.25, "dur": 0.24792, "note": 73, "vel": 83, "track": 2}, {"t": 0.5, "dur": 0.49792, "note": 49, "vel": 65, "track": 8}, {"t": 0.5, "dur": 0.24792, "note": 65, "vel": 93, "track": 7}, {"t": 0.5, "dur": 0.24792, "note": 73, "vel": 83, "track": 6}, {"t": 0.5, "dur": 0.24792, "note": 77, "vel": 85, "track": 2}, {"t": 0.5, "dur": 0.49792, "note": 77, "vel": 91, "track": 3}, {"t": 0.75, "dur": 0.24792, "note": 61, "vel": 71, "track": 7}, {"t": 0.75, "dur": 0.24792, "note": 73, "vel": 68, "track": 2}, {"t": 0.75, "dur": 0.49792, "note": 73, "vel": 37, "track": 5}, {"t": 0.75, "dur": 0.24792, "note": 77, "vel": 84, "track": 6}, {"t": 0.75, "dur": 0.49792, "note": 77, "vel": 37, "track": 4}, {"t": 0.75, "dur": 0.49792, "note": 77, "vel": 78, "track": 0}, {"t": 1.0, "dur": 0.24792, "note": 56, "vel": 72, "track": 7}, {"t": 1.0, "dur": 0.24792, "note": 61, "vel": 98, "track": 8}, {"t": 1.0, "dur": 0.24792, "note": 73, "vel": 73, "track": 6}, {"t": 1.0, "dur": 0.24792, "note": 77, "vel": 79, "track": 3}, {"t": 1.0, "dur": 0.24792, "note": 77, "vel": 87, "track": 2}, {"t": 1.25, "dur": 0.24792, "note": 47, "vel": 67, "track": 7}, {"t": 1.25, "dur": 0.99792, "note": 47, "vel": 71, "track": 9}, {"t": 1.25, "dur": 0.49792, "note": 59, "vel": 78, "track": 8}, {"t": 1.25, "dur": 0.24792, "note": 66, "vel": 62, "track": 2}, {"t": 1.25, "dur": 0.49792, "note": 66, "vel": 55, "track": 3}, {"t": 1.25, "dur": 0.74792, "note": 71, "vel": 41, "track": 5}, {"t": 1.25, "dur": 0.24792, "note": 77, "vel": 80, "track": 6}, {"t": 1.25, "dur": 0.74792, "note": 77, "vel": 41, "track": 4}, {"t": 1.25, "dur": 0.74792, "note": 77, "vel": 73, "track": 0}, {"t": 1.5, "dur": 0.24792, "note": 54, "vel": 81, "track": 7}, {"t": 1.5, "dur": 0.24792, "note": 66, "vel": 62, "track": 6}, {"t": 1.5, "dur": 0.24792, "note": 71, "vel": 90, "track": 2}, {"t": 1.75, "dur": 0.49792, "note": 47, "vel": 70, "track": 8}, {"t": 1.75, "dur": 0.24792, "note": 66, "vel": 98, "track": 7}, {"t": 1.75, "dur": 0.24792, "note": 71, "vel": 86, "track": 6}, {"t": 1.75, "dur": 0.24792, "note": 77, "vel": 92, "track": 2}, {"t": 1.75, "dur": 0.49792, "note": 77, "vel": 95, "track": 3}, {"t": 2.0, "dur": 0.24792, "note": 59, "vel": 76, "track": 7}, {"t": 2.0, "dur": 0.24792, "note": 71, "vel": 63, "track": 2}, {"t": 2.0, "dur": 0.49792, "note": 71, "vel": 41, "track": 5}, {"t": 2.0, "dur": 0.24792, "note": 77, "vel": 87, "track": 6}, {"t": 2.0, "dur": 0.49792, "note": 77, "vel": 41, "track": 4}, {"t": 2.0, "dur": 0.49792, "note": 77, "vel": 76, "track": 0}, {"t": 2.25, "dur": 0.24792, "note": 54, "vel": 72, "track": 7}, {"t": 2.25, "dur": 0.24792, "note": 59, "vel": 89, "track": 8}, {"t": 2.25, "dur": 0.24792, "note": 71, "vel": 74, "track": 6}, {"t": 2.25, "dur": 0.24792, "note": 77, "vel": 77, "track": 3}, {"t": 2.25, "dur": 0.24792, "note": 77, "vel": 82, "track": 2}, {"t": 2.5, "dur": 0.24792, "note": 49, "vel": 68, "track": 7}, {"t": 2.5, "dur": 0.99792, "note": 49, "vel": 67, "track": 9}, {"t": 2.5, "dur": 0.49792, "note": 61, "vel": 82, "track": 8}, {"t": 2.5, "dur": 0.24792, "note": 68, "vel": 56, "track": 2}, {"t": 2.5, "dur": 0.49792, "note": 68, "vel": 59, "track": 3}, {"t": 2.5, "dur": 0.74792, "note": 73, "vel": 39, "track": 5}, {"t": 2.5, "dur": 0.24792, "note": 77, "vel": 88, "track": 6}, {"t": 2.5, "dur": 0.74792, "note": 77, "vel": 39, "track": 4}, {"t": 2.5, "dur": 0.74792, "note": 77, "vel": 77, "track": 0}, {"t": 2.75, "dur": 0.24792, "note": 56, "vel": 87, "track": 7}, {"t": 2.75, "dur": 0.24792, "note": 68, "vel": 57, "track": 6}, {"t": 2.75, "dur": 0.24792, "note": 73, "vel": 78, "track": 2}, {"t": 3.0, "dur": 0.49792, "note": 49, "vel": 64, "track": 8}, {"t": 3.0, "dur": 0.24792, "note": 65, "vel": 97, "track": 7}, {"t": 3.0, "dur": 0.24792, "note": 73, "vel": 83, "track": 6}, {"t": 3.0, "dur": 0.24792, "note": 77, "vel": 84, "track": 2}, {"t": 3.0, "dur": 0.49792, "note": 77, "vel": 89, "track": 3}, {"t": 3.25, "dur": 0.24792, "note": 61, "vel": 71, "track": 7}, {"t": 3.25, "dur": 0.24792, "note": 73, "vel": 73, "track": 2}, {"t": 3.25, "dur": 0.49792, "note": 73, "vel": 42, "track": 5}, {"t": 3.25, "dur": 0.24792, "note": 77, "vel": 88, "track": 6}, {"t": 3.25, "dur": 0.49792, "note": 77, "vel": 42, "track": 4}, {"t": 3.25, "dur": 0.49792, "note": 77, "vel": 74, "track": 0}, {"t": 3.5, "dur": 0.24792, "note": 56, "vel": 73, "track": 7}, {"t": 3.5, "dur": 0.24792, "note": 61, "vel": 92, "track": 8}, {"t": 3.5, "dur": 0.24792, "note": 73, "vel": 68, "track": 6}, {"t": 3.5, "dur": 0.24792, "note": 77, "vel": 79, "track": 3}, {"t": 3.5, "dur": 0.24792, "note": 77, "vel": 81, "track": 2}, {"t": 3.75, "dur": 0.24792, "note": 51, "vel": 71, "track": 7}, {"t": 3.75, "dur": 0.99792, "note": 51, "vel": 69, "track": 9}, {"t": 3.75, "dur": 0.49792, "note": 63, "vel": 86, "track": 8}, {"t": 3.75, "dur": 0.24792, "note": 66, "vel": 55, "track": 2}, {"t": 3.75, "dur": 0.49792, "note": 66, "vel": 53, "track": 3}, {"t": 3.75, "dur": 0.74792, "note": 70, "vel": 37, "track": 5}, {"t": 3.75, "dur": 0.24792, "note": 77, "vel": 81, "track": 6}, {"t": 3.75, "dur": 0.74792, "note": 77, "vel": 37, "track": 4}, {"t": 3.75, "dur": 0.74792, "note": 77, "vel": 76, "track": 0}, {"t": 4.0, "dur": 0.24792, "note": 58, "vel": 87, "track": 7}, {"t": 4.0, "dur": 0.24792, "note": 66, "vel": 59, "track": 6}, {"t": 4.0, "dur": 0.24792, "note": 70, "vel": 80, "track": 2}, {"t": 4.25, "dur": 0.49792, "note": 51, "vel": 67, "track": 8}, {"t": 4.25, "dur": 0.24792, "note": 66, "vel": 90, "track": 7}, {"t": 4.25, "dur": 0.24792, "note": 70, "vel": 78, "track": 6}, {"t": 4.25, "dur": 0.24792, "note": 77, "vel": 91, "track": 2}, {"t": 4.25, "dur": 0.49792, "note": 77, "vel": 89, "track": 3}, {"t": 4.5, "dur": 0.24792, "note": 63, "vel": 74, "track": 7}, {"t": 4.5, "dur": 0.24792, "note": 70, "vel": 67, "track": 2}, {"t": 4.5, "dur": 0.49792, "note": 70, "vel": 42, "track": 5}, {"t": 4.5, "dur": 0.24792, "note": 77, "vel": 88, "track": 6}, {"t": 4.5, "dur": 0.49792, "note": 77, "vel": 42, "track": 4}, {"t": 4.5, "dur": 0.49792, "note": 77, "vel": 73, "track": 0}, {"t": 4.75, "dur": 0.24792, "note": 58, "vel": 69, "track": 7}, {"t": 4.75, "dur": 0.24792, "note": 63, "vel": 95, "track": 8}, {"t": 4.75, "dur": 0.24792, "note": 70, "vel": 63, "track": 6}, {"t": 4.75, "dur": 0.24792, "note": 77, "vel": 81, "track": 3}, {"t": 4.75, "dur": 0.24792, "note": 77, "vel": 89, "track": 2}]}, {"id": 12, "measures": "m15", "meter": [10, 16], "length_ticks": 1200, "length_beats": 2.5, "notes": [{"t": 0.0, "dur": 0.24792, "note": 49, "vel": 68, "track": 7}, {"t": 0.0, "dur": 0.99792, "note": 49, "vel": 70, "track": 9}, {"t": 0.0, "dur": 0.49792, "note": 61, "vel": 77, "track": 8}, {"t": 0.0, "dur": 0.24792, "note": 68, "vel": 66, "track": 2}, {"t": 0.0, "dur": 0.49792, "note": 68, "vel": 60, "track": 3}, {"t": 0.0, "dur": 0.74792, "note": 73, "vel": 35, "track": 5}, {"t": 0.0, "dur": 0.24792, "note": 77, "vel": 85, "track": 6}, {"t": 0.0, "dur": 0.74792, "note": 77, "vel": 35, "track": 4}, {"t": 0.0, "dur": 0.74792, "note": 77, "vel": 73, "track": 0}, {"t": 0.25, "dur": 0.24792, "note": 56, "vel": 87, "track": 7}, {"t": 0.25, "dur": 0.24792, "note": 68, "vel": 61, "track": 6}, {"t": 0.25, "dur": 0.24792, "note": 73, "vel": 86, "track": 2}, {"t": 0.5, "dur": 0.49792, "note": 49, "vel": 68, "track": 8}, {"t": 0.5, "dur": 0.24792, "note": 65, "vel": 94, "track": 7}, {"t": 0.5, "dur": 0.24792, "note": 73, "vel": 83, "track": 6}, {"t": 0.5, "dur": 0.24792, "note": 77, "vel": 87, "track": 2}, {"t": 0.5, "dur": 0.49792, "note": 77, "vel": 93, "track": 3}, {"t": 0.75, "dur": 0.24792, "note": 61, "vel": 72, "track": 7}, {"t": 0.75, "dur": 0.24792, "note": 73, "vel": 67, "track": 2}, {"t": 0.75, "dur": 0.49792, "note": 73, "vel": 46, "track": 5}, {"t": 0.75, "dur": 0.24792, "note": 77, "vel": 87, "track": 6}, {"t": 0.75, "dur": 0.49792, "note": 77, "vel": 46, "track": 4}, {"t": 0.75, "dur": 0.49792, "note": 77, "vel": 73, "track": 0}, {"t": 1.0, "dur": 0.24792, "note": 56, "vel": 73, "track": 7}, {"t": 1.0, "dur": 0.24792, "note": 61, "vel": 94, "track": 8}, {"t": 1.0, "dur": 0.24792, "note": 73, "vel": 69, "track": 6}, {"t": 1.0, "dur": 0.24792, "note": 77, "vel": 74, "track": 3}, {"t": 1.0, "dur": 0.24792, "note": 77, "vel": 83, "track": 2}, {"t": 1.25, "dur": 0.24792, "note": 51, "vel": 71, "track": 7}, {"t": 1.25, "dur": 0.99792, "note": 51, "vel": 66, "track": 9}, {"t": 1.25, "dur": 0.49792, "note": 63, "vel": 86, "track": 8}, {"t": 1.25, "dur": 0.24792, "note": 66, "vel": 57, "track": 2}, {"t": 1.25, "dur": 0.49792, "note": 66, "vel": 54, "track": 3}, {"t": 1.25, "dur": 0.74792, "note": 70, "vel": 40, "track": 5}, {"t": 1.25, "dur": 0.24792, "note": 77, "vel": 87, "track": 6}, {"t": 1.25, "dur": 0.74792, "note": 77, "vel": 40, "track": 4}, {"t": 1.25, "dur": 0.74792, "note": 77, "vel": 75, "track": 0}, {"t": 1.5, "dur": 0.24792, "note": 58, "vel": 81, "track": 7}, {"t": 1.5, "dur": 0.24792, "note": 66, "vel": 58, "track": 6}, {"t": 1.5, "dur": 0.24792, "note": 70, "vel": 84, "track": 2}, {"t": 1.75, "dur": 0.49792, "note": 51, "vel": 67, "track": 8}, {"t": 1.75, "dur": 0.24792, "note": 66, "vel": 93, "track": 7}, {"t": 1.75, "dur": 0.24792, "note": 70, "vel": 84, "track": 6}, {"t": 1.75, "dur": 0.24792, "note": 77, "vel": 91, "track": 2}, {"t": 1.75, "dur": 0.49792, "note": 77, "vel": 96, "track": 3}, {"t": 2.0, "dur": 0.24792, "note": 63, "vel": 72, "track": 7}, {"t": 2.0, "dur": 0.24792, "note": 70, "vel": 64, "track": 2}, {"t": 2.0, "dur": 0.49792, "note": 70, "vel": 43, "track": 5}, {"t": 2.0, "dur": 0.24792, "note": 78, "vel": 91, "track": 6}, {"t": 2.0, "dur": 0.49792, "note": 78, "vel": 43, "track": 4}, {"t": 2.0, "dur": 0.49792, "note": 78, "vel": 85, "track": 0}, {"t": 2.25, "dur": 0.24792, "note": 58, "vel": 72, "track": 7}, {"t": 2.25, "dur": 0.24792, "note": 63, "vel": 94, "track": 8}, {"t": 2.25, "dur": 0.24792, "note": 70, "vel": 66, "track": 6}, {"t": 2.25, "dur": 0.24792, "note": 78, "vel": 83, "track": 3}, {"t": 2.25, "dur": 0.24792, "note": 78, "vel": 88, "track": 2}]}, {"id": 13, "measures": "m16-17", "meter": [10, 16], "length_ticks": 2400, "length_beats": 5.0, "notes": [{"t": 0.0, "dur": 0.24792, "note": 49, "vel": 72, "track": 7}, {"t": 0.0, "dur": 0.99792, "note": 49, "vel": 66, "track": 9}, {"t": 0.0, "dur": 0.49792, "note": 61, "vel": 73, "track": 8}, {"t": 0.0, "dur": 0.24792, "note": 68, "vel": 58, "track": 2}, {"t": 0.0, "dur": 0.49792, "note": 68, "vel": 58, "track": 3}, {"t": 0.0, "dur": 0.74792, "note": 73, "vel": 40, "track": 5}, {"t": 0.0, "dur": 0.24792, "note": 78, "vel": 93, "track": 6}, {"t": 0.0, "dur": 0.74792, "note": 78, "vel": 40, "track": 4}, {"t": 0.0, "dur": 0.74792, "note": 78, "vel": 79, "track": 0}, {"t": 0.25, "dur": 0.24792, "note": 56, "vel": 85, "track": 7}, {"t": 0.25, "dur": 0.24792, "note": 68, "vel": 60, "track": 6}, {"t": 0.25, "dur": 0.24792, "note": 73, "vel": 84, "track": 2}, {"t": 0.5, "dur": 0.49792, "note": 49, "vel": 69, "track": 8}, {"t": 0.5, "dur": 0.24792, "note": 65, "vel": 91, "track": 7}, {"t": 0.5, "dur": 0.24792, "note": 73, "vel": 85, "track": 6}, {"t": 0.5, "dur": 0.24792, "note": 78, "vel": 88, "track": 2}, {"t": 0.5, "dur": 0.49792, "note": 78, "vel": 89, "track": 3}, {"t": 0.75, "dur": 0.24792, "note": 61, "vel": 68, "track": 7}, {"t": 0.75, "dur": 0.24792, "note": 73, "vel": 68, "track": 2}, {"t": 0.75, "dur": 0.49792, "note": 73, "vel": 41, "track": 5}, {"t": 0.75, "dur": 0.24792, "note": 78, "vel": 88, "track": 6}, {"t": 0.75, "dur": 0.49792, "note": 78, "vel": 41, "track": 4}, {"t": 0.75, "dur": 0.49792, "note": 78, "vel": 77, "track": 0}, {"t": 1.0, "dur": 0.24792, "note": 56, "vel": 72, "track": 7}, {"t": 1.0, "dur": 0.24792, "note": 61, "vel": 97, "track": 8}, {"t": 1.0, "dur": 0.24792, "note": 73, "vel": 71, "track": 6}, {"t": 1.0, "dur": 0.24792, "note": 78, "vel": 82, "track": 3}, {"t": 1.0, "dur": 0.24792, "note": 78, "vel": 84, "track": 2}, {"t": 1.25, "dur": 0.24792, "note": 51, "vel": 70, "track": 7}, {"t": 1.25, "dur": 0.99792, "note": 51, "vel": 71, "track": 9}, {"t": 1.25, "dur": 0.49792, "note": 63, "vel": 84, "track": 8}, {"t": 1.25, "dur": 0.24792, "note": 70, "vel": 59, "track": 2}, {"t": 1.25, "dur": 0.49792, "note": 70, "vel": 64, "track": 3}, {"t": 1.25, "dur": 0.74792, "note": 75, "vel": 40, "track": 5}, {"t": 1.25, "dur": 0.24792, "note": 78, "vel": 89, "track": 6}, {"t": 1.25, "dur": 0.74792, "note": 78, "vel": 40, "track": 4}, {"t": 1.25, "dur": 0.74792, "note": 78, "vel": 73, "track": 0}, {"t": 1.5, "dur": 0.24792, "note": 58, "vel": 83, "track": 7}, {"t": 1.5, "dur": 0.24792, "note": 70, "vel": 59, "track": 6}, {"t": 1.5, "dur": 0.24792, "note": 75, "vel": 83, "track": 2}, {"t": 1.75, "dur": 0.49792, "note": 51, "vel": 64, "track": 8}, {"t": 1.75, "dur": 0.24792, "note": 66, "vel": 88, "track": 7}, {"t": 1.75, "dur": 0.24792, "note": 75, "vel": 88, "track": 6}, {"t": 1.75, "dur": 0.24792, "note": 78, "vel": 87, "track": 2}, {"t": 1.75, "dur": 0.49792, "note": 78, "vel": 92, "track": 3}, {"t": 2.0, "dur": 0.24792, "note": 63, "vel": 70, "track": 7}, {"t": 2.0, "dur": 0.24792, "note": 75, "vel": 72, "track": 2}, {"t": 2.0, "dur": 0.49792, "note": 75, "vel": 36, "track": 5}, {"t": 2.0, "dur": 0.24792, "note": 78, "vel": 81, "track": 6}, {"t": 2.0, "dur": 0.49792, "note": 78, "vel": 36, "track": 4}, {"t": 2.0, "dur": 0.49792, "note": 78, "vel": 77, "track": 0}, {"t": 2.25, "dur": 0.24792, "note": 58, "vel": 67, "track": 7}, {"t": 2.25, "dur": 0.24792, "note": 63, "vel": 94, "track": 8}, {"t": 2.25, "dur": 0.24792, "note": 75, "vel": 70, "track": 6}, {"t": 2.25, "dur": 0.24792, "note": 78, "vel": 75, "track": 3}, {"t": 2.25, "dur": 0.24792, "note": 78, "vel": 82, "track": 2}, {"t": 2.5, "dur": 0.24792, "note": 53, "vel": 69, "track": 7}, {"t": 2.5, "dur": 0.99792, "note": 53, "vel": 69, "track": 9}, {"t": 2.5, "dur": 0.49792, "note": 65, "vel": 86, "track": 8}, {"t": 2.5, "dur": 0.24792, "note": 71, "vel": 62, "track": 2}, {"t": 2.5, "dur": 0.49792, "note": 71, "vel": 66, "track": 3}, {"t": 2.5, "dur": 0.74792, "note": 77, "vel": 36, "track": 5}, {"t": 2.5, "dur": 0.24792, "note": 78, "vel": 84, "track": 6}, {"t": 2.5, "dur": 0.74792, "note": 78, "vel": 36, "track": 4}, {"t": 2.5, "dur": 0.74792, "note": 78, "vel": 76, "track": 0}, {"t": 2.75, "dur": 0.24792, "note": 59, "vel": 87, "track": 7}, {"t": 2.75, "dur": 0.24792, "note": 71, "vel": 61, "track": 6}, {"t": 2.75, "dur": 0.24792, "note": 75, "vel": 84, "track": 2}, {"t": 3.0, "dur": 0.49792, "note": 53, "vel": 66, "track": 8}, {"t": 3.0, "dur": 0.24792, "note": 68, "vel": 92, "track": 7}, {"t": 3.0, "dur": 0.24792, "note": 75, "vel": 80, "track": 6}, {"t": 3.0, "dur": 0.24792, "note": 78, "vel": 82, "track": 2}, {"t": 3.0, "dur": 0.49792, "note": 78, "vel": 88, "track": 3}, {"t": 3.25, "dur": 0.24792, "note": 63, "vel": 68, "track": 7}, {"t": 3.25, "dur": 0.24792, "note": 77, "vel": 75, "track": 2}, {"t": 3.25, "dur": 0.49792, "note": 77, "vel": 36, "track": 5}, {"t": 3.25, "dur": 0.24792, "note": 78, "vel": 82, "track": 6}, {"t": 3.25, "dur": 0.49792, "note": 78, "vel": 36, "track": 4}, {"t": 3.25, "dur": 0.49792, "note": 78, "vel": 79, "track": 0}, {"t": 3.5, "dur": 0.24792, "note": 59, "vel": 73, "track": 7}, {"t": 3.5, "dur": 0.24792, "note": 65, "vel": 93, "track": 8}, {"t": 3.5, "dur": 0.24792, "note": 77, "vel": 75, "track": 6}, {"t": 3.5, "dur": 0.24792, "note": 78, "vel": 76, "track": 3}, {"t": 3.5, "dur": 0.24792, "note": 78, "vel": 80, "track": 2}, {"t": 3.75, "dur": 0.24792, "note": 51, "vel": 72, "track": 7}, {"t": 3.75, "dur": 0.99792, "note": 51, "vel": 67, "track": 9}, {"t": 3.75, "dur": 0.49792, "note": 63, "vel": 71, "track": 8}, {"t": 3.75, "dur": 0.24792, "note": 70, "vel": 61, "track": 2}, {"t": 3.75, "dur": 0.49792, "note": 70, "vel": 61, "track": 3}, {"t": 3.75, "dur": 0.74792, "note": 75, "vel": 38, "track": 5}, {"t": 3.75, "dur": 0.24792, "note": 78, "vel": 74, "track": 6}, {"t": 3.75, "dur": 0.74792, "note": 78, "vel": 38, "track": 4}, {"t": 3.75, "dur": 0.74792, "note": 78, "vel": 74, "track": 0}, {"t": 4.0, "dur": 0.24792, "note": 58, "vel": 82, "track": 7}, {"t": 4.0, "dur": 0.24792, "note": 70, "vel": 63, "track": 6}, {"t": 4.0, "dur": 0.24792, "note": 75, "vel": 83, "track": 2}, {"t": 4.25, "dur": 0.49792, "note": 51, "vel": 63, "track": 8}, {"t": 4.25, "dur": 0.24792, "note": 66, "vel": 94, "track": 7}, {"t": 4.25, "dur": 0.24792, "note": 75, "vel": 82, "track": 6}, {"t": 4.25, "dur": 0.24792, "note": 78, "vel": 83, "track": 2}, {"t": 4.25, "dur": 0.49792, "note": 78, "vel": 88, "track": 3}, {"t": 4.5, "dur": 0.24792, "note": 63, "vel": 70, "track": 7}, {"t": 4.5, "dur": 0.24792, "note": 75, "vel": 69, "track": 2}, {"t": 4.5, "dur": 0.49792, "note": 75, "vel": 40, "track": 5}, {"t": 4.5, "dur": 0.24792, "note": 78, "vel": 90, "track": 6}, {"t": 4.5, "dur": 0.49792, "note": 78, "vel": 40, "track": 4}, {"t": 4.5, "dur": 0.49792, "note": 78, "vel": 77, "track": 0}, {"t": 4.75, "dur": 0.24792, "note": 58, "vel": 71, "track": 7}, {"t": 4.75, "dur": 0.24792, "note": 63, "vel": 89, "track": 8}, {"t": 4.75, "dur": 0.24792, "note": 75, "vel": 70, "track": 6}, {"t": 4.75, "dur": 0.24792, "note": 78, "vel": 74, "track": 3}, {"t": 4.75, "dur": 0.24792, "note": 78, "vel": 82, "track": 2}]}, {"id": 14, "measures": "m18", "meter": [10, 16], "length_ticks": 1200, "length_beats": 2.5, "notes": [{"t": 0.0, "dur": 0.24792, "note": 53, "vel": 70, "track": 7}, {"t": 0.0, "dur": 0.99792, "note": 53, "vel": 63, "track": 9}, {"t": 0.0, "dur": 0.49792, "note": 65, "vel": 90, "track": 8}, {"t": 0.0, "dur": 0.24792, "note": 71, "vel": 67, "track": 2}, {"t": 0.0, "dur": 0.49792, "note": 71, "vel": 65, "track": 3}, {"t": 0.0, "dur": 0.74792, "note": 77, "vel": 37, "track": 5}, {"t": 0.0, "dur": 0.24792, "note": 78, "vel": 82, "track": 6}, {"t": 0.0, "dur": 0.74792, "note": 78, "vel": 37, "track": 4}, {"t": 0.0, "dur": 0.74792, "note": 78, "vel": 77, "track": 0}, {"t": 0.25, "dur": 0.24792, "note": 59, "vel": 82, "track": 7}, {"t": 0.25, "dur": 0.24792, "note": 71, "vel": 60, "track": 6}, {"t": 0.25, "dur": 0.24792, "note": 75, "vel": 86, "track": 2}, {"t": 0.5, "dur": 0.49792, "note": 53, "vel": 65, "track": 8}, {"t": 0.5, "dur": 0.24792, "note": 68, "vel": 95, "track": 7}, {"t": 0.5, "dur": 0.24792, "note": 75, "vel": 83, "track": 6}, {"t": 0.5, "dur": 0.24792, "note": 78, "vel": 85, "track": 2}, {"t": 0.5, "dur": 0.49792, "note": 78, "vel": 90, "track": 3}, {"t": 0.75, "dur": 0.24792, "note": 63, "vel": 69, "track": 7}, {"t": 0.75, "dur": 0.24792, "note": 77, "vel": 75, "track": 2}, {"t": 0.75, "dur": 0.49792, "note": 77, "vel": 39, "track": 5}, {"t": 0.75, "dur": 0.24792, "note": 78, "vel": 84, "track": 6}, {"t": 0.75, "dur": 0.49792, "note": 78, "vel": 39, "track": 4}, {"t": 0.75, "dur": 0.49792, "note": 78, "vel": 76, "track": 0}, {"t": 1.0, "dur": 0.24792, "note": 59, "vel": 71, "track": 7}, {"t": 1.0, "dur": 0.24792, "note": 65, "vel": 97, "track": 8}, {"t": 1.0, "dur": 0.24792, "note": 77, "vel": 75, "track": 6}, {"t": 1.0, "dur": 0.24792, "note": 78, "vel": 79, "track": 2}, {"t": 1.0, "dur": 0.24792, "note": 78, "vel": 79, "track": 3}, {"t": 1.25, "dur": 0.24792, "note": 51, "vel": 65, "track": 7}, {"t": 1.25, "dur": 0.99792, "note": 51, "vel": 68, "track": 9}, {"t": 1.25, "dur": 0.49792, "note": 63, "vel": 74, "track": 8}, {"t": 1.25, "dur": 0.24792, "note": 70, "vel": 59, "track": 2}, {"t": 1.25, "dur": 0.49792, "note": 70, "vel": 60, "track": 3}, {"t": 1.25, "dur": 0.74792, "note": 75, "vel": 35, "track": 5}, {"t": 1.25, "dur": 0.24792, "note": 78, "vel": 81, "track": 6}, {"t": 1.25, "dur": 0.74792, "note": 78, "vel": 35, "track": 4}, {"t": 1.25, "dur": 0.74792, "note": 78, "vel": 76, "track": 0}, {"t": 1.5, "dur": 0.24792, "note": 58, "vel": 85, "track": 7}, {"t": 1.5, "dur": 0.24792, "note": 70, "vel": 63, "track": 6}, {"t": 1.5, "dur": 0.24792, "note": 75, "vel": 83, "track": 2}, {"t": 1.75, "dur": 0.49792, "note": 51, "vel": 65, "track": 8}, {"t": 1.75, "dur": 0.24792, "note": 66, "vel": 88, "track": 7}, {"t": 1.75, "dur": 0.24792, "note": 75, "vel": 79, "track": 6}, {"t": 1.75, "dur": 0.24792, "note": 78, "vel": 81, "track": 2}, {"t": 1.75, "dur": 0.49792, "note": 78, "vel": 90, "track": 3}, {"t": 2.0, "dur": 0.24792, "note": 63, "vel": 77, "track": 7}, {"t": 2.0, "dur": 0.24792, "note": 75, "vel": 71, "track": 2}, {"t": 2.0, "dur": 0.49792, "note": 75, "vel": 41, "track": 5}, {"t": 2.0, "dur": 0.24792, "note": 80, "vel": 89, "track": 6}, {"t": 2.0, "dur": 0.49792, "note": 80, "vel": 41, "track": 4}, {"t": 2.0, "dur": 0.49792, "note": 80, "vel": 83, "track": 0}, {"t": 2.25, "dur": 0.24792, "note": 58, "vel": 70, "track": 7}, {"t": 2.25, "dur": 0.24792, "note": 63, "vel": 92, "track": 8}, {"t": 2.25, "dur": 0.24792, "note": 75, "vel": 65, "track": 6}, {"t": 2.25, "dur": 0.24792, "note": 80, "vel": 82, "track": 2}, {"t": 2.25, "dur": 0.24792, "note": 80, "vel": 83, "track": 3}]}, {"id": 15, "measures": "m19-20", "meter": [10, 16], "length_ticks": 2400, "length_beats": 5.0, "notes": [{"t": 0.0, "dur": 0.24792, "note": 49, "vel": 67, "track": 7}, {"t": 0.0, "dur": 0.99792, "note": 49, "vel": 70, "track": 9}, {"t": 0.0, "dur": 0.49792, "note": 61, "vel": 74, "track": 8}, {"t": 0.0, "dur": 0.24792, "note": 68, "vel": 57, "track": 2}, {"t": 0.0, "dur": 0.49792, "note": 68, "vel": 54, "track": 3}, {"t": 0.0, "dur": 0.74792, "note": 73, "vel": 36, "track": 5}, {"t": 0.0, "dur": 0.24792, "note": 80, "vel": 87, "track": 6}, {"t": 0.0, "dur": 0.74792, "note": 80, "vel": 36, "track": 4}, {"t": 0.0, "dur": 0.74792, "note": 80, "vel": 77, "track": 0}, {"t": 0.25, "dur": 0.24792, "note": 56, "vel": 84, "track": 7}, {"t": 0.25, "dur": 0.24792, "note": 68, "vel": 53, "track": 6}, {"t": 0.25, "dur": 0.24792, "note": 73, "vel": 83, "track": 2}, {"t": 0.5, "dur": 0.49792, "note": 49, "vel": 63, "track": 8}, {"t": 0.5, "dur": 0.24792, "note": 65, "vel": 94, "track": 7}, {"t": 0.5, "dur": 0.24792, "note": 73, "vel": 82, "track": 6}, {"t": 0.5, "dur": 0.24792, "note": 80, "vel": 92, "track": 2}, {"t": 0.5, "dur": 0.49792, "note": 80, "vel": 96, "track": 3}, {"t": 0.75, "dur": 0.24792, "note": 61, "vel": 69, "track": 7}, {"t": 0.75, "dur": 0.24792, "note": 73, "vel": 66, "track": 2}, {"t": 0.75, "dur": 0.49792, "note": 73, "vel": 38, "track": 5}, {"t": 0.75, "dur": 0.24792, "note": 80, "vel": 88, "track": 6}, {"t": 0.75, "dur": 0.49792, "note": 80, "vel": 38, "track": 4}, {"t": 0.75, "dur": 0.49792, "note": 80, "vel": 78, "track": 0}, {"t": 1.0, "dur": 0.24792, "note": 56, "vel": 71, "track": 7}, {"t": 1.0, "dur": 0.24792, "note": 61, "vel": 97, "track": 8}, {"t": 1.0, "dur": 0.24792, "note": 73, "vel": 65, "track": 6}, {"t": 1.0, "dur": 0.24792, "note": 80, "vel": 81, "track": 3}, {"t": 1.0, "dur": 0.24792, "note": 80, "vel": 86, "track": 2}, {"t": 1.25, "dur": 0.24792, "note": 51, "vel": 72, "track": 7}, {"t": 1.25, "dur": 0.99792, "note": 51, "vel": 70, "track": 9}, {"t": 1.25, "dur": 0.49792, "note": 63, "vel": 83, "track": 8}, {"t": 1.25, "dur": 0.24792, "note": 70, "vel": 56, "track": 2}, {"t": 1.25, "dur": 0.49792, "note": 70, "vel": 61, "track": 3}, {"t": 1.25, "dur": 0.74792, "note": 75, "vel": 37, "track": 5}, {"t": 1.25, "dur": 0.24792, "note": 80, "vel": 89, "track": 6}, {"t": 1.25, "dur": 0.74792, "note": 80, "vel": 37, "track": 4}, {"t": 1.25, "dur": 0.74792, "note": 80, "vel": 72, "track": 0}, {"t": 1.5, "dur": 0.24792, "note": 58, "vel": 77, "track": 7}, {"t": 1.5, "dur": 0.24792, "note": 70, "vel": 65, "track": 6}, {"t": 1.5, "dur": 0.24792, "note": 75, "vel": 81, "track": 2}, {"t": 1.75, "dur": 0.49792, "note": 51, "vel": 69, "track": 8}, {"t": 1.75, "dur": 0.24792, "note": 66, "vel": 96, "track": 7}, {"t": 1.75, "dur": 0.24792, "note": 75, "vel": 89, "track": 6}, {"t": 1.75, "dur": 0.24792, "note": 80, "vel": 84, "track": 2}, {"t": 1.75, "dur": 0.49792, "note": 80, "vel": 93, "track": 3}, {"t": 2.0, "dur": 0.24792, "note": 63, "vel": 74, "track": 7}, {"t": 2.0, "dur": 0.24792, "note": 75, "vel": 67, "track": 2}, {"t": 2.0, "dur": 0.49792, "note": 75, "vel": 44, "track": 5}, {"t": 2.0, "dur": 0.24792, "note": 80, "vel": 89, "track": 6}, {"t": 2.0, "dur": 0.49792, "note": 80, "vel": 44, "track": 4}, {"t": 2.0, "dur": 0.49792, "note": 80, "vel": 70, "track": 0}, {"t": 2.25, "dur": 0.24792, "note": 58, "vel": 73, "track": 7}, {"t": 2.25, "dur": 0.24792, "note": 63, "vel": 97, "track": 8}, {"t": 2.25, "dur": 0.24792, "note": 75, "vel": 66, "track": 6}, {"t": 2.25, "dur": 0.24792, "note": 80, "vel": 77, "track": 3}, {"t": 2.25, "dur": 0.24792, "note": 80, "vel": 87, "track": 2}, {"t": 2.5, "dur": 0.24792, "note": 53, "vel": 72, "track": 7}, {"t": 2.5, "dur": 0.99792, "note": 53, "vel": 69, "track": 9}, {"t": 2.5, "dur": 0.49792, "note": 65, "vel": 83, "track": 8}, {"t": 2.5, "dur": 0.24792, "note": 71, "vel": 61, "track": 2}, {"t": 2.5, "dur": 0.49792, "note": 71, "vel": 64, "track": 3}, {"t": 2.5, "dur": 0.74792, "note": 77, "vel": 41, "track": 5}, {"t": 2.5, "dur": 0.24792, "note": 80, "vel": 82, "track": 6}, {"t": 2.5, "dur": 0.74792, "note": 80, "vel": 41, "track": 4}, {"t": 2.5, "dur": 0.74792, "note": 80, "vel": 73, "track": 0}, {"t": 2.75, "dur": 0.24792, "note": 59, "vel": 80, "track": 7}, {"t": 2.75, "dur": 0.24792, "note": 71, "vel": 64, "track": 6}, {"t": 2.75, "dur": 0.24792, "note": 75, "vel": 86, "track": 2}, {"t": 3.0, "dur": 0.49792, "note": 53, "vel": 68, "track": 8}, {"t": 3.0, "dur": 0.24792, "note": 68, "vel": 95, "track": 7}, {"t": 3.0, "dur": 0.24792, "note": 75, "vel": 85, "track": 6}, {"t": 3.0, "dur": 0.24792, "note": 80, "vel": 87, "track": 2}, {"t": 3.0, "dur": 0.49792, "note": 80, "vel": 88, "track": 3}, {"t": 3.25, "dur": 0.24792, "note": 63, "vel": 68, "track": 7}, {"t": 3.25, "dur": 0.24792, "note": 78, "vel": 72, "track": 2}, {"t": 3.25, "dur": 0.49792, "note": 78, "vel": 34, "track": 5}, {"t": 3.25, "dur": 0.24792, "note": 80, "vel": 80, "track": 0}, {"t": 3.25, "dur": 0.24792, "note": 80, "vel": 88, "track": 6}, {"t": 3.25, "dur": 0.49792, "note": 80, "vel": 34, "track": 4}, {"t": 3.5, "dur": 0.24792, "note": 59, "vel": 69, "track": 7}, {"t": 3.5, "dur": 0.24792, "note": 65, "vel": 98, "track": 8}, {"t": 3.5, "dur": 0.24792, "note": 78, "vel": 67, "track": 0}, {"t": 3.5, "dur": 0.24792, "note": 78, "vel": 73, "track": 6}, {"t": 3.5, "dur": 0.24792, "note": 80, "vel": 81, "track": 3}, {"t": 3.5, "dur": 0.24792, "note": 80, "vel": 82, "track": 2}, {"t": 3.75, "dur": 0.24792, "note": 51, "vel": 72, "track": 7}, {"t": 3.75, "dur": 0.99792, "note": 51, "vel": 70, "track": 9}, {"t": 3.75, "dur": 0.49792, "note": 63, "vel": 72, "track": 8}, {"t": 3.75, "dur": 0.24792, "note": 70, "vel": 60, "track": 2}, {"t": 3.75, "dur": 0.49792, "note": 70, "vel": 60, "track": 3}, {"t": 3.75, "dur": 0.74792, "note": 75, "vel": 41, "track": 5}, {"t": 3.75, "dur": 0.24792, "note": 80, "vel": 77, "track": 6}, {"t": 3.75, "dur": 0.74792, "note": 80, "vel": 41, "track": 4}, {"t": 3.75, "dur": 0.74792, "note": 80, "vel": 80, "track": 0}, {"t": 4.0, "dur": 0.24792, "note": 58, "vel": 78, "track": 7}, {"t": 4.0, "dur": 0.24792, "note": 70, "vel": 56, "track": 6}, {"t": 4.0, "dur": 0.24792, "note": 75, "vel": 83, "track": 2}, {"t": 4.25, "dur": 0.49792, "note": 51, "vel": 62, "track": 8}, {"t": 4.25, "dur": 0.24792, "note": 66, "vel": 96, "track": 7}, {"t": 4.25, "dur": 0.24792, "note": 75, "vel": 85, "track": 6}, {"t": 4.25, "dur": 0.24792, "note": 80, "vel": 87, "track": 2}, {"t": 4.25, "dur": 0.49792, "note": 80, "vel": 90, "track": 3}, {"t": 4.5, "dur": 0.24792, "note": 63, "vel": 72, "track": 7}, {"t": 4.5, "dur": 0.24792, "note": 75, "vel": 70, "track": 2}, {"t": 4.5, "dur": 0.49792, "note": 75, "vel": 36, "track": 5}, {"t": 4.5, "dur": 0.24792, "note": 80, "vel": 89, "track": 6}, {"t": 4.5, "dur": 0.49792, "note": 80, "vel": 36, "track": 4}, {"t": 4.5, "dur": 0.49792, "note": 80, "vel": 77, "track": 0}, {"t": 4.75, "dur": 0.24792, "note": 58, "vel": 73, "track": 7}, {"t": 4.75, "dur": 0.24792, "note": 63, "vel": 95, "track": 8}, {"t": 4.75, "dur": 0.24792, "note": 75, "vel": 68, "track": 6}, {"t": 4.75, "dur": 0.24792, "note": 80, "vel": 77, "track": 3}, {"t": 4.75, "dur": 0.24792, "note": 80, "vel": 87, "track": 2}]}, {"id": 16, "measures": "m21", "meter": [10, 16], "length_ticks": 1200, "length_beats": 2.5, "notes": [{"t": 0.0, "dur": 0.24792, "note": 53, "vel": 70, "track": 7}, {"t": 0.0, "dur": 0.99792, "note": 53, "vel": 67, "track": 9}, {"t": 0.0, "dur": 0.49792, "note": 65, "vel": 84, "track": 8}, {"t": 0.0, "dur": 0.24792, "note": 71, "vel": 63, "track": 2}, {"t": 0.0, "dur": 0.49792, "note": 71, "vel": 60, "track": 3}, {"t": 0.0, "dur": 0.74792, "note": 77, "vel": 38, "track": 5}, {"t": 0.0, "dur": 0.24792, "note": 80, "vel": 85, "track": 6}, {"t": 0.0, "dur": 0.74792, "note": 80, "vel": 38, "track": 4}, {"t": 0.0, "dur": 0.74792, "note": 80, "vel": 75, "track": 0}, {"t": 0.25, "dur": 0.24792, "note": 59, "vel": 82, "track": 7}, {"t": 0.25, "dur": 0.24792, "note": 71, "vel": 62, "track": 6}, {"t": 0.25, "dur": 0.24792, "note": 75, "vel": 85, "track": 2}, {"t": 0.5, "dur": 0.49792, "note": 53, "vel": 64, "track": 8}, {"t": 0.5, "dur": 0.24792, "note": 68, "vel": 98, "track": 7}, {"t": 0.5, "dur": 0.24792, "note": 75, "vel": 79, "track": 6}, {"t": 0.5, "dur": 0.24792, "note": 80, "vel": 84, "track": 2}, {"t": 0.5, "dur": 0.24792, "note": 80, "vel": 88, "track": 3}, {"t": 0.75, "dur": 0.24792, "note": 63, "vel": 68, "track": 7}, {"t": 0.75, "dur": 0.24792, "note": 78, "vel": 67, "track": 2}, {"t": 0.75, "dur": 0.24792, "note": 78, "vel": 74, "track": 3}, {"t": 0.75, "dur": 0.49792, "note": 78, "vel": 38, "track": 5}, {"t": 0.75, "dur": 0.24792, "note": 80, "vel": 81, "track": 0}, {"t": 0.75, "dur": 0.24792, "note": 80, "vel": 88, "track": 6}, {"t": 0.75, "dur": 0.49792, "note": 80, "vel": 38, "track": 4}, {"t": 1.0, "dur": 0.24792, "note": 59, "vel": 73, "track": 7}, {"t": 1.0, "dur": 0.24792, "note": 65, "vel": 97, "track": 8}, {"t": 1.0, "dur": 0.24792, "note": 78, "vel": 73, "track": 0}, {"t": 1.0, "dur": 0.24792, "note": 78, "vel": 73, "track": 6}, {"t": 1.0, "dur": 0.24792, "note": 80, "vel": 79, "track": 3}, {"t": 1.0, "dur": 0.24792, "note": 80, "vel": 80, "track": 2}, {"t": 1.25, "dur": 0.24792, "note": 51, "vel": 68, "track": 7}, {"t": 1.25, "dur": 0.99792, "note": 51, "vel": 66, "track": 9}, {"t": 1.25, "dur": 0.49792, "note": 63, "vel": 76, "track": 8}, {"t": 1.25, "dur": 0.24792, "note": 70, "vel": 57, "track": 2}, {"t": 1.25, "dur": 0.49792, "note": 70, "vel": 59, "track": 3}, {"t": 1.25, "dur": 0.74792, "note": 75, "vel": 40, "track": 5}, {"t": 1.25, "dur": 0.24792, "note": 80, "vel": 78, "track": 6}, {"t": 1.25, "dur": 0.74792, "note": 80, "vel": 40, "track": 4}, {"t": 1.25, "dur": 0.74792, "note": 80, "vel": 81, "track": 0}, {"t": 1.5, "dur": 0.24792, "note": 58, "vel": 78, "track": 7}, {"t": 1.5, "dur": 0.24792, "note": 70, "vel": 58, "track": 6}, {"t": 1.5, "dur": 0.24792, "note": 75, "vel": 78, "track": 2}, {"t": 1.75, "dur": 0.49792, "note": 51, "vel": 63, "track": 8}, {"t": 1.75, "dur": 0.24792, "note": 66, "vel": 94, "track": 7}, {"t": 1.75, "dur": 0.24792, "note": 75, "vel": 84, "track": 6}, {"t": 1.75, "dur": 0.24792, "note": 80, "vel": 87, "track": 2}, {"t": 1.75, "dur": 0.49792, "note": 80, "vel": 91, "track": 3}, {"t": 2.0, "dur": 0.24792, "note": 63, "vel": 73, "track": 7}, {"t": 2.0, "dur": 0.24792, "note": 75, "vel": 68, "track": 2}, {"t": 2.0, "dur": 0.49792, "note": 75, "vel": 43, "track": 5}, {"t": 2.0, "dur": 0.24792, "note": 82, "vel": 88, "track": 6}, {"t": 2.0, "dur": 0.49792, "note": 82, "vel": 43, "track": 4}, {"t": 2.0, "dur": 0.49792, "note": 82, "vel": 85, "track": 0}, {"t": 2.25, "dur": 0.24792, "note": 58, "vel": 71, "track": 7}, {"t": 2.25, "dur": 0.24792, "note": 63, "vel": 95, "track": 8}, {"t": 2.25, "dur": 0.24792, "note": 75, "vel": 68, "track": 6}, {"t": 2.25, "dur": 0.24792, "note": 82, "vel": 85, "track": 3}, {"t": 2.25, "dur": 0.24792, "note": 82, "vel": 94, "track": 2}]}, {"id": 17, "measures": "m22-23", "meter": [10, 16], "length_ticks": 2400, "length_beats": 5.0, "notes": [{"t": 0.0, "dur": 0.24792, "note": 53, "vel": 69, "track": 7}, {"t": 0.0, "dur": 0.99792, "note": 53, "vel": 64, "track": 9}, {"t": 0.0, "dur": 0.49792, "note": 65, "vel": 83, "track": 8}, {"t": 0.0, "dur": 0.24792, "note": 71, "vel": 60, "track": 2}, {"t": 0.0, "dur": 0.49792, "note": 71, "vel": 53, "track": 3}, {"t": 0.0, "dur": 0.74792, "note": 77, "vel": 39, "track": 5}, {"t": 0.0, "dur": 0.24792, "note": 82, "vel": 91, "track": 6}, {"t": 0.0, "dur": 0.74792, "note": 82, "vel": 39, "track": 4}, {"t": 0.0, "dur": 0.74792, "note": 82, "vel": 77, "track": 0}, {"t": 0.25, "dur": 0.24792, "note": 59, "vel": 81, "track": 7}, {"t": 0.25, "dur": 0.24792, "note": 71, "vel": 57, "track": 6}, {"t": 0.25, "dur": 0.24792, "note": 75, "vel": 86, "track": 2}, {"t": 0.5, "dur": 0.49792, "note": 53, "vel": 66, "track": 8}, {"t": 0.5, "dur": 0.24792, "note": 68, "vel": 94, "track": 7}, {"t": 0.5, "dur": 0.24792, "note": 75, "vel": 82, "track": 6}, {"t": 0.5, "dur": 0.24792, "note": 82, "vel": 83, "track": 2}, {"t": 0.5, "dur": 0.24792, "note": 82, "vel": 93, "track": 3}, {"t": 0.75, "dur": 0.24792, "note": 63, "vel": 70, "track": 7}, {"t": 0.75, "dur": 0.24792, "note": 75, "vel": 62, "track": 2}, {"t": 0.75, "dur": 0.24792, "note": 75, "vel": 62, "track": 3}, {"t": 0.75, "dur": 0.49792, "note": 77, "vel": 42, "track": 5}, {"t": 0.75, "dur": 0.24792, "note": 82, "vel": 91, "track": 6}, {"t": 0.75, "dur": 0.49792, "note": 82, "vel": 42, "track": 4}, {"t": 0.75, "dur": 0.49792, "note": 82, "vel": 78, "track": 0}, {"t": 1.0, "dur": 0.24792, "note": 59, "vel": 68, "track": 7}, {"t": 1.0, "dur": 0.24792, "note": 65, "vel": 97, "track": 8}, {"t": 1.0, "dur": 0.24792, "note": 75, "vel": 63, "track": 6}, {"t": 1.0, "dur": 0.24792, "note": 82, "vel": 87, "track": 3}, {"t": 1.0, "dur": 0.24792, "note": 82, "vel": 96, "track": 2}, {"t": 1.25, "dur": 0.24792, "note": 54, "vel": 70, "track": 7}, {"t": 1.25, "dur": 0.99792, "note": 54, "vel": 70, "track": 9}, {"t": 1.25, "dur": 0.49792, "note": 66, "vel": 82, "track": 8}, {"t": 1.25, "dur": 0.24792, "note": 73, "vel": 64, "track": 2}, {"t": 1.25, "dur": 0.49792, "note": 73, "vel": 65, "track": 3}, {"t": 1.25, "dur": 0.74792, "note": 78, "vel": 43, "track": 5}, {"t": 1.25, "dur": 0.24792, "note": 82, "vel": 88, "track": 6}, {"t": 1.25, "dur": 0.74792, "note": 82, "vel": 43, "track": 4}, {"t": 1.25, "dur": 0.74792, "note": 82, "vel": 76, "track": 0}, {"t": 1.5, "dur": 0.24792, "note": 61, "vel": 96, "track": 7}, {"t": 1.5, "dur": 0.24792, "note": 73, "vel": 62, "track": 6}, {"t": 1.5, "dur": 0.24792, "note": 78, "vel": 87, "track": 2}, {"t": 1.75, "dur": 0.49792, "note": 54, "vel": 70, "track": 8}, {"t": 1.75, "dur": 0.24792, "note": 70, "vel": 98, "track": 7}, {"t": 1.75, "dur": 0.24792, "note": 78, "vel": 83, "track": 6}, {"t": 1.75, "dur": 0.24792, "note": 82, "vel": 86, "track": 2}, {"t": 1.75, "dur": 0.49792, "note": 82, "vel": 88, "track": 3}, {"t": 2.0, "dur": 0.24792, "note": 66, "vel": 70, "track": 7}, {"t": 2.0, "dur": 0.24792, "note": 78, "vel": 70, "track": 2}, {"t": 2.0, "dur": 0.49792, "note": 78, "vel": 44, "track": 5}, {"t": 2.0, "dur": 0.24792, "note": 82, "vel": 87, "track": 6}, {"t": 2.0, "dur": 0.49792, "note": 82, "vel": 44, "track": 4}, {"t": 2.0, "dur": 0.49792, "note": 82, "vel": 78, "track": 0}, {"t": 2.25, "dur": 0.24792, "note": 58, "vel": 68, "track": 7}, {"t": 2.25, "dur": 0.24792, "note": 66, "vel": 94, "track": 8}, {"t": 2.25, "dur": 0.24792, "note": 78, "vel": 67, "track": 6}, {"t": 2.25, "dur": 0.24792, "note": 82, "vel": 77, "track": 3}, {"t": 2.25, "dur": 0.24792, "note": 82, "vel": 83, "track": 2}, {"t": 2.5, "dur": 0.24792, "note": 53, "vel": 67, "track": 7}, {"t": 2.5, "dur": 0.99792, "note": 53, "vel": 67, "track": 9}, {"t": 2.5, "dur": 0.49792, "note": 65, "vel": 77, "track": 8}, {"t": 2.5, "dur": 0.24792, "note": 71, "vel": 54, "track": 2}, {"t": 2.5, "dur": 0.49792, "note": 71, "vel": 55, "track": 3}, {"t": 2.5, "dur": 0.74792, "note": 77, "vel": 37, "track": 5}, {"t": 2.5, "dur": 0.24792, "note": 82, "vel": 83, "track": 6}, {"t": 2.5, "dur": 0.74792, "note": 82, "vel": 37, "track": 4}, {"t": 2.5, "dur": 0.74792, "note": 82, "vel": 76, "track": 0}, {"t": 2.75, "dur": 0.24792, "note": 59, "vel": 79, "track": 7}, {"t": 2.75, "dur": 0.24792, "note": 71, "vel": 60, "track": 6}, {"t": 2.75, "dur": 0.24792, "note": 75, "vel": 81, "track": 2}, {"t": 3.0, "dur": 0.49792, "note": 53, "vel": 64, "track": 8}, {"t": 3.0, "dur": 0.24792, "note": 68, "vel": 94, "track": 7}, {"t": 3.0, "dur": 0.24792, "note": 75, "vel": 79, "track": 6}, {"t": 3.0, "dur": 0.24792, "note": 82, "vel": 94, "track": 2}, {"t": 3.0, "dur": 0.24792, "note": 82, "vel": 95, "track": 3}, {"t": 3.25, "dur": 0.24792, "note": 63, "vel": 67, "track": 7}, {"t": 3.25, "dur": 0.49792, "note": 77, "vel": 38, "track": 5}, {"t": 3.25, "dur": 0.24792, "note": 80, "vel": 72, "track": 2}, {"t": 3.25, "dur": 0.24792, "note": 80, "vel": 75, "track": 3}, {"t": 3.25, "dur": 0.24792, "note": 82, "vel": 78, "track": 0}, {"t": 3.25, "dur": 0.24792, "note": 82, "vel": 94, "track": 6}, {"t": 3.25, "dur": 0.49792, "note": 82, "vel": 38, "track": 4}, {"t": 3.5, "dur": 0.24792, "note": 59, "vel": 69, "track": 7}, {"t": 3.5, "dur": 0.24792, "note": 65, "vel": 95, "track": 8}, {"t": 3.5, "dur": 0.24792, "note": 80, "vel": 67, "track": 0}, {"t": 3.5, "dur": 0.24792, "note": 80, "vel": 75, "track": 6}, {"t": 3.5, "dur": 0.24792, "note": 82, "vel": 85, "track": 2}, {"t": 3.5, "dur": 0.24792, "note": 82, "vel": 86, "track": 3}, {"t": 3.75, "dur": 0.24792, "note": 51, "vel": 66, "track": 7}, {"t": 3.75, "dur": 0.99792, "note": 51, "vel": 69, "track": 9}, {"t": 3.75, "dur": 0.49792, "note": 63, "vel": 76, "track": 8}, {"t": 3.75, "dur": 0.24792, "note": 70, "vel": 56, "track": 2}, {"t": 3.75, "dur": 0.49792, "note": 70, "vel": 56, "track": 3}, {"t": 3.75, "dur": 0.74792, "note": 75, "vel": 43, "track": 5}, {"t": 3.75, "dur": 0.24792, "note": 82, "vel": 82, "track": 6}, {"t": 3.75, "dur": 0.74792, "note": 82, "vel": 43, "track": 4}, {"t": 3.75, "dur": 0.74792, "note": 82, "vel": 76, "track": 0}, {"t": 4.0, "dur": 0.24792, "note": 58, "vel": 87, "track": 7}, {"t": 4.0, "dur": 0.24792, "note": 70, "vel": 50, "track": 6}, {"t": 4.0, "dur": 0.24792, "note": 75, "vel": 84, "track": 2}, {"t": 4.25, "dur": 0.49792, "note": 51, "vel": 65, "track": 8}, {"t": 4.25, "dur": 0.24792, "note": 66, "vel": 94, "track": 7}, {"t": 4.25, "dur": 0.24792, "note": 75, "vel": 84, "track": 6}, {"t": 4.25, "dur": 0.24792, "note": 82, "vel": 91, "track": 2}, {"t": 4.25, "dur": 0.49792, "note": 82, "vel": 94, "track": 3}, {"t": 4.5, "dur": 0.24792, "note": 63, "vel": 72, "track": 7}, {"t": 4.5, "dur": 0.24792, "note": 75, "vel": 64, "track": 2}, {"t": 4.5, "dur": 0.49792, "note": 75, "vel": 40, "track": 5}, {"t": 4.5, "dur": 0.24792, "note": 82, "vel": 89, "track": 6}, {"t": 4.5, "dur": 0.49792, "note": 82, "vel": 40, "track": 4}, {"t": 4.5, "dur": 0.49792, "note": 82, "vel": 77, "track": 0}, {"t": 4.75, "dur": 0.24792, "note": 58, "vel": 67, "track": 7}, {"t": 4.75, "dur": 0.24792, "note": 63, "vel": 96, "track": 8}, {"t": 4.75, "dur": 0.24792, "note": 75, "vel": 65, "track": 6}, {"t": 4.75, "dur": 0.24792, "note": 82, "vel": 84, "track": 3}, {"t": 4.75, "dur": 0.24792, "note": 82, "vel": 89, "track": 2}]}, {"id": 18, "measures": "m24", "meter": [10, 16], "length_ticks": 1200, "length_beats": 2.5, "notes": [{"t": 0.0, "dur": 0.24792, "note": 53, "vel": 70, "track": 7}, {"t": 0.0, "dur": 0.99792, "note": 53, "vel": 70, "track": 9}, {"t": 0.0, "dur": 0.49792, "note": 65, "vel": 85, "track": 8}, {"t": 0.0, "dur": 0.24792, "note": 71, "vel": 58, "track": 2}, {"t": 0.0, "dur": 0.49792, "note": 71, "vel": 55, "track": 3}, {"t": 0.0, "dur": 0.74792, "note": 77, "vel": 39, "track": 5}, {"t": 0.0, "dur": 0.24792, "note": 82, "vel": 84, "track": 6}, {"t": 0.0, "dur": 0.74792, "note": 82, "vel": 39, "track": 4}, {"t": 0.0, "dur": 0.74792, "note": 82, "vel": 74, "track": 0}, {"t": 0.25, "dur": 0.24792, "note": 59, "vel": 81, "track": 7}, {"t": 0.25, "dur": 0.24792, "note": 71, "vel": 59, "track": 6}, {"t": 0.25, "dur": 0.24792, "note": 75, "vel": 80, "track": 2}, {"t": 0.5, "dur": 0.49792, "note": 53, "vel": 68, "track": 8}, {"t": 0.5, "dur": 0.24792, "note": 68, "vel": 92, "track": 7}, {"t": 0.5, "dur": 0.24792, "note": 75, "vel": 84, "track": 6}, {"t": 0.5, "dur": 0.24792, "note": 82, "vel": 92, "track": 3}, {"t": 0.5, "dur": 0.24792, "note": 82, "vel": 93, "track": 2}, {"t": 0.75, "dur": 0.24792, "note": 63, "vel": 68, "track": 7}, {"t": 0.75, "dur": 0.24792, "note": 75, "vel": 63, "track": 3}, {"t": 0.75, "dur": 0.24792, "note": 75, "vel": 65, "track": 2}, {"t": 0.75, "dur": 0.49792, "note": 77, "vel": 39, "track": 5}, {"t": 0.75, "dur": 0.24792, "note": 82, "vel": 95, "track": 6}, {"t": 0.75, "dur": 0.49792, "note": 82, "vel": 39, "track": 4}, {"t": 0.75, "dur": 0.49792, "note": 82, "vel": 80, "track": 0}, {"t": 1.0, "dur": 0.24792, "note": 59, "vel": 74, "track": 7}, {"t": 1.0, "dur": 0.24792, "note": 65, "vel": 97, "track": 8}, {"t": 1.0, "dur": 0.24792, "note": 75, "vel": 65, "track": 6}, {"t": 1.0, "dur": 0.24792, "note": 82, "vel": 89, "track": 2}, {"t": 1.0, "dur": 0.24792, "note": 82, "vel": 91, "track": 3}, {"t": 1.25, "dur": 0.24792, "note": 54, "vel": 75, "track": 7}, {"t": 1.25, "dur": 0.99792, "note": 54, "vel": 70, "track": 9}, {"t": 1.25, "dur": 0.49792, "note": 66, "vel": 81, "track": 8}, {"t": 1.25, "dur": 0.24792, "note": 73, "vel": 60, "track": 2}, {"t": 1.25, "dur": 0.49792, "note": 73, "vel": 58, "track": 3}, {"t": 1.25, "dur": 0.74792, "note": 78, "vel": 43, "track": 5}, {"t": 1.25, "dur": 0.24792, "note": 82, "vel": 89, "track": 6}, {"t": 1.25, "dur": 0.74792, "note": 82, "vel": 43, "track": 4}, {"t": 1.25, "dur": 0.74792, "note": 82, "vel": 75, "track": 0}, {"t": 1.5, "dur": 0.24792, "note": 61, "vel": 90, "track": 7}, {"t": 1.5, "dur": 0.24792, "note": 73, "vel": 63, "track": 6}, {"t": 1.5, "dur": 0.24792, "note": 78, "vel": 81, "track": 2}, {"t": 1.75, "dur": 0.49792, "note": 54, "vel": 67, "track": 8}, {"t": 1.75, "dur": 0.24792, "note": 70, "vel": 98, "track": 7}, {"t": 1.75, "dur": 0.24792, "note": 78, "vel": 82, "track": 6}, {"t": 1.75, "dur": 0.24792, "note": 82, "vel": 88, "track": 2}, {"t": 1.75, "dur": 0.49792, "note": 82, "vel": 88, "track": 3}, {"t": 2.0, "dur": 0.24792, "note": 66, "vel": 68, "track": 7}, {"t": 2.0, "dur": 0.24792, "note": 78, "vel": 72, "track": 2}, {"t": 2.0, "dur": 0.49792, "note": 78, "vel": 41, "track": 5}, {"t": 2.0, "dur": 0.24792, "note": 82, "vel": 90, "track": 6}, {"t": 2.0, "dur": 0.49792, "note": 82, "vel": 41, "track": 4}, {"t": 2.0, "dur": 0.49792, "note": 82, "vel": 72, "track": 0}, {"t": 2.25, "dur": 0.24792, "note": 61, "vel": 65, "track": 7}, {"t": 2.25, "dur": 0.24792, "note": 66, "vel": 96, "track": 8}, {"t": 2.25, "dur": 0.24792, "note": 78, "vel": 70, "track": 6}, {"t": 2.25, "dur": 0.24792, "note": 82, "vel": 79, "track": 3}, {"t": 2.25, "dur": 0.24792, "note": 82, "vel": 85, "track": 2}]}, {"id": 19, "measures": "m25-26", "meter": [10, 16], "length_ticks": 2400, "length_beats": 5.0, "notes": [{"t": 0.0, "dur": 0.24792, "note": 56, "vel": 70, "track": 7}, {"t": 0.0, "dur": 0.99792, "note": 56, "vel": 70, "track": 9}, {"t": 0.0, "dur": 0.49792, "note": 68, "vel": 89, "track": 8}, {"t": 0.0, "dur": 0.24792, "note": 75, "vel": 63, "track": 2}, {"t": 0.0, "dur": 0.49792, "note": 75, "vel": 59, "track": 3}, {"t": 0.0, "dur": 0.74792, "note": 80, "vel": 44, "track": 5}, {"t": 0.0, "dur": 0.24792, "note": 84, "vel": 81, "track": 6}, {"t": 0.0, "dur": 0.74792, "note": 84, "vel": 44, "track": 4}, {"t": 0.0, "dur": 0.74792, "note": 84, "vel": 83, "track": 0}, {"t": 0.25, "dur": 0.24792, "note": 63, "vel": 90, "track": 7}, {"t": 0.25, "dur": 0.24792, "note": 75, "vel": 60, "track": 6}, {"t": 0.25, "dur": 0.24792, "note": 80, "vel": 83, "track": 2}, {"t": 0.5, "dur": 0.49792, "note": 56, "vel": 69, "track": 8}, {"t": 0.5, "dur": 0.24792, "note": 72, "vel": 95, "track": 7}, {"t": 0.5, "dur": 0.24792, "note": 78, "vel": 80, "track": 6}, {"t": 0.5, "dur": 0.24792, "note": 84, "vel": 85, "track": 2}, {"t": 0.5, "dur": 0.49792, "note": 84, "vel": 87, "track": 3}, {"t": 0.75, "dur": 0.24792, "note": 68, "vel": 66, "track": 7}, {"t": 0.75, "dur": 0.24792, "note": 78, "vel": 69, "track": 2}, {"t": 0.75, "dur": 0.49792, "note": 80, "vel": 37, "track": 5}, {"t": 0.75, "dur": 0.24792, "note": 82, "vel": 72, "track": 0}, {"t": 0.75, "dur": 0.24792, "note": 82, "vel": 84, "track": 6}, {"t": 0.75, "dur": 0.49792, "note": 82, "vel": 37, "track": 4}, {"t": 1.0, "dur": 0.24792, "note": 63, "vel": 65, "track": 7}, {"t": 1.0, "dur": 0.24792, "note": 68, "vel": 91, "track": 8}, {"t": 1.0, "dur": 0.24792, "note": 80, "vel": 72, "track": 0}, {"t": 1.0, "dur": 0.24792, "note": 80, "vel": 75, "track": 6}, {"t": 1.0, "dur": 0.24792, "note": 82, "vel": 75, "track": 3}, {"t": 1.0, "dur": 0.24792, "note": 82, "vel": 85, "track": 2}, {"t": 1.25, "dur": 0.24792, "note": 58, "vel": 72, "track": 7}, {"t": 1.25, "dur": 0.99792, "note": 58, "vel": 70, "track": 9}, {"t": 1.25, "dur": 0.49792, "note": 70, "vel": 87, "track": 8}, {"t": 1.25, "dur": 0.24792, "note": 73, "vel": 60, "track": 2}, {"t": 1.25, "dur": 0.49792, "note": 73, "vel": 64, "track": 3}, {"t": 1.25, "dur": 0.74792, "note": 77, "vel": 39, "track": 5}, {"t": 1.25, "dur": 0.24792, "note": 82, "vel": 81, "track": 6}, {"t": 1.25, "dur": 0.74792, "note": 82, "vel": 39, "track": 4}, {"t": 1.25, "dur": 0.74792, "note": 82, "vel": 80, "track": 0}, {"t": 1.5, "dur": 0.24792, "note": 65, "vel": 88, "track": 7}, {"t": 1.5, "dur": 0.24792, "note": 73, "vel": 59, "track": 6}, {"t": 1.5, "dur": 0.24792, "note": 77, "vel": 83, "track": 2}, {"t": 1.75, "dur": 0.49792, "note": 58, "vel": 65, "track": 8}, {"t": 1.75, "dur": 0.24792, "note": 73, "vel": 96, "track": 7}, {"t": 1.75, "dur": 0.24792, "note": 77, "vel": 80, "track": 6}, {"t": 1.75, "dur": 0.24792, "note": 82, "vel": 86, "track": 2}, {"t": 1.75, "dur": 0.49792, "note": 82, "vel": 92, "track": 3}, {"t": 2.0, "dur": 0.24792, "note": 70, "vel": 78, "track": 7}, {"t": 2.0, "dur": 0.24792, "note": 77, "vel": 71, "track": 2}, {"t": 2.0, "dur": 0.49792, "note": 77, "vel": 41, "track": 5}, {"t": 2.0, "dur": 0.24792, "note": 82, "vel": 88, "track": 6}, {"t": 2.0, "dur": 0.49792, "note": 82, "vel": 41, "track": 4}, {"t": 2.0, "dur": 0.49792, "note": 82, "vel": 78, "track": 0}, {"t": 2.25, "dur": 0.24792, "note": 65, "vel": 66, "track": 7}, {"t": 2.25, "dur": 0.24792, "note": 70, "vel": 91, "track": 8}, {"t": 2.25, "dur": 0.24792, "note": 77, "vel": 66, "track": 6}, {"t": 2.25, "dur": 0.24792, "note": 82, "vel": 80, "track": 3}, {"t": 2.25, "dur": 0.24792, "note": 82, "vel": 88, "track": 2}, {"t": 2.5, "dur": 0.24792, "note": 56, "vel": 62, "track": 7}, {"t": 2.5, "dur": 0.99792, "note": 56, "vel": 71, "track": 9}, {"t": 2.5, "dur": 0.49792, "note": 68, "vel": 75, "track": 8}, {"t": 2.5, "dur": 0.24792, "note": 75, "vel": 64, "track": 2}, {"t": 2.5, "dur": 0.49792, "note": 75, "vel": 65, "track": 3}, {"t": 2.5, "dur": 0.74792, "note": 80, "vel": 44, "track": 5}, {"t": 2.5, "dur": 0.24792, "note": 82, "vel": 83, "track": 6}, {"t": 2.5, "dur": 0.74792, "note": 82, "vel": 44, "track": 4}, {"t": 2.5, "dur": 0.74792, "note": 82, "vel": 80, "track": 0}, {"t": 2.75, "dur": 0.24792, "note": 63, "vel": 89, "track": 7}, {"t": 2.75, "dur": 0.24792, "note": 75, "vel": 68, "track": 6}, {"t": 2.75, "dur": 0.24792, "note": 80, "vel": 88, "track": 2}, {"t": 3.0, "dur": 0.49792, "note": 56, "vel": 64, "track": 8}, {"t": 3.0, "dur": 0.24792, "note": 72, "vel": 98, "track": 7}, {"t": 3.0, "dur": 0.24792, "note": 80, "vel": 86, "track": 6}, {"t": 3.0, "dur": 0.24792, "note": 82, "vel": 84, "track": 2}, {"t": 3.0, "dur": 0.24792, "note": 82, "vel": 90, "track": 3}, {"t": 3.25, "dur": 0.24792, "note": 68, "vel": 70, "track": 7}, {"t": 3.25, "dur": 0.24792, "note": 80, "vel": 68, "track": 2}, {"t": 3.25, "dur": 0.24792, "note": 80, "vel": 74, "track": 3}, {"t": 3.25, "dur": 0.49792, "note": 80, "vel": 42, "track": 5}, {"t": 3.25, "dur": 0.24792, "note": 82, "vel": 75, "track": 0}, {"t": 3.25, "dur": 0.24792, "note": 82, "vel": 78, "track": 6}, {"t": 3.25, "dur": 0.49792, "note": 82, "vel": 42, "track": 4}, {"t": 3.5, "dur": 0.24792, "note": 63, "vel": 68, "track": 7}, {"t": 3.5, "dur": 0.24792, "note": 68, "vel": 96, "track": 8}, {"t": 3.5, "dur": 0.24792, "note": 80, "vel": 69, "track": 0}, {"t": 3.5, "dur": 0.24792, "note": 80, "vel": 71, "track": 6}, {"t": 3.5, "dur": 0.24792, "note": 82, "vel": 76, "track": 2}, {"t": 3.5, "dur": 0.24792, "note": 82, "vel": 79, "track": 3}, {"t": 3.75, "dur": 0.24792, "note": 54, "vel": 64, "track": 7}, {"t": 3.75, "dur": 0.99792, "note": 54, "vel": 67, "track": 9}, {"t": 3.75, "dur": 0.49792, "note": 66, "vel": 74, "track": 8}, {"t": 3.75, "dur": 0.24792, "note": 73, "vel": 60, "track": 2}, {"t": 3.75, "dur": 0.49792, "note": 73, "vel": 64, "track": 3}, {"t": 3.75, "dur": 0.74792, "note": 78, "vel": 38, "track": 5}, {"t": 3.75, "dur": 0.24792, "note": 82, "vel": 79, "track": 6}, {"t": 3.75, "dur": 0.74792, "note": 82, "vel": 38, "track": 4}, {"t": 3.75, "dur": 0.74792, "note": 82, "vel": 79, "track": 0}, {"t": 4.0, "dur": 0.24792, "note": 61, "vel": 85, "track": 7}, {"t": 4.0, "dur": 0.24792, "note": 73, "vel": 60, "track": 6}, {"t": 4.0, "dur": 0.24792, "note": 78, "vel": 87, "track": 2}, {"t": 4.25, "dur": 0.49792, "note": 54, "vel": 66, "track": 8}, {"t": 4.25, "dur": 0.24792, "note": 70, "vel": 94, "track": 7}, {"t": 4.25, "dur": 0.24792, "note": 78, "vel": 83, "track": 6}, {"t": 4.25, "dur": 0.24792, "note": 82, "vel": 84, "track": 2}, {"t": 4.25, "dur": 0.49792, "note": 82, "vel": 89, "track": 3}, {"t": 4.5, "dur": 0.24792, "note": 66, "vel": 73, "track": 7}, {"t": 4.5, "dur": 0.24792, "note": 78, "vel": 72, "track": 2}, {"t": 4.5, "dur": 0.49792, "note": 78, "vel": 41, "track": 5}, {"t": 4.5, "dur": 0.24792, "note": 82, "vel": 86, "track": 6}, {"t": 4.5, "dur": 0.49792, "note": 82, "vel": 41, "track": 4}, {"t": 4.5, "dur": 0.49792, "note": 82, "vel": 78, "track": 0}, {"t": 4.75, "dur": 0.24792, "note": 61, "vel": 66, "track": 7}, {"t": 4.75, "dur": 0.24792, "note": 66, "vel": 101, "track": 8}, {"t": 4.75, "dur": 0.24792, "note": 78, "vel": 73, "track": 6}, {"t": 4.75, "dur": 0.24792, "note": 82, "vel": 77, "track": 3}, {"t": 4.75, "dur": 0.24792, "note": 82, "vel": 84, "track": 2}]}, {"id": 20, "measures": "m27", "meter": [10, 16], "length_ticks": 1200, "length_beats": 2.5, "notes": [{"t": 0.0, "dur": 0.24792, "note": 56, "vel": 71, "track": 7}, {"t": 0.0, "dur": 0.99792, "note": 56, "vel": 68, "track": 9}, {"t": 0.0, "dur": 0.49792, "note": 68, "vel": 86, "track": 8}, {"t": 0.0, "dur": 0.24792, "note": 75, "vel": 64, "track": 2}, {"t": 0.0, "dur": 0.49792, "note": 75, "vel": 65, "track": 3}, {"t": 0.0, "dur": 0.74792, "note": 80, "vel": 40, "track": 5}, {"t": 0.0, "dur": 0.24792, "note": 84, "vel": 88, "track": 6}, {"t": 0.0, "dur": 0.74792, "note": 84, "vel": 40, "track": 4}, {"t": 0.0, "dur": 0.74792, "note": 84, "vel": 82, "track": 0}, {"t": 0.25, "dur": 0.24792, "note": 63, "vel": 88, "track": 7}, {"t": 0.25, "dur": 0.24792, "note": 75, "vel": 65, "track": 6}, {"t": 0.25, "dur": 0.24792, "note": 80, "vel": 86, "track": 2}, {"t": 0.5, "dur": 0.49792, "note": 56, "vel": 68, "track": 8}, {"t": 0.5, "dur": 0.24792, "note": 72, "vel": 95, "track": 7}, {"t": 0.5, "dur": 0.24792, "note": 80, "vel": 85, "track": 6}, {"t": 0.5, "dur": 0.24792, "note": 84, "vel": 85, "track": 2}, {"t": 0.5, "dur": 0.49792, "note": 84, "vel": 89, "track": 3}, {"t": 0.75, "dur": 0.24792, "note": 68, "vel": 68, "track": 7}, {"t": 0.75, "dur": 0.24792, "note": 80, "vel": 70, "track": 2}, {"t": 0.75, "dur": 0.49792, "note": 80, "vel": 39, "track": 5}, {"t": 0.75, "dur": 0.24792, "note": 82, "vel": 68, "track": 0}, {"t": 0.75, "dur": 0.24792, "note": 82, "vel": 82, "track": 6}, {"t": 0.75, "dur": 0.49792, "note": 82, "vel": 39, "track": 4}, {"t": 1.0, "dur": 0.24792, "note": 63, "vel": 64, "track": 7}, {"t": 1.0, "dur": 0.24792, "note": 68, "vel": 98, "track": 8}, {"t": 1.0, "dur": 0.24792, "note": 80, "vel": 72, "track": 6}, {"t": 1.0, "dur": 0.24792, "note": 80, "vel": 73, "track": 0}, {"t": 1.0, "dur": 0.24792, "note": 82, "vel": 76, "track": 2}, {"t": 1.0, "dur": 0.24792, "note": 82, "vel": 77, "track": 3}, {"t": 1.25, "dur": 0.24792, "note": 58, "vel": 66, "track": 7}, {"t": 1.25, "dur": 0.99792, "note": 58, "vel": 69, "track": 9}, {"t": 1.25, "dur": 0.49792, "note": 70, "vel": 90, "track": 8}, {"t": 1.25, "dur": 0.24792, "note": 73, "vel": 62, "track": 2}, {"t": 1.25, "dur": 0.49792, "note": 73, "vel": 62, "track": 3}, {"t": 1.25, "dur": 0.74792, "note": 77, "vel": 35, "track": 5}, {"t": 1.25, "dur": 0.24792, "note": 82, "vel": 80, "track": 6}, {"t": 1.25, "dur": 0.74792, "note": 82, "vel": 35, "track": 4}, {"t": 1.25, "dur": 0.74792, "note": 82, "vel": 82, "track": 0}, {"t": 1.5, "dur": 0.24792, "note": 65, "vel": 90, "track": 7}, {"t": 1.5, "dur": 0.24792, "note": 73, "vel": 61, "track": 6}, {"t": 1.5, "dur": 0.24792, "note": 77, "vel": 82, "track": 2}, {"t": 1.75, "dur": 0.49792, "note": 58, "vel": 65, "track": 8}, {"t": 1.75, "dur": 0.24792, "note": 73, "vel": 92, "track": 7}, {"t": 1.75, "dur": 0.24792, "note": 77, "vel": 81, "track": 6}, {"t": 1.75, "dur": 0.24792, "note": 82, "vel": 88, "track": 2}, {"t": 1.75, "dur": 0.49792, "note": 82, "vel": 88, "track": 3}, {"t": 2.0, "dur": 0.24792, "note": 70, "vel": 75, "track": 7}, {"t": 2.0, "dur": 0.24792, "note": 77, "vel": 71, "track": 2}, {"t": 2.0, "dur": 0.49792, "note": 77, "vel": 43, "track": 5}, {"t": 2.0, "dur": 0.24792, "note": 84, "vel": 90, "track": 6}, {"t": 2.0, "dur": 0.49792, "note": 84, "vel": 43, "track": 4}, {"t": 2.0, "dur": 0.49792, "note": 84, "vel": 83, "track": 0}, {"t": 2.25, "dur": 0.24792, "note": 65, "vel": 68, "track": 7}, {"t": 2.25, "dur": 0.24792, "note": 70, "vel": 96, "track": 8}, {"t": 2.25, "dur": 0.24792, "note": 77, "vel": 65, "track": 6}, {"t": 2.25, "dur": 0.24792, "note": 84, "vel": 78, "track": 3}, {"t": 2.25, "dur": 0.24792, "note": 84, "vel": 89, "track": 2}]}, {"id": 21, "measures": "m28-29", "meter": [10, 16], "length_ticks": 2400, "length_beats": 5.0, "notes": [{"t": 0.0, "dur": 0.24792, "note": 56, "vel": 72, "track": 7}, {"t": 0.0, "dur": 0.99792, "note": 56, "vel": 67, "track": 9}, {"t": 0.0, "dur": 0.49792, "note": 68, "vel": 71, "track": 8}, {"t": 0.0, "dur": 0.24792, "note": 75, "vel": 58, "track": 2}, {"t": 0.0, "dur": 0.49792, "note": 75, "vel": 61, "track": 3}, {"t": 0.0, "dur": 0.74792, "note": 80, "vel": 44, "track": 5}, {"t": 0.0, "dur": 0.24792, "note": 84, "vel": 90, "track": 6}, {"t": 0.0, "dur": 0.74792, "note": 84, "vel": 44, "track": 4}, {"t": 0.0, "dur": 0.74792, "note": 84, "vel": 76, "track": 0}, {"t": 0.25, "dur": 0.24792, "note": 63, "vel": 90, "track": 7}, {"t": 0.25, "dur": 0.24792, "note": 75, "vel": 62, "track": 6}, {"t": 0.25, "dur": 0.24792, "note": 80, "vel": 90, "track": 2}, {"t": 0.5, "dur": 0.49792, "note": 56, "vel": 64, "track": 8}, {"t": 0.5, "dur": 0.24792, "note": 72, "vel": 94, "track": 7}, {"t": 0.5, "dur": 0.24792, "note": 80, "vel": 87, "track": 6}, {"t": 0.5, "dur": 0.24792, "note": 84, "vel": 88, "track": 2}, {"t": 0.5, "dur": 0.49792, "note": 84, "vel": 88, "track": 3}, {"t": 0.75, "dur": 0.24792, "note": 68, "vel": 77, "track": 7}, {"t": 0.75, "dur": 0.24792, "note": 80, "vel": 69, "track": 2}, {"t": 0.75, "dur": 0.49792, "note": 80, "vel": 38, "track": 5}, {"t": 0.75, "dur": 0.24792, "note": 84, "vel": 78, "track": 0}, {"t": 0.75, "dur": 0.24792, "note": 84, "vel": 90, "track": 6}, {"t": 0.75, "dur": 0.49792, "note": 84, "vel": 38, "track": 4}, {"t": 1.0, "dur": 0.24792, "note": 63, "vel": 65, "track": 7}, {"t": 1.0, "dur": 0.24792, "note": 68, "vel": 94, "track": 8}, {"t": 1.0, "dur": 0.24792, "note": 80, "vel": 66, "track": 0}, {"t": 1.0, "dur": 0.24792, "note": 80, "vel": 72, "track": 6}, {"t": 1.0, "dur": 0.24792, "note": 84, "vel": 76, "track": 3}, {"t": 1.0, "dur": 0.24792, "note": 84, "vel": 82, "track": 2}, {"t": 1.25, "dur": 0.24792, "note": 54, "vel": 70, "track": 7}, {"t": 1.25, "dur": 0.99792, "note": 54, "vel": 73, "track": 9}, {"t": 1.25, "dur": 0.49792, "note": 66, "vel": 76, "track": 8}, {"t": 1.25, "dur": 0.24792, "note": 73, "vel": 55, "track": 2}, {"t": 1.25, "dur": 0.49792, "note": 73, "vel": 56, "track": 3}, {"t": 1.25, "dur": 0.74792, "note": 78, "vel": 36, "track": 5}, {"t": 1.25, "dur": 0.24792, "note": 84, "vel": 83, "track": 6}, {"t": 1.25, "dur": 0.74792, "note": 84, "vel": 36, "track": 4}, {"t": 1.25, "dur": 0.74792, "note": 84, "vel": 82, "track": 0}, {"t": 1.5, "dur": 0.24792, "note": 61, "vel": 90, "track": 7}, {"t": 1.5, "dur": 0.24792, "note": 73, "vel": 60, "track": 6}, {"t": 1.5, "dur": 0.24792, "note": 78, "vel": 84, "track": 2}, {"t": 1.75, "dur": 0.49792, "note": 54, "vel": 63, "track": 8}, {"t": 1.75, "dur": 0.24792, "note": 70, "vel": 96, "track": 7}, {"t": 1.75, "dur": 0.24792, "note": 78, "vel": 84, "track": 6}, {"t": 1.75, "dur": 0.24792, "note": 84, "vel": 90, "track": 2}, {"t": 1.75, "dur": 0.49792, "note": 84, "vel": 92, "track": 3}, {"t": 2.0, "dur": 0.24792, "note": 66, "vel": 69, "track": 7}, {"t": 2.0, "dur": 0.24792, "note": 78, "vel": 68, "track": 2}, {"t": 2.0, "dur": 0.49792, "note": 78, "vel": 38, "track": 5}, {"t": 2.0, "dur": 0.24792, "note": 84, "vel": 86, "track": 6}, {"t": 2.0, "dur": 0.49792, "note": 84, "vel": 38, "track": 4}, {"t": 2.0, "dur": 0.49792, "note": 84, "vel": 79, "track": 0}, {"t": 2.25, "dur": 0.24792, "note": 61, "vel": 65, "track": 7}, {"t": 2.25, "dur": 0.24792, "note": 66, "vel": 98, "track": 8}, {"t": 2.25, "dur": 0.24792, "note": 78, "vel": 68, "track": 6}, {"t": 2.25, "dur": 0.24792, "note": 84, "vel": 80, "track": 3}, {"t": 2.25, "dur": 0.24792, "note": 84, "vel": 85, "track": 2}, {"t": 2.5, "dur": 0.24792, "note": 56, "vel": 66, "track": 7}, {"t": 2.5, "dur": 0.99792, "note": 56, "vel": 65, "track": 9}, {"t": 2.5, "dur": 0.49792, "note": 68, "vel": 85, "track": 8}, {"t": 2.5, "dur": 0.24792, "note": 75, "vel": 59, "track": 2}, {"t": 2.5, "dur": 0.49792, "note": 75, "vel": 60, "track": 3}, {"t": 2.5, "dur": 0.74792, "note": 80, "vel": 37, "track": 5}, {"t": 2.5, "dur": 0.24792, "note": 84, "vel": 91, "track": 6}, {"t": 2.5, "dur": 0.74792, "note": 84, "vel": 37, "track": 4}, {"t": 2.5, "dur": 0.74792, "note": 84, "vel": 73, "track": 0}, {"t": 2.75, "dur": 0.24792, "note": 63, "vel": 87, "track": 7}, {"t": 2.75, "dur": 0.24792, "note": 75, "vel": 65, "track": 6}, {"t": 2.75, "dur": 0.24792, "note": 80, "vel": 86, "track": 2}, {"t": 3.0, "dur": 0.49792, "note": 56, "vel": 69, "track": 8}, {"t": 3.0, "dur": 0.24792, "note": 72, "vel": 98, "track": 7}, {"t": 3.0, "dur": 0.24792, "note": 80, "vel": 84, "track": 6}, {"t": 3.0, "dur": 0.24792, "note": 84, "vel": 88, "track": 2}, {"t": 3.0, "dur": 0.49792, "note": 84, "vel": 90, "track": 3}, {"t": 3.25, "dur": 0.24792, "note": 68, "vel": 71, "track": 7}, {"t": 3.25, "dur": 0.24792, "note": 80, "vel": 70, "track": 2}, {"t": 3.25, "dur": 0.49792, "note": 80, "vel": 40, "track": 5}, {"t": 3.25, "dur": 0.24792, "note": 84, "vel": 77, "track": 0}, {"t": 3.25, "dur": 0.24792, "note": 84, "vel": 84, "track": 6}, {"t": 3.25, "dur": 0.49792, "note": 84, "vel": 40, "track": 4}, {"t": 3.5, "dur": 0.24792, "note": 63, "vel": 68, "track": 7}, {"t": 3.5, "dur": 0.24792, "note": 68, "vel": 91, "track": 8}, {"t": 3.5, "dur": 0.24792, "note": 80, "vel": 67, "track": 0}, {"t": 3.5, "dur": 0.24792, "note": 80, "vel": 67, "track": 6}, {"t": 3.5, "dur": 0.24792, "note": 84, "vel": 80, "track": 3}, {"t": 3.5, "dur": 0.24792, "note": 84, "vel": 85, "track": 2}, {"t": 3.75, "dur": 0.24792, "note": 58, "vel": 67, "track": 7}, {"t": 3.75, "dur": 0.99792, "note": 58, "vel": 68, "track": 9}, {"t": 3.75, "dur": 0.49792, "note": 70, "vel": 86, "track": 8}, {"t": 3.75, "dur": 0.24792, "note": 73, "vel": 55, "track": 2}, {"t": 3.75, "dur": 0.49792, "note": 73, "vel": 57, "track": 3}, {"t": 3.75, "dur": 0.74792, "note": 77, "vel": 42, "track": 5}, {"t": 3.75, "dur": 0.24792, "note": 84, "vel": 80, "track": 6}, {"t": 3.75, "dur": 0.74792, "note": 84, "vel": 42, "track": 4}, {"t": 3.75, "dur": 0.74792, "note": 84, "vel": 84, "track": 0}, {"t": 4.0, "dur": 0.24792, "note": 65, "vel": 87, "track": 7}, {"t": 4.0, "dur": 0.24792, "note": 73, "vel": 63, "track": 6}, {"t": 4.0, "dur": 0.24792, "note": 78, "vel": 84, "track": 2}, {"t": 4.25, "dur": 0.49792, "note": 58, "vel": 68, "track": 8}, {"t": 4.25, "dur": 0.24792, "note": 73, "vel": 93, "track": 7}, {"t": 4.25, "dur": 0.24792, "note": 77, "vel": 85, "track": 6}, {"t": 4.25, "dur": 0.24792, "note": 84, "vel": 89, "track": 2}, {"t": 4.25, "dur": 0.49792, "note": 84, "vel": 93, "track": 3}, {"t": 4.5, "dur": 0.24792, "note": 70, "vel": 71, "track": 7}, {"t": 4.5, "dur": 0.24792, "note": 77, "vel": 68, "track": 2}, {"t": 4.5, "dur": 0.49792, "note": 77, "vel": 41, "track": 5}, {"t": 4.5, "dur": 0.24792, "note": 84, "vel": 90, "track": 6}, {"t": 4.5, "dur": 0.49792, "note": 84, "vel": 41, "track": 4}, {"t": 4.5, "dur": 0.49792, "note": 84, "vel": 74, "track": 0}, {"t": 4.75, "dur": 0.24792, "note": 65, "vel": 65, "track": 7}, {"t": 4.75, "dur": 0.24792, "note": 70, "vel": 97, "track": 8}, {"t": 4.75, "dur": 0.24792, "note": 77, "vel": 68, "track": 6}, {"t": 4.75, "dur": 0.24792, "note": 84, "vel": 78, "track": 3}, {"t": 4.75, "dur": 0.24792, "note": 84, "vel": 90, "track": 2}]}, {"id": 22, "measures": "m30", "meter": [15, 16], "length_ticks": 1800, "length_beats": 3.75, "notes": [{"t": 0.0, "dur": 0.24792, "note": 56, "vel": 64, "track": 7}, {"t": 0.0, "dur": 0.99792, "note": 56, "vel": 71, "track": 9}, {"t": 0.0, "dur": 0.49792, "note": 68, "vel": 78, "track": 8}, {"t": 0.0, "dur": 0.24792, "note": 75, "vel": 66, "track": 2}, {"t": 0.0, "dur": 0.49792, "note": 75, "vel": 58, "track": 3}, {"t": 0.0, "dur": 0.74792, "note": 80, "vel": 38, "track": 5}, {"t": 0.0, "dur": 0.24792, "note": 84, "vel": 93, "track": 6}, {"t": 0.0, "dur": 0.74792, "note": 84, "vel": 38, "track": 4}, {"t": 0.0, "dur": 0.74792, "note": 84, "vel": 75, "track": 0}, {"t": 0.25, "dur": 0.24792, "note": 63, "vel": 87, "track": 7}, {"t": 0.25, "dur": 0.24792, "note": 75, "vel": 61, "track": 6}, {"t": 0.25, "dur": 0.24792, "note": 80, "vel": 79, "track": 2}, {"t": 0.5, "dur": 0.49792, "note": 56, "vel": 68, "track": 8}, {"t": 0.5, "dur": 0.24792, "note": 72, "vel": 92, "track": 7}, {"t": 0.5, "dur": 0.24792, "note": 80, "vel": 83, "track": 6}, {"t": 0.5, "dur": 0.24792, "note": 84, "vel": 82, "track": 2}, {"t": 0.5, "dur": 0.49792, "note": 84, "vel": 84, "track": 3}, {"t": 0.75, "dur": 0.24792, "note": 68, "vel": 71, "track": 7}, {"t": 0.75, "dur": 0.24792, "note": 80, "vel": 68, "track": 2}, {"t": 0.75, "dur": 0.49792, "note": 80, "vel": 40, "track": 5}, {"t": 0.75, "dur": 0.24792, "note": 84, "vel": 79, "track": 0}, {"t": 0.75, "dur": 0.24792, "note": 84, "vel": 87, "track": 6}, {"t": 0.75, "dur": 0.49792, "note": 84, "vel": 40, "track": 4}, {"t": 1.0, "dur": 0.24792, "note": 63, "vel": 70, "track": 7}, {"t": 1.0, "dur": 0.24792, "note": 68, "vel": 96, "track": 8}, {"t": 1.0, "dur": 0.24792, "note": 80, "vel": 69, "track": 0}, {"t": 1.0, "dur": 0.24792, "note": 80, "vel": 71, "track": 6}, {"t": 1.0, "dur": 0.24792, "note": 84, "vel": 81, "track": 3}, {"t": 1.0, "dur": 0.24792, "note": 84, "vel": 85, "track": 2}, {"t": 1.25, "dur": 0.24792, "note": 58, "vel": 69, "track": 7}, {"t": 1.25, "dur": 0.99792, "note": 58, "vel": 70, "track": 9}, {"t": 1.25, "dur": 0.49792, "note": 70, "vel": 84, "track": 8}, {"t": 1.25, "dur": 0.24792, "note": 73, "vel": 57, "track": 2}, {"t": 1.25, "dur": 0.49792, "note": 73, "vel": 55, "track": 3}, {"t": 1.25, "dur": 0.74792, "note": 77, "vel": 38, "track": 5}, {"t": 1.25, "dur": 0.24792, "note": 84, "vel": 83, "track": 6}, {"t": 1.25, "dur": 0.74792, "note": 84, "vel": 38, "track": 4}, {"t": 1.25, "dur": 0.74792, "note": 84, "vel": 81, "track": 0}, {"t": 1.5, "dur": 0.24792, "note": 65, "vel": 86, "track": 7}, {"t": 1.5, "dur": 0.24792, "note": 73, "vel": 57, "track": 6}, {"t": 1.5, "dur": 0.24792, "note": 77, "vel": 82, "track": 2}, {"t": 1.75, "dur": 0.49792, "note": 58, "vel": 65, "track": 8}, {"t": 1.75, "dur": 0.24792, "note": 73, "vel": 89, "track": 7}, {"t": 1.75, "dur": 0.24792, "note": 77, "vel": 85, "track": 6}, {"t": 1.75, "dur": 0.24792, "note": 85, "vel": 89, "track": 2}, {"t": 1.75, "dur": 0.49792, "note": 85, "vel": 96, "track": 3}, {"t": 2.0, "dur": 0.24792, "note": 70, "vel": 71, "track": 7}, {"t": 2.0, "dur": 0.49792, "note": 77, "vel": 40, "track": 5}, {"t": 2.0, "dur": 0.24792, "note": 80, "vel": 67, "track": 2}, {"t": 2.0, "dur": 0.24792, "note": 85, "vel": 89, "track": 6}, {"t": 2.0, "dur": 0.49792, "note": 85, "vel": 40, "track": 4}, {"t": 2.0, "dur": 0.49792, "note": 85, "vel": 82, "track": 0}, {"t": 2.25, "dur": 0.24792, "note": 65, "vel": 65, "track": 7}, {"t": 2.25, "dur": 0.24792, "note": 70, "vel": 101, "track": 8}, {"t": 2.25, "dur": 0.24792, "note": 77, "vel": 66, "track": 6}, {"t": 2.25, "dur": 0.24792, "note": 85, "vel": 81, "track": 3}, {"t": 2.25, "dur": 0.24792, "note": 85, "vel": 85, "track": 2}, {"t": 2.5, "dur": 0.24792, "note": 56, "vel": 66, "track": 7}, {"t": 2.5, "dur": 0.99792, "note": 56, "vel": 67, "track": 9}, {"t": 2.5, "dur": 0.49792, "note": 68, "vel": 79, "track": 8}, {"t": 2.5, "dur": 0.24792, "note": 75, "vel": 57, "track": 2}, {"t": 2.5, "dur": 0.49792, "note": 75, "vel": 61, "track": 3}, {"t": 2.5, "dur": 0.74792, "note": 80, "vel": 41, "track": 5}, {"t": 2.5, "dur": 0.24792, "note": 85, "vel": 87, "track": 6}, {"t": 2.5, "dur": 0.74792, "note": 85, "vel": 41, "track": 4}, {"t": 2.5, "dur": 0.74792, "note": 85, "vel": 80, "track": 0}, {"t": 2.75, "dur": 0.24792, "note": 63, "vel": 91, "track": 7}, {"t": 2.75, "dur": 0.24792, "note": 75, "vel": 62, "track": 6}, {"t": 2.75, "dur": 0.24792, "note": 80, "vel": 84, "track": 2}, {"t": 3.0, "dur": 0.49792, "note": 56, "vel": 64, "track": 8}, {"t": 3.0, "dur": 0.24792, "note": 72, "vel": 95, "track": 7}, {"t": 3.0, "dur": 0.24792, "note": 80, "vel": 85, "track": 6}, {"t": 3.0, "dur": 0.24792, "note": 87, "vel": 91, "track": 2}, {"t": 3.0, "dur": 0.49792, "note": 87, "vel": 96, "track": 3}, {"t": 3.25, "dur": 0.24792, "note": 68, "vel": 67, "track": 7}, {"t": 3.25, "dur": 0.24792, "note": 80, "vel": 66, "track": 2}, {"t": 3.25, "dur": 0.49792, "note": 80, "vel": 43, "track": 5}, {"t": 3.25, "dur": 0.24792, "note": 87, "vel": 92, "track": 6}, {"t": 3.25, "dur": 0.49792, "note": 87, "vel": 43, "track": 4}, {"t": 3.25, "dur": 0.49792, "note": 87, "vel": 84, "track": 0}, {"t": 3.5, "dur": 0.24792, "note": 63, "vel": 67, "track": 7}, {"t": 3.5, "dur": 0.24792, "note": 68, "vel": 95, "track": 8}, {"t": 3.5, "dur": 0.24792, "note": 80, "vel": 66, "track": 6}, {"t": 3.5, "dur": 0.24792, "note": 87, "vel": 79, "track": 3}, {"t": 3.5, "dur": 0.24792, "note": 87, "vel": 86, "track": 2}]}, {"id": 23, "measures": "m31-32", "meter": [10, 16], "length_ticks": 2400, "length_beats": 5.0, "notes": [{"t": 0.0, "dur": 0.24792, "note": 58, "vel": 69, "track": 7}, {"t": 0.0, "dur": 0.99792, "note": 58, "vel": 70, "track": 9}, {"t": 0.0, "dur": 0.49792, "note": 70, "vel": 86, "track": 8}, {"t": 0.0, "dur": 0.24792, "note": 76, "vel": 61, "track": 2}, {"t": 0.0, "dur": 0.49792, "note": 76, "vel": 58, "track": 3}, {"t": 0.0, "dur": 0.74792, "note": 76, "vel": 44, "track": 5}, {"t": 0.0, "dur": 0.74792, "note": 80, "vel": 44, "track": 5}, {"t": 0.0, "dur": 0.24792, "note": 87, "vel": 87, "track": 6}, {"t": 0.0, "dur": 0.74792, "note": 87, "vel": 44, "track": 4}, {"t": 0.0, "dur": 0.74792, "note": 87, "vel": 79, "track": 0}, {"t": 0.25, "dur": 0.24792, "note": 64, "vel": 89, "track": 7}, {"t": 0.25, "dur": 0.24792, "note": 76, "vel": 54, "track": 6}, {"t": 0.25, "dur": 0.24792, "note": 80, "vel": 83, "track": 2}, {"t": 0.5, "dur": 0.49792, "note": 58, "vel": 65, "track": 8}, {"t": 0.5, "dur": 0.24792, "note": 73, "vel": 92, "track": 7}, {"t": 0.5, "dur": 0.24792, "note": 80, "vel": 85, "track": 6}, {"t": 0.5, "dur": 0.24792, "note": 87, "vel": 90, "track": 2}, {"t": 0.5, "dur": 0.49792, "note": 87, "vel": 92, "track": 3}, {"t": 0.75, "dur": 0.24792, "note": 68, "vel": 73, "track": 7}, {"t": 0.75, "dur": 0.49792, "note": 76, "vel": 41, "track": 5}, {"t": 0.75, "dur": 0.24792, "note": 80, "vel": 67, "track": 2}, {"t": 0.75, "dur": 0.49792, "note": 80, "vel": 41, "track": 5}, {"t": 0.75, "dur": 0.49792, "note": 85, "vel": 41, "track": 4}, {"t": 0.75, "dur": 0.24792, "note": 87, "vel": 88, "track": 6}, {"t": 0.75, "dur": 0.49792, "note": 87, "vel": 77, "track": 0}, {"t": 1.0, "dur": 0.24792, "note": 64, "vel": 63, "track": 7}, {"t": 1.0, "dur": 0.24792, "note": 70, "vel": 95, "track": 8}, {"t": 1.0, "dur": 0.24792, "note": 80, "vel": 66, "track": 6}, {"t": 1.0, "dur": 0.24792, "note": 87, "vel": 76, "track": 3}, {"t": 1.0, "dur": 0.24792, "note": 87, "vel": 81, "track": 2}, {"t": 1.25, "dur": 0.24792, "note": 56, "vel": 69, "track": 7}, {"t": 1.25, "dur": 0.99792, "note": 56, "vel": 68, "track": 9}, {"t": 1.25, "dur": 0.49792, "note": 68, "vel": 75, "track": 8}, {"t": 1.25, "dur": 0.24792, "note": 75, "vel": 56, "track": 2}, {"t": 1.25, "dur": 0.49792, "note": 75, "vel": 56, "track": 3}, {"t": 1.25, "dur": 0.74792, "note": 75, "vel": 44, "track": 5}, {"t": 1.25, "dur": 0.74792, "note": 80, "vel": 44, "track": 5}, {"t": 1.25, "dur": 0.24792, "note": 87, "vel": 86, "track": 6}, {"t": 1.25, "dur": 0.74792, "note": 87, "vel": 44, "track": 4}, {"t": 1.25, "dur": 0.74792, "note": 87, "vel": 78, "track": 0}, {"t": 1.5, "dur": 0.24792, "note": 63, "vel": 89, "track": 7}, {"t": 1.5, "dur": 0.24792, "note": 75, "vel": 56, "track": 6}, {"t": 1.5, "dur": 0.24792, "note": 80, "vel": 83, "track": 2}, {"t": 1.75, "dur": 0.49792, "note": 56, "vel": 66, "track": 8}, {"t": 1.75, "dur": 0.24792, "note": 71, "vel": 95, "track": 7}, {"t": 1.75, "dur": 0.24792, "note": 80, "vel": 85, "track": 6}, {"t": 1.75, "dur": 0.24792, "note": 87, "vel": 91, "track": 2}, {"t": 1.75, "dur": 0.49792, "note": 87, "vel": 91, "track": 3}, {"t": 2.0, "dur": 0.24792, "note": 68, "vel": 76, "track": 7}, {"t": 2.0, "dur": 0.49792, "note": 75, "vel": 41, "track": 5}, {"t": 2.0, "dur": 0.24792, "note": 80, "vel": 67, "track": 2}, {"t": 2.0, "dur": 0.49792, "note": 80, "vel": 41, "track": 5}, {"t": 2.0, "dur": 0.49792, "note": 83, "vel": 41, "track": 4}, {"t": 2.0, "dur": 0.24792, "note": 87, "vel": 88, "track": 6}, {"t": 2.0, "dur": 0.49792, "note": 87, "vel": 77, "track": 0}, {"t": 2.25, "dur": 0.24792, "note": 63, "vel": 67, "track": 7}, {"t": 2.25, "dur": 0.24792, "note": 68, "vel": 100, "track": 8}, {"t": 2.25, "dur": 0.24792, "note": 80, "vel": 66, "track": 6}, {"t": 2.25, "dur": 0.24792, "note": 87, "vel": 79, "track": 3}, {"t": 2.25, "dur": 0.24792, "note": 87, "vel": 87, "track": 2}, {"t": 2.5, "dur": 0.24792, "note": 58, "vel": 69, "track": 7}, {"t": 2.5, "dur": 0.99792, "note": 58, "vel": 72, "track": 9}, {"t": 2.5, "dur": 0.49792, "note": 70, "vel": 87, "track": 8}, {"t": 2.5, "dur": 0.24792, "note": 76, "vel": 59, "track": 2}, {"t": 2.5, "dur": 0.49792, "note": 76, "vel": 59, "track": 3}, {"t": 2.5, "dur": 0.74792, "note": 76, "vel": 44, "track": 5}, {"t": 2.5, "dur": 0.74792, "note": 80, "vel": 44, "track": 5}, {"t": 2.5, "dur": 0.24792, "note": 87, "vel": 85, "track": 6}, {"t": 2.5, "dur": 0.74792, "note": 87, "vel": 44, "track": 4}, {"t": 2.5, "dur": 0.74792, "note": 87, "vel": 74, "track": 0}, {"t": 2.75, "dur": 0.24792, "note": 64, "vel": 85, "track": 7}, {"t": 2.75, "dur": 0.24792, "note": 76, "vel": 57, "track": 6}, {"t": 2.75, "dur": 0.24792, "note": 80, "vel": 81, "track": 2}, {"t": 3.0, "dur": 0.49792, "note": 58, "vel": 68, "track": 8}, {"t": 3.0, "dur": 0.24792, "note": 73, "vel": 96, "track": 7}, {"t": 3.0, "dur": 0.24792, "note": 80, "vel": 81, "track": 6}, {"t": 3.0, "dur": 0.24792, "note": 87, "vel": 92, "track": 3}, {"t": 3.0, "dur": 0.24792, "note": 87, "vel": 94, "track": 2}, {"t": 3.25, "dur": 0.24792, "note": 68, "vel": 68, "track": 7}, {"t": 3.25, "dur": 0.49792, "note": 76, "vel": 43, "track": 5}, {"t": 3.25, "dur": 0.49792, "note": 80, "vel": 43, "track": 5}, {"t": 3.25, "dur": 0.24792, "note": 85, "vel": 72, "track": 2}, {"t": 3.25, "dur": 0.24792, "note": 85, "vel": 75, "track": 3}, {"t": 3.25, "dur": 0.49792, "note": 85, "vel": 43, "track": 4}, {"t": 3.25, "dur": 0.24792, "note": 87, "vel": 78, "track": 0}, {"t": 3.25, "dur": 0.24792, "note": 87, "vel": 94, "track": 6}, {"t": 3.5, "dur": 0.24792, "note": 64, "vel": 67, "track": 7}, {"t": 3.5, "dur": 0.24792, "note": 70, "vel": 100, "track": 8}, {"t": 3.5, "dur": 0.24792, "note": 85, "vel": 74, "track": 0}, {"t": 3.5, "dur": 0.24792, "note": 85, "vel": 75, "track": 6}, {"t": 3.5, "dur": 0.24792, "note": 87, "vel": 79, "track": 2}, {"t": 3.5, "dur": 0.24792, "note": 87, "vel": 80, "track": 3}, {"t": 3.75, "dur": 0.24792, "note": 56, "vel": 69, "track": 7}, {"t": 3.75, "dur": 0.99792, "note": 56, "vel": 67, "track": 9}, {"t": 3.75, "dur": 0.49792, "note": 68, "vel": 74, "track": 8}, {"t": 3.75, "dur": 0.24792, "note": 75, "vel": 52, "track": 2}, {"t": 3.75, "dur": 0.49792, "note": 75, "vel": 61, "track": 3}, {"t": 3.75, "dur": 0.74792, "note": 75, "vel": 35, "track": 5}, {"t": 3.75, "dur": 0.74792, "note": 80, "vel": 35, "track": 5}, {"t": 3.75, "dur": 0.74792, "note": 82, "vel": 35, "track": 4}, {"t": 3.75, "dur": 0.24792, "note": 87, "vel": 85, "track": 6}, {"t": 3.75, "dur": 0.74792, "note": 87, "vel": 76, "track": 0}, {"t": 4.0, "dur": 0.24792, "note": 63, "vel": 90, "track": 7}, {"t": 4.0, "dur": 0.24792, "note": 75, "vel": 53, "track": 6}, {"t": 4.0, "dur": 0.24792, "note": 80, "vel": 83, "track": 2}, {"t": 4.25, "dur": 0.49792, "note": 56, "vel": 64, "track": 8}, {"t": 4.25, "dur": 0.24792, "note": 71, "vel": 89, "track": 7}, {"t": 4.25, "dur": 0.24792, "note": 80, "vel": 78, "track": 6}, {"t": 4.25, "dur": 0.24792, "note": 87, "vel": 89, "track": 2}, {"t": 4.25, "dur": 0.49792, "note": 87, "vel": 92, "track": 3}, {"t": 4.5, "dur": 0.24792, "note": 68, "vel": 70, "track": 7}, {"t": 4.5, "dur": 0.49792, "note": 75, "vel": 37, "track": 5}, {"t": 4.5, "dur": 0.24792, "note": 80, "vel": 64, "track": 2}, {"t": 4.5, "dur": 0.49792, "note": 80, "vel": 37, "track": 5}, {"t": 4.5, "dur": 0.49792, "note": 82, "vel": 37, "track": 4}, {"t": 4.5, "dur": 0.24792, "note": 87, "vel": 92, "track": 6}, {"t": 4.5, "dur": 0.49792, "note": 87, "vel": 75, "track": 0}, {"t": 4.75, "dur": 0.24792, "note": 63, "vel": 68, "track": 7}, {"t": 4.75, "dur": 0.24792, "note": 68, "vel": 96, "track": 8}, {"t": 4.75, "dur": 0.24792, "note": 80, "vel": 68, "track": 6}, {"t": 4.75, "dur": 0.24792, "note": 87, "vel": 79, "track": 3}, {"t": 4.75, "dur": 0.24792, "note": 87, "vel": 82, "track": 2}]}, {"id": 24, "measures": "m33-34", "meter": [10, 16], "length_ticks": 2400, "length_beats": 5.0, "notes": [{"t": 0.0, "dur": 0.24792, "note": 49, "vel": 56, "track": 7}, {"t": 0.0, "dur": 0.99792, "note": 49, "vel": 67, "track": 9}, {"t": 0.0, "dur": 0.49792, "note": 61, "vel": 65, "track": 8}, {"t": 0.0, "dur": 0.24792, "note": 80, "vel": 70, "track": 2}, {"t": 0.0, "dur": 0.49792, "note": 80, "vel": 56, "track": 3}, {"t": 0.0, "dur": 0.74792, "note": 80, "vel": 66, "track": 5}, {"t": 0.0, "dur": 0.74792, "note": 85, "vel": 66, "track": 5}, {"t": 0.0, "dur": 0.24792, "note": 87, "vel": 86, "track": 6}, {"t": 0.0, "dur": 0.74792, "note": 87, "vel": 75, "track": 0}, {"t": 0.0, "dur": 4.49792, "note": 87, "vel": 45, "track": 4}, {"t": 0.25, "dur": 0.24792, "note": 56, "vel": 79, "track": 7}, {"t": 0.25, "dur": 0.24792, "note": 80, "vel": 63, "track": 6}, {"t": 0.25, "dur": 0.24792, "note": 85, "vel": 80, "track": 2}, {"t": 0.5, "dur": 0.49792, "note": 49, "vel": 62, "track": 8}, {"t": 0.5, "dur": 0.24792, "note": 65, "vel": 95, "track": 7}, {"t": 0.5, "dur": 0.24792, "note": 85, "vel": 85, "track": 6}, {"t": 0.5, "dur": 0.24792, "note": 87, "vel": 79, "track": 2}, {"t": 0.5, "dur": 0.24792, "note": 87, "vel": 84, "track": 3}, {"t": 0.75, "dur": 0.24792, "note": 61, "vel": 73, "track": 7}, {"t": 0.75, "dur": 0.49792, "note": 80, "vel": 77, "track": 5}, {"t": 0.75, "dur": 0.24792, "note": 85, "vel": 68, "track": 3}, {"t": 0.75, "dur": 0.24792, "note": 85, "vel": 73, "track": 2}, {"t": 0.75, "dur": 0.49792, "note": 85, "vel": 77, "track": 4}, {"t": 0.75, "dur": 0.24792, "note": 87, "vel": 72, "track": 0}, {"t": 0.75, "dur": 0.24792, "note": 87, "vel": 85, "track": 6}, {"t": 1.0, "dur": 0.24792, "note": 56, "vel": 72, "track": 7}, {"t": 1.0, "dur": 0.24792, "note": 61, "vel": 98, "track": 8}, {"t": 1.0, "dur": 0.24792, "note": 85, "vel": 75, "track": 0}, {"t": 1.0, "dur": 0.24792, "note": 85, "vel": 75, "track": 6}, {"t": 1.0, "dur": 0.24792, "note": 87, "vel": 81, "track": 2}, {"t": 1.0, "dur": 0.24792, "note": 87, "vel": 81, "track": 3}, {"t": 1.25, "dur": 0.24792, "note": 51, "vel": 70, "track": 7}, {"t": 1.25, "dur": 0.99792, "note": 51, "vel": 69, "track": 9}, {"t": 1.25, "dur": 0.49792, "note": 63, "vel": 83, "track": 8}, {"t": 1.25, "dur": 0.24792, "note": 78, "vel": 56, "track": 2}, {"t": 1.25, "dur": 0.49792, "note": 78, "vel": 62, "track": 3}, {"t": 1.25, "dur": 0.74792, "note": 78, "vel": 68, "track": 5}, {"t": 1.25, "dur": 0.74792, "note": 82, "vel": 68, "track": 4}, {"t": 1.25, "dur": 0.24792, "note": 87, "vel": 81, "track": 6}, {"t": 1.25, "dur": 0.74792, "note": 87, "vel": 85, "track": 0}, {"t": 1.5, "dur": 0.24792, "note": 58, "vel": 80, "track": 7}, {"t": 1.5, "dur": 0.24792, "note": 78, "vel": 63, "track": 6}, {"t": 1.5, "dur": 0.24792, "note": 82, "vel": 77, "track": 2}, {"t": 1.75, "dur": 0.49792, "note": 51, "vel": 70, "track": 8}, {"t": 1.75, "dur": 0.24792, "note": 66, "vel": 93, "track": 7}, {"t": 1.75, "dur": 0.24792, "note": 82, "vel": 81, "track": 6}, {"t": 1.75, "dur": 0.24792, "note": 87, "vel": 84, "track": 2}, {"t": 1.75, "dur": 0.49792, "note": 87, "vel": 90, "track": 3}, {"t": 2.0, "dur": 0.24792, "note": 63, "vel": 71, "track": 7}, {"t": 2.0, "dur": 0.49792, "note": 78, "vel": 75, "track": 5}, {"t": 2.0, "dur": 0.24792, "note": 82, "vel": 65, "track": 2}, {"t": 2.0, "dur": 0.49792, "note": 82, "vel": 75, "track": 4}, {"t": 2.0, "dur": 0.24792, "note": 87, "vel": 89, "track": 6}, {"t": 2.0, "dur": 0.49792, "note": 87, "vel": 76, "track": 0}, {"t": 2.25, "dur": 0.24792, "note": 58, "vel": 66, "track": 7}, {"t": 2.25, "dur": 0.24792, "note": 63, "vel": 99, "track": 8}, {"t": 2.25, "dur": 0.24792, "note": 82, "vel": 63, "track": 6}, {"t": 2.25, "dur": 0.24792, "note": 87, "vel": 81, "track": 3}, {"t": 2.25, "dur": 0.24792, "note": 87, "vel": 85, "track": 2}, {"t": 2.5, "dur": 0.24792, "note": 49, "vel": 65, "track": 7}, {"t": 2.5, "dur": 0.99792, "note": 49, "vel": 71, "track": 9}, {"t": 2.5, "dur": 0.49792, "note": 61, "vel": 74, "track": 8}, {"t": 2.5, "dur": 0.24792, "note": 80, "vel": 66, "track": 2}, {"t": 2.5, "dur": 0.49792, "note": 80, "vel": 61, "track": 3}, {"t": 2.5, "dur": 0.74792, "note": 80, "vel": 80, "track": 5}, {"t": 2.5, "dur": 0.74792, "note": 85, "vel": 80, "track": 4}, {"t": 2.5, "dur": 0.24792, "note": 87, "vel": 83, "track": 6}, {"t": 2.5, "dur": 0.74792, "note": 87, "vel": 78, "track": 0}, {"t": 2.75, "dur": 0.24792, "note": 56, "vel": 82, "track": 7}, {"t": 2.75, "dur": 0.24792, "note": 80, "vel": 63, "track": 6}, {"t": 2.75, "dur": 0.24792, "note": 85, "vel": 83, "track": 2}, {"t": 3.0, "dur": 0.49792, "note": 49, "vel": 63, "track": 8}, {"t": 3.0, "dur": 0.24792, "note": 65, "vel": 95, "track": 7}, {"t": 3.0, "dur": 0.24792, "note": 85, "vel": 82, "track": 6}, {"t": 3.0, "dur": 0.24792, "note": 87, "vel": 83, "track": 2}, {"t": 3.0, "dur": 0.24792, "note": 87, "vel": 86, "track": 3}, {"t": 3.25, "dur": 0.24792, "note": 61, "vel": 72, "track": 7}, {"t": 3.25, "dur": 0.49792, "note": 80, "vel": 81, "track": 5}, {"t": 3.25, "dur": 0.24792, "note": 85, "vel": 69, "track": 2}, {"t": 3.25, "dur": 0.24792, "note": 85, "vel": 74, "track": 3}, {"t": 3.25, "dur": 0.49792, "note": 85, "vel": 81, "track": 4}, {"t": 3.25, "dur": 0.24792, "note": 87, "vel": 76, "track": 0}, {"t": 3.25, "dur": 0.24792, "note": 87, "vel": 83, "track": 6}, {"t": 3.5, "dur": 0.24792, "note": 56, "vel": 72, "track": 7}, {"t": 3.5, "dur": 0.24792, "note": 61, "vel": 101, "track": 8}, {"t": 3.5, "dur": 0.24792, "note": 85, "vel": 67, "track": 6}, {"t": 3.5, "dur": 0.24792, "note": 85, "vel": 75, "track": 0}, {"t": 3.5, "dur": 0.24792, "note": 87, "vel": 76, "track": 3}, {"t": 3.5, "dur": 0.24792, "note": 87, "vel": 81, "track": 2}, {"t": 3.75, "dur": 0.24792, "note": 51, "vel": 68, "track": 7}, {"t": 3.75, "dur": 0.99792, "note": 51, "vel": 71, "track": 9}, {"t": 3.75, "dur": 0.49792, "note": 63, "vel": 88, "track": 8}, {"t": 3.75, "dur": 0.24792, "note": 78, "vel": 63, "track": 2}, {"t": 3.75, "dur": 0.49792, "note": 78, "vel": 62, "track": 3}, {"t": 3.75, "dur": 1.24792, "note": 78, "vel": 74, "track": 5}, {"t": 3.75, "dur": 1.24792, "note": 82, "vel": 74, "track": 4}, {"t": 3.75, "dur": 0.24792, "note": 87, "vel": 77, "track": 6}, {"t": 3.75, "dur": 0.74792, "note": 87, "vel": 84, "track": 0}, {"t": 4.0, "dur": 0.24792, "note": 58, "vel": 82, "track": 7}, {"t": 4.0, "dur": 0.24792, "note": 78, "vel": 59, "track": 6}, {"t": 4.0, "dur": 0.24792, "note": 82, "vel": 84, "track": 2}, {"t": 4.25, "dur": 0.49792, "note": 51, "vel": 70, "track": 8}, {"t": 4.25, "dur": 0.24792, "note": 66, "vel": 92, "track": 7}, {"t": 4.25, "dur": 0.24792, "note": 82, "vel": 87, "track": 6}, {"t": 4.25, "dur": 0.24792, "note": 87, "vel": 88, "track": 2}, {"t": 4.25, "dur": 0.49792, "note": 87, "vel": 88, "track": 3}, {"t": 4.5, "dur": 0.24792, "note": 63, "vel": 75, "track": 7}, {"t": 4.5, "dur": 0.24792, "note": 82, "vel": 64, "track": 2}, {"t": 4.5, "dur": 0.24792, "note": 87, "vel": 88, "track": 6}, {"t": 4.5, "dur": 0.49792, "note": 87, "vel": 79, "track": 0}, {"t": 4.5, "dur": 0.5, "note": 87, "vel": 38, "track": 4}, {"t": 4.75, "dur": 0.24792, "note": 58, "vel": 72, "track": 7}, {"t": 4.75, "dur": 0.24792, "note": 63, "vel": 99, "track": 8}, {"t": 4.75, "dur": 0.24792, "note": 82, "vel": 68, "track": 6}, {"t": 4.75, "dur": 0.24792, "note": 87, "vel": 79, "track": 3}, {"t": 4.75, "dur": 0.24792, "note": 87, "vel": 87, "track": 2}]}, {"id": 25, "measures": "m35", "meter": [10, 16], "length_ticks": 1200, "length_beats": 2.5, "notes": [{"t": 0.0, "dur": 0.24792, "note": 49, "vel": 64, "track": 7}, {"t": 0.0, "dur": 0.99792, "note": 49, "vel": 70, "track": 9}, {"t": 0.0, "dur": 0.49792, "note": 61, "vel": 75, "track": 8}, {"t": 0.0, "dur": 0.24792, "note": 80, "vel": 62, "track": 2}, {"t": 0.0, "dur": 0.49792, "note": 80, "vel": 63, "track": 3}, {"t": 0.0, "dur": 1.24792, "note": 80, "vel": 80, "track": 5}, {"t": 0.0, "dur": 1.24792, "note": 85, "vel": 80, "track": 4}, {"t": 0.0, "dur": 0.74792, "note": 87, "vel": 38, "track": 4}, {"t": 0.0, "dur": 0.24792, "note": 87, "vel": 88, "track": 6}, {"t": 0.0, "dur": 0.74792, "note": 87, "vel": 75, "track": 0}, {"t": 0.25, "dur": 0.24792, "note": 56, "vel": 81, "track": 7}, {"t": 0.25, "dur": 0.24792, "note": 80, "vel": 65, "track": 6}, {"t": 0.25, "dur": 0.24792, "note": 85, "vel": 85, "track": 2}, {"t": 0.5, "dur": 0.49792, "note": 49, "vel": 77, "track": 8}, {"t": 0.5, "dur": 0.24792, "note": 65, "vel": 96, "track": 7}, {"t": 0.5, "dur": 0.24792, "note": 85, "vel": 85, "track": 6}, {"t": 0.5, "dur": 0.24792, "note": 87, "vel": 79, "track": 2}, {"t": 0.5, "dur": 0.24792, "note": 87, "vel": 87, "track": 3}, {"t": 0.75, "dur": 0.24792, "note": 61, "vel": 69, "track": 7}, {"t": 0.75, "dur": 0.24792, "note": 85, "vel": 74, "track": 3}, {"t": 0.75, "dur": 0.24792, "note": 85, "vel": 77, "track": 2}, {"t": 0.75, "dur": 0.24792, "note": 87, "vel": 77, "track": 0}, {"t": 0.75, "dur": 0.24792, "note": 87, "vel": 84, "track": 6}, {"t": 0.75, "dur": 1.24792, "note": 89, "vel": 41, "track": 4}, {"t": 1.0, "dur": 0.24792, "note": 56, "vel": 73, "track": 7}, {"t": 1.0, "dur": 0.24792, "note": 61, "vel": 93, "track": 8}, {"t": 1.0, "dur": 0.24792, "note": 85, "vel": 67, "track": 6}, {"t": 1.0, "dur": 0.24792, "note": 85, "vel": 73, "track": 0}, {"t": 1.0, "dur": 0.24792, "note": 89, "vel": 83, "track": 3}, {"t": 1.0, "dur": 0.24792, "note": 89, "vel": 84, "track": 2}, {"t": 1.25, "dur": 0.24792, "note": 51, "vel": 68, "track": 7}, {"t": 1.25, "dur": 0.99792, "note": 51, "vel": 69, "track": 9}, {"t": 1.25, "dur": 0.49792, "note": 63, "vel": 86, "track": 8}, {"t": 1.25, "dur": 0.24792, "note": 78, "vel": 55, "track": 2}, {"t": 1.25, "dur": 0.49792, "note": 78, "vel": 58, "track": 3}, {"t": 1.25, "dur": 1.24792, "note": 78, "vel": 70, "track": 5}, {"t": 1.25, "dur": 1.24792, "note": 82, "vel": 70, "track": 4}, {"t": 1.25, "dur": 0.24792, "note": 89, "vel": 81, "track": 6}, {"t": 1.25, "dur": 0.74792, "note": 89, "vel": 84, "track": 0}, {"t": 1.5, "dur": 0.24792, "note": 58, "vel": 81, "track": 7}, {"t": 1.5, "dur": 0.24792, "note": 78, "vel": 59, "track": 6}, {"t": 1.5, "dur": 0.24792, "note": 82, "vel": 83, "track": 2}, {"t": 1.75, "dur": 0.49792, "note": 51, "vel": 78, "track": 8}, {"t": 1.75, "dur": 0.24792, "note": 66, "vel": 94, "track": 7}, {"t": 1.75, "dur": 0.24792, "note": 82, "vel": 83, "track": 6}, {"t": 1.75, "dur": 0.24792, "note": 89, "vel": 91, "track": 2}, {"t": 1.75, "dur": 0.49792, "note": 89, "vel": 93, "track": 3}, {"t": 2.0, "dur": 0.24792, "note": 63, "vel": 77, "track": 7}, {"t": 2.0, "dur": 0.24792, "note": 82, "vel": 66, "track": 2}, {"t": 2.0, "dur": 0.24792, "note": 89, "vel": 94, "track": 6}, {"t": 2.0, "dur": 0.49792, "note": 89, "vel": 81, "track": 0}, {"t": 2.0, "dur": 0.5, "note": 89, "vel": 42, "track": 4}, {"t": 2.25, "dur": 0.24792, "note": 58, "vel": 70, "track": 7}, {"t": 2.25, "dur": 0.24792, "note": 63, "vel": 91, "track": 8}, {"t": 2.25, "dur": 0.24792, "note": 82, "vel": 65, "track": 6}, {"t": 2.25, "dur": 0.24792, "note": 89, "vel": 76, "track": 3}, {"t": 2.25, "dur": 0.24792, "note": 89, "vel": 88, "track": 2}]}, {"id": 26, "measures": "m36", "meter": [10, 16], "length_ticks": 1200, "length_beats": 2.5, "notes": [{"t": 0.0, "dur": 0.24792, "note": 49, "vel": 69, "track": 7}, {"t": 0.0, "dur": 0.99792, "note": 49, "vel": 67, "track": 9}, {"t": 0.0, "dur": 0.49792, "note": 61, "vel": 77, "track": 8}, {"t": 0.0, "dur": 0.24792, "note": 80, "vel": 63, "track": 2}, {"t": 0.0, "dur": 0.49792, "note": 80, "vel": 59, "track": 3}, {"t": 0.0, "dur": 1.24792, "note": 80, "vel": 88, "track": 5}, {"t": 0.0, "dur": 1.24792, "note": 85, "vel": 88, "track": 4}, {"t": 0.0, "dur": 0.74792, "note": 89, "vel": 42, "track": 4}, {"t": 0.0, "dur": 0.24792, "note": 89, "vel": 88, "track": 6}, {"t": 0.0, "dur": 0.74792, "note": 89, "vel": 76, "track": 0}, {"t": 0.25, "dur": 0.24792, "note": 56, "vel": 82, "track": 7}, {"t": 0.25, "dur": 0.24792, "note": 80, "vel": 62, "track": 6}, {"t": 0.25, "dur": 0.24792, "note": 85, "vel": 83, "track": 2}, {"t": 0.5, "dur": 0.49792, "note": 49, "vel": 64, "track": 8}, {"t": 0.5, "dur": 0.24792, "note": 65, "vel": 94, "track": 7}, {"t": 0.5, "dur": 0.24792, "note": 85, "vel": 85, "track": 6}, {"t": 0.5, "dur": 0.24792, "note": 89, "vel": 82, "track": 2}, {"t": 0.5, "dur": 0.24792, "note": 89, "vel": 88, "track": 3}, {"t": 0.75, "dur": 0.24792, "note": 61, "vel": 71, "track": 7}, {"t": 0.75, "dur": 0.24792, "note": 85, "vel": 71, "track": 2}, {"t": 0.75, "dur": 0.24792, "note": 85, "vel": 71, "track": 3}, {"t": 0.75, "dur": 0.24792, "note": 89, "vel": 85, "track": 6}, {"t": 0.75, "dur": 0.49792, "note": 89, "vel": 74, "track": 0}, {"t": 0.75, "dur": 1.24792, "note": 89, "vel": 46, "track": 4}, {"t": 1.0, "dur": 0.24792, "note": 56, "vel": 76, "track": 7}, {"t": 1.0, "dur": 0.24792, "note": 61, "vel": 92, "track": 8}, {"t": 1.0, "dur": 0.24792, "note": 85, "vel": 68, "track": 6}, {"t": 1.0, "dur": 0.24792, "note": 89, "vel": 83, "track": 2}, {"t": 1.0, "dur": 0.24792, "note": 89, "vel": 84, "track": 3}, {"t": 1.25, "dur": 0.24792, "note": 51, "vel": 70, "track": 7}, {"t": 1.25, "dur": 0.99792, "note": 51, "vel": 71, "track": 9}, {"t": 1.25, "dur": 0.49792, "note": 63, "vel": 86, "track": 8}, {"t": 1.25, "dur": 0.24792, "note": 78, "vel": 58, "track": 2}, {"t": 1.25, "dur": 0.49792, "note": 78, "vel": 58, "track": 3}, {"t": 1.25, "dur": 1.24792, "note": 78, "vel": 70, "track": 5}, {"t": 1.25, "dur": 1.24792, "note": 82, "vel": 70, "track": 4}, {"t": 1.25, "dur": 0.24792, "note": 89, "vel": 85, "track": 6}, {"t": 1.25, "dur": 0.74792, "note": 89, "vel": 77, "track": 0}, {"t": 1.5, "dur": 0.24792, "note": 58, "vel": 75, "track": 7}, {"t": 1.5, "dur": 0.24792, "note": 78, "vel": 56, "track": 6}, {"t": 1.5, "dur": 0.24792, "note": 82, "vel": 81, "track": 2}, {"t": 1.75, "dur": 0.49792, "note": 51, "vel": 70, "track": 8}, {"t": 1.75, "dur": 0.24792, "note": 66, "vel": 93, "track": 7}, {"t": 1.75, "dur": 0.24792, "note": 82, "vel": 81, "track": 6}, {"t": 1.75, "dur": 0.24792, "note": 89, "vel": 89, "track": 2}, {"t": 1.75, "dur": 0.49792, "note": 89, "vel": 97, "track": 3}, {"t": 2.0, "dur": 0.24792, "note": 63, "vel": 73, "track": 7}, {"t": 2.0, "dur": 0.24792, "note": 82, "vel": 64, "track": 2}, {"t": 2.0, "dur": 0.24792, "note": 89, "vel": 90, "track": 6}, {"t": 2.0, "dur": 0.49792, "note": 89, "vel": 77, "track": 0}, {"t": 2.0, "dur": 0.5, "note": 89, "vel": 36, "track": 4}, {"t": 2.25, "dur": 0.24792, "note": 58, "vel": 69, "track": 7}, {"t": 2.25, "dur": 0.24792, "note": 63, "vel": 100, "track": 8}, {"t": 2.25, "dur": 0.24792, "note": 82, "vel": 63, "track": 6}, {"t": 2.25, "dur": 0.24792, "note": 89, "vel": 76, "track": 3}, {"t": 2.25, "dur": 0.24792, "note": 89, "vel": 85, "track": 2}]}, {"id": 27, "measures": "m37", "meter": [10, 16], "length_ticks": 1200, "length_beats": 2.5, "notes": [{"t": 0.0, "dur": 0.24792, "note": 49, "vel": 66, "track": 7}, {"t": 0.0, "dur": 0.99792, "note": 49, "vel": 71, "track": 9}, {"t": 0.0, "dur": 0.49792, "note": 61, "vel": 76, "track": 8}, {"t": 0.0, "dur": 0.24792, "note": 80, "vel": 59, "track": 2}, {"t": 0.0, "dur": 0.49792, "note": 80, "vel": 61, "track": 3}, {"t": 0.0, "dur": 1.24792, "note": 80, "vel": 83, "track": 5}, {"t": 0.0, "dur": 1.24792, "note": 85, "vel": 83, "track": 4}, {"t": 0.0, "dur": 0.74792, "note": 89, "vel": 36, "track": 4}, {"t": 0.0, "dur": 0.24792, "note": 89, "vel": 89, "track": 6}, {"t": 0.0, "dur": 0.74792, "note": 89, "vel": 78, "track": 0}, {"t": 0.25, "dur": 0.24792, "note": 56, "vel": 79, "track": 7}, {"t": 0.25, "dur": 0.24792, "note": 80, "vel": 67, "track": 6}, {"t": 0.25, "dur": 0.24792, "note": 85, "vel": 84, "track": 2}, {"t": 0.5, "dur": 0.49792, "note": 49, "vel": 74, "track": 8}, {"t": 0.5, "dur": 0.24792, "note": 65, "vel": 93, "track": 7}, {"t": 0.5, "dur": 0.24792, "note": 85, "vel": 82, "track": 6}, {"t": 0.5, "dur": 0.24792, "note": 89, "vel": 88, "track": 2}, {"t": 0.5, "dur": 0.24792, "note": 89, "vel": 89, "track": 3}, {"t": 0.75, "dur": 0.24792, "note": 61, "vel": 71, "track": 7}, {"t": 0.75, "dur": 0.24792, "note": 85, "vel": 69, "track": 2}, {"t": 0.75, "dur": 0.24792, "note": 85, "vel": 73, "track": 3}, {"t": 0.75, "dur": 0.24792, "note": 87, "vel": 71, "track": 0}, {"t": 0.75, "dur": 0.24792, "note": 87, "vel": 82, "track": 6}, {"t": 0.75, "dur": 1.74792, "note": 87, "vel": 36, "track": 4}, {"t": 1.0, "dur": 0.24792, "note": 56, "vel": 68, "track": 7}, {"t": 1.0, "dur": 0.24792, "note": 61, "vel": 100, "track": 8}, {"t": 1.0, "dur": 0.24792, "note": 85, "vel": 69, "track": 0}, {"t": 1.0, "dur": 0.24792, "note": 85, "vel": 70, "track": 6}, {"t": 1.0, "dur": 0.24792, "note": 87, "vel": 81, "track": 3}, {"t": 1.0, "dur": 0.24792, "note": 87, "vel": 83, "track": 2}, {"t": 1.25, "dur": 0.24792, "note": 51, "vel": 73, "track": 7}, {"t": 1.25, "dur": 0.99792, "note": 51, "vel": 64, "track": 9}, {"t": 1.25, "dur": 0.49792, "note": 63, "vel": 82, "track": 8}, {"t": 1.25, "dur": 0.24792, "note": 78, "vel": 63, "track": 2}, {"t": 1.25, "dur": 0.49792, "note": 78, "vel": 60, "track": 3}, {"t": 1.25, "dur": 1.24792, "note": 78, "vel": 71, "track": 5}, {"t": 1.25, "dur": 1.24792, "note": 82, "vel": 71, "track": 4}, {"t": 1.25, "dur": 0.24792, "note": 87, "vel": 77, "track": 6}, {"t": 1.25, "dur": 0.74792, "note": 87, "vel": 82, "track": 0}, {"t": 1.5, "dur": 0.24792, "note": 58, "vel": 81, "track": 7}, {"t": 1.5, "dur": 0.24792, "note": 78, "vel": 59, "track": 6}, {"t": 1.5, "dur": 0.24792, "note": 82, "vel": 83, "track": 2}, {"t": 1.75, "dur": 0.49792, "note": 51, "vel": 80, "track": 8}, {"t": 1.75, "dur": 0.24792, "note": 66, "vel": 95, "track": 7}, {"t": 1.75, "dur": 0.24792, "note": 82, "vel": 84, "track": 6}, {"t": 1.75, "dur": 0.24792, "note": 87, "vel": 83, "track": 2}, {"t": 1.75, "dur": 0.49792, "note": 87, "vel": 87, "track": 3}, {"t": 2.0, "dur": 0.24792, "note": 63, "vel": 68, "track": 7}, {"t": 2.0, "dur": 0.24792, "note": 82, "vel": 76, "track": 2}, {"t": 2.0, "dur": 0.24792, "note": 87, "vel": 88, "track": 6}, {"t": 2.0, "dur": 0.49792, "note": 87, "vel": 74, "track": 0}, {"t": 2.25, "dur": 0.24792, "note": 58, "vel": 69, "track": 7}, {"t": 2.25, "dur": 0.24792, "note": 63, "vel": 92, "track": 8}, {"t": 2.25, "dur": 0.24792, "note": 82, "vel": 65, "track": 6}, {"t": 2.25, "dur": 0.24792, "note": 87, "vel": 83, "track": 3}, {"t": 2.25, "dur": 0.24792, "note": 87, "vel": 88, "track": 2}]}, {"id": 28, "measures": "m38", "meter": [10, 16], "length_ticks": 1200, "length_beats": 2.5, "notes": [{"t": 0.0, "dur": 0.24792, "note": 56, "vel": 78, "track": 7}, {"t": 0.0, "dur": 0.99792, "note": 56, "vel": 71, "track": 9}, {"t": 0.0, "dur": 0.49792, "note": 68, "vel": 91, "track": 8}, {"t": 0.0, "dur": 0.24792, "note": 75, "vel": 56, "track": 2}, {"t": 0.0, "dur": 0.49792, "note": 75, "vel": 56, "track": 3}, {"t": 0.0, "dur": 0.74792, "note": 75, "vel": 43, "track": 5}, {"t": 0.0, "dur": 0.74792, "note": 80, "vel": 43, "track": 5}, {"t": 0.0, "dur": 0.24792, "note": 87, "vel": 84, "track": 6}, {"t": 0.0, "dur": 0.74792, "note": 87, "vel": 43, "track": 4}, {"t": 0.0, "dur": 0.74792, "note": 87, "vel": 74, "track": 0}, {"t": 0.25, "dur": 0.24792, "note": 63, "vel": 86, "track": 7}, {"t": 0.25, "dur": 0.24792, "note": 75, "vel": 56, "track": 6}, {"t": 0.25, "dur": 0.24792, "note": 80, "vel": 84, "track": 2}, {"t": 0.5, "dur": 0.49792, "note": 56, "vel": 69, "track": 8}, {"t": 0.5, "dur": 0.24792, "note": 71, "vel": 96, "track": 7}, {"t": 0.5, "dur": 0.24792, "note": 80, "vel": 80, "track": 6}, {"t": 0.5, "dur": 0.24792, "note": 87, "vel": 93, "track": 2}, {"t": 0.5, "dur": 0.24792, "note": 87, "vel": 96, "track": 3}, {"t": 0.75, "dur": 0.24792, "note": 68, "vel": 75, "track": 7}, {"t": 0.75, "dur": 0.49792, "note": 75, "vel": 39, "track": 5}, {"t": 0.75, "dur": 0.24792, "note": 80, "vel": 64, "track": 2}, {"t": 0.75, "dur": 0.24792, "note": 80, "vel": 67, "track": 3}, {"t": 0.75, "dur": 0.49792, "note": 80, "vel": 39, "track": 5}, {"t": 0.75, "dur": 0.24792, "note": 87, "vel": 93, "track": 6}, {"t": 0.75, "dur": 0.49792, "note": 87, "vel": 39, "track": 4}, {"t": 0.75, "dur": 0.49792, "note": 87, "vel": 76, "track": 0}, {"t": 1.0, "dur": 0.24792, "note": 63, "vel": 67, "track": 7}, {"t": 1.0, "dur": 0.24792, "note": 68, "vel": 91, "track": 8}, {"t": 1.0, "dur": 0.24792, "note": 80, "vel": 66, "track": 6}, {"t": 1.0, "dur": 0.24792, "note": 87, "vel": 81, "track": 2}, {"t": 1.0, "dur": 0.24792, "note": 87, "vel": 85, "track": 3}, {"t": 1.25, "dur": 0.24792, "note": 58, "vel": 72, "track": 7}, {"t": 1.25, "dur": 0.99792, "note": 58, "vel": 66, "track": 9}, {"t": 1.25, "dur": 0.49792, "note": 70, "vel": 83, "track": 8}, {"t": 1.25, "dur": 0.24792, "note": 76, "vel": 55, "track": 2}, {"t": 1.25, "dur": 0.49792, "note": 76, "vel": 56, "track": 3}, {"t": 1.25, "dur": 0.74792, "note": 77, "vel": 40, "track": 5}, {"t": 1.25, "dur": 0.74792, "note": 80, "vel": 40, "track": 5}, {"t": 1.25, "dur": 0.24792, "note": 87, "vel": 90, "track": 6}, {"t": 1.25, "dur": 0.74792, "note": 87, "vel": 40, "track": 4}, {"t": 1.25, "dur": 0.74792, "note": 87, "vel": 78, "track": 0}, {"t": 1.5, "dur": 0.24792, "note": 64, "vel": 88, "track": 7}, {"t": 1.5, "dur": 0.24792, "note": 76, "vel": 57, "track": 6}, {"t": 1.5, "dur": 0.24792, "note": 80, "vel": 84, "track": 2}, {"t": 1.75, "dur": 0.24792, "note": 73, "vel": 100, "track": 7}, {"t": 1.75, "dur": 0.49792, "note": 73, "vel": 83, "track": 8}, {"t": 1.75, "dur": 0.24792, "note": 80, "vel": 83, "track": 6}, {"t": 1.75, "dur": 0.24792, "note": 85, "vel": 87, "track": 2}, {"t": 1.75, "dur": 0.49792, "note": 85, "vel": 88, "track": 3}, {"t": 2.0, "dur": 0.24792, "note": 68, "vel": 69, "track": 7}, {"t": 2.0, "dur": 0.49792, "note": 77, "vel": 36, "track": 5}, {"t": 2.0, "dur": 0.24792, "note": 80, "vel": 66, "track": 2}, {"t": 2.0, "dur": 0.49792, "note": 80, "vel": 36, "track": 5}, {"t": 2.0, "dur": 0.24792, "note": 85, "vel": 92, "track": 6}, {"t": 2.0, "dur": 0.49792, "note": 85, "vel": 36, "track": 4}, {"t": 2.0, "dur": 0.49792, "note": 85, "vel": 72, "track": 0}, {"t": 2.25, "dur": 0.24792, "note": 63, "vel": 64, "track": 7}, {"t": 2.25, "dur": 0.24792, "note": 70, "vel": 67, "track": 8}, {"t": 2.25, "dur": 0.24792, "note": 80, "vel": 68, "track": 6}, {"t": 2.25, "dur": 0.24792, "note": 85, "vel": 79, "track": 2}, {"t": 2.25, "dur": 0.24792, "note": 85, "vel": 80, "track": 3}]}, {"id": 29, "measures": "m39", "meter": [10, 16], "length_ticks": 1200, "length_beats": 2.5, "notes": [{"t": 0.0, "dur": 0.24792, "note": 56, "vel": 72, "track": 7}, {"t": 0.0, "dur": 0.99792, "note": 56, "vel": 66, "track": 9}, {"t": 0.0, "dur": 0.49792, "note": 71, "vel": 84, "track": 8}, {"t": 0.0, "dur": 0.24792, "note": 75, "vel": 59, "track": 2}, {"t": 0.0, "dur": 0.49792, "note": 75, "vel": 60, "track": 3}, {"t": 0.0, "dur": 0.74792, "note": 75, "vel": 44, "track": 5}, {"t": 0.0, "dur": 0.74792, "note": 80, "vel": 44, "track": 5}, {"t": 0.0, "dur": 0.24792, "note": 87, "vel": 88, "track": 6}, {"t": 0.0, "dur": 0.74792, "note": 87, "vel": 44, "track": 4}, {"t": 0.0, "dur": 0.74792, "note": 87, "vel": 76, "track": 0}, {"t": 0.25, "dur": 0.24792, "note": 63, "vel": 87, "track": 7}, {"t": 0.25, "dur": 0.24792, "note": 75, "vel": 56, "track": 6}, {"t": 0.25, "dur": 0.24792, "note": 80, "vel": 84, "track": 2}, {"t": 0.5, "dur": 0.49792, "note": 59, "vel": 65, "track": 8}, {"t": 0.5, "dur": 0.24792, "note": 71, "vel": 93, "track": 7}, {"t": 0.5, "dur": 0.24792, "note": 80, "vel": 79, "track": 6}, {"t": 0.5, "dur": 0.24792, "note": 83, "vel": 78, "track": 2}, {"t": 0.5, "dur": 0.24792, "note": 83, "vel": 87, "track": 3}, {"t": 0.75, "dur": 0.24792, "note": 68, "vel": 70, "track": 7}, {"t": 0.75, "dur": 0.49792, "note": 75, "vel": 34, "track": 5}, {"t": 0.75, "dur": 0.24792, "note": 80, "vel": 72, "track": 3}, {"t": 0.75, "dur": 0.24792, "note": 80, "vel": 74, "track": 2}, {"t": 0.75, "dur": 0.49792, "note": 80, "vel": 34, "track": 5}, {"t": 0.75, "dur": 0.24792, "note": 83, "vel": 82, "track": 6}, {"t": 0.75, "dur": 0.49792, "note": 83, "vel": 34, "track": 4}, {"t": 0.75, "dur": 0.49792, "note": 83, "vel": 67, "track": 0}, {"t": 1.0, "dur": 0.24792, "note": 63, "vel": 69, "track": 7}, {"t": 1.0, "dur": 0.24792, "note": 71, "vel": 97, "track": 8}, {"t": 1.0, "dur": 0.24792, "note": 80, "vel": 72, "track": 6}, {"t": 1.0, "dur": 0.24792, "note": 87, "vel": 87, "track": 3}, {"t": 1.0, "dur": 0.24792, "note": 87, "vel": 88, "track": 2}, {"t": 1.25, "dur": 0.24792, "note": 58, "vel": 72, "track": 7}, {"t": 1.25, "dur": 0.99792, "note": 58, "vel": 67, "track": 9}, {"t": 1.25, "dur": 0.49792, "note": 70, "vel": 84, "track": 8}, {"t": 1.25, "dur": 0.24792, "note": 76, "vel": 61, "track": 2}, {"t": 1.25, "dur": 0.49792, "note": 76, "vel": 58, "track": 3}, {"t": 1.25, "dur": 0.74792, "note": 76, "vel": 42, "track": 5}, {"t": 1.25, "dur": 0.74792, "note": 80, "vel": 42, "track": 5}, {"t": 1.25, "dur": 0.24792, "note": 87, "vel": 90, "track": 6}, {"t": 1.25, "dur": 0.74792, "note": 87, "vel": 42, "track": 4}, {"t": 1.25, "dur": 0.74792, "note": 87, "vel": 82, "track": 0}, {"t": 1.5, "dur": 0.24792, "note": 64, "vel": 85, "track": 7}, {"t": 1.5, "dur": 0.24792, "note": 76, "vel": 62, "track": 6}, {"t": 1.5, "dur": 0.24792, "note": 80, "vel": 79, "track": 2}, {"t": 1.75, "dur": 0.24792, "note": 73, "vel": 92, "track": 7}, {"t": 1.75, "dur": 0.49792, "note": 73, "vel": 81, "track": 8}, {"t": 1.75, "dur": 0.24792, "note": 80, "vel": 84, "track": 6}, {"t": 1.75, "dur": 0.24792, "note": 85, "vel": 84, "track": 2}, {"t": 1.75, "dur": 0.49792, "note": 85, "vel": 91, "track": 3}, {"t": 2.0, "dur": 0.24792, "note": 68, "vel": 70, "track": 7}, {"t": 2.0, "dur": 0.49792, "note": 76, "vel": 39, "track": 5}, {"t": 2.0, "dur": 0.24792, "note": 80, "vel": 68, "track": 2}, {"t": 2.0, "dur": 0.49792, "note": 80, "vel": 39, "track": 5}, {"t": 2.0, "dur": 0.24792, "note": 85, "vel": 88, "track": 6}, {"t": 2.0, "dur": 0.49792, "note": 85, "vel": 39, "track": 4}, {"t": 2.0, "dur": 0.49792, "note": 85, "vel": 77, "track": 0}, {"t": 2.25, "dur": 0.24792, "note": 64, "vel": 70, "track": 7}, {"t": 2.25, "dur": 0.24792, "note": 70, "vel": 70, "track": 8}, {"t": 2.25, "dur": 0.24792, "note": 80, "vel": 68, "track": 6}, {"t": 2.25, "dur": 0.24792, "note": 82, "vel": 72, "track": 3}, {"t": 2.25, "dur": 0.24792, "note": 82, "vel": 81, "track": 2}]}, {"id": 30, "measures": "m40-41", "meter": [10, 16], "length_ticks": 2400, "length_beats": 5.0, "notes": [{"t": 0.0, "dur": 0.24792, "note": 56, "vel": 66, "track": 7}, {"t": 0.0, "dur": 0.99792, "note": 56, "vel": 68, "track": 9}, {"t": 0.0, "dur": 0.49792, "note": 68, "vel": 68, "track": 8}, {"t": 0.0, "dur": 0.24792, "note": 75, "vel": 59, "track": 2}, {"t": 0.0, "dur": 0.49792, "note": 75, "vel": 57, "track": 3}, {"t": 0.0, "dur": 0.74792, "note": 75, "vel": 35, "track": 5}, {"t": 0.0, "dur": 0.74792, "note": 80, "vel": 35, "track": 5}, {"t": 0.0, "dur": 0.24792, "note": 82, "vel": 78, "track": 6}, {"t": 0.0, "dur": 0.74792, "note": 82, "vel": 35, "track": 4}, {"t": 0.0, "dur": 0.74792, "note": 82, "vel": 68, "track": 0}, {"t": 0.25, "dur": 0.24792, "note": 63, "vel": 90, "track": 7}, {"t": 0.25, "dur": 0.24792, "note": 75, "vel": 68, "track": 6}, {"t": 0.25, "dur": 0.24792, "note": 80, "vel": 86, "track": 2}, {"t": 0.5, "dur": 0.49792, "note": 56, "vel": 62, "track": 8}, {"t": 0.5, "dur": 0.24792, "note": 71, "vel": 93, "track": 7}, {"t": 0.5, "dur": 0.24792, "note": 80, "vel": 83, "track": 6}, {"t": 0.5, "dur": 0.24792, "note": 82, "vel": 82, "track": 2}, {"t": 0.5, "dur": 0.24792, "note": 82, "vel": 91, "track": 3}, {"t": 0.75, "dur": 0.24792, "note": 68, "vel": 70, "track": 7}, {"t": 0.75, "dur": 0.49792, "note": 75, "vel": 37, "track": 5}, {"t": 0.75, "dur": 0.24792, "note": 80, "vel": 67, "track": 2}, {"t": 0.75, "dur": 0.24792, "note": 80, "vel": 71, "track": 3}, {"t": 0.75, "dur": 0.49792, "note": 80, "vel": 37, "track": 5}, {"t": 0.75, "dur": 0.24792, "note": 82, "vel": 84, "track": 6}, {"t": 0.75, "dur": 0.49792, "note": 82, "vel": 37, "track": 4}, {"t": 0.75, "dur": 0.49792, "note": 82, "vel": 75, "track": 0}, {"t": 1.0, "dur": 0.24792, "note": 63, "vel": 67, "track": 7}, {"t": 1.0, "dur": 0.24792, "note": 68, "vel": 96, "track": 8}, {"t": 1.0, "dur": 0.24792, "note": 80, "vel": 70, "track": 6}, {"t": 1.0, "dur": 0.24792, "note": 87, "vel": 90, "track": 2}, {"t": 1.0, "dur": 0.24792, "note": 87, "vel": 91, "track": 3}, {"t": 1.25, "dur": 0.24792, "note": 58, "vel": 68, "track": 7}, {"t": 1.25, "dur": 0.99792, "note": 58, "vel": 69, "track": 9}, {"t": 1.25, "dur": 0.49792, "note": 70, "vel": 83, "track": 8}, {"t": 1.25, "dur": 0.24792, "note": 76, "vel": 62, "track": 2}, {"t": 1.25, "dur": 0.49792, "note": 76, "vel": 59, "track": 3}, {"t": 1.25, "dur": 0.74792, "note": 76, "vel": 43, "track": 5}, {"t": 1.25, "dur": 0.74792, "note": 80, "vel": 43, "track": 5}, {"t": 1.25, "dur": 0.24792, "note": 87, "vel": 91, "track": 6}, {"t": 1.25, "dur": 0.74792, "note": 87, "vel": 43, "track": 4}, {"t": 1.25, "dur": 0.74792, "note": 87, "vel": 89, "track": 0}, {"t": 1.5, "dur": 0.24792, "note": 64, "vel": 86, "track": 7}, {"t": 1.5, "dur": 0.24792, "note": 76, "vel": 60, "track": 6}, {"t": 1.5, "dur": 0.24792, "note": 80, "vel": 77, "track": 2}, {"t": 1.75, "dur": 0.24792, "note": 73, "vel": 93, "track": 7}, {"t": 1.75, "dur": 0.49792, "note": 73, "vel": 83, "track": 8}, {"t": 1.75, "dur": 0.24792, "note": 80, "vel": 84, "track": 6}, {"t": 1.75, "dur": 0.24792, "note": 85, "vel": 89, "track": 2}, {"t": 1.75, "dur": 0.49792, "note": 85, "vel": 92, "track": 3}, {"t": 2.0, "dur": 0.24792, "note": 68, "vel": 69, "track": 7}, {"t": 2.0, "dur": 0.49792, "note": 76, "vel": 40, "track": 5}, {"t": 2.0, "dur": 0.24792, "note": 80, "vel": 69, "track": 2}, {"t": 2.0, "dur": 0.49792, "note": 80, "vel": 40, "track": 5}, {"t": 2.0, "dur": 0.24792, "note": 85, "vel": 83, "track": 6}, {"t": 2.0, "dur": 0.49792, "note": 85, "vel": 40, "track": 4}, {"t": 2.0, "dur": 0.49792, "note": 85, "vel": 78, "track": 0}, {"t": 2.25, "dur": 0.24792, "note": 63, "vel": 69, "track": 7}, {"t": 2.25, "dur": 0.24792, "note": 70, "vel": 68, "track": 8}, {"t": 2.25, "dur": 0.24792, "note": 80, "vel": 69, "track": 6}, {"t": 2.25, "dur": 0.24792, "note": 87, "vel": 83, "track": 3}, {"t": 2.25, "dur": 0.24792, "note": 87, "vel": 88, "track": 2}, {"t": 2.5, "dur": 0.24792, "note": 56, "vel": 70, "track": 7}, {"t": 2.5, "dur": 0.99792, "note": 56, "vel": 73, "track": 9}, {"t": 2.5, "dur": 0.49792, "note": 71, "vel": 77, "track": 8}, {"t": 2.5, "dur": 0.24792, "note": 75, "vel": 53, "track": 2}, {"t": 2.5, "dur": 0.49792, "note": 75, "vel": 58, "track": 3}, {"t": 2.5, "dur": 0.74792, "note": 75, "vel": 42, "track": 5}, {"t": 2.5, "dur": 0.74792, "note": 80, "vel": 42, "track": 5}, {"t": 2.5, "dur": 0.24792, "note": 87, "vel": 87, "track": 6}, {"t": 2.5, "dur": 0.74792, "note": 87, "vel": 42, "track": 4}, {"t": 2.5, "dur": 0.74792, "note": 87, "vel": 77, "track": 0}, {"t": 2.75, "dur": 0.24792, "note": 63, "vel": 88, "track": 7}, {"t": 2.75, "dur": 0.24792, "note": 75, "vel": 60, "track": 6}, {"t": 2.75, "dur": 0.24792, "note": 80, "vel": 82, "track": 2}, {"t": 3.0, "dur": 0.49792, "note": 59, "vel": 66, "track": 8}, {"t": 3.0, "dur": 0.24792, "note": 71, "vel": 91, "track": 7}, {"t": 3.0, "dur": 0.24792, "note": 80, "vel": 86, "track": 6}, {"t": 3.0, "dur": 0.24792, "note": 83, "vel": 84, "track": 2}, {"t": 3.0, "dur": 0.24792, "note": 83, "vel": 86, "track": 3}, {"t": 3.25, "dur": 0.24792, "note": 68, "vel": 74, "track": 7}, {"t": 3.25, "dur": 0.49792, "note": 75, "vel": 34, "track": 5}, {"t": 3.25, "dur": 0.24792, "note": 80, "vel": 69, "track": 2}, {"t": 3.25, "dur": 0.24792, "note": 80, "vel": 71, "track": 3}, {"t": 3.25, "dur": 0.49792, "note": 80, "vel": 34, "track": 5}, {"t": 3.25, "dur": 0.24792, "note": 83, "vel": 82, "track": 6}, {"t": 3.25, "dur": 0.49792, "note": 83, "vel": 34, "track": 4}, {"t": 3.25, "dur": 0.49792, "note": 83, "vel": 67, "track": 0}, {"t": 3.5, "dur": 0.24792, "note": 63, "vel": 69, "track": 7}, {"t": 3.5, "dur": 0.24792, "note": 71, "vel": 97, "track": 8}, {"t": 3.5, "dur": 0.24792, "note": 80, "vel": 73, "track": 6}, {"t": 3.5, "dur": 0.24792, "note": 87, "vel": 84, "track": 2}, {"t": 3.5, "dur": 0.24792, "note": 87, "vel": 92, "track": 3}, {"t": 3.75, "dur": 0.24792, "note": 58, "vel": 67, "track": 7}, {"t": 3.75, "dur": 0.99792, "note": 58, "vel": 71, "track": 9}, {"t": 3.75, "dur": 0.49792, "note": 70, "vel": 75, "track": 8}, {"t": 3.75, "dur": 0.24792, "note": 76, "vel": 59, "track": 2}, {"t": 3.75, "dur": 0.49792, "note": 76, "vel": 60, "track": 3}, {"t": 3.75, "dur": 0.74792, "note": 76, "vel": 41, "track": 5}, {"t": 3.75, "dur": 0.74792, "note": 80, "vel": 41, "track": 5}, {"t": 3.75, "dur": 0.24792, "note": 87, "vel": 88, "track": 6}, {"t": 3.75, "dur": 0.74792, "note": 87, "vel": 41, "track": 4}, {"t": 3.75, "dur": 0.74792, "note": 87, "vel": 84, "track": 0}, {"t": 4.0, "dur": 0.24792, "note": 64, "vel": 85, "track": 7}, {"t": 4.0, "dur": 0.24792, "note": 76, "vel": 56, "track": 6}, {"t": 4.0, "dur": 0.24792, "note": 80, "vel": 81, "track": 2}, {"t": 4.25, "dur": 0.24792, "note": 73, "vel": 94, "track": 7}, {"t": 4.25, "dur": 0.49792, "note": 73, "vel": 87, "track": 8}, {"t": 4.25, "dur": 0.24792, "note": 80, "vel": 77, "track": 6}, {"t": 4.25, "dur": 0.24792, "note": 85, "vel": 85, "track": 2}, {"t": 4.25, "dur": 0.49792, "note": 85, "vel": 89, "track": 3}, {"t": 4.5, "dur": 0.24792, "note": 68, "vel": 71, "track": 7}, {"t": 4.5, "dur": 0.49792, "note": 76, "vel": 39, "track": 5}, {"t": 4.5, "dur": 0.24792, "note": 80, "vel": 73, "track": 2}, {"t": 4.5, "dur": 0.49792, "note": 80, "vel": 39, "track": 5}, {"t": 4.5, "dur": 0.24792, "note": 85, "vel": 86, "track": 6}, {"t": 4.5, "dur": 0.49792, "note": 85, "vel": 39, "track": 4}, {"t": 4.5, "dur": 0.49792, "note": 85, "vel": 71, "track": 0}, {"t": 4.75, "dur": 0.24792, "note": 64, "vel": 68, "track": 7}, {"t": 4.75, "dur": 0.24792, "note": 70, "vel": 74, "track": 8}, {"t": 4.75, "dur": 0.24792, "note": 80, "vel": 69, "track": 6}, {"t": 4.75, "dur": 0.24792, "note": 82, "vel": 76, "track": 3}, {"t": 4.75, "dur": 0.24792, "note": 82, "vel": 80, "track": 2}]}, {"id": 31, "measures": "m42", "meter": [10, 16], "length_ticks": 1200, "length_beats": 2.5, "notes": [{"t": 0.0, "dur": 0.24792, "note": 44, "vel": 63, "track": 7}, {"t": 0.0, "dur": 0.99792, "note": 44, "vel": 66, "track": 9}, {"t": 0.0, "dur": 0.49792, "note": 56, "vel": 66, "track": 8}, {"t": 0.0, "dur": 0.24792, "note": 75, "vel": 64, "track": 2}, {"t": 0.0, "dur": 0.49792, "note": 75, "vel": 65, "track": 3}, {"t": 0.0, "dur": 0.74792, "note": 75, "vel": 72, "track": 5}, {"t": 0.0, "dur": 0.74792, "note": 80, "vel": 72, "track": 5}, {"t": 0.0, "dur": 0.24792, "note": 82, "vel": 76, "track": 6}, {"t": 0.0, "dur": 0.74792, "note": 82, "vel": 70, "track": 0}, {"t": 0.0, "dur": 2.5, "note": 82, "vel": 38, "track": 4}, {"t": 0.25, "dur": 0.24792, "note": 51, "vel": 83, "track": 7}, {"t": 0.25, "dur": 0.24792, "note": 75, "vel": 61, "track": 6}, {"t": 0.25, "dur": 0.24792, "note": 80, "vel": 84, "track": 2}, {"t": 0.5, "dur": 0.49792, "note": 44, "vel": 65, "track": 8}, {"t": 0.5, "dur": 0.24792, "note": 60, "vel": 95, "track": 7}, {"t": 0.5, "dur": 0.24792, "note": 80, "vel": 82, "track": 6}, {"t": 0.5, "dur": 0.24792, "note": 82, "vel": 81, "track": 2}, {"t": 0.5, "dur": 0.24792, "note": 82, "vel": 85, "track": 3}, {"t": 0.75, "dur": 0.24792, "note": 56, "vel": 72, "track": 7}, {"t": 0.75, "dur": 0.49792, "note": 75, "vel": 75, "track": 5}, {"t": 0.75, "dur": 0.24792, "note": 80, "vel": 68, "track": 3}, {"t": 0.75, "dur": 0.24792, "note": 80, "vel": 73, "track": 2}, {"t": 0.75, "dur": 0.49792, "note": 80, "vel": 75, "track": 4}, {"t": 0.75, "dur": 0.24792, "note": 82, "vel": 75, "track": 0}, {"t": 0.75, "dur": 0.24792, "note": 82, "vel": 75, "track": 6}, {"t": 1.0, "dur": 0.24792, "note": 51, "vel": 70, "track": 7}, {"t": 1.0, "dur": 0.24792, "note": 56, "vel": 86, "track": 8}, {"t": 1.0, "dur": 0.24792, "note": 80, "vel": 68, "track": 6}, {"t": 1.0, "dur": 0.24792, "note": 80, "vel": 74, "track": 0}, {"t": 1.0, "dur": 0.24792, "note": 82, "vel": 82, "track": 2}, {"t": 1.0, "dur": 0.24792, "note": 82, "vel": 82, "track": 3}, {"t": 1.25, "dur": 0.24792, "note": 46, "vel": 74, "track": 7}, {"t": 1.25, "dur": 0.99792, "note": 46, "vel": 71, "track": 9}, {"t": 1.25, "dur": 0.49792, "note": 58, "vel": 78, "track": 8}, {"t": 1.25, "dur": 0.24792, "note": 73, "vel": 57, "track": 2}, {"t": 1.25, "dur": 0.49792, "note": 73, "vel": 61, "track": 3}, {"t": 1.25, "dur": 0.74792, "note": 73, "vel": 69, "track": 5}, {"t": 1.25, "dur": 0.74792, "note": 77, "vel": 69, "track": 4}, {"t": 1.25, "dur": 0.24792, "note": 82, "vel": 76, "track": 6}, {"t": 1.25, "dur": 0.74792, "note": 82, "vel": 81, "track": 0}, {"t": 1.5, "dur": 0.24792, "note": 53, "vel": 83, "track": 7}, {"t": 1.5, "dur": 0.24792, "note": 73, "vel": 58, "track": 6}, {"t": 1.5, "dur": 0.24792, "note": 77, "vel": 77, "track": 2}, {"t": 1.75, "dur": 0.49792, "note": 46, "vel": 65, "track": 8}, {"t": 1.75, "dur": 0.24792, "note": 61, "vel": 92, "track": 7}, {"t": 1.75, "dur": 0.24792, "note": 77, "vel": 80, "track": 6}, {"t": 1.75, "dur": 0.24792, "note": 82, "vel": 87, "track": 2}, {"t": 1.75, "dur": 0.49792, "note": 82, "vel": 89, "track": 3}, {"t": 2.0, "dur": 0.24792, "note": 58, "vel": 78, "track": 7}, {"t": 2.0, "dur": 0.49792, "note": 73, "vel": 77, "track": 5}, {"t": 2.0, "dur": 0.24792, "note": 77, "vel": 65, "track": 2}, {"t": 2.0, "dur": 0.49792, "note": 77, "vel": 77, "track": 4}, {"t": 2.0, "dur": 0.24792, "note": 82, "vel": 87, "track": 6}, {"t": 2.0, "dur": 0.49792, "note": 82, "vel": 79, "track": 0}, {"t": 2.25, "dur": 0.24792, "note": 53, "vel": 70, "track": 7}, {"t": 2.25, "dur": 0.24792, "note": 58, "vel": 85, "track": 8}, {"t": 2.25, "dur": 0.24792, "note": 77, "vel": 66, "track": 6}, {"t": 2.25, "dur": 0.24792, "note": 82, "vel": 82, "track": 3}, {"t": 2.25, "dur": 0.24792, "note": 82, "vel": 88, "track": 2}]}, {"id": 32, "measures": "m43", "meter": [10, 16], "length_ticks": 1200, "length_beats": 2.5, "notes": [{"t": 0.0, "dur": 0.24792, "note": 44, "vel": 66, "track": 7}, {"t": 0.0, "dur": 0.99792, "note": 44, "vel": 70, "track": 9}, {"t": 0.0, "dur": 0.49792, "note": 56, "vel": 73, "track": 8}, {"t": 0.0, "dur": 0.24792, "note": 75, "vel": 64, "track": 2}, {"t": 0.0, "dur": 0.49792, "note": 75, "vel": 63, "track": 3}, {"t": 0.0, "dur": 0.74792, "note": 75, "vel": 87, "track": 5}, {"t": 0.0, "dur": 0.74792, "note": 80, "vel": 87, "track": 4}, {"t": 0.0, "dur": 1.99792, "note": 82, "vel": 38, "track": 4}, {"t": 0.0, "dur": 0.24792, "note": 82, "vel": 85, "track": 6}, {"t": 0.0, "dur": 0.74792, "note": 82, "vel": 72, "track": 0}, {"t": 0.25, "dur": 0.24792, "note": 51, "vel": 78, "track": 7}, {"t": 0.25, "dur": 0.24792, "note": 75, "vel": 66, "track": 6}, {"t": 0.25, "dur": 0.24792, "note": 80, "vel": 91, "track": 2}, {"t": 0.5, "dur": 0.49792, "note": 44, "vel": 64, "track": 8}, {"t": 0.5, "dur": 0.24792, "note": 60, "vel": 96, "track": 7}, {"t": 0.5, "dur": 0.24792, "note": 80, "vel": 83, "track": 6}, {"t": 0.5, "dur": 0.24792, "note": 82, "vel": 88, "track": 3}, {"t": 0.5, "dur": 0.24792, "note": 82, "vel": 90, "track": 2}, {"t": 0.75, "dur": 0.24792, "note": 56, "vel": 74, "track": 7}, {"t": 0.75, "dur": 0.49792, "note": 75, "vel": 78, "track": 5}, {"t": 0.75, "dur": 0.24792, "note": 80, "vel": 69, "track": 2}, {"t": 0.75, "dur": 0.24792, "note": 80, "vel": 75, "track": 3}, {"t": 0.75, "dur": 0.49792, "note": 80, "vel": 78, "track": 4}, {"t": 0.75, "dur": 0.24792, "note": 82, "vel": 79, "track": 0}, {"t": 0.75, "dur": 0.24792, "note": 82, "vel": 79, "track": 6}, {"t": 1.0, "dur": 0.24792, "note": 51, "vel": 66, "track": 7}, {"t": 1.0, "dur": 0.24792, "note": 56, "vel": 87, "track": 8}, {"t": 1.0, "dur": 0.24792, "note": 80, "vel": 65, "track": 0}, {"t": 1.0, "dur": 0.24792, "note": 80, "vel": 77, "track": 6}, {"t": 1.0, "dur": 0.24792, "note": 82, "vel": 85, "track": 2}, {"t": 1.0, "dur": 0.24792, "note": 82, "vel": 85, "track": 3}, {"t": 1.25, "dur": 0.24792, "note": 46, "vel": 73, "track": 7}, {"t": 1.25, "dur": 0.99792, "note": 46, "vel": 68, "track": 9}, {"t": 1.25, "dur": 0.49792, "note": 58, "vel": 85, "track": 8}, {"t": 1.25, "dur": 0.24792, "note": 73, "vel": 62, "track": 2}, {"t": 1.25, "dur": 0.49792, "note": 73, "vel": 55, "track": 3}, {"t": 1.25, "dur": 1.24792, "note": 73, "vel": 71, "track": 5}, {"t": 1.25, "dur": 1.24792, "note": 77, "vel": 71, "track": 4}, {"t": 1.25, "dur": 0.24792, "note": 82, "vel": 81, "track": 6}, {"t": 1.25, "dur": 0.74792, "note": 82, "vel": 79, "track": 0}, {"t": 1.5, "dur": 0.24792, "note": 53, "vel": 86, "track": 7}, {"t": 1.5, "dur": 0.24792, "note": 73, "vel": 58, "track": 6}, {"t": 1.5, "dur": 0.24792, "note": 77, "vel": 79, "track": 2}, {"t": 1.75, "dur": 0.49792, "note": 46, "vel": 64, "track": 8}, {"t": 1.75, "dur": 0.24792, "note": 61, "vel": 91, "track": 7}, {"t": 1.75, "dur": 0.24792, "note": 77, "vel": 82, "track": 6}, {"t": 1.75, "dur": 0.24792, "note": 82, "vel": 85, "track": 2}, {"t": 1.75, "dur": 0.49792, "note": 82, "vel": 91, "track": 3}, {"t": 2.0, "dur": 0.24792, "note": 58, "vel": 72, "track": 7}, {"t": 2.0, "dur": 0.24792, "note": 77, "vel": 69, "track": 2}, {"t": 2.0, "dur": 0.24792, "note": 82, "vel": 87, "track": 6}, {"t": 2.0, "dur": 0.49792, "note": 82, "vel": 76, "track": 0}, {"t": 2.0, "dur": 0.5, "note": 82, "vel": 38, "track": 4}, {"t": 2.25, "dur": 0.24792, "note": 53, "vel": 67, "track": 7}, {"t": 2.25, "dur": 0.24792, "note": 58, "vel": 85, "track": 8}, {"t": 2.25, "dur": 0.24792, "note": 77, "vel": 70, "track": 6}, {"t": 2.25, "dur": 0.24792, "note": 82, "vel": 81, "track": 3}, {"t": 2.25, "dur": 0.24792, "note": 82, "vel": 86, "track": 2}]}, {"id": 33, "measures": "m44", "meter": [10, 16], "length_ticks": 1200, "length_beats": 2.5, "notes": [{"t": 0.0, "dur": 0.24792, "note": 44, "vel": 71, "track": 7}, {"t": 0.0, "dur": 0.99792, "note": 44, "vel": 68, "track": 9}, {"t": 0.0, "dur": 0.49792, "note": 56, "vel": 77, "track": 8}, {"t": 0.0, "dur": 0.24792, "note": 75, "vel": 64, "track": 2}, {"t": 0.0, "dur": 0.49792, "note": 75, "vel": 61, "track": 3}, {"t": 0.0, "dur": 1.24792, "note": 75, "vel": 82, "track": 5}, {"t": 0.0, "dur": 1.24792, "note": 80, "vel": 82, "track": 4}, {"t": 0.0, "dur": 0.74792, "note": 82, "vel": 38, "track": 4}, {"t": 0.0, "dur": 0.24792, "note": 82, "vel": 90, "track": 6}, {"t": 0.0, "dur": 0.74792, "note": 82, "vel": 72, "track": 0}, {"t": 0.25, "dur": 0.24792, "note": 51, "vel": 82, "track": 7}, {"t": 0.25, "dur": 0.24792, "note": 75, "vel": 64, "track": 6}, {"t": 0.25, "dur": 0.24792, "note": 80, "vel": 81, "track": 2}, {"t": 0.5, "dur": 0.49792, "note": 51, "vel": 87, "track": 8}, {"t": 0.5, "dur": 0.24792, "note": 60, "vel": 98, "track": 7}, {"t": 0.5, "dur": 0.24792, "note": 80, "vel": 86, "track": 6}, {"t": 0.5, "dur": 0.24792, "note": 82, "vel": 83, "track": 3}, {"t": 0.5, "dur": 0.24792, "note": 82, "vel": 86, "track": 2}, {"t": 0.75, "dur": 0.24792, "note": 56, "vel": 75, "track": 7}, {"t": 0.75, "dur": 0.24792, "note": 80, "vel": 69, "track": 2}, {"t": 0.75, "dur": 0.24792, "note": 80, "vel": 73, "track": 3}, {"t": 0.75, "dur": 0.24792, "note": 82, "vel": 78, "track": 0}, {"t": 0.75, "dur": 0.24792, "note": 82, "vel": 87, "track": 6}, {"t": 0.75, "dur": 1.24792, "note": 84, "vel": 38, "track": 4}, {"t": 1.0, "dur": 0.24792, "note": 51, "vel": 71, "track": 7}, {"t": 1.0, "dur": 0.24792, "note": 56, "vel": 80, "track": 8}, {"t": 1.0, "dur": 0.24792, "note": 80, "vel": 65, "track": 0}, {"t": 1.0, "dur": 0.24792, "note": 80, "vel": 71, "track": 6}, {"t": 1.0, "dur": 0.24792, "note": 84, "vel": 81, "track": 3}, {"t": 1.0, "dur": 0.24792, "note": 84, "vel": 84, "track": 2}, {"t": 1.25, "dur": 0.24792, "note": 46, "vel": 72, "track": 7}, {"t": 1.25, "dur": 0.99792, "note": 46, "vel": 69, "track": 9}, {"t": 1.25, "dur": 0.49792, "note": 58, "vel": 81, "track": 8}, {"t": 1.25, "dur": 0.24792, "note": 73, "vel": 57, "track": 2}, {"t": 1.25, "dur": 0.49792, "note": 73, "vel": 59, "track": 3}, {"t": 1.25, "dur": 1.24792, "note": 73, "vel": 66, "track": 5}, {"t": 1.25, "dur": 1.24792, "note": 77, "vel": 66, "track": 4}, {"t": 1.25, "dur": 0.24792, "note": 84, "vel": 88, "track": 6}, {"t": 1.25, "dur": 0.74792, "note": 84, "vel": 82, "track": 0}, {"t": 1.5, "dur": 0.24792, "note": 53, "vel": 84, "track": 7}, {"t": 1.5, "dur": 0.24792, "note": 73, "vel": 58, "track": 6}, {"t": 1.5, "dur": 0.24792, "note": 77, "vel": 80, "track": 2}, {"t": 1.75, "dur": 0.49792, "note": 53, "vel": 85, "track": 8}, {"t": 1.75, "dur": 0.24792, "note": 61, "vel": 91, "track": 7}, {"t": 1.75, "dur": 0.24792, "note": 77, "vel": 83, "track": 6}, {"t": 1.75, "dur": 0.24792, "note": 84, "vel": 89, "track": 2}, {"t": 1.75, "dur": 0.49792, "note": 84, "vel": 93, "track": 3}, {"t": 2.0, "dur": 0.24792, "note": 58, "vel": 73, "track": 7}, {"t": 2.0, "dur": 0.24792, "note": 77, "vel": 62, "track": 2}, {"t": 2.0, "dur": 0.24792, "note": 84, "vel": 89, "track": 6}, {"t": 2.0, "dur": 0.49792, "note": 84, "vel": 74, "track": 0}, {"t": 2.0, "dur": 0.5, "note": 84, "vel": 40, "track": 4}, {"t": 2.25, "dur": 0.24792, "note": 53, "vel": 71, "track": 7}, {"t": 2.25, "dur": 0.24792, "note": 58, "vel": 79, "track": 8}, {"t": 2.25, "dur": 0.24792, "note": 77, "vel": 67, "track": 6}, {"t": 2.25, "dur": 0.24792, "note": 84, "vel": 79, "track": 3}, {"t": 2.25, "dur": 0.24792, "note": 84, "vel": 89, "track": 2}]}, {"id": 34, "measures": "m45", "meter": [10, 16], "length_ticks": 1200, "length_beats": 2.5, "notes": [{"t": 0.0, "dur": 0.24792, "note": 44, "vel": 68, "track": 7}, {"t": 0.0, "dur": 0.99792, "note": 44, "vel": 72, "track": 9}, {"t": 0.0, "dur": 0.49792, "note": 56, "vel": 75, "track": 8}, {"t": 0.0, "dur": 0.24792, "note": 75, "vel": 63, "track": 2}, {"t": 0.0, "dur": 0.49792, "note": 75, "vel": 59, "track": 3}, {"t": 0.0, "dur": 1.24792, "note": 75, "vel": 86, "track": 5}, {"t": 0.0, "dur": 1.24792, "note": 80, "vel": 86, "track": 4}, {"t": 0.0, "dur": 0.74792, "note": 84, "vel": 40, "track": 4}, {"t": 0.0, "dur": 0.24792, "note": 84, "vel": 82, "track": 6}, {"t": 0.0, "dur": 0.74792, "note": 84, "vel": 77, "track": 0}, {"t": 0.25, "dur": 0.24792, "note": 51, "vel": 82, "track": 7}, {"t": 0.25, "dur": 0.24792, "note": 75, "vel": 59, "track": 6}, {"t": 0.25, "dur": 0.24792, "note": 80, "vel": 91, "track": 2}, {"t": 0.5, "dur": 0.49792, "note": 51, "vel": 73, "track": 8}, {"t": 0.5, "dur": 0.24792, "note": 60, "vel": 95, "track": 7}, {"t": 0.5, "dur": 0.24792, "note": 80, "vel": 84, "track": 6}, {"t": 0.5, "dur": 0.24792, "note": 84, "vel": 84, "track": 2}, {"t": 0.5, "dur": 0.24792, "note": 84, "vel": 92, "track": 3}, {"t": 0.75, "dur": 0.24792, "note": 56, "vel": 75, "track": 7}, {"t": 0.75, "dur": 0.24792, "note": 80, "vel": 70, "track": 2}, {"t": 0.75, "dur": 0.24792, "note": 80, "vel": 70, "track": 3}, {"t": 0.75, "dur": 0.24792, "note": 84, "vel": 85, "track": 6}, {"t": 0.75, "dur": 0.49792, "note": 84, "vel": 75, "track": 0}, {"t": 0.75, "dur": 1.24792, "note": 84, "vel": 41, "track": 4}, {"t": 1.0, "dur": 0.24792, "note": 51, "vel": 72, "track": 7}, {"t": 1.0, "dur": 0.24792, "note": 56, "vel": 84, "track": 8}, {"t": 1.0, "dur": 0.24792, "note": 80, "vel": 70, "track": 6}, {"t": 1.0, "dur": 0.24792, "note": 84, "vel": 83, "track": 3}, {"t": 1.0, "dur": 0.24792, "note": 84, "vel": 86, "track": 2}, {"t": 1.25, "dur": 0.24792, "note": 46, "vel": 67, "track": 7}, {"t": 1.25, "dur": 0.99792, "note": 46, "vel": 73, "track": 9}, {"t": 1.25, "dur": 0.49792, "note": 58, "vel": 76, "track": 8}, {"t": 1.25, "dur": 0.24792, "note": 73, "vel": 57, "track": 2}, {"t": 1.25, "dur": 0.49792, "note": 73, "vel": 59, "track": 3}, {"t": 1.25, "dur": 1.24792, "note": 73, "vel": 68, "track": 5}, {"t": 1.25, "dur": 1.24792, "note": 77, "vel": 68, "track": 4}, {"t": 1.25, "dur": 0.24792, "note": 84, "vel": 83, "track": 6}, {"t": 1.25, "dur": 0.74792, "note": 84, "vel": 73, "track": 0}, {"t": 1.5, "dur": 0.24792, "note": 53, "vel": 83, "track": 7}, {"t": 1.5, "dur": 0.24792, "note": 73, "vel": 58, "track": 6}, {"t": 1.5, "dur": 0.24792, "note": 77, "vel": 80, "track": 2}, {"t": 1.75, "dur": 0.49792, "note": 53, "vel": 70, "track": 8}, {"t": 1.75, "dur": 0.24792, "note": 61, "vel": 87, "track": 7}, {"t": 1.75, "dur": 0.24792, "note": 77, "vel": 82, "track": 6}, {"t": 1.75, "dur": 0.24792, "note": 84, "vel": 89, "track": 2}, {"t": 1.75, "dur": 0.49792, "note": 84, "vel": 91, "track": 3}, {"t": 2.0, "dur": 0.24792, "note": 58, "vel": 72, "track": 7}, {"t": 2.0, "dur": 0.24792, "note": 77, "vel": 66, "track": 2}, {"t": 2.0, "dur": 0.24792, "note": 84, "vel": 91, "track": 6}, {"t": 2.0, "dur": 0.49792, "note": 84, "vel": 75, "track": 0}, {"t": 2.0, "dur": 0.5, "note": 84, "vel": 41, "track": 4}, {"t": 2.25, "dur": 0.24792, "note": 53, "vel": 74, "track": 7}, {"t": 2.25, "dur": 0.24792, "note": 58, "vel": 81, "track": 8}, {"t": 2.25, "dur": 0.24792, "note": 77, "vel": 64, "track": 6}, {"t": 2.25, "dur": 0.24792, "note": 84, "vel": 76, "track": 3}, {"t": 2.25, "dur": 0.24792, "note": 84, "vel": 86, "track": 2}]}, {"id": 35, "measures": "m46", "meter": [10, 16], "length_ticks": 1200, "length_beats": 2.5, "notes": [{"t": 0.0, "dur": 0.24792, "note": 44, "vel": 68, "track": 7}, {"t": 0.0, "dur": 0.99792, "note": 44, "vel": 67, "track": 9}, {"t": 0.0, "dur": 0.49792, "note": 56, "vel": 76, "track": 8}, {"t": 0.0, "dur": 0.24792, "note": 75, "vel": 64, "track": 2}, {"t": 0.0, "dur": 0.49792, "note": 75, "vel": 60, "track": 3}, {"t": 0.0, "dur": 1.24792, "note": 75, "vel": 80, "track": 5}, {"t": 0.0, "dur": 1.24792, "note": 80, "vel": 80, "track": 4}, {"t": 0.0, "dur": 0.74792, "note": 84, "vel": 41, "track": 4}, {"t": 0.0, "dur": 0.24792, "note": 84, "vel": 89, "track": 6}, {"t": 0.0, "dur": 0.74792, "note": 84, "vel": 76, "track": 0}, {"t": 0.25, "dur": 0.24792, "note": 51, "vel": 79, "track": 7}, {"t": 0.25, "dur": 0.24792, "note": 75, "vel": 64, "track": 6}, {"t": 0.25, "dur": 0.24792, "note": 80, "vel": 84, "track": 2}, {"t": 0.5, "dur": 0.49792, "note": 51, "vel": 88, "track": 8}, {"t": 0.5, "dur": 0.24792, "note": 60, "vel": 95, "track": 7}, {"t": 0.5, "dur": 0.24792, "note": 80, "vel": 83, "track": 6}, {"t": 0.5, "dur": 0.24792, "note": 84, "vel": 84, "track": 2}, {"t": 0.5, "dur": 0.24792, "note": 84, "vel": 88, "track": 3}, {"t": 0.75, "dur": 0.24792, "note": 56, "vel": 74, "track": 7}, {"t": 0.75, "dur": 0.24792, "note": 80, "vel": 68, "track": 2}, {"t": 0.75, "dur": 0.24792, "note": 80, "vel": 70, "track": 3}, {"t": 0.75, "dur": 0.24792, "note": 82, "vel": 71, "track": 0}, {"t": 0.75, "dur": 0.24792, "note": 82, "vel": 83, "track": 6}, {"t": 0.75, "dur": 1.74792, "note": 82, "vel": 37, "track": 4}, {"t": 1.0, "dur": 0.24792, "note": 51, "vel": 71, "track": 7}, {"t": 1.0, "dur": 0.24792, "note": 56, "vel": 81, "track": 8}, {"t": 1.0, "dur": 0.24792, "note": 80, "vel": 69, "track": 0}, {"t": 1.0, "dur": 0.24792, "note": 80, "vel": 74, "track": 6}, {"t": 1.0, "dur": 0.24792, "note": 82, "vel": 78, "track": 3}, {"t": 1.0, "dur": 0.24792, "note": 82, "vel": 79, "track": 2}, {"t": 1.25, "dur": 0.24792, "note": 46, "vel": 71, "track": 7}, {"t": 1.25, "dur": 0.99792, "note": 46, "vel": 67, "track": 9}, {"t": 1.25, "dur": 0.49792, "note": 58, "vel": 79, "track": 8}, {"t": 1.25, "dur": 0.24792, "note": 73, "vel": 58, "track": 2}, {"t": 1.25, "dur": 0.49792, "note": 73, "vel": 62, "track": 3}, {"t": 1.25, "dur": 1.24792, "note": 73, "vel": 73, "track": 5}, {"t": 1.25, "dur": 1.24792, "note": 77, "vel": 73, "track": 4}, {"t": 1.25, "dur": 0.24792, "note": 82, "vel": 78, "track": 6}, {"t": 1.25, "dur": 0.74792, "note": 82, "vel": 83, "track": 0}, {"t": 1.5, "dur": 0.24792, "note": 53, "vel": 83, "track": 7}, {"t": 1.5, "dur": 0.24792, "note": 73, "vel": 60, "track": 6}, {"t": 1.5, "dur": 0.24792, "note": 77, "vel": 82, "track": 2}, {"t": 1.75, "dur": 0.49792, "note": 46, "vel": 82, "track": 8}, {"t": 1.75, "dur": 0.24792, "note": 61, "vel": 90, "track": 7}, {"t": 1.75, "dur": 0.24792, "note": 77, "vel": 86, "track": 6}, {"t": 1.75, "dur": 0.24792, "note": 82, "vel": 91, "track": 2}, {"t": 1.75, "dur": 0.49792, "note": 82, "vel": 90, "track": 3}, {"t": 2.0, "dur": 0.24792, "note": 58, "vel": 73, "track": 7}, {"t": 2.0, "dur": 0.24792, "note": 77, "vel": 73, "track": 2}, {"t": 2.0, "dur": 0.24792, "note": 82, "vel": 87, "track": 6}, {"t": 2.0, "dur": 0.49792, "note": 82, "vel": 80, "track": 0}, {"t": 2.25, "dur": 0.24792, "note": 53, "vel": 70, "track": 7}, {"t": 2.25, "dur": 0.24792, "note": 58, "vel": 84, "track": 8}, {"t": 2.25, "dur": 0.24792, "note": 77, "vel": 67, "track": 6}, {"t": 2.25, "dur": 0.24792, "note": 82, "vel": 80, "track": 3}, {"t": 2.25, "dur": 0.24792, "note": 82, "vel": 89, "track": 2}]}, {"id": 36, "measures": "m47", "meter": [10, 16], "length_ticks": 1200, "length_beats": 2.5, "notes": [{"t": 0.0, "dur": 0.24792, "note": 51, "vel": 76, "track": 7}, {"t": 0.0, "dur": 0.99792, "note": 51, "vel": 70, "track": 9}, {"t": 0.0, "dur": 0.49792, "note": 63, "vel": 88, "track": 8}, {"t": 0.0, "dur": 0.24792, "note": 70, "vel": 56, "track": 2}, {"t": 0.0, "dur": 0.49792, "note": 70, "vel": 54, "track": 3}, {"t": 0.0, "dur": 0.74792, "note": 70, "vel": 38, "track": 5}, {"t": 0.0, "dur": 0.74792, "note": 75, "vel": 38, "track": 5}, {"t": 0.0, "dur": 0.24792, "note": 82, "vel": 84, "track": 6}, {"t": 0.0, "dur": 0.74792, "note": 82, "vel": 38, "track": 4}, {"t": 0.0, "dur": 0.74792, "note": 82, "vel": 75, "track": 0}, {"t": 0.25, "dur": 0.24792, "note": 58, "vel": 84, "track": 7}, {"t": 0.25, "dur": 0.24792, "note": 70, "vel": 50, "track": 6}, {"t": 0.25, "dur": 0.24792, "note": 75, "vel": 86, "track": 2}, {"t": 0.5, "dur": 0.49792, "note": 51, "vel": 60, "track": 8}, {"t": 0.5, "dur": 0.24792, "note": 66, "vel": 90, "track": 7}, {"t": 0.5, "dur": 0.24792, "note": 75, "vel": 86, "track": 6}, {"t": 0.5, "dur": 0.24792, "note": 82, "vel": 90, "track": 3}, {"t": 0.5, "dur": 0.24792, "note": 82, "vel": 93, "track": 2}, {"t": 0.75, "dur": 0.24792, "note": 63, "vel": 75, "track": 7}, {"t": 0.75, "dur": 0.49792, "note": 70, "vel": 41, "track": 5}, {"t": 0.75, "dur": 0.24792, "note": 75, "vel": 67, "track": 2}, {"t": 0.75, "dur": 0.24792, "note": 75, "vel": 70, "track": 3}, {"t": 0.75, "dur": 0.49792, "note": 75, "vel": 41, "track": 5}, {"t": 0.75, "dur": 0.24792, "note": 82, "vel": 93, "track": 6}, {"t": 0.75, "dur": 0.49792, "note": 82, "vel": 41, "track": 4}, {"t": 0.75, "dur": 0.49792, "note": 82, "vel": 73, "track": 0}, {"t": 1.0, "dur": 0.24792, "note": 58, "vel": 71, "track": 7}, {"t": 1.0, "dur": 0.24792, "note": 63, "vel": 98, "track": 8}, {"t": 1.0, "dur": 0.24792, "note": 75, "vel": 69, "track": 6}, {"t": 1.0, "dur": 0.24792, "note": 82, "vel": 86, "track": 2}, {"t": 1.0, "dur": 0.24792, "note": 82, "vel": 86, "track": 3}, {"t": 1.25, "dur": 0.24792, "note": 53, "vel": 68, "track": 7}, {"t": 1.25, "dur": 0.99792, "note": 53, "vel": 64, "track": 9}, {"t": 1.25, "dur": 0.49792, "note": 65, "vel": 87, "track": 8}, {"t": 1.25, "dur": 0.24792, "note": 71, "vel": 60, "track": 2}, {"t": 1.25, "dur": 0.49792, "note": 71, "vel": 57, "track": 3}, {"t": 1.25, "dur": 0.74792, "note": 71, "vel": 41, "track": 5}, {"t": 1.25, "dur": 0.74792, "note": 75, "vel": 41, "track": 5}, {"t": 1.25, "dur": 0.24792, "note": 82, "vel": 89, "track": 6}, {"t": 1.25, "dur": 0.74792, "note": 82, "vel": 41, "track": 4}, {"t": 1.25, "dur": 0.74792, "note": 82, "vel": 77, "track": 0}, {"t": 1.5, "dur": 0.24792, "note": 59, "vel": 82, "track": 7}, {"t": 1.5, "dur": 0.24792, "note": 71, "vel": 59, "track": 6}, {"t": 1.5, "dur": 0.24792, "note": 75, "vel": 84, "track": 2}, {"t": 1.75, "dur": 0.24792, "note": 68, "vel": 91, "track": 7}, {"t": 1.75, "dur": 0.49792, "note": 68, "vel": 84, "track": 8}, {"t": 1.75, "dur": 0.24792, "note": 75, "vel": 82, "track": 6}, {"t": 1.75, "dur": 0.24792, "note": 80, "vel": 88, "track": 2}, {"t": 1.75, "dur": 0.49792, "note": 80, "vel": 92, "track": 3}, {"t": 2.0, "dur": 0.24792, "note": 63, "vel": 70, "track": 7}, {"t": 2.0, "dur": 0.49792, "note": 71, "vel": 32, "track": 5}, {"t": 2.0, "dur": 0.24792, "note": 75, "vel": 69, "track": 2}, {"t": 2.0, "dur": 0.49792, "note": 75, "vel": 32, "track": 5}, {"t": 2.0, "dur": 0.24792, "note": 80, "vel": 86, "track": 6}, {"t": 2.0, "dur": 0.49792, "note": 80, "vel": 32, "track": 4}, {"t": 2.0, "dur": 0.49792, "note": 80, "vel": 69, "track": 0}, {"t": 2.25, "dur": 0.24792, "note": 59, "vel": 71, "track": 7}, {"t": 2.25, "dur": 0.24792, "note": 65, "vel": 72, "track": 8}, {"t": 2.25, "dur": 0.24792, "note": 75, "vel": 67, "track": 6}, {"t": 2.25, "dur": 0.24792, "note": 82, "vel": 84, "track": 3}, {"t": 2.25, "dur": 0.24792, "note": 82, "vel": 87, "track": 2}]}, {"id": 37, "measures": "m48", "meter": [10, 16], "length_ticks": 1200, "length_beats": 2.5, "notes": [{"t": 0.0, "dur": 0.24792, "note": 51, "vel": 67, "track": 7}, {"t": 0.0, "dur": 0.99792, "note": 51, "vel": 71, "track": 9}, {"t": 0.0, "dur": 0.49792, "note": 63, "vel": 71, "track": 8}, {"t": 0.0, "dur": 0.24792, "note": 70, "vel": 60, "track": 2}, {"t": 0.0, "dur": 0.49792, "note": 70, "vel": 59, "track": 3}, {"t": 0.0, "dur": 0.74792, "note": 70, "vel": 38, "track": 5}, {"t": 0.0, "dur": 0.74792, "note": 75, "vel": 38, "track": 5}, {"t": 0.0, "dur": 0.24792, "note": 82, "vel": 89, "track": 6}, {"t": 0.0, "dur": 0.74792, "note": 82, "vel": 38, "track": 4}, {"t": 0.0, "dur": 0.74792, "note": 82, "vel": 79, "track": 0}, {"t": 0.25, "dur": 0.24792, "note": 58, "vel": 85, "track": 7}, {"t": 0.25, "dur": 0.24792, "note": 70, "vel": 52, "track": 6}, {"t": 0.25, "dur": 0.24792, "note": 75, "vel": 81, "track": 2}, {"t": 0.5, "dur": 0.49792, "note": 58, "vel": 70, "track": 8}, {"t": 0.5, "dur": 0.24792, "note": 66, "vel": 89, "track": 7}, {"t": 0.5, "dur": 0.24792, "note": 75, "vel": 83, "track": 6}, {"t": 0.5, "dur": 0.24792, "note": 78, "vel": 81, "track": 3}, {"t": 0.5, "dur": 0.24792, "note": 78, "vel": 82, "track": 2}, {"t": 0.75, "dur": 0.24792, "note": 63, "vel": 75, "track": 7}, {"t": 0.75, "dur": 0.49792, "note": 70, "vel": 34, "track": 5}, {"t": 0.75, "dur": 0.24792, "note": 75, "vel": 68, "track": 2}, {"t": 0.75, "dur": 0.24792, "note": 75, "vel": 72, "track": 3}, {"t": 0.75, "dur": 0.49792, "note": 75, "vel": 34, "track": 5}, {"t": 0.75, "dur": 0.24792, "note": 78, "vel": 84, "track": 6}, {"t": 0.75, "dur": 0.49792, "note": 78, "vel": 34, "track": 4}, {"t": 0.75, "dur": 0.49792, "note": 78, "vel": 63, "track": 0}, {"t": 1.0, "dur": 0.24792, "note": 58, "vel": 73, "track": 7}, {"t": 1.0, "dur": 0.24792, "note": 63, "vel": 88, "track": 8}, {"t": 1.0, "dur": 0.24792, "note": 75, "vel": 74, "track": 6}, {"t": 1.0, "dur": 0.24792, "note": 82, "vel": 89, "track": 3}, {"t": 1.0, "dur": 0.24792, "note": 82, "vel": 92, "track": 2}, {"t": 1.25, "dur": 0.24792, "note": 49, "vel": 65, "track": 7}, {"t": 1.25, "dur": 0.99792, "note": 49, "vel": 71, "track": 9}, {"t": 1.25, "dur": 0.49792, "note": 61, "vel": 75, "track": 8}, {"t": 1.25, "dur": 0.24792, "note": 71, "vel": 62, "track": 2}, {"t": 1.25, "dur": 0.49792, "note": 71, "vel": 60, "track": 3}, {"t": 1.25, "dur": 0.74792, "note": 71, "vel": 42, "track": 5}, {"t": 1.25, "dur": 0.74792, "note": 77, "vel": 42, "track": 5}, {"t": 1.25, "dur": 0.24792, "note": 82, "vel": 90, "track": 6}, {"t": 1.25, "dur": 0.74792, "note": 82, "vel": 42, "track": 4}, {"t": 1.25, "dur": 0.74792, "note": 82, "vel": 84, "track": 0}, {"t": 1.5, "dur": 0.24792, "note": 56, "vel": 83, "track": 7}, {"t": 1.5, "dur": 0.24792, "note": 71, "vel": 60, "track": 6}, {"t": 1.5, "dur": 0.24792, "note": 77, "vel": 83, "track": 2}, {"t": 1.75, "dur": 0.49792, "note": 56, "vel": 73, "track": 8}, {"t": 1.75, "dur": 0.24792, "note": 65, "vel": 96, "track": 7}, {"t": 1.75, "dur": 0.24792, "note": 77, "vel": 86, "track": 6}, {"t": 1.75, "dur": 0.24792, "note": 80, "vel": 82, "track": 2}, {"t": 1.75, "dur": 0.49792, "note": 80, "vel": 88, "track": 3}, {"t": 2.0, "dur": 0.24792, "note": 61, "vel": 74, "track": 7}, {"t": 2.0, "dur": 0.49792, "note": 71, "vel": 36, "track": 5}, {"t": 2.0, "dur": 0.24792, "note": 77, "vel": 69, "track": 2}, {"t": 2.0, "dur": 0.49792, "note": 77, "vel": 36, "track": 5}, {"t": 2.0, "dur": 0.24792, "note": 80, "vel": 84, "track": 6}, {"t": 2.0, "dur": 0.49792, "note": 80, "vel": 36, "track": 4}, {"t": 2.0, "dur": 0.49792, "note": 80, "vel": 72, "track": 0}, {"t": 2.25, "dur": 0.24792, "note": 56, "vel": 67, "track": 7}, {"t": 2.25, "dur": 0.24792, "note": 61, "vel": 84, "track": 8}, {"t": 2.25, "dur": 0.24792, "note": 77, "vel": 75, "track": 6}, {"t": 2.25, "dur": 0.24792, "note": 78, "vel": 75, "track": 3}, {"t": 2.25, "dur": 0.24792, "note": 78, "vel": 78, "track": 2}]}, {"id": 38, "measures": "m49-50", "meter": [10, 16], "length_ticks": 2400, "length_beats": 5.0, "notes": [{"t": 0.0, "dur": 0.24792, "note": 51, "vel": 73, "track": 7}, {"t": 0.0, "dur": 0.99792, "note": 51, "vel": 71, "track": 9}, {"t": 0.0, "dur": 0.49792, "note": 63, "vel": 81, "track": 8}, {"t": 0.0, "dur": 0.24792, "note": 70, "vel": 59, "track": 2}, {"t": 0.0, "dur": 0.49792, "note": 70, "vel": 63, "track": 3}, {"t": 0.0, "dur": 0.74792, "note": 70, "vel": 34, "track": 5}, {"t": 0.0, "dur": 0.74792, "note": 75, "vel": 34, "track": 5}, {"t": 0.0, "dur": 0.74792, "note": 77, "vel": 34, "track": 4}, {"t": 0.0, "dur": 0.24792, "note": 78, "vel": 80, "track": 6}, {"t": 0.0, "dur": 0.74792, "note": 78, "vel": 73, "track": 0}, {"t": 0.25, "dur": 0.24792, "note": 58, "vel": 81, "track": 7}, {"t": 0.25, "dur": 0.24792, "note": 70, "vel": 65, "track": 6}, {"t": 0.25, "dur": 0.24792, "note": 77, "vel": 84, "track": 2}, {"t": 0.5, "dur": 0.49792, "note": 51, "vel": 67, "track": 8}, {"t": 0.5, "dur": 0.24792, "note": 66, "vel": 92, "track": 7}, {"t": 0.5, "dur": 0.24792, "note": 75, "vel": 85, "track": 6}, {"t": 0.5, "dur": 0.24792, "note": 78, "vel": 75, "track": 2}, {"t": 0.5, "dur": 0.49792, "note": 78, "vel": 92, "track": 3}, {"t": 0.75, "dur": 0.24792, "note": 63, "vel": 71, "track": 7}, {"t": 0.75, "dur": 0.49792, "note": 70, "vel": 39, "track": 5}, {"t": 0.75, "dur": 0.49792, "note": 75, "vel": 39, "track": 5}, {"t": 0.75, "dur": 0.24792, "note": 77, "vel": 73, "track": 2}, {"t": 0.75, "dur": 0.49792, "note": 77, "vel": 39, "track": 4}, {"t": 0.75, "dur": 0.24792, "note": 78, "vel": 84, "track": 6}, {"t": 0.75, "dur": 0.49792, "note": 78, "vel": 85, "track": 0}, {"t": 1.0, "dur": 0.24792, "note": 58, "vel": 67, "track": 7}, {"t": 1.0, "dur": 0.24792, "note": 63, "vel": 96, "track": 8}, {"t": 1.0, "dur": 0.24792, "note": 77, "vel": 75, "track": 6}, {"t": 1.0, "dur": 0.24792, "note": 82, "vel": 84, "track": 3}, {"t": 1.0, "dur": 0.24792, "note": 82, "vel": 88, "track": 2}, {"t": 1.25, "dur": 0.24792, "note": 53, "vel": 69, "track": 7}, {"t": 1.25, "dur": 0.99792, "note": 53, "vel": 71, "track": 9}, {"t": 1.25, "dur": 0.49792, "note": 65, "vel": 86, "track": 8}, {"t": 1.25, "dur": 0.24792, "note": 71, "vel": 60, "track": 2}, {"t": 1.25, "dur": 0.49792, "note": 71, "vel": 57, "track": 3}, {"t": 1.25, "dur": 0.74792, "note": 71, "vel": 46, "track": 5}, {"t": 1.25, "dur": 0.74792, "note": 75, "vel": 46, "track": 5}, {"t": 1.25, "dur": 0.24792, "note": 82, "vel": 85, "track": 6}, {"t": 1.25, "dur": 0.74792, "note": 82, "vel": 46, "track": 4}, {"t": 1.25, "dur": 0.74792, "note": 82, "vel": 89, "track": 0}, {"t": 1.5, "dur": 0.24792, "note": 59, "vel": 81, "track": 7}, {"t": 1.5, "dur": 0.24792, "note": 71, "vel": 54, "track": 6}, {"t": 1.5, "dur": 0.24792, "note": 75, "vel": 82, "track": 2}, {"t": 1.75, "dur": 0.24792, "note": 68, "vel": 94, "track": 7}, {"t": 1.75, "dur": 0.49792, "note": 68, "vel": 87, "track": 8}, {"t": 1.75, "dur": 0.24792, "note": 75, "vel": 80, "track": 6}, {"t": 1.75, "dur": 0.24792, "note": 80, "vel": 87, "track": 2}, {"t": 1.75, "dur": 0.49792, "note": 80, "vel": 91, "track": 3}, {"t": 2.0, "dur": 0.24792, "note": 63, "vel": 69, "track": 7}, {"t": 2.0, "dur": 0.49792, "note": 71, "vel": 39, "track": 5}, {"t": 2.0, "dur": 0.24792, "note": 75, "vel": 70, "track": 2}, {"t": 2.0, "dur": 0.49792, "note": 75, "vel": 39, "track": 5}, {"t": 2.0, "dur": 0.24792, "note": 80, "vel": 85, "track": 6}, {"t": 2.0, "dur": 0.49792, "note": 80, "vel": 39, "track": 4}, {"t": 2.0, "dur": 0.49792, "note": 80, "vel": 72, "track": 0}, {"t": 2.25, "dur": 0.24792, "note": 59, "vel": 73, "track": 7}, {"t": 2.25, "dur": 0.24792, "note": 65, "vel": 72, "track": 8}, {"t": 2.25, "dur": 0.24792, "note": 75, "vel": 68, "track": 6}, {"t": 2.25, "dur": 0.24792, "note": 82, "vel": 86, "track": 3}, {"t": 2.25, "dur": 0.24792, "note": 82, "vel": 91, "track": 2}, {"t": 2.5, "dur": 0.24792, "note": 51, "vel": 67, "track": 7}, {"t": 2.5, "dur": 0.99792, "note": 51, "vel": 71, "track": 9}, {"t": 2.5, "dur": 0.49792, "note": 63, "vel": 71, "track": 8}, {"t": 2.5, "dur": 0.74792, "note": 70, "vel": 43, "track": 5}, {"t": 2.5, "dur": 0.24792, "note": 71, "vel": 57, "track": 2}, {"t": 2.5, "dur": 0.49792, "note": 71, "vel": 54, "track": 3}, {"t": 2.5, "dur": 0.74792, "note": 75, "vel": 43, "track": 5}, {"t": 2.5, "dur": 0.24792, "note": 82, "vel": 84, "track": 6}, {"t": 2.5, "dur": 0.74792, "note": 82, "vel": 43, "track": 4}, {"t": 2.5, "dur": 0.74792, "note": 82, "vel": 81, "track": 0}, {"t": 2.75, "dur": 0.24792, "note": 58, "vel": 76, "track": 7}, {"t": 2.75, "dur": 0.24792, "note": 70, "vel": 58, "track": 6}, {"t": 2.75, "dur": 0.24792, "note": 75, "vel": 76, "track": 2}, {"t": 3.0, "dur": 0.49792, "note": 58, "vel": 68, "track": 8}, {"t": 3.0, "dur": 0.24792, "note": 66, "vel": 97, "track": 7}, {"t": 3.0, "dur": 0.24792, "note": 75, "vel": 80, "track": 6}, {"t": 3.0, "dur": 0.24792, "note": 78, "vel": 83, "track": 2}, {"t": 3.0, "dur": 0.49792, "note": 78, "vel": 83, "track": 3}, {"t": 3.25, "dur": 0.24792, "note": 63, "vel": 72, "track": 7}, {"t": 3.25, "dur": 0.49792, "note": 70, "vel": 37, "track": 5}, {"t": 3.25, "dur": 0.24792, "note": 75, "vel": 69, "track": 2}, {"t": 3.25, "dur": 0.49792, "note": 75, "vel": 37, "track": 5}, {"t": 3.25, "dur": 0.24792, "note": 78, "vel": 82, "track": 6}, {"t": 3.25, "dur": 0.49792, "note": 78, "vel": 37, "track": 4}, {"t": 3.25, "dur": 0.49792, "note": 78, "vel": 66, "track": 0}, {"t": 3.5, "dur": 0.24792, "note": 58, "vel": 73, "track": 7}, {"t": 3.5, "dur": 0.24792, "note": 63, "vel": 84, "track": 8}, {"t": 3.5, "dur": 0.24792, "note": 75, "vel": 67, "track": 6}, {"t": 3.5, "dur": 0.24792, "note": 82, "vel": 88, "track": 2}, {"t": 3.5, "dur": 0.24792, "note": 82, "vel": 90, "track": 3}, {"t": 3.75, "dur": 0.24792, "note": 49, "vel": 69, "track": 7}, {"t": 3.75, "dur": 0.99792, "note": 49, "vel": 70, "track": 9}, {"t": 3.75, "dur": 0.49792, "note": 61, "vel": 77, "track": 8}, {"t": 3.75, "dur": 0.24792, "note": 71, "vel": 63, "track": 2}, {"t": 3.75, "dur": 0.49792, "note": 71, "vel": 59, "track": 3}, {"t": 3.75, "dur": 0.74792, "note": 71, "vel": 41, "track": 5}, {"t": 3.75, "dur": 0.74792, "note": 77, "vel": 41, "track": 5}, {"t": 3.75, "dur": 0.24792, "note": 82, "vel": 92, "track": 6}, {"t": 3.75, "dur": 0.74792, "note": 82, "vel": 41, "track": 4}, {"t": 3.75, "dur": 0.74792, "note": 82, "vel": 83, "track": 0}, {"t": 4.0, "dur": 0.24792, "note": 56, "vel": 83, "track": 7}, {"t": 4.0, "dur": 0.24792, "note": 71, "vel": 56, "track": 6}, {"t": 4.0, "dur": 0.24792, "note": 77, "vel": 88, "track": 2}, {"t": 4.25, "dur": 0.49792, "note": 56, "vel": 70, "track": 8}, {"t": 4.25, "dur": 0.24792, "note": 65, "vel": 92, "track": 7}, {"t": 4.25, "dur": 0.24792, "note": 77, "vel": 86, "track": 6}, {"t": 4.25, "dur": 0.24792, "note": 80, "vel": 87, "track": 2}, {"t": 4.25, "dur": 0.49792, "note": 80, "vel": 91, "track": 3}, {"t": 4.5, "dur": 0.24792, "note": 61, "vel": 67, "track": 7}, {"t": 4.5, "dur": 0.49792, "note": 71, "vel": 37, "track": 5}, {"t": 4.5, "dur": 0.24792, "note": 77, "vel": 69, "track": 2}, {"t": 4.5, "dur": 0.49792, "note": 77, "vel": 37, "track": 5}, {"t": 4.5, "dur": 0.24792, "note": 80, "vel": 86, "track": 6}, {"t": 4.5, "dur": 0.49792, "note": 80, "vel": 37, "track": 4}, {"t": 4.5, "dur": 0.49792, "note": 80, "vel": 72, "track": 0}, {"t": 4.75, "dur": 0.24792, "note": 56, "vel": 75, "track": 7}, {"t": 4.75, "dur": 0.24792, "note": 61, "vel": 86, "track": 8}, {"t": 4.75, "dur": 0.24792, "note": 77, "vel": 71, "track": 6}, {"t": 4.75, "dur": 0.24792, "note": 78, "vel": 73, "track": 3}, {"t": 4.75, "dur": 0.24792, "note": 78, "vel": 80, "track": 2}]}, {"id": 39, "measures": "m51-52", "meter": [10, 16], "length_ticks": 2400, "length_beats": 5.0, "notes": [{"t": 0.0, "dur": 0.24792, "note": 51, "vel": 68, "track": 7}, {"t": 0.0, "dur": 0.99792, "note": 51, "vel": 73, "track": 9}, {"t": 0.0, "dur": 0.49792, "note": 63, "vel": 84, "track": 8}, {"t": 0.0, "dur": 0.24792, "note": 70, "vel": 60, "track": 2}, {"t": 0.0, "dur": 0.49792, "note": 70, "vel": 67, "track": 3}, {"t": 0.0, "dur": 0.74792, "note": 75, "vel": 77, "track": 5}, {"t": 0.0, "dur": 0.74792, "note": 77, "vel": 77, "track": 4}, {"t": 0.0, "dur": 0.24792, "note": 78, "vel": 80, "track": 6}, {"t": 0.0, "dur": 0.74792, "note": 78, "vel": 71, "track": 0}, {"t": 0.25, "dur": 0.24792, "note": 58, "vel": 81, "track": 7}, {"t": 0.25, "dur": 0.24792, "note": 70, "vel": 60, "track": 6}, {"t": 0.25, "dur": 0.24792, "note": 75, "vel": 81, "track": 2}, {"t": 0.5, "dur": 0.49792, "note": 51, "vel": 68, "track": 8}, {"t": 0.5, "dur": 0.24792, "note": 66, "vel": 92, "track": 7}, {"t": 0.5, "dur": 0.24792, "note": 75, "vel": 85, "track": 6}, {"t": 0.5, "dur": 0.24792, "note": 78, "vel": 85, "track": 2}, {"t": 0.5, "dur": 0.49792, "note": 78, "vel": 94, "track": 3}, {"t": 0.75, "dur": 0.24792, "note": 63, "vel": 73, "track": 7}, {"t": 0.75, "dur": 0.49792, "note": 75, "vel": 77, "track": 5}, {"t": 0.75, "dur": 0.24792, "note": 77, "vel": 72, "track": 2}, {"t": 0.75, "dur": 0.24792, "note": 78, "vel": 77, "track": 0}, {"t": 0.75, "dur": 0.24792, "note": 78, "vel": 85, "track": 6}, {"t": 0.75, "dur": 0.49792, "note": 78, "vel": 77, "track": 4}, {"t": 1.0, "dur": 0.24792, "note": 58, "vel": 68, "track": 7}, {"t": 1.0, "dur": 0.24792, "note": 63, "vel": 97, "track": 8}, {"t": 1.0, "dur": 0.24792, "note": 77, "vel": 75, "track": 0}, {"t": 1.0, "dur": 0.24792, "note": 77, "vel": 78, "track": 6}, {"t": 1.0, "dur": 0.24792, "note": 78, "vel": 77, "track": 3}, {"t": 1.0, "dur": 0.24792, "note": 78, "vel": 78, "track": 2}, {"t": 1.25, "dur": 0.24792, "note": 49, "vel": 67, "track": 7}, {"t": 1.25, "dur": 0.99792, "note": 49, "vel": 71, "track": 9}, {"t": 1.25, "dur": 0.49792, "note": 61, "vel": 75, "track": 8}, {"t": 1.25, "dur": 0.24792, "note": 68, "vel": 62, "track": 2}, {"t": 1.25, "dur": 0.49792, "note": 68, "vel": 57, "track": 3}, {"t": 1.25, "dur": 0.74792, "note": 77, "vel": 76, "track": 5}, {"t": 1.25, "dur": 0.24792, "note": 78, "vel": 79, "track": 6}, {"t": 1.25, "dur": 0.74792, "note": 78, "vel": 80, "track": 0}, {"t": 1.25, "dur": 1.24792, "note": 82, "vel": 40, "track": 4}, {"t": 1.5, "dur": 0.24792, "note": 56, "vel": 89, "track": 7}, {"t": 1.5, "dur": 0.24792, "note": 68, "vel": 58, "track": 6}, {"t": 1.5, "dur": 0.24792, "note": 73, "vel": 83, "track": 2}, {"t": 1.75, "dur": 0.49792, "note": 56, "vel": 75, "track": 8}, {"t": 1.75, "dur": 0.24792, "note": 65, "vel": 94, "track": 7}, {"t": 1.75, "dur": 0.24792, "note": 73, "vel": 88, "track": 6}, {"t": 1.75, "dur": 0.24792, "note": 78, "vel": 88, "track": 2}, {"t": 1.75, "dur": 0.49792, "note": 78, "vel": 91, "track": 3}, {"t": 2.0, "dur": 0.24792, "note": 61, "vel": 68, "track": 7}, {"t": 2.0, "dur": 0.49792, "note": 73, "vel": 72, "track": 5}, {"t": 2.0, "dur": 0.24792, "note": 77, "vel": 80, "track": 2}, {"t": 2.0, "dur": 0.24792, "note": 78, "vel": 93, "track": 6}, {"t": 2.0, "dur": 0.49792, "note": 78, "vel": 74, "track": 0}, {"t": 2.25, "dur": 0.24792, "note": 56, "vel": 71, "track": 7}, {"t": 2.25, "dur": 0.24792, "note": 61, "vel": 82, "track": 8}, {"t": 2.25, "dur": 0.24792, "note": 73, "vel": 68, "track": 6}, {"t": 2.25, "dur": 0.24792, "note": 78, "vel": 72, "track": 2}, {"t": 2.25, "dur": 0.24792, "note": 78, "vel": 80, "track": 3}, {"t": 2.5, "dur": 0.24792, "note": 47, "vel": 68, "track": 7}, {"t": 2.5, "dur": 0.99792, "note": 47, "vel": 68, "track": 9}, {"t": 2.5, "dur": 0.49792, "note": 59, "vel": 75, "track": 8}, {"t": 2.5, "dur": 0.24792, "note": 66, "vel": 58, "track": 2}, {"t": 2.5, "dur": 0.49792, "note": 66, "vel": 58, "track": 3}, {"t": 2.5, "dur": 0.74792, "note": 75, "vel": 81, "track": 5}, {"t": 2.5, "dur": 0.24792, "note": 78, "vel": 87, "track": 6}, {"t": 2.5, "dur": 0.74792, "note": 78, "vel": 72, "track": 0}, {"t": 2.5, "dur": 1.24792, "note": 82, "vel": 39, "track": 4}, {"t": 2.75, "dur": 0.24792, "note": 54, "vel": 82, "track": 7}, {"t": 2.75, "dur": 0.24792, "note": 66, "vel": 58, "track": 6}, {"t": 2.75, "dur": 0.24792, "note": 71, "vel": 84, "track": 2}, {"t": 3.0, "dur": 0.49792, "note": 54, "vel": 72, "track": 8}, {"t": 3.0, "dur": 0.24792, "note": 63, "vel": 96, "track": 7}, {"t": 3.0, "dur": 0.24792, "note": 71, "vel": 82, "track": 6}, {"t": 3.0, "dur": 0.24792, "note": 78, "vel": 89, "track": 2}, {"t": 3.0, "dur": 0.49792, "note": 78, "vel": 92, "track": 3}, {"t": 3.25, "dur": 0.24792, "note": 59, "vel": 76, "track": 7}, {"t": 3.25, "dur": 0.49792, "note": 71, "vel": 69, "track": 5}, {"t": 3.25, "dur": 0.24792, "note": 77, "vel": 75, "track": 2}, {"t": 3.25, "dur": 0.24792, "note": 78, "vel": 96, "track": 6}, {"t": 3.25, "dur": 0.49792, "note": 78, "vel": 76, "track": 0}, {"t": 3.5, "dur": 0.24792, "note": 54, "vel": 70, "track": 7}, {"t": 3.5, "dur": 0.24792, "note": 59, "vel": 83, "track": 8}, {"t": 3.5, "dur": 0.24792, "note": 71, "vel": 64, "track": 6}, {"t": 3.5, "dur": 0.24792, "note": 78, "vel": 81, "track": 3}, {"t": 3.5, "dur": 0.24792, "note": 78, "vel": 82, "track": 2}, {"t": 3.75, "dur": 0.24792, "note": 46, "vel": 71, "track": 7}, {"t": 3.75, "dur": 0.99792, "note": 46, "vel": 75, "track": 9}, {"t": 3.75, "dur": 0.49792, "note": 58, "vel": 77, "track": 8}, {"t": 3.75, "dur": 0.24792, "note": 65, "vel": 57, "track": 2}, {"t": 3.75, "dur": 0.49792, "note": 65, "vel": 54, "track": 3}, {"t": 3.75, "dur": 0.74792, "note": 74, "vel": 81, "track": 5}, {"t": 3.75, "dur": 0.24792, "note": 78, "vel": 93, "track": 6}, {"t": 3.75, "dur": 0.74792, "note": 78, "vel": 76, "track": 0}, {"t": 3.75, "dur": 1.24792, "note": 82, "vel": 39, "track": 4}, {"t": 4.0, "dur": 0.24792, "note": 53, "vel": 80, "track": 7}, {"t": 4.0, "dur": 0.24792, "note": 65, "vel": 53, "track": 6}, {"t": 4.0, "dur": 0.24792, "note": 71, "vel": 80, "track": 2}, {"t": 4.25, "dur": 0.49792, "note": 53, "vel": 73, "track": 8}, {"t": 4.25, "dur": 0.24792, "note": 62, "vel": 97, "track": 7}, {"t": 4.25, "dur": 0.24792, "note": 70, "vel": 85, "track": 6}, {"t": 4.25, "dur": 0.24792, "note": 78, "vel": 90, "track": 2}, {"t": 4.25, "dur": 0.49792, "note": 78, "vel": 93, "track": 3}, {"t": 4.5, "dur": 0.24792, "note": 58, "vel": 74, "track": 7}, {"t": 4.5, "dur": 0.49792, "note": 70, "vel": 70, "track": 5}, {"t": 4.5, "dur": 0.24792, "note": 77, "vel": 72, "track": 2}, {"t": 4.5, "dur": 0.24792, "note": 78, "vel": 94, "track": 6}, {"t": 4.5, "dur": 0.49792, "note": 78, "vel": 80, "track": 0}, {"t": 4.75, "dur": 0.24792, "note": 53, "vel": 68, "track": 7}, {"t": 4.75, "dur": 0.24792, "note": 58, "vel": 84, "track": 8}, {"t": 4.75, "dur": 0.24792, "note": 70, "vel": 68, "track": 6}, {"t": 4.75, "dur": 0.24792, "note": 78, "vel": 78, "track": 2}, {"t": 4.75, "dur": 0.24792, "note": 78, "vel": 83, "track": 3}]}, {"id": 40, "measures": "m53-54", "meter": [10, 16], "length_ticks": 2400, "length_beats": 5.0, "notes": [{"t": 0.0, "dur": 0.24792, "note": 51, "vel": 74, "track": 7}, {"t": 0.0, "dur": 0.99792, "note": 51, "vel": 68, "track": 9}, {"t": 0.0, "dur": 0.49792, "note": 63, "vel": 88, "track": 8}, {"t": 0.0, "dur": 0.24792, "note": 66, "vel": 56, "track": 2}, {"t": 0.0, "dur": 0.49792, "note": 66, "vel": 52, "track": 3}, {"t": 0.0, "dur": 0.24792, "note": 74, "vel": 82, "track": 6}, {"t": 0.0, "dur": 0.74792, "note": 74, "vel": 67, "track": 0}, {"t": 0.0, "dur": 0.74792, "note": 74, "vel": 83, "track": 5}, {"t": 0.0, "dur": 0.74792, "note": 75, "vel": 83, "track": 4}, {"t": 0.25, "dur": 0.24792, "note": 58, "vel": 80, "track": 7}, {"t": 0.25, "dur": 0.24792, "note": 66, "vel": 56, "track": 6}, {"t": 0.25, "dur": 0.24792, "note": 70, "vel": 81, "track": 2}, {"t": 0.5, "dur": 0.49792, "note": 51, "vel": 69, "track": 8}, {"t": 0.5, "dur": 0.24792, "note": 66, "vel": 93, "track": 7}, {"t": 0.5, "dur": 0.24792, "note": 70, "vel": 83, "track": 6}, {"t": 0.5, "dur": 0.24792, "note": 74, "vel": 86, "track": 2}, {"t": 0.5, "dur": 0.49792, "note": 74, "vel": 87, "track": 3}, {"t": 0.75, "dur": 0.24792, "note": 63, "vel": 74, "track": 7}, {"t": 0.75, "dur": 0.24792, "note": 70, "vel": 68, "track": 2}, {"t": 0.75, "dur": 0.49792, "note": 74, "vel": 80, "track": 5}, {"t": 0.75, "dur": 0.24792, "note": 75, "vel": 80, "track": 6}, {"t": 0.75, "dur": 0.49792, "note": 75, "vel": 78, "track": 0}, {"t": 0.75, "dur": 0.49792, "note": 75, "vel": 80, "track": 4}, {"t": 1.0, "dur": 0.24792, "note": 58, "vel": 74, "track": 7}, {"t": 1.0, "dur": 0.24792, "note": 63, "vel": 97, "track": 8}, {"t": 1.0, "dur": 0.24792, "note": 70, "vel": 67, "track": 6}, {"t": 1.0, "dur": 0.24792, "note": 75, "vel": 79, "track": 3}, {"t": 1.0, "dur": 0.24792, "note": 75, "vel": 84, "track": 2}, {"t": 1.25, "dur": 0.24792, "note": 49, "vel": 62, "track": 7}, {"t": 1.25, "dur": 0.99792, "note": 49, "vel": 67, "track": 9}, {"t": 1.25, "dur": 0.49792, "note": 61, "vel": 74, "track": 8}, {"t": 1.25, "dur": 0.24792, "note": 68, "vel": 62, "track": 2}, {"t": 1.25, "dur": 0.49792, "note": 68, "vel": 65, "track": 3}, {"t": 1.25, "dur": 0.74792, "note": 73, "vel": 69, "track": 5}, {"t": 1.25, "dur": 0.24792, "note": 75, "vel": 80, "track": 6}, {"t": 1.25, "dur": 0.74792, "note": 75, "vel": 33, "track": 4}, {"t": 1.25, "dur": 0.74792, "note": 75, "vel": 76, "track": 0}, {"t": 1.5, "dur": 0.24792, "note": 56, "vel": 80, "track": 7}, {"t": 1.5, "dur": 0.24792, "note": 68, "vel": 61, "track": 6}, {"t": 1.5, "dur": 0.24792, "note": 73, "vel": 78, "track": 2}, {"t": 1.75, "dur": 0.49792, "note": 56, "vel": 73, "track": 8}, {"t": 1.75, "dur": 0.24792, "note": 65, "vel": 90, "track": 7}, {"t": 1.75, "dur": 0.24792, "note": 73, "vel": 87, "track": 6}, {"t": 1.75, "dur": 0.24792, "note": 75, "vel": 82, "track": 2}, {"t": 1.75, "dur": 0.49792, "note": 75, "vel": 92, "track": 3}, {"t": 2.0, "dur": 0.24792, "note": 61, "vel": 70, "track": 7}, {"t": 2.0, "dur": 0.24792, "note": 73, "vel": 78, "track": 2}, {"t": 2.0, "dur": 0.49792, "note": 73, "vel": 76, "track": 5}, {"t": 2.0, "dur": 0.24792, "note": 75, "vel": 75, "track": 0}, {"t": 2.0, "dur": 0.24792, "note": 75, "vel": 78, "track": 6}, {"t": 2.0, "dur": 0.49792, "note": 75, "vel": 38, "track": 4}, {"t": 2.25, "dur": 0.24792, "note": 56, "vel": 68, "track": 7}, {"t": 2.25, "dur": 0.24792, "note": 61, "vel": 87, "track": 8}, {"t": 2.25, "dur": 0.24792, "note": 73, "vel": 68, "track": 6}, {"t": 2.25, "dur": 0.24792, "note": 73, "vel": 72, "track": 0}, {"t": 2.25, "dur": 0.24792, "note": 75, "vel": 82, "track": 3}, {"t": 2.25, "dur": 0.24792, "note": 75, "vel": 83, "track": 2}, {"t": 2.5, "dur": 0.24792, "note": 47, "vel": 67, "track": 7}, {"t": 2.5, "dur": 0.99792, "note": 47, "vel": 73, "track": 9}, {"t": 2.5, "dur": 0.49792, "note": 59, "vel": 72, "track": 8}, {"t": 2.5, "dur": 0.24792, "note": 66, "vel": 57, "track": 2}, {"t": 2.5, "dur": 0.49792, "note": 66, "vel": 64, "track": 3}, {"t": 2.5, "dur": 0.74792, "note": 71, "vel": 68, "track": 5}, {"t": 2.5, "dur": 0.24792, "note": 75, "vel": 80, "track": 6}, {"t": 2.5, "dur": 0.74792, "note": 75, "vel": 40, "track": 4}, {"t": 2.5, "dur": 0.74792, "note": 75, "vel": 78, "track": 0}, {"t": 2.75, "dur": 0.24792, "note": 54, "vel": 81, "track": 7}, {"t": 2.75, "dur": 0.24792, "note": 66, "vel": 62, "track": 6}, {"t": 2.75, "dur": 0.24792, "note": 71, "vel": 82, "track": 2}, {"t": 3.0, "dur": 0.49792, "note": 54, "vel": 73, "track": 8}, {"t": 3.0, "dur": 0.24792, "note": 63, "vel": 92, "track": 7}, {"t": 3.0, "dur": 0.24792, "note": 71, "vel": 83, "track": 6}, {"t": 3.0, "dur": 0.24792, "note": 75, "vel": 90, "track": 2}, {"t": 3.0, "dur": 0.49792, "note": 75, "vel": 92, "track": 3}, {"t": 3.25, "dur": 0.24792, "note": 59, "vel": 76, "track": 7}, {"t": 3.25, "dur": 0.24792, "note": 71, "vel": 75, "track": 2}, {"t": 3.25, "dur": 0.49792, "note": 71, "vel": 78, "track": 5}, {"t": 3.25, "dur": 0.24792, "note": 75, "vel": 83, "track": 6}, {"t": 3.25, "dur": 0.49792, "note": 75, "vel": 39, "track": 4}, {"t": 3.25, "dur": 0.49792, "note": 75, "vel": 75, "track": 0}, {"t": 3.5, "dur": 0.24792, "note": 54, "vel": 73, "track": 7}, {"t": 3.5, "dur": 0.24792, "note": 59, "vel": 78, "track": 8}, {"t": 3.5, "dur": 0.24792, "note": 71, "vel": 72, "track": 6}, {"t": 3.5, "dur": 0.24792, "note": 75, "vel": 76, "track": 3}, {"t": 3.5, "dur": 0.24792, "note": 75, "vel": 87, "track": 2}, {"t": 3.75, "dur": 0.24792, "note": 46, "vel": 68, "track": 7}, {"t": 3.75, "dur": 0.99792, "note": 46, "vel": 67, "track": 9}, {"t": 3.75, "dur": 0.49792, "note": 58, "vel": 75, "track": 8}, {"t": 3.75, "dur": 0.24792, "note": 65, "vel": 61, "track": 2}, {"t": 3.75, "dur": 0.49792, "note": 65, "vel": 55, "track": 3}, {"t": 3.75, "dur": 0.74792, "note": 70, "vel": 72, "track": 5}, {"t": 3.75, "dur": 0.24792, "note": 75, "vel": 82, "track": 6}, {"t": 3.75, "dur": 0.74792, "note": 75, "vel": 42, "track": 4}, {"t": 3.75, "dur": 0.74792, "note": 75, "vel": 77, "track": 0}, {"t": 4.0, "dur": 0.24792, "note": 53, "vel": 83, "track": 7}, {"t": 4.0, "dur": 0.24792, "note": 65, "vel": 64, "track": 6}, {"t": 4.0, "dur": 0.24792, "note": 70, "vel": 83, "track": 2}, {"t": 4.25, "dur": 0.49792, "note": 53, "vel": 72, "track": 8}, {"t": 4.25, "dur": 0.24792, "note": 62, "vel": 90, "track": 7}, {"t": 4.25, "dur": 0.24792, "note": 70, "vel": 87, "track": 6}, {"t": 4.25, "dur": 0.24792, "note": 75, "vel": 89, "track": 2}, {"t": 4.25, "dur": 0.49792, "note": 75, "vel": 92, "track": 3}, {"t": 4.5, "dur": 0.24792, "note": 58, "vel": 82, "track": 7}, {"t": 4.5, "dur": 0.24792, "note": 70, "vel": 68, "track": 2}, {"t": 4.5, "dur": 0.49792, "note": 70, "vel": 69, "track": 5}, {"t": 4.5, "dur": 0.24792, "note": 75, "vel": 85, "track": 6}, {"t": 4.5, "dur": 0.49792, "note": 75, "vel": 44, "track": 4}, {"t": 4.5, "dur": 0.49792, "note": 75, "vel": 75, "track": 0}, {"t": 4.75, "dur": 0.24792, "note": 53, "vel": 70, "track": 7}, {"t": 4.75, "dur": 0.24792, "note": 58, "vel": 82, "track": 8}, {"t": 4.75, "dur": 0.24792, "note": 70, "vel": 67, "track": 6}, {"t": 4.75, "dur": 0.24792, "note": 75, "vel": 75, "track": 3}, {"t": 4.75, "dur": 0.24792, "note": 75, "vel": 82, "track": 2}]}, {"id": 41, "measures": "m55-56", "meter": [10, 16], "length_ticks": 2400, "length_beats": 5.0, "notes": [{"t": 0.0, "dur": 0.24792, "note": 44, "vel": 71, "track": 7}, {"t": 0.0, "dur": 0.99792, "note": 44, "vel": 69, "track": 9}, {"t": 0.0, "dur": 0.49792, "note": 56, "vel": 75, "track": 8}, {"t": 0.0, "dur": 0.24792, "note": 63, "vel": 63, "track": 2}, {"t": 0.0, "dur": 0.49792, "note": 63, "vel": 57, "track": 3}, {"t": 0.0, "dur": 0.74792, "note": 68, "vel": 75, "track": 5}, {"t": 0.0, "dur": 0.24792, "note": 70, "vel": 75, "track": 6}, {"t": 0.0, "dur": 0.74792, "note": 70, "vel": 71, "track": 0}, {"t": 0.0, "dur": 0.74792, "note": 70, "vel": 75, "track": 4}, {"t": 0.25, "dur": 0.24792, "note": 51, "vel": 85, "track": 7}, {"t": 0.25, "dur": 0.24792, "note": 63, "vel": 62, "track": 6}, {"t": 0.25, "dur": 0.24792, "note": 68, "vel": 86, "track": 2}, {"t": 0.5, "dur": 0.49792, "note": 51, "vel": 74, "track": 8}, {"t": 0.5, "dur": 0.24792, "note": 60, "vel": 93, "track": 7}, {"t": 0.5, "dur": 0.24792, "note": 68, "vel": 82, "track": 6}, {"t": 0.5, "dur": 0.24792, "note": 70, "vel": 78, "track": 2}, {"t": 0.5, "dur": 0.49792, "note": 70, "vel": 88, "track": 3}, {"t": 0.75, "dur": 0.24792, "note": 56, "vel": 74, "track": 7}, {"t": 0.75, "dur": 0.24792, "note": 68, "vel": 71, "track": 2}, {"t": 0.75, "dur": 0.49792, "note": 68, "vel": 73, "track": 5}, {"t": 0.75, "dur": 0.24792, "note": 70, "vel": 76, "track": 0}, {"t": 0.75, "dur": 0.24792, "note": 70, "vel": 88, "track": 6}, {"t": 0.75, "dur": 0.49792, "note": 70, "vel": 73, "track": 4}, {"t": 1.0, "dur": 0.24792, "note": 51, "vel": 74, "track": 7}, {"t": 1.0, "dur": 0.24792, "note": 56, "vel": 80, "track": 8}, {"t": 1.0, "dur": 0.24792, "note": 68, "vel": 70, "track": 0}, {"t": 1.0, "dur": 0.24792, "note": 68, "vel": 72, "track": 6}, {"t": 1.0, "dur": 0.24792, "note": 70, "vel": 79, "track": 2}, {"t": 1.0, "dur": 0.24792, "note": 70, "vel": 79, "track": 3}, {"t": 1.25, "dur": 0.24792, "note": 42, "vel": 70, "track": 7}, {"t": 1.25, "dur": 0.99792, "note": 42, "vel": 73, "track": 9}, {"t": 1.25, "dur": 0.49792, "note": 54, "vel": 74, "track": 8}, {"t": 1.25, "dur": 0.24792, "note": 61, "vel": 59, "track": 2}, {"t": 1.25, "dur": 0.49792, "note": 61, "vel": 61, "track": 3}, {"t": 1.25, "dur": 0.74792, "note": 66, "vel": 69, "track": 5}, {"t": 1.25, "dur": 0.24792, "note": 70, "vel": 80, "track": 6}, {"t": 1.25, "dur": 0.74792, "note": 70, "vel": 34, "track": 4}, {"t": 1.25, "dur": 0.74792, "note": 70, "vel": 80, "track": 0}, {"t": 1.5, "dur": 0.24792, "note": 49, "vel": 83, "track": 7}, {"t": 1.5, "dur": 0.24792, "note": 61, "vel": 60, "track": 6}, {"t": 1.5, "dur": 0.24792, "note": 66, "vel": 84, "track": 2}, {"t": 1.75, "dur": 0.49792, "note": 46, "vel": 73, "track": 8}, {"t": 1.75, "dur": 0.24792, "note": 58, "vel": 85, "track": 7}, {"t": 1.75, "dur": 0.24792, "note": 66, "vel": 89, "track": 6}, {"t": 1.75, "dur": 0.24792, "note": 70, "vel": 86, "track": 2}, {"t": 1.75, "dur": 0.49792, "note": 70, "vel": 91, "track": 3}, {"t": 2.0, "dur": 0.24792, "note": 54, "vel": 72, "track": 7}, {"t": 2.0, "dur": 0.24792, "note": 66, "vel": 70, "track": 2}, {"t": 2.0, "dur": 0.49792, "note": 66, "vel": 74, "track": 5}, {"t": 2.0, "dur": 0.49792, "note": 68, "vel": 35, "track": 4}, {"t": 2.0, "dur": 0.24792, "note": 70, "vel": 86, "track": 6}, {"t": 2.0, "dur": 0.49792, "note": 70, "vel": 72, "track": 0}, {"t": 2.25, "dur": 0.24792, "note": 49, "vel": 70, "track": 7}, {"t": 2.25, "dur": 0.24792, "note": 54, "vel": 81, "track": 8}, {"t": 2.25, "dur": 0.24792, "note": 66, "vel": 69, "track": 6}, {"t": 2.25, "dur": 0.24792, "note": 70, "vel": 80, "track": 3}, {"t": 2.25, "dur": 0.24792, "note": 70, "vel": 84, "track": 2}, {"t": 2.5, "dur": 0.24792, "note": 41, "vel": 68, "track": 7}, {"t": 2.5, "dur": 0.99792, "note": 41, "vel": 68, "track": 9}, {"t": 2.5, "dur": 0.49792, "note": 53, "vel": 76, "track": 8}, {"t": 2.5, "dur": 0.24792, "note": 60, "vel": 59, "track": 2}, {"t": 2.5, "dur": 0.49792, "note": 60, "vel": 60, "track": 3}, {"t": 2.5, "dur": 0.74792, "note": 65, "vel": 77, "track": 5}, {"t": 2.5, "dur": 0.24792, "note": 70, "vel": 85, "track": 6}, {"t": 2.5, "dur": 0.74792, "note": 70, "vel": 41, "track": 4}, {"t": 2.5, "dur": 0.74792, "note": 70, "vel": 72, "track": 0}, {"t": 2.75, "dur": 0.24792, "note": 48, "vel": 82, "track": 7}, {"t": 2.75, "dur": 0.24792, "note": 60, "vel": 58, "track": 6}, {"t": 2.75, "dur": 0.24792, "note": 65, "vel": 86, "track": 2}, {"t": 3.0, "dur": 0.49792, "note": 48, "vel": 69, "track": 8}, {"t": 3.0, "dur": 0.24792, "note": 57, "vel": 90, "track": 7}, {"t": 3.0, "dur": 0.24792, "note": 65, "vel": 84, "track": 6}, {"t": 3.0, "dur": 0.24792, "note": 70, "vel": 87, "track": 2}, {"t": 3.0, "dur": 0.49792, "note": 70, "vel": 88, "track": 3}, {"t": 3.25, "dur": 0.24792, "note": 53, "vel": 73, "track": 7}, {"t": 3.25, "dur": 0.24792, "note": 65, "vel": 68, "track": 2}, {"t": 3.25, "dur": 0.49792, "note": 65, "vel": 80, "track": 5}, {"t": 3.25, "dur": 0.24792, "note": 70, "vel": 90, "track": 6}, {"t": 3.25, "dur": 0.49792, "note": 70, "vel": 37, "track": 4}, {"t": 3.25, "dur": 0.49792, "note": 70, "vel": 75, "track": 0}, {"t": 3.5, "dur": 0.24792, "note": 48, "vel": 72, "track": 7}, {"t": 3.5, "dur": 0.24792, "note": 53, "vel": 77, "track": 8}, {"t": 3.5, "dur": 0.24792, "note": 65, "vel": 66, "track": 6}, {"t": 3.5, "dur": 0.24792, "note": 70, "vel": 80, "track": 3}, {"t": 3.5, "dur": 0.24792, "note": 70, "vel": 88, "track": 2}, {"t": 3.75, "dur": 0.24792, "note": 46, "vel": 73, "track": 7}, {"t": 3.75, "dur": 0.99792, "note": 46, "vel": 71, "track": 9}, {"t": 3.75, "dur": 0.49792, "note": 58, "vel": 79, "track": 8}, {"t": 3.75, "dur": 0.24792, "note": 61, "vel": 58, "track": 2}, {"t": 3.75, "dur": 0.49792, "note": 61, "vel": 63, "track": 3}, {"t": 3.75, "dur": 0.74792, "note": 65, "vel": 74, "track": 5}, {"t": 3.75, "dur": 0.24792, "note": 70, "vel": 89, "track": 6}, {"t": 3.75, "dur": 0.74792, "note": 70, "vel": 35, "track": 4}, {"t": 3.75, "dur": 0.74792, "note": 70, "vel": 73, "track": 0}, {"t": 4.0, "dur": 0.24792, "note": 53, "vel": 83, "track": 7}, {"t": 4.0, "dur": 0.24792, "note": 61, "vel": 59, "track": 6}, {"t": 4.0, "dur": 0.24792, "note": 65, "vel": 83, "track": 2}, {"t": 4.25, "dur": 0.49792, "note": 46, "vel": 68, "track": 8}, {"t": 4.25, "dur": 0.24792, "note": 61, "vel": 92, "track": 7}, {"t": 4.25, "dur": 0.24792, "note": 65, "vel": 79, "track": 6}, {"t": 4.25, "dur": 0.24792, "note": 70, "vel": 90, "track": 2}, {"t": 4.25, "dur": 0.49792, "note": 70, "vel": 91, "track": 3}, {"t": 4.5, "dur": 0.24792, "note": 58, "vel": 74, "track": 7}, {"t": 4.5, "dur": 0.24792, "note": 65, "vel": 70, "track": 2}, {"t": 4.5, "dur": 0.49792, "note": 65, "vel": 79, "track": 5}, {"t": 4.5, "dur": 0.24792, "note": 70, "vel": 90, "track": 6}, {"t": 4.5, "dur": 0.49792, "note": 70, "vel": 41, "track": 4}, {"t": 4.5, "dur": 0.49792, "note": 70, "vel": 77, "track": 0}, {"t": 4.75, "dur": 0.24792, "note": 53, "vel": 69, "track": 7}, {"t": 4.75, "dur": 0.24792, "note": 58, "vel": 84, "track": 8}, {"t": 4.75, "dur": 0.24792, "note": 65, "vel": 67, "track": 6}, {"t": 4.75, "dur": 0.24792, "note": 70, "vel": 78, "track": 3}, {"t": 4.75, "dur": 0.24792, "note": 70, "vel": 92, "track": 2}]}, {"id": 42, "measures": "m57", "meter": [10, 16], "length_ticks": 1200, "length_beats": 2.5, "notes": [{"t": 0.0, "dur": 0.24792, "note": 41, "vel": 63, "track": 7}, {"t": 0.0, "dur": 0.99792, "note": 41, "vel": 68, "track": 9}, {"t": 0.0, "dur": 0.49792, "note": 53, "vel": 70, "track": 8}, {"t": 0.0, "dur": 0.24792, "note": 60, "vel": 64, "track": 2}, {"t": 0.0, "dur": 0.49792, "note": 60, "vel": 57, "track": 3}, {"t": 0.0, "dur": 0.74792, "note": 65, "vel": 77, "track": 5}, {"t": 0.0, "dur": 0.24792, "note": 70, "vel": 84, "track": 6}, {"t": 0.0, "dur": 0.74792, "note": 70, "vel": 37, "track": 4}, {"t": 0.0, "dur": 0.74792, "note": 70, "vel": 74, "track": 0}, {"t": 0.25, "dur": 0.24792, "note": 48, "vel": 78, "track": 7}, {"t": 0.25, "dur": 0.24792, "note": 60, "vel": 58, "track": 6}, {"t": 0.25, "dur": 0.24792, "note": 65, "vel": 82, "track": 2}, {"t": 0.5, "dur": 0.49792, "note": 48, "vel": 72, "track": 8}, {"t": 0.5, "dur": 0.24792, "note": 57, "vel": 84, "track": 7}, {"t": 0.5, "dur": 0.24792, "note": 65, "vel": 83, "track": 6}, {"t": 0.5, "dur": 0.24792, "note": 70, "vel": 89, "track": 2}, {"t": 0.5, "dur": 0.49792, "note": 70, "vel": 88, "track": 3}, {"t": 0.75, "dur": 0.24792, "note": 53, "vel": 76, "track": 7}, {"t": 0.75, "dur": 0.24792, "note": 65, "vel": 67, "track": 2}, {"t": 0.75, "dur": 0.49792, "note": 65, "vel": 81, "track": 5}, {"t": 0.75, "dur": 0.49792, "note": 68, "vel": 71, "track": 0}, {"t": 0.75, "dur": 0.24792, "note": 69, "vel": 86, "track": 6}, {"t": 0.75, "dur": 0.49792, "note": 69, "vel": 37, "track": 4}, {"t": 1.0, "dur": 0.24792, "note": 48, "vel": 72, "track": 7}, {"t": 1.0, "dur": 0.24792, "note": 53, "vel": 78, "track": 8}, {"t": 1.0, "dur": 0.24792, "note": 65, "vel": 67, "track": 6}, {"t": 1.0, "dur": 0.24792, "note": 69, "vel": 74, "track": 3}, {"t": 1.0, "dur": 0.24792, "note": 69, "vel": 86, "track": 2}, {"t": 1.25, "dur": 0.24792, "note": 46, "vel": 73, "track": 7}, {"t": 1.25, "dur": 0.99792, "note": 46, "vel": 70, "track": 9}, {"t": 1.25, "dur": 0.49792, "note": 58, "vel": 83, "track": 8}, {"t": 1.25, "dur": 0.24792, "note": 61, "vel": 60, "track": 2}, {"t": 1.25, "dur": 0.49792, "note": 61, "vel": 62, "track": 3}, {"t": 1.25, "dur": 0.74792, "note": 65, "vel": 75, "track": 5}, {"t": 1.25, "dur": 0.24792, "note": 69, "vel": 88, "track": 6}, {"t": 1.25, "dur": 0.74792, "note": 69, "vel": 41, "track": 4}, {"t": 1.25, "dur": 0.74792, "note": 69, "vel": 81, "track": 0}, {"t": 1.5, "dur": 0.24792, "note": 53, "vel": 84, "track": 7}, {"t": 1.5, "dur": 0.24792, "note": 61, "vel": 60, "track": 6}, {"t": 1.5, "dur": 0.24792, "note": 65, "vel": 81, "track": 2}, {"t": 1.75, "dur": 0.49792, "note": 46, "vel": 68, "track": 8}, {"t": 1.75, "dur": 0.24792, "note": 61, "vel": 93, "track": 7}, {"t": 1.75, "dur": 0.24792, "note": 65, "vel": 80, "track": 6}, {"t": 1.75, "dur": 0.24792, "note": 69, "vel": 81, "track": 2}, {"t": 1.75, "dur": 0.49792, "note": 69, "vel": 92, "track": 3}, {"t": 2.0, "dur": 0.24792, "note": 58, "vel": 78, "track": 7}, {"t": 2.0, "dur": 0.24792, "note": 65, "vel": 69, "track": 2}, {"t": 2.0, "dur": 0.49792, "note": 65, "vel": 73, "track": 5}, {"t": 2.0, "dur": 0.24792, "note": 69, "vel": 84, "track": 6}, {"t": 2.0, "dur": 0.49792, "note": 69, "vel": 42, "track": 4}, {"t": 2.0, "dur": 0.49792, "note": 69, "vel": 79, "track": 0}, {"t": 2.25, "dur": 0.24792, "note": 53, "vel": 68, "track": 7}, {"t": 2.25, "dur": 0.24792, "note": 58, "vel": 85, "track": 8}, {"t": 2.25, "dur": 0.24792, "note": 65, "vel": 71, "track": 6}, {"t": 2.25, "dur": 0.24792, "note": 69, "vel": 81, "track": 3}, {"t": 2.25, "dur": 0.24792, "note": 69, "vel": 82, "track": 2}]}, {"id": 43, "measures": "m58", "meter": [10, 16], "length_ticks": 1200, "length_beats": 2.5, "notes": [{"t": 0.0, "dur": 0.24792, "note": 44, "vel": 68, "track": 7}, {"t": 0.0, "dur": 0.99792, "note": 44, "vel": 70, "track": 9}, {"t": 0.0, "dur": 0.49792, "note": 56, "vel": 72, "track": 8}, {"t": 0.0, "dur": 0.24792, "note": 63, "vel": 69, "track": 2}, {"t": 0.0, "dur": 0.49792, "note": 63, "vel": 62, "track": 3}, {"t": 0.0, "dur": 0.74792, "note": 68, "vel": 86, "track": 5}, {"t": 0.0, "dur": 0.24792, "note": 69, "vel": 84, "track": 6}, {"t": 0.0, "dur": 0.74792, "note": 69, "vel": 78, "track": 0}, {"t": 0.0, "dur": 0.74792, "note": 69, "vel": 86, "track": 4}, {"t": 0.25, "dur": 0.24792, "note": 51, "vel": 81, "track": 7}, {"t": 0.25, "dur": 0.24792, "note": 63, "vel": 64, "track": 6}, {"t": 0.25, "dur": 0.24792, "note": 68, "vel": 82, "track": 2}, {"t": 0.5, "dur": 0.49792, "note": 51, "vel": 71, "track": 8}, {"t": 0.5, "dur": 0.24792, "note": 60, "vel": 95, "track": 7}, {"t": 0.5, "dur": 0.24792, "note": 68, "vel": 84, "track": 6}, {"t": 0.5, "dur": 0.24792, "note": 69, "vel": 75, "track": 2}, {"t": 0.5, "dur": 0.49792, "note": 69, "vel": 84, "track": 3}, {"t": 0.75, "dur": 0.24792, "note": 56, "vel": 74, "track": 7}, {"t": 0.75, "dur": 0.24792, "note": 68, "vel": 73, "track": 2}, {"t": 0.75, "dur": 0.49792, "note": 68, "vel": 77, "track": 5}, {"t": 0.75, "dur": 0.24792, "note": 69, "vel": 82, "track": 6}, {"t": 0.75, "dur": 0.49792, "note": 69, "vel": 72, "track": 0}, {"t": 0.75, "dur": 0.49792, "note": 69, "vel": 77, "track": 4}, {"t": 1.0, "dur": 0.24792, "note": 51, "vel": 75, "track": 7}, {"t": 1.0, "dur": 0.24792, "note": 56, "vel": 77, "track": 8}, {"t": 1.0, "dur": 0.24792, "note": 68, "vel": 73, "track": 6}, {"t": 1.0, "dur": 0.24792, "note": 69, "vel": 72, "track": 3}, {"t": 1.0, "dur": 0.24792, "note": 69, "vel": 82, "track": 2}, {"t": 1.25, "dur": 0.24792, "note": 42, "vel": 70, "track": 7}, {"t": 1.25, "dur": 0.99792, "note": 42, "vel": 69, "track": 9}, {"t": 1.25, "dur": 0.49792, "note": 54, "vel": 70, "track": 8}, {"t": 1.25, "dur": 0.24792, "note": 61, "vel": 62, "track": 2}, {"t": 1.25, "dur": 0.49792, "note": 61, "vel": 66, "track": 3}, {"t": 1.25, "dur": 0.74792, "note": 66, "vel": 68, "track": 5}, {"t": 1.25, "dur": 0.24792, "note": 69, "vel": 80, "track": 6}, {"t": 1.25, "dur": 0.74792, "note": 69, "vel": 32, "track": 4}, {"t": 1.25, "dur": 0.74792, "note": 69, "vel": 78, "track": 0}, {"t": 1.5, "dur": 0.24792, "note": 49, "vel": 82, "track": 7}, {"t": 1.5, "dur": 0.24792, "note": 61, "vel": 61, "track": 6}, {"t": 1.5, "dur": 0.24792, "note": 66, "vel": 83, "track": 2}, {"t": 1.75, "dur": 0.49792, "note": 49, "vel": 72, "track": 8}, {"t": 1.75, "dur": 0.24792, "note": 58, "vel": 87, "track": 7}, {"t": 1.75, "dur": 0.24792, "note": 66, "vel": 83, "track": 6}, {"t": 1.75, "dur": 0.24792, "note": 69, "vel": 81, "track": 2}, {"t": 1.75, "dur": 0.49792, "note": 69, "vel": 87, "track": 3}, {"t": 2.0, "dur": 0.24792, "note": 54, "vel": 73, "track": 7}, {"t": 2.0, "dur": 0.24792, "note": 66, "vel": 72, "track": 2}, {"t": 2.0, "dur": 0.49792, "note": 66, "vel": 75, "track": 5}, {"t": 2.0, "dur": 0.24792, "note": 69, "vel": 83, "track": 6}, {"t": 2.0, "dur": 0.49792, "note": 69, "vel": 41, "track": 4}, {"t": 2.0, "dur": 0.49792, "note": 69, "vel": 78, "track": 0}, {"t": 2.25, "dur": 0.24792, "note": 49, "vel": 68, "track": 7}, {"t": 2.25, "dur": 0.24792, "note": 54, "vel": 83, "track": 8}, {"t": 2.25, "dur": 0.24792, "note": 66, "vel": 74, "track": 6}, {"t": 2.25, "dur": 0.24792, "note": 69, "vel": 80, "track": 3}, {"t": 2.25, "dur": 0.24792, "note": 69, "vel": 84, "track": 2}]}, {"id": 44, "measures": "m59-66", "meter": [10, 16], "length_ticks": 9600, "length_beats": 20.0, "notes": [{"t": 0.0, "dur": 0.24792, "note": 41, "vel": 71, "track": 7}, {"t": 0.0, "dur": 0.99792, "note": 41, "vel": 67, "track": 9}, {"t": 0.0, "dur": 0.49792, "note": 53, "vel": 75, "track": 8}, {"t": 0.0, "dur": 0.24792, "note": 60, "vel": 62, "track": 2}, {"t": 0.0, "dur": 0.49792, "note": 60, "vel": 57, "track": 3}, {"t": 0.0, "dur": 0.74792, "note": 65, "vel": 81, "track": 5}, {"t": 0.0, "dur": 0.24792, "note": 69, "vel": 81, "track": 6}, {"t": 0.0, "dur": 0.74792, "note": 69, "vel": 78, "track": 0}, {"t": 0.0, "dur": 0.74792, "note": 69, "vel": 81, "track": 4}, {"t": 0.25, "dur": 0.24792, "note": 48, "vel": 85, "track": 7}, {"t": 0.25, "dur": 0.24792, "note": 60, "vel": 58, "track": 6}, {"t": 0.25, "dur": 0.24792, "note": 65, "vel": 84, "track": 2}, {"t": 0.5, "dur": 0.49792, "note": 48, "vel": 68, "track": 8}, {"t": 0.5, "dur": 0.24792, "note": 57, "vel": 83, "track": 7}, {"t": 0.5, "dur": 0.24792, "note": 65, "vel": 80, "track": 6}, {"t": 0.5, "dur": 0.49792, "note": 68, "vel": 91, "track": 3}, {"t": 0.5, "dur": 0.24792, "note": 69, "vel": 87, "track": 2}, {"t": 0.75, "dur": 0.24792, "note": 53, "vel": 73, "track": 7}, {"t": 0.75, "dur": 0.24792, "note": 65, "vel": 69, "track": 2}, {"t": 0.75, "dur": 0.49792, "note": 65, "vel": 77, "track": 5}, {"t": 0.75, "dur": 0.24792, "note": 70, "vel": 89, "track": 6}, {"t": 0.75, "dur": 0.49792, "note": 70, "vel": 74, "track": 0}, {"t": 0.75, "dur": 0.49792, "note": 70, "vel": 77, "track": 4}, {"t": 1.0, "dur": 0.24792, "note": 48, "vel": 72, "track": 7}, {"t": 1.0, "dur": 0.24792, "note": 53, "vel": 79, "track": 8}, {"t": 1.0, "dur": 0.24792, "note": 65, "vel": 72, "track": 6}, {"t": 1.0, "dur": 0.24792, "note": 69, "vel": 84, "track": 2}, {"t": 1.0, "dur": 0.24792, "note": 69, "vel": 86, "track": 3}, {"t": 1.25, "dur": 0.24792, "note": 46, "vel": 76, "track": 7}, {"t": 1.25, "dur": 0.99792, "note": 46, "vel": 70, "track": 9}, {"t": 1.25, "dur": 0.49792, "note": 58, "vel": 79, "track": 8}, {"t": 1.25, "dur": 0.24792, "note": 61, "vel": 66, "track": 2}, {"t": 1.25, "dur": 0.49792, "note": 61, "vel": 58, "track": 3}, {"t": 1.25, "dur": 0.74792, "note": 65, "vel": 70, "track": 5}, {"t": 1.25, "dur": 0.24792, "note": 70, "vel": 90, "track": 6}, {"t": 1.25, "dur": 0.74792, "note": 70, "vel": 32, "track": 4}, {"t": 1.25, "dur": 0.74792, "note": 70, "vel": 79, "track": 0}, {"t": 1.5, "dur": 0.24792, "note": 53, "vel": 87, "track": 7}, {"t": 1.5, "dur": 0.24792, "note": 61, "vel": 55, "track": 6}, {"t": 1.5, "dur": 0.24792, "note": 65, "vel": 82, "track": 2}, {"t": 1.75, "dur": 0.49792, "note": 46, "vel": 66, "track": 8}, {"t": 1.75, "dur": 0.24792, "note": 61, "vel": 89, "track": 7}, {"t": 1.75, "dur": 0.24792, "note": 65, "vel": 80, "track": 6}, {"t": 1.75, "dur": 0.24792, "note": 70, "vel": 91, "track": 2}, {"t": 1.75, "dur": 0.49792, "note": 70, "vel": 94, "track": 3}, {"t": 2.0, "dur": 0.24792, "note": 58, "vel": 77, "track": 7}, {"t": 2.0, "dur": 0.24792, "note": 65, "vel": 67, "track": 2}, {"t": 2.0, "dur": 0.49792, "note": 65, "vel": 77, "track": 5}, {"t": 2.0, "dur": 0.24792, "note": 70, "vel": 87, "track": 6}, {"t": 2.0, "dur": 0.49792, "note": 70, "vel": 43, "track": 4}, {"t": 2.0, "dur": 0.49792, "note": 70, "vel": 77, "track": 0}, {"t": 2.25, "dur": 0.24792, "note": 53, "vel": 68, "track": 7}, {"t": 2.25, "dur": 0.24792, "note": 58, "vel": 84, "track": 8}, {"t": 2.25, "dur": 0.24792, "note": 65, "vel": 70, "track": 6}, {"t": 2.25, "dur": 0.24792, "note": 70, "vel": 79, "track": 3}, {"t": 2.25, "dur": 0.24792, "note": 70, "vel": 84, "track": 2}, {"t": 2.5, "dur": 0.24792, "note": 44, "vel": 69, "track": 7}, {"t": 2.5, "dur": 0.99792, "note": 44, "vel": 68, "track": 9}, {"t": 2.5, "dur": 0.49792, "note": 58, "vel": 82, "track": 8}, {"t": 2.5, "dur": 0.24792, "note": 63, "vel": 68, "track": 2}, {"t": 2.5, "dur": 0.49792, "note": 63, "vel": 58, "track": 3}, {"t": 2.5, "dur": 0.74792, "note": 68, "vel": 90, "track": 5}, {"t": 2.5, "dur": 0.24792, "note": 70, "vel": 83, "track": 6}, {"t": 2.5, "dur": 0.74792, "note": 70, "vel": 76, "track": 0}, {"t": 2.5, "dur": 0.74792, "note": 70, "vel": 90, "track": 4}, {"t": 2.75, "dur": 0.24792, "note": 51, "vel": 80, "track": 7}, {"t": 2.75, "dur": 0.24792, "note": 63, "vel": 61, "track": 6}, {"t": 2.75, "dur": 0.24792, "note": 68, "vel": 83, "track": 2}, {"t": 3.0, "dur": 0.49792, "note": 51, "vel": 72, "track": 8}, {"t": 3.0, "dur": 0.24792, "note": 60, "vel": 94, "track": 7}, {"t": 3.0, "dur": 0.24792, "note": 68, "vel": 82, "track": 6}, {"t": 3.0, "dur": 0.24792, "note": 70, "vel": 81, "track": 2}, {"t": 3.0, "dur": 0.49792, "note": 70, "vel": 89, "track": 3}, {"t": 3.25, "dur": 0.24792, "note": 56, "vel": 78, "track": 7}, {"t": 3.25, "dur": 0.24792, "note": 68, "vel": 69, "track": 2}, {"t": 3.25, "dur": 0.49792, "note": 68, "vel": 77, "track": 5}, {"t": 3.25, "dur": 0.24792, "note": 70, "vel": 81, "track": 6}, {"t": 3.25, "dur": 0.49792, "note": 70, "vel": 77, "track": 4}, {"t": 3.25, "dur": 0.49792, "note": 70, "vel": 81, "track": 0}, {"t": 3.5, "dur": 0.24792, "note": 51, "vel": 70, "track": 7}, {"t": 3.5, "dur": 0.24792, "note": 56, "vel": 79, "track": 8}, {"t": 3.5, "dur": 0.24792, "note": 68, "vel": 72, "track": 6}, {"t": 3.5, "dur": 0.24792, "note": 70, "vel": 79, "track": 3}, {"t": 3.5, "dur": 0.24792, "note": 70, "vel": 83, "track": 2}, {"t": 3.75, "dur": 0.24792, "note": 42, "vel": 67, "track": 7}, {"t": 3.75, "dur": 0.99792, "note": 42, "vel": 68, "track": 9}, {"t": 3.75, "dur": 0.49792, "note": 54, "vel": 74, "track": 8}, {"t": 3.75, "dur": 0.24792, "note": 61, "vel": 58, "track": 2}, {"t": 3.75, "dur": 0.49792, "note": 61, "vel": 60, "track": 3}, {"t": 3.75, "dur": 0.74792, "note": 66, "vel": 70, "track": 5}, {"t": 3.75, "dur": 0.24792, "note": 70, "vel": 81, "track": 6}, {"t": 3.75, "dur": 0.74792, "note": 70, "vel": 35, "track": 4}, {"t": 3.75, "dur": 0.74792, "note": 70, "vel": 76, "track": 0}, {"t": 4.0, "dur": 0.24792, "note": 49, "vel": 79, "track": 7}, {"t": 4.0, "dur": 0.24792, "note": 61, "vel": 58, "track": 6}, {"t": 4.0, "dur": 0.24792, "note": 65, "vel": 84, "track": 2}, {"t": 4.25, "dur": 0.49792, "note": 46, "vel": 70, "track": 8}, {"t": 4.25, "dur": 0.24792, "note": 58, "vel": 90, "track": 7}, {"t": 4.25, "dur": 0.24792, "note": 66, "vel": 80, "track": 6}, {"t": 4.25, "dur": 0.24792, "note": 70, "vel": 84, "track": 2}, {"t": 4.25, "dur": 0.49792, "note": 70, "vel": 85, "track": 3}, {"t": 4.5, "dur": 0.24792, "note": 54, "vel": 74, "track": 7}, {"t": 4.5, "dur": 0.24792, "note": 65, "vel": 67, "track": 2}, {"t": 4.5, "dur": 0.49792, "note": 66, "vel": 76, "track": 5}, {"t": 4.5, "dur": 0.24792, "note": 70, "vel": 85, "track": 6}, {"t": 4.5, "dur": 0.49792, "note": 70, "vel": 39, "track": 4}, {"t": 4.5, "dur": 0.49792, "note": 70, "vel": 77, "track": 0}, {"t": 4.75, "dur": 0.24792, "note": 49, "vel": 68, "track": 7}, {"t": 4.75, "dur": 0.24792, "note": 54, "vel": 89, "track": 8}, {"t": 4.75, "dur": 0.24792, "note": 66, "vel": 67, "track": 6}, {"t": 4.75, "dur": 0.24792, "note": 70, "vel": 80, "track": 3}, {"t": 4.75, "dur": 0.24792, "note": 70, "vel": 82, "track": 2}, {"t": 5.0, "dur": 0.24792, "note": 41, "vel": 65, "track": 7}, {"t": 5.0, "dur": 0.99792, "note": 41, "vel": 70, "track": 9}, {"t": 5.0, "dur": 0.49792, "note": 53, "vel": 69, "track": 8}, {"t": 5.0, "dur": 0.24792, "note": 60, "vel": 57, "track": 2}, {"t": 5.0, "dur": 0.49792, "note": 60, "vel": 55, "track": 3}, {"t": 5.0, "dur": 0.74792, "note": 65, "vel": 85, "track": 5}, {"t": 5.0, "dur": 0.24792, "note": 70, "vel": 83, "track": 6}, {"t": 5.0, "dur": 0.74792, "note": 70, "vel": 73, "track": 0}, {"t": 5.0, "dur": 0.74792, "note": 70, "vel": 85, "track": 4}, {"t": 5.25, "dur": 0.24792, "note": 48, "vel": 77, "track": 7}, {"t": 5.25, "dur": 0.24792, "note": 60, "vel": 60, "track": 6}, {"t": 5.25, "dur": 0.24792, "note": 65, "vel": 81, "track": 2}, {"t": 5.5, "dur": 0.49792, "note": 48, "vel": 70, "track": 8}, {"t": 5.5, "dur": 0.24792, "note": 57, "vel": 83, "track": 7}, {"t": 5.5, "dur": 0.24792, "note": 65, "vel": 82, "track": 6}, {"t": 5.5, "dur": 0.24792, "note": 70, "vel": 87, "track": 2}, {"t": 5.5, "dur": 0.49792, "note": 70, "vel": 90, "track": 3}, {"t": 5.75, "dur": 0.24792, "note": 53, "vel": 76, "track": 7}, {"t": 5.75, "dur": 0.24792, "note": 65, "vel": 64, "track": 2}, {"t": 5.75, "dur": 0.49792, "note": 65, "vel": 78, "track": 5}, {"t": 5.75, "dur": 0.24792, "note": 72, "vel": 94, "track": 6}, {"t": 5.75, "dur": 0.49792, "note": 72, "vel": 78, "track": 4}, {"t": 5.75, "dur": 0.49792, "note": 72, "vel": 84, "track": 0}, {"t": 6.0, "dur": 0.24792, "note": 48, "vel": 73, "track": 7}, {"t": 6.0, "dur": 0.24792, "note": 53, "vel": 80, "track": 8}, {"t": 6.0, "dur": 0.24792, "note": 65, "vel": 69, "track": 6}, {"t": 6.0, "dur": 0.24792, "note": 72, "vel": 83, "track": 3}, {"t": 6.0, "dur": 0.24792, "note": 72, "vel": 90, "track": 2}, {"t": 6.25, "dur": 0.24792, "note": 46, "vel": 72, "track": 7}, {"t": 6.25, "dur": 0.99792, "note": 46, "vel": 70, "track": 9}, {"t": 6.25, "dur": 0.49792, "note": 58, "vel": 79, "track": 8}, {"t": 6.25, "dur": 0.24792, "note": 61, "vel": 56, "track": 2}, {"t": 6.25, "dur": 0.49792, "note": 61, "vel": 53, "track": 3}, {"t": 6.25, "dur": 0.74792, "note": 65, "vel": 62, "track": 5}, {"t": 6.25, "dur": 0.24792, "note": 72, "vel": 89, "track": 6}, {"t": 6.25, "dur": 0.74792, "note": 72, "vel": 33, "track": 4}, {"t": 6.25, "dur": 0.74792, "note": 72, "vel": 77, "track": 0}, {"t": 6.5, "dur": 0.24792, "note": 53, "vel": 84, "track": 7}, {"t": 6.5, "dur": 0.24792, "note": 61, "vel": 58, "track": 6}, {"t": 6.5, "dur": 0.24792, "note": 65, "vel": 85, "track": 2}, {"t": 6.75, "dur": 0.49792, "note": 46, "vel": 67, "track": 8}, {"t": 6.75, "dur": 0.24792, "note": 61, "vel": 96, "track": 7}, {"t": 6.75, "dur": 0.24792, "note": 65, "vel": 80, "track": 6}, {"t": 6.75, "dur": 0.24792, "note": 72, "vel": 92, "track": 2}, {"t": 6.75, "dur": 0.49792, "note": 72, "vel": 94, "track": 3}, {"t": 7.0, "dur": 0.24792, "note": 58, "vel": 75, "track": 7}, {"t": 7.0, "dur": 0.24792, "note": 65, "vel": 65, "track": 2}, {"t": 7.0, "dur": 0.49792, "note": 65, "vel": 78, "track": 5}, {"t": 7.0, "dur": 0.24792, "note": 72, "vel": 89, "track": 6}, {"t": 7.0, "dur": 0.49792, "note": 72, "vel": 41, "track": 4}, {"t": 7.0, "dur": 0.49792, "note": 72, "vel": 76, "track": 0}, {"t": 7.25, "dur": 0.24792, "note": 53, "vel": 70, "track": 7}, {"t": 7.25, "dur": 0.24792, "note": 58, "vel": 84, "track": 8}, {"t": 7.25, "dur": 0.24792, "note": 65, "vel": 67, "track": 6}, {"t": 7.25, "dur": 0.24792, "note": 72, "vel": 75, "track": 3}, {"t": 7.25, "dur": 0.24792, "note": 72, "vel": 89, "track": 2}, {"t": 7.5, "dur": 0.24792, "note": 44, "vel": 69, "track": 7}, {"t": 7.5, "dur": 0.99792, "note": 44, "vel": 72, "track": 9}, {"t": 7.5, "dur": 0.49792, "note": 56, "vel": 75, "track": 8}, {"t": 7.5, "dur": 0.24792, "note": 63, "vel": 62, "track": 2}, {"t": 7.5, "dur": 0.49792, "note": 63, "vel": 60, "track": 3}, {"t": 7.5, "dur": 0.74792, "note": 68, "vel": 92, "track": 5}, {"t": 7.5, "dur": 0.24792, "note": 72, "vel": 92, "track": 6}, {"t": 7.5, "dur": 0.74792, "note": 72, "vel": 75, "track": 0}, {"t": 7.5, "dur": 0.74792, "note": 72, "vel": 92, "track": 4}, {"t": 7.75, "dur": 0.24792, "note": 51, "vel": 82, "track": 7}, {"t": 7.75, "dur": 0.24792, "note": 63, "vel": 65, "track": 6}, {"t": 7.75, "dur": 0.24792, "note": 68, "vel": 86, "track": 2}, {"t": 8.0, "dur": 0.49792, "note": 51, "vel": 71, "track": 8}, {"t": 8.0, "dur": 0.24792, "note": 60, "vel": 91, "track": 7}, {"t": 8.0, "dur": 0.24792, "note": 68, "vel": 85, "track": 6}, {"t": 8.0, "dur": 0.24792, "note": 72, "vel": 84, "track": 2}, {"t": 8.0, "dur": 0.49792, "note": 72, "vel": 88, "track": 3}, {"t": 8.25, "dur": 0.24792, "note": 56, "vel": 75, "track": 7}, {"t": 8.25, "dur": 0.24792, "note": 68, "vel": 69, "track": 2}, {"t": 8.25, "dur": 0.49792, "note": 68, "vel": 74, "track": 5}, {"t": 8.25, "dur": 0.24792, "note": 72, "vel": 92, "track": 6}, {"t": 8.25, "dur": 0.49792, "note": 72, "vel": 74, "track": 0}, {"t": 8.25, "dur": 0.49792, "note": 72, "vel": 74, "track": 4}, {"t": 8.5, "dur": 0.24792, "note": 51, "vel": 71, "track": 7}, {"t": 8.5, "dur": 0.24792, "note": 56, "vel": 78, "track": 8}, {"t": 8.5, "dur": 0.24792, "note": 68, "vel": 72, "track": 6}, {"t": 8.5, "dur": 0.24792, "note": 72, "vel": 75, "track": 3}, {"t": 8.5, "dur": 0.24792, "note": 72, "vel": 83, "track": 2}, {"t": 8.75, "dur": 0.24792, "note": 42, "vel": 72, "track": 7}, {"t": 8.75, "dur": 0.99792, "note": 42, "vel": 68, "track": 9}, {"t": 8.75, "dur": 0.49792, "note": 54, "vel": 75, "track": 8}, {"t": 8.75, "dur": 0.24792, "note": 61, "vel": 58, "track": 2}, {"t": 8.75, "dur": 0.49792, "note": 61, "vel": 57, "track": 3}, {"t": 8.75, "dur": 0.74792, "note": 66, "vel": 65, "track": 5}, {"t": 8.75, "dur": 0.24792, "note": 72, "vel": 80, "track": 6}, {"t": 8.75, "dur": 0.74792, "note": 72, "vel": 33, "track": 4}, {"t": 8.75, "dur": 0.74792, "note": 72, "vel": 76, "track": 0}, {"t": 9.0, "dur": 0.24792, "note": 49, "vel": 86, "track": 7}, {"t": 9.0, "dur": 0.24792, "note": 61, "vel": 58, "track": 6}, {"t": 9.0, "dur": 0.24792, "note": 66, "vel": 86, "track": 2}, {"t": 9.25, "dur": 0.49792, "note": 49, "vel": 75, "track": 8}, {"t": 9.25, "dur": 0.24792, "note": 58, "vel": 83, "track": 7}, {"t": 9.25, "dur": 0.24792, "note": 66, "vel": 81, "track": 6}, {"t": 9.25, "dur": 0.24792, "note": 72, "vel": 91, "track": 2}, {"t": 9.25, "dur": 0.49792, "note": 72, "vel": 93, "track": 3}, {"t": 9.5, "dur": 0.24792, "note": 54, "vel": 71, "track": 7}, {"t": 9.5, "dur": 0.24792, "note": 66, "vel": 69, "track": 2}, {"t": 9.5, "dur": 0.49792, "note": 66, "vel": 74, "track": 5}, {"t": 9.5, "dur": 0.24792, "note": 72, "vel": 89, "track": 6}, {"t": 9.5, "dur": 0.49792, "note": 72, "vel": 44, "track": 4}, {"t": 9.5, "dur": 0.49792, "note": 72, "vel": 78, "track": 0}, {"t": 9.75, "dur": 0.24792, "note": 49, "vel": 71, "track": 7}, {"t": 9.75, "dur": 0.24792, "note": 54, "vel": 81, "track": 8}, {"t": 9.75, "dur": 0.24792, "note": 66, "vel": 63, "track": 6}, {"t": 9.75, "dur": 0.24792, "note": 72, "vel": 81, "track": 3}, {"t": 9.75, "dur": 0.24792, "note": 72, "vel": 86, "track": 2}, {"t": 10.0, "dur": 0.24792, "note": 41, "vel": 68, "track": 7}, {"t": 10.0, "dur": 0.99792, "note": 41, "vel": 71, "track": 9}, {"t": 10.0, "dur": 0.49792, "note": 53, "vel": 76, "track": 8}, {"t": 10.0, "dur": 0.24792, "note": 60, "vel": 55, "track": 2}, {"t": 10.0, "dur": 0.49792, "note": 60, "vel": 56, "track": 3}, {"t": 10.0, "dur": 0.74792, "note": 65, "vel": 91, "track": 5}, {"t": 10.0, "dur": 0.24792, "note": 72, "vel": 84, "track": 6}, {"t": 10.0, "dur": 0.74792, "note": 72, "vel": 79, "track": 0}, {"t": 10.0, "dur": 0.74792, "note": 72, "vel": 91, "track": 4}, {"t": 10.25, "dur": 0.24792, "note": 48, "vel": 82, "track": 7}, {"t": 10.25, "dur": 0.24792, "note": 60, "vel": 62, "track": 6}, {"t": 10.25, "dur": 0.24792, "note": 65, "vel": 85, "track": 2}, {"t": 10.5, "dur": 0.49792, "note": 48, "vel": 73, "track": 8}, {"t": 10.5, "dur": 0.24792, "note": 57, "vel": 88, "track": 7}, {"t": 10.5, "dur": 0.24792, "note": 65, "vel": 83, "track": 6}, {"t": 10.5, "dur": 0.24792, "note": 72, "vel": 91, "track": 2}, {"t": 10.5, "dur": 0.49792, "note": 72, "vel": 91, "track": 3}, {"t": 10.75, "dur": 0.24792, "note": 53, "vel": 76, "track": 7}, {"t": 10.75, "dur": 0.24792, "note": 65, "vel": 68, "track": 2}, {"t": 10.75, "dur": 0.49792, "note": 65, "vel": 78, "track": 5}, {"t": 10.75, "dur": 0.24792, "note": 73, "vel": 94, "track": 6}, {"t": 10.75, "dur": 0.49792, "note": 73, "vel": 75, "track": 0}, {"t": 10.75, "dur": 0.49792, "note": 73, "vel": 78, "track": 4}, {"t": 11.0, "dur": 0.24792, "note": 48, "vel": 73, "track": 7}, {"t": 11.0, "dur": 0.24792, "note": 53, "vel": 80, "track": 8}, {"t": 11.0, "dur": 0.24792, "note": 65, "vel": 66, "track": 6}, {"t": 11.0, "dur": 0.24792, "note": 73, "vel": 80, "track": 3}, {"t": 11.0, "dur": 0.24792, "note": 73, "vel": 90, "track": 2}, {"t": 11.25, "dur": 0.24792, "note": 46, "vel": 72, "track": 7}, {"t": 11.25, "dur": 0.99792, "note": 46, "vel": 66, "track": 9}, {"t": 11.25, "dur": 0.49792, "note": 58, "vel": 81, "track": 8}, {"t": 11.25, "dur": 0.24792, "note": 61, "vel": 56, "track": 2}, {"t": 11.25, "dur": 0.49792, "note": 61, "vel": 57, "track": 3}, {"t": 11.25, "dur": 0.74792, "note": 65, "vel": 61, "track": 5}, {"t": 11.25, "dur": 0.24792, "note": 73, "vel": 92, "track": 6}, {"t": 11.25, "dur": 0.74792, "note": 73, "vel": 32, "track": 4}, {"t": 11.25, "dur": 0.74792, "note": 73, "vel": 79, "track": 0}, {"t": 11.5, "dur": 0.24792, "note": 53, "vel": 81, "track": 7}, {"t": 11.5, "dur": 0.24792, "note": 61, "vel": 59, "track": 6}, {"t": 11.5, "dur": 0.24792, "note": 65, "vel": 81, "track": 2}, {"t": 11.75, "dur": 0.49792, "note": 46, "vel": 63, "track": 8}, {"t": 11.75, "dur": 0.24792, "note": 61, "vel": 92, "track": 7}, {"t": 11.75, "dur": 0.24792, "note": 65, "vel": 83, "track": 6}, {"t": 11.75, "dur": 0.24792, "note": 73, "vel": 91, "track": 2}, {"t": 11.75, "dur": 0.49792, "note": 73, "vel": 94, "track": 3}, {"t": 12.0, "dur": 0.24792, "note": 58, "vel": 75, "track": 7}, {"t": 12.0, "dur": 0.24792, "note": 65, "vel": 67, "track": 2}, {"t": 12.0, "dur": 0.49792, "note": 65, "vel": 73, "track": 5}, {"t": 12.0, "dur": 0.24792, "note": 73, "vel": 95, "track": 6}, {"t": 12.0, "dur": 0.49792, "note": 73, "vel": 39, "track": 4}, {"t": 12.0, "dur": 0.49792, "note": 73, "vel": 74, "track": 0}, {"t": 12.25, "dur": 0.24792, "note": 53, "vel": 73, "track": 7}, {"t": 12.25, "dur": 0.24792, "note": 58, "vel": 89, "track": 8}, {"t": 12.25, "dur": 0.24792, "note": 65, "vel": 65, "track": 6}, {"t": 12.25, "dur": 0.24792, "note": 73, "vel": 77, "track": 3}, {"t": 12.25, "dur": 0.24792, "note": 73, "vel": 88, "track": 2}, {"t": 12.5, "dur": 0.24792, "note": 44, "vel": 68, "track": 7}, {"t": 12.5, "dur": 0.99792, "note": 44, "vel": 72, "track": 9}, {"t": 12.5, "dur": 0.49792, "note": 56, "vel": 74, "track": 8}, {"t": 12.5, "dur": 0.24792, "note": 63, "vel": 59, "track": 2}, {"t": 12.5, "dur": 0.49792, "note": 63, "vel": 60, "track": 3}, {"t": 12.5, "dur": 0.74792, "note": 68, "vel": 90, "track": 5}, {"t": 12.5, "dur": 0.24792, "note": 73, "vel": 89, "track": 6}, {"t": 12.5, "dur": 0.74792, "note": 73, "vel": 80, "track": 0}, {"t": 12.5, "dur": 0.74792, "note": 73, "vel": 90, "track": 4}, {"t": 12.75, "dur": 0.24792, "note": 51, "vel": 82, "track": 7}, {"t": 12.75, "dur": 0.24792, "note": 63, "vel": 62, "track": 6}, {"t": 12.75, "dur": 0.24792, "note": 68, "vel": 83, "track": 2}, {"t": 13.0, "dur": 0.49792, "note": 51, "vel": 70, "track": 8}, {"t": 13.0, "dur": 0.24792, "note": 60, "vel": 95, "track": 7}, {"t": 13.0, "dur": 0.24792, "note": 68, "vel": 79, "track": 6}, {"t": 13.0, "dur": 0.24792, "note": 73, "vel": 91, "track": 2}, {"t": 13.0, "dur": 0.49792, "note": 73, "vel": 88, "track": 3}, {"t": 13.25, "dur": 0.24792, "note": 56, "vel": 75, "track": 7}, {"t": 13.25, "dur": 0.24792, "note": 68, "vel": 73, "track": 2}, {"t": 13.25, "dur": 0.49792, "note": 68, "vel": 84, "track": 5}, {"t": 13.25, "dur": 0.24792, "note": 73, "vel": 89, "track": 6}, {"t": 13.25, "dur": 0.49792, "note": 73, "vel": 76, "track": 0}, {"t": 13.25, "dur": 0.49792, "note": 73, "vel": 84, "track": 4}, {"t": 13.5, "dur": 0.24792, "note": 51, "vel": 69, "track": 7}, {"t": 13.5, "dur": 0.24792, "note": 56, "vel": 81, "track": 8}, {"t": 13.5, "dur": 0.24792, "note": 68, "vel": 69, "track": 6}, {"t": 13.5, "dur": 0.24792, "note": 73, "vel": 80, "track": 3}, {"t": 13.5, "dur": 0.24792, "note": 73, "vel": 84, "track": 2}, {"t": 13.75, "dur": 0.24792, "note": 42, "vel": 65, "track": 7}, {"t": 13.75, "dur": 0.99792, "note": 42, "vel": 68, "track": 9}, {"t": 13.75, "dur": 0.49792, "note": 54, "vel": 74, "track": 8}, {"t": 13.75, "dur": 0.24792, "note": 61, "vel": 56, "track": 2}, {"t": 13.75, "dur": 0.49792, "note": 61, "vel": 54, "track": 3}, {"t": 13.75, "dur": 0.74792, "note": 66, "vel": 60, "track": 5}, {"t": 13.75, "dur": 0.24792, "note": 73, "vel": 87, "track": 6}, {"t": 13.75, "dur": 0.74792, "note": 73, "vel": 37, "track": 4}, {"t": 13.75, "dur": 0.74792, "note": 73, "vel": 75, "track": 0}, {"t": 14.0, "dur": 0.24792, "note": 49, "vel": 80, "track": 7}, {"t": 14.0, "dur": 0.24792, "note": 61, "vel": 59, "track": 6}, {"t": 14.0, "dur": 0.24792, "note": 66, "vel": 84, "track": 2}, {"t": 14.25, "dur": 0.49792, "note": 49, "vel": 75, "track": 8}, {"t": 14.25, "dur": 0.24792, "note": 58, "vel": 85, "track": 7}, {"t": 14.25, "dur": 0.24792, "note": 66, "vel": 79, "track": 6}, {"t": 14.25, "dur": 0.24792, "note": 73, "vel": 90, "track": 2}, {"t": 14.25, "dur": 0.49792, "note": 73, "vel": 94, "track": 3}, {"t": 14.5, "dur": 0.24792, "note": 54, "vel": 76, "track": 7}, {"t": 14.5, "dur": 0.24792, "note": 66, "vel": 60, "track": 2}, {"t": 14.5, "dur": 0.49792, "note": 66, "vel": 71, "track": 5}, {"t": 14.5, "dur": 0.24792, "note": 75, "vel": 97, "track": 6}, {"t": 14.5, "dur": 0.49792, "note": 75, "vel": 41, "track": 4}, {"t": 14.5, "dur": 0.49792, "note": 75, "vel": 78, "track": 0}, {"t": 14.75, "dur": 0.24792, "note": 49, "vel": 75, "track": 7}, {"t": 14.75, "dur": 0.24792, "note": 54, "vel": 79, "track": 8}, {"t": 14.75, "dur": 0.24792, "note": 66, "vel": 67, "track": 6}, {"t": 14.75, "dur": 0.24792, "note": 75, "vel": 82, "track": 3}, {"t": 14.75, "dur": 0.24792, "note": 75, "vel": 88, "track": 2}, {"t": 15.0, "dur": 0.24792, "note": 41, "vel": 70, "track": 7}, {"t": 15.0, "dur": 0.99792, "note": 41, "vel": 67, "track": 9}, {"t": 15.0, "dur": 0.49792, "note": 53, "vel": 73, "track": 8}, {"t": 15.0, "dur": 0.24792, "note": 65, "vel": 63, "track": 2}, {"t": 15.0, "dur": 0.49792, "note": 65, "vel": 58, "track": 3}, {"t": 15.0, "dur": 0.74792, "note": 72, "vel": 95, "track": 5}, {"t": 15.0, "dur": 0.24792, "note": 77, "vel": 90, "track": 6}, {"t": 15.0, "dur": 0.74792, "note": 77, "vel": 80, "track": 0}, {"t": 15.0, "dur": 1.24792, "note": 77, "vel": 95, "track": 4}, {"t": 15.25, "dur": 0.24792, "note": 48, "vel": 78, "track": 7}, {"t": 15.25, "dur": 0.24792, "note": 65, "vel": 56, "track": 6}, {"t": 15.25, "dur": 0.24792, "note": 72, "vel": 87, "track": 2}, {"t": 15.5, "dur": 0.49792, "note": 48, "vel": 74, "track": 8}, {"t": 15.5, "dur": 0.24792, "note": 57, "vel": 87, "track": 7}, {"t": 15.5, "dur": 0.24792, "note": 68, "vel": 82, "track": 6}, {"t": 15.5, "dur": 0.24792, "note": 77, "vel": 90, "track": 2}, {"t": 15.5, "dur": 0.49792, "note": 77, "vel": 94, "track": 3}, {"t": 15.75, "dur": 0.24792, "note": 53, "vel": 73, "track": 7}, {"t": 15.75, "dur": 0.49792, "note": 65, "vel": 102, "track": 5}, {"t": 15.75, "dur": 0.24792, "note": 72, "vel": 68, "track": 2}, {"t": 15.75, "dur": 0.24792, "note": 77, "vel": 93, "track": 6}, {"t": 15.75, "dur": 0.49792, "note": 77, "vel": 78, "track": 0}, {"t": 16.0, "dur": 0.24792, "note": 48, "vel": 71, "track": 7}, {"t": 16.0, "dur": 0.24792, "note": 53, "vel": 86, "track": 8}, {"t": 16.0, "dur": 0.24792, "note": 72, "vel": 68, "track": 6}, {"t": 16.0, "dur": 0.24792, "note": 77, "vel": 76, "track": 3}, {"t": 16.0, "dur": 0.24792, "note": 77, "vel": 78, "track": 2}, {"t": 16.25, "dur": 0.24792, "note": 41, "vel": 66, "track": 7}, {"t": 16.25, "dur": 0.99792, "note": 41, "vel": 66, "track": 9}, {"t": 16.25, "dur": 0.49792, "note": 53, "vel": 78, "track": 8}, {"t": 16.25, "dur": 0.24792, "note": 65, "vel": 58, "track": 2}, {"t": 16.25, "dur": 0.49792, "note": 65, "vel": 59, "track": 3}, {"t": 16.25, "dur": 0.74792, "note": 72, "vel": 69, "track": 5}, {"t": 16.25, "dur": 0.24792, "note": 77, "vel": 84, "track": 6}, {"t": 16.25, "dur": 0.74792, "note": 77, "vel": 79, "track": 0}, {"t": 16.25, "dur": 1.24792, "note": 77, "vel": 36, "track": 4}, {"t": 16.5, "dur": 0.24792, "note": 48, "vel": 85, "track": 7}, {"t": 16.5, "dur": 0.24792, "note": 65, "vel": 58, "track": 6}, {"t": 16.5, "dur": 0.24792, "note": 72, "vel": 88, "track": 2}, {"t": 16.75, "dur": 0.49792, "note": 46, "vel": 80, "track": 8}, {"t": 16.75, "dur": 0.24792, "note": 57, "vel": 85, "track": 7}, {"t": 16.75, "dur": 0.24792, "note": 72, "vel": 87, "track": 6}, {"t": 16.75, "dur": 0.24792, "note": 77, "vel": 89, "track": 2}, {"t": 16.75, "dur": 0.49792, "note": 77, "vel": 93, "track": 3}, {"t": 17.0, "dur": 0.24792, "note": 53, "vel": 71, "track": 7}, {"t": 17.0, "dur": 0.49792, "note": 65, "vel": 65, "track": 5}, {"t": 17.0, "dur": 0.24792, "note": 72, "vel": 66, "track": 2}, {"t": 17.0, "dur": 0.24792, "note": 77, "vel": 89, "track": 6}, {"t": 17.0, "dur": 0.49792, "note": 77, "vel": 69, "track": 0}, {"t": 17.25, "dur": 0.24792, "note": 48, "vel": 72, "track": 7}, {"t": 17.25, "dur": 0.24792, "note": 53, "vel": 86, "track": 8}, {"t": 17.25, "dur": 0.24792, "note": 72, "vel": 68, "track": 6}, {"t": 17.25, "dur": 0.24792, "note": 77, "vel": 78, "track": 3}, {"t": 17.25, "dur": 0.24792, "note": 77, "vel": 86, "track": 2}, {"t": 17.5, "dur": 0.24792, "note": 46, "vel": 69, "track": 7}, {"t": 17.5, "dur": 0.99792, "note": 46, "vel": 72, "track": 9}, {"t": 17.5, "dur": 0.49792, "note": 63, "vel": 92, "track": 8}, {"t": 17.5, "dur": 0.24792, "note": 65, "vel": 57, "track": 2}, {"t": 17.5, "dur": 0.49792, "note": 65, "vel": 57, "track": 3}, {"t": 17.5, "dur": 0.74792, "note": 72, "vel": 89, "track": 5}, {"t": 17.5, "dur": 0.24792, "note": 77, "vel": 86, "track": 6}, {"t": 17.5, "dur": 0.74792, "note": 77, "vel": 77, "track": 0}, {"t": 17.75, "dur": 0.24792, "note": 53, "vel": 86, "track": 7}, {"t": 17.75, "dur": 0.24792, "note": 65, "vel": 55, "track": 6}, {"t": 17.75, "dur": 0.24792, "note": 72, "vel": 85, "track": 2}, {"t": 18.0, "dur": 0.49792, "note": 51, "vel": 69, "track": 8}, {"t": 18.0, "dur": 0.24792, "note": 63, "vel": 95, "track": 7}, {"t": 18.0, "dur": 0.24792, "note": 72, "vel": 87, "track": 6}, {"t": 18.0, "dur": 0.24792, "note": 77, "vel": 92, "track": 2}, {"t": 18.0, "dur": 0.49792, "note": 77, "vel": 96, "track": 3}, {"t": 18.25, "dur": 0.24792, "note": 58, "vel": 76, "track": 7}, {"t": 18.25, "dur": 0.49792, "note": 70, "vel": 87, "track": 5}, {"t": 18.25, "dur": 0.24792, "note": 72, "vel": 66, "track": 2}, {"t": 18.25, "dur": 0.49792, "note": 73, "vel": 87, "track": 4}, {"t": 18.25, "dur": 0.24792, "note": 77, "vel": 89, "track": 6}, {"t": 18.25, "dur": 0.49792, "note": 77, "vel": 72, "track": 0}, {"t": 18.25, "dur": 0.49792, "note": 77, "vel": 87, "track": 4}, {"t": 18.5, "dur": 0.24792, "note": 53, "vel": 75, "track": 7}, {"t": 18.5, "dur": 0.24792, "note": 63, "vel": 97, "track": 8}, {"t": 18.5, "dur": 0.24792, "note": 72, "vel": 70, "track": 6}, {"t": 18.5, "dur": 0.24792, "note": 77, "vel": 76, "track": 3}, {"t": 18.5, "dur": 0.24792, "note": 77, "vel": 83, "track": 2}, {"t": 18.75, "dur": 0.24792, "note": 46, "vel": 67, "track": 7}, {"t": 18.75, "dur": 0.99792, "note": 46, "vel": 71, "track": 9}, {"t": 18.75, "dur": 0.49792, "note": 61, "vel": 74, "track": 8}, {"t": 18.75, "dur": 0.24792, "note": 65, "vel": 59, "track": 2}, {"t": 18.75, "dur": 0.49792, "note": 65, "vel": 58, "track": 3}, {"t": 18.75, "dur": 0.74792, "note": 72, "vel": 67, "track": 5}, {"t": 18.75, "dur": 0.24792, "note": 77, "vel": 86, "track": 6}, {"t": 18.75, "dur": 0.74792, "note": 77, "vel": 79, "track": 0}, {"t": 19.0, "dur": 0.24792, "note": 53, "vel": 78, "track": 7}, {"t": 19.0, "dur": 0.24792, "note": 65, "vel": 60, "track": 6}, {"t": 19.0, "dur": 0.24792, "note": 70, "vel": 86, "track": 2}, {"t": 19.25, "dur": 0.49792, "note": 49, "vel": 68, "track": 8}, {"t": 19.25, "dur": 0.24792, "note": 61, "vel": 95, "track": 7}, {"t": 19.25, "dur": 0.24792, "note": 70, "vel": 80, "track": 6}, {"t": 19.25, "dur": 0.24792, "note": 77, "vel": 96, "track": 2}, {"t": 19.25, "dur": 0.49792, "note": 77, "vel": 93, "track": 3}, {"t": 19.5, "dur": 0.24792, "note": 58, "vel": 76, "track": 7}, {"t": 19.5, "dur": 0.24792, "note": 70, "vel": 64, "track": 2}, {"t": 19.5, "dur": 0.49792, "note": 70, "vel": 78, "track": 5}, {"t": 19.5, "dur": 0.49792, "note": 73, "vel": 78, "track": 4}, {"t": 19.5, "dur": 0.24792, "note": 77, "vel": 94, "track": 6}, {"t": 19.5, "dur": 0.49792, "note": 77, "vel": 30, "track": 4}, {"t": 19.5, "dur": 0.49792, "note": 77, "vel": 75, "track": 0}, {"t": 19.75, "dur": 0.24792, "note": 53, "vel": 71, "track": 7}, {"t": 19.75, "dur": 0.24792, "note": 61, "vel": 96, "track": 8}, {"t": 19.75, "dur": 0.24792, "note": 70, "vel": 65, "track": 6}, {"t": 19.75, "dur": 0.24792, "note": 77, "vel": 79, "track": 3}, {"t": 19.75, "dur": 0.24792, "note": 77, "vel": 88, "track": 2}]}, {"id": 45, "measures": "m67", "meter": [10, 16], "length_ticks": 1200, "length_beats": 2.5, "notes": [{"t": 0.0, "dur": 0.24792, "note": 44, "vel": 64, "track": 7}, {"t": 0.0, "dur": 0.99792, "note": 44, "vel": 70, "track": 9}, {"t": 0.0, "dur": 0.49792, "note": 60, "vel": 75, "track": 8}, {"t": 0.0, "dur": 0.24792, "note": 68, "vel": 59, "track": 2}, {"t": 0.0, "dur": 0.49792, "note": 68, "vel": 60, "track": 3}, {"t": 0.0, "dur": 0.74792, "note": 68, "vel": 72, "track": 5}, {"t": 0.0, "dur": 0.74792, "note": 72, "vel": 72, "track": 4}, {"t": 0.0, "dur": 0.24792, "note": 77, "vel": 93, "track": 6}, {"t": 0.0, "dur": 0.74792, "note": 77, "vel": 79, "track": 0}, {"t": 0.25, "dur": 0.24792, "note": 51, "vel": 86, "track": 7}, {"t": 0.25, "dur": 0.24792, "note": 68, "vel": 56, "track": 6}, {"t": 0.25, "dur": 0.24792, "note": 72, "vel": 84, "track": 2}, {"t": 0.5, "dur": 0.49792, "note": 48, "vel": 65, "track": 8}, {"t": 0.5, "dur": 0.24792, "note": 60, "vel": 96, "track": 7}, {"t": 0.5, "dur": 0.24792, "note": 72, "vel": 85, "track": 6}, {"t": 0.5, "dur": 0.24792, "note": 77, "vel": 87, "track": 2}, {"t": 0.5, "dur": 0.49792, "note": 77, "vel": 88, "track": 3}, {"t": 0.75, "dur": 0.24792, "note": 56, "vel": 77, "track": 7}, {"t": 0.75, "dur": 0.49792, "note": 66, "vel": 84, "track": 5}, {"t": 0.75, "dur": 0.49792, "note": 70, "vel": 84, "track": 5}, {"t": 0.75, "dur": 0.24792, "note": 72, "vel": 67, "track": 2}, {"t": 0.75, "dur": 0.24792, "note": 77, "vel": 87, "track": 6}, {"t": 0.75, "dur": 0.49792, "note": 77, "vel": 73, "track": 0}, {"t": 0.75, "dur": 0.49792, "note": 77, "vel": 84, "track": 4}, {"t": 1.0, "dur": 0.24792, "note": 51, "vel": 72, "track": 7}, {"t": 1.0, "dur": 0.24792, "note": 60, "vel": 97, "track": 8}, {"t": 1.0, "dur": 0.24792, "note": 72, "vel": 68, "track": 6}, {"t": 1.0, "dur": 0.24792, "note": 77, "vel": 80, "track": 3}, {"t": 1.0, "dur": 0.24792, "note": 77, "vel": 88, "track": 2}, {"t": 1.25, "dur": 0.24792, "note": 44, "vel": 68, "track": 7}, {"t": 1.25, "dur": 0.99792, "note": 44, "vel": 66, "track": 9}, {"t": 1.25, "dur": 0.49792, "note": 58, "vel": 83, "track": 8}, {"t": 1.25, "dur": 0.24792, "note": 66, "vel": 55, "track": 2}, {"t": 1.25, "dur": 0.49792, "note": 66, "vel": 58, "track": 3}, {"t": 1.25, "dur": 0.74792, "note": 68, "vel": 67, "track": 5}, {"t": 1.25, "dur": 0.74792, "note": 72, "vel": 67, "track": 4}, {"t": 1.25, "dur": 0.24792, "note": 77, "vel": 88, "track": 6}, {"t": 1.25, "dur": 0.74792, "note": 77, "vel": 76, "track": 0}, {"t": 1.5, "dur": 0.24792, "note": 51, "vel": 81, "track": 7}, {"t": 1.5, "dur": 0.24792, "note": 66, "vel": 59, "track": 6}, {"t": 1.5, "dur": 0.24792, "note": 70, "vel": 84, "track": 2}, {"t": 1.75, "dur": 0.49792, "note": 46, "vel": 66, "track": 8}, {"t": 1.75, "dur": 0.24792, "note": 60, "vel": 96, "track": 7}, {"t": 1.75, "dur": 0.24792, "note": 70, "vel": 78, "track": 6}, {"t": 1.75, "dur": 0.24792, "note": 77, "vel": 86, "track": 2}, {"t": 1.75, "dur": 0.49792, "note": 77, "vel": 92, "track": 3}, {"t": 2.0, "dur": 0.24792, "note": 56, "vel": 74, "track": 7}, {"t": 2.0, "dur": 0.49792, "note": 66, "vel": 70, "track": 5}, {"t": 2.0, "dur": 0.24792, "note": 70, "vel": 70, "track": 2}, {"t": 2.0, "dur": 0.49792, "note": 70, "vel": 70, "track": 5}, {"t": 2.0, "dur": 0.24792, "note": 77, "vel": 87, "track": 6}, {"t": 2.0, "dur": 0.49792, "note": 77, "vel": 35, "track": 4}, {"t": 2.0, "dur": 0.49792, "note": 77, "vel": 79, "track": 0}, {"t": 2.25, "dur": 0.24792, "note": 51, "vel": 72, "track": 7}, {"t": 2.25, "dur": 0.24792, "note": 58, "vel": 84, "track": 8}, {"t": 2.25, "dur": 0.24792, "note": 70, "vel": 69, "track": 6}, {"t": 2.25, "dur": 0.24792, "note": 77, "vel": 82, "track": 3}, {"t": 2.25, "dur": 0.24792, "note": 77, "vel": 88, "track": 2}]}, {"id": 46, "measures": "m68", "meter": [10, 16], "length_ticks": 1200, "length_beats": 2.5, "notes": [{"t": 0.0, "dur": 0.24792, "note": 42, "vel": 67, "track": 7}, {"t": 0.0, "dur": 0.99792, "note": 42, "vel": 68, "track": 9}, {"t": 0.0, "dur": 0.49792, "note": 56, "vel": 77, "track": 8}, {"t": 0.0, "dur": 0.24792, "note": 72, "vel": 66, "track": 2}, {"t": 0.0, "dur": 0.49792, "note": 72, "vel": 71, "track": 3}, {"t": 0.0, "dur": 0.74792, "note": 72, "vel": 81, "track": 4}, {"t": 0.0, "dur": 0.24792, "note": 77, "vel": 83, "track": 6}, {"t": 0.0, "dur": 0.74792, "note": 77, "vel": 76, "track": 0}, {"t": 0.25, "dur": 0.24792, "note": 49, "vel": 85, "track": 7}, {"t": 0.25, "dur": 0.24792, "note": 72, "vel": 62, "track": 6}, {"t": 0.25, "dur": 0.24792, "note": 73, "vel": 78, "track": 2}, {"t": 0.5, "dur": 0.49792, "note": 44, "vel": 61, "track": 8}, {"t": 0.5, "dur": 0.24792, "note": 58, "vel": 88, "track": 7}, {"t": 0.5, "dur": 0.24792, "note": 73, "vel": 76, "track": 6}, {"t": 0.5, "dur": 0.24792, "note": 77, "vel": 81, "track": 2}, {"t": 0.5, "dur": 0.49792, "note": 77, "vel": 82, "track": 3}, {"t": 0.75, "dur": 0.24792, "note": 54, "vel": 73, "track": 7}, {"t": 0.75, "dur": 0.49792, "note": 70, "vel": 87, "track": 5}, {"t": 0.75, "dur": 0.24792, "note": 73, "vel": 67, "track": 2}, {"t": 0.75, "dur": 0.49792, "note": 73, "vel": 87, "track": 5}, {"t": 0.75, "dur": 0.24792, "note": 77, "vel": 82, "track": 6}, {"t": 0.75, "dur": 0.49792, "note": 77, "vel": 80, "track": 0}, {"t": 0.75, "dur": 0.49792, "note": 77, "vel": 87, "track": 4}, {"t": 1.0, "dur": 0.24792, "note": 49, "vel": 73, "track": 7}, {"t": 1.0, "dur": 0.24792, "note": 56, "vel": 82, "track": 8}, {"t": 1.0, "dur": 0.24792, "note": 73, "vel": 67, "track": 6}, {"t": 1.0, "dur": 0.24792, "note": 77, "vel": 77, "track": 3}, {"t": 1.0, "dur": 0.24792, "note": 77, "vel": 82, "track": 2}, {"t": 1.25, "dur": 0.24792, "note": 42, "vel": 70, "track": 7}, {"t": 1.25, "dur": 0.99792, "note": 42, "vel": 72, "track": 9}, {"t": 1.25, "dur": 0.49792, "note": 54, "vel": 80, "track": 8}, {"t": 1.25, "dur": 0.24792, "note": 70, "vel": 66, "track": 2}, {"t": 1.25, "dur": 0.49792, "note": 70, "vel": 64, "track": 3}, {"t": 1.25, "dur": 0.74792, "note": 72, "vel": 67, "track": 4}, {"t": 1.25, "dur": 0.24792, "note": 77, "vel": 79, "track": 6}, {"t": 1.25, "dur": 0.74792, "note": 77, "vel": 73, "track": 0}, {"t": 1.5, "dur": 0.24792, "note": 49, "vel": 84, "track": 7}, {"t": 1.5, "dur": 0.24792, "note": 70, "vel": 59, "track": 6}, {"t": 1.5, "dur": 0.24792, "note": 73, "vel": 81, "track": 2}, {"t": 1.75, "dur": 0.49792, "note": 42, "vel": 64, "track": 8}, {"t": 1.75, "dur": 0.24792, "note": 58, "vel": 84, "track": 7}, {"t": 1.75, "dur": 0.24792, "note": 73, "vel": 81, "track": 6}, {"t": 1.75, "dur": 0.24792, "note": 77, "vel": 89, "track": 2}, {"t": 1.75, "dur": 0.49792, "note": 77, "vel": 83, "track": 3}, {"t": 2.0, "dur": 0.24792, "note": 54, "vel": 74, "track": 7}, {"t": 2.0, "dur": 0.49792, "note": 70, "vel": 83, "track": 5}, {"t": 2.0, "dur": 0.24792, "note": 73, "vel": 68, "track": 2}, {"t": 2.0, "dur": 0.49792, "note": 73, "vel": 83, "track": 5}, {"t": 2.0, "dur": 0.24792, "note": 77, "vel": 84, "track": 6}, {"t": 2.0, "dur": 0.49792, "note": 77, "vel": 38, "track": 4}, {"t": 2.0, "dur": 0.49792, "note": 77, "vel": 77, "track": 0}, {"t": 2.25, "dur": 0.24792, "note": 49, "vel": 73, "track": 7}, {"t": 2.25, "dur": 0.24792, "note": 54, "vel": 82, "track": 8}, {"t": 2.25, "dur": 0.24792, "note": 73, "vel": 66, "track": 6}, {"t": 2.25, "dur": 0.24792, "note": 77, "vel": 80, "track": 2}, {"t": 2.25, "dur": 0.24792, "note": 77, "vel": 82, "track": 3}]}, {"id": 47, "measures": "m69", "meter": [10, 16], "length_ticks": 1200, "length_beats": 2.5, "notes": [{"t": 0.0, "dur": 0.24792, "note": 42, "vel": 72, "track": 7}, {"t": 0.0, "dur": 0.99792, "note": 42, "vel": 64, "track": 9}, {"t": 0.0, "dur": 0.49792, "note": 56, "vel": 84, "track": 8}, {"t": 0.0, "dur": 0.24792, "note": 72, "vel": 64, "track": 2}, {"t": 0.0, "dur": 0.49792, "note": 72, "vel": 73, "track": 3}, {"t": 0.0, "dur": 0.74792, "note": 72, "vel": 71, "track": 4}, {"t": 0.0, "dur": 0.24792, "note": 77, "vel": 83, "track": 6}, {"t": 0.0, "dur": 0.74792, "note": 77, "vel": 75, "track": 0}, {"t": 0.25, "dur": 0.24792, "note": 49, "vel": 85, "track": 7}, {"t": 0.25, "dur": 0.24792, "note": 72, "vel": 66, "track": 6}, {"t": 0.25, "dur": 0.24792, "note": 73, "vel": 79, "track": 2}, {"t": 0.5, "dur": 0.49792, "note": 44, "vel": 67, "track": 8}, {"t": 0.5, "dur": 0.24792, "note": 58, "vel": 84, "track": 7}, {"t": 0.5, "dur": 0.24792, "note": 73, "vel": 81, "track": 6}, {"t": 0.5, "dur": 0.24792, "note": 77, "vel": 86, "track": 2}, {"t": 0.5, "dur": 0.49792, "note": 77, "vel": 84, "track": 3}, {"t": 0.75, "dur": 0.24792, "note": 54, "vel": 74, "track": 7}, {"t": 0.75, "dur": 0.49792, "note": 70, "vel": 86, "track": 5}, {"t": 0.75, "dur": 0.24792, "note": 73, "vel": 68, "track": 2}, {"t": 0.75, "dur": 0.49792, "note": 73, "vel": 86, "track": 5}, {"t": 0.75, "dur": 0.24792, "note": 77, "vel": 84, "track": 6}, {"t": 0.75, "dur": 0.49792, "note": 77, "vel": 79, "track": 0}, {"t": 0.75, "dur": 0.49792, "note": 77, "vel": 86, "track": 4}, {"t": 1.0, "dur": 0.24792, "note": 49, "vel": 73, "track": 7}, {"t": 1.0, "dur": 0.24792, "note": 56, "vel": 84, "track": 8}, {"t": 1.0, "dur": 0.24792, "note": 73, "vel": 69, "track": 6}, {"t": 1.0, "dur": 0.24792, "note": 77, "vel": 74, "track": 3}, {"t": 1.0, "dur": 0.24792, "note": 77, "vel": 89, "track": 2}, {"t": 1.25, "dur": 0.24792, "note": 42, "vel": 73, "track": 7}, {"t": 1.25, "dur": 0.99792, "note": 42, "vel": 70, "track": 9}, {"t": 1.25, "dur": 0.49792, "note": 54, "vel": 76, "track": 8}, {"t": 1.25, "dur": 0.24792, "note": 70, "vel": 65, "track": 2}, {"t": 1.25, "dur": 0.49792, "note": 70, "vel": 60, "track": 3}, {"t": 1.25, "dur": 0.74792, "note": 72, "vel": 69, "track": 4}, {"t": 1.25, "dur": 0.24792, "note": 77, "vel": 81, "track": 6}, {"t": 1.25, "dur": 0.74792, "note": 77, "vel": 74, "track": 0}, {"t": 1.5, "dur": 0.24792, "note": 49, "vel": 83, "track": 7}, {"t": 1.5, "dur": 0.24792, "note": 70, "vel": 62, "track": 6}, {"t": 1.5, "dur": 0.24792, "note": 73, "vel": 80, "track": 2}, {"t": 1.75, "dur": 0.49792, "note": 42, "vel": 70, "track": 8}, {"t": 1.75, "dur": 0.24792, "note": 58, "vel": 85, "track": 7}, {"t": 1.75, "dur": 0.24792, "note": 73, "vel": 75, "track": 6}, {"t": 1.75, "dur": 0.24792, "note": 77, "vel": 84, "track": 2}, {"t": 1.75, "dur": 0.49792, "note": 77, "vel": 85, "track": 3}, {"t": 2.0, "dur": 0.24792, "note": 54, "vel": 76, "track": 7}, {"t": 2.0, "dur": 0.49792, "note": 70, "vel": 77, "track": 5}, {"t": 2.0, "dur": 0.24792, "note": 73, "vel": 69, "track": 2}, {"t": 2.0, "dur": 0.49792, "note": 73, "vel": 77, "track": 5}, {"t": 2.0, "dur": 0.24792, "note": 79, "vel": 89, "track": 6}, {"t": 2.0, "dur": 0.49792, "note": 79, "vel": 37, "track": 4}, {"t": 2.0, "dur": 0.49792, "note": 79, "vel": 79, "track": 0}, {"t": 2.25, "dur": 0.24792, "note": 49, "vel": 68, "track": 7}, {"t": 2.25, "dur": 0.24792, "note": 54, "vel": 87, "track": 8}, {"t": 2.25, "dur": 0.24792, "note": 73, "vel": 69, "track": 6}, {"t": 2.25, "dur": 0.24792, "note": 79, "vel": 84, "track": 3}, {"t": 2.25, "dur": 0.24792, "note": 79, "vel": 88, "track": 2}]}, {"id": 48, "measures": "m70", "meter": [10, 16], "length_ticks": 1200, "length_beats": 2.5, "notes": [{"t": 0.0, "dur": 0.24792, "note": 42, "vel": 72, "track": 7}, {"t": 0.0, "dur": 0.99792, "note": 42, "vel": 70, "track": 9}, {"t": 0.0, "dur": 0.49792, "note": 56, "vel": 79, "track": 8}, {"t": 0.0, "dur": 0.24792, "note": 72, "vel": 67, "track": 2}, {"t": 0.0, "dur": 0.49792, "note": 72, "vel": 62, "track": 3}, {"t": 0.0, "dur": 0.74792, "note": 72, "vel": 73, "track": 4}, {"t": 0.0, "dur": 0.24792, "note": 79, "vel": 88, "track": 6}, {"t": 0.0, "dur": 0.74792, "note": 79, "vel": 75, "track": 0}, {"t": 0.25, "dur": 0.24792, "note": 49, "vel": 79, "track": 7}, {"t": 0.25, "dur": 0.24792, "note": 72, "vel": 66, "track": 6}, {"t": 0.25, "dur": 0.24792, "note": 73, "vel": 77, "track": 2}, {"t": 0.5, "dur": 0.49792, "note": 44, "vel": 67, "track": 8}, {"t": 0.5, "dur": 0.24792, "note": 58, "vel": 89, "track": 7}, {"t": 0.5, "dur": 0.24792, "note": 73, "vel": 78, "track": 6}, {"t": 0.5, "dur": 0.24792, "note": 79, "vel": 90, "track": 2}, {"t": 0.5, "dur": 0.49792, "note": 79, "vel": 89, "track": 3}, {"t": 0.75, "dur": 0.24792, "note": 54, "vel": 72, "track": 7}, {"t": 0.75, "dur": 0.49792, "note": 70, "vel": 89, "track": 5}, {"t": 0.75, "dur": 0.24792, "note": 73, "vel": 62, "track": 2}, {"t": 0.75, "dur": 0.49792, "note": 73, "vel": 89, "track": 5}, {"t": 0.75, "dur": 0.24792, "note": 79, "vel": 89, "track": 6}, {"t": 0.75, "dur": 0.49792, "note": 79, "vel": 75, "track": 0}, {"t": 0.75, "dur": 0.49792, "note": 79, "vel": 89, "track": 4}, {"t": 1.0, "dur": 0.24792, "note": 49, "vel": 71, "track": 7}, {"t": 1.0, "dur": 0.24792, "note": 56, "vel": 81, "track": 8}, {"t": 1.0, "dur": 0.24792, "note": 73, "vel": 66, "track": 6}, {"t": 1.0, "dur": 0.24792, "note": 79, "vel": 77, "track": 3}, {"t": 1.0, "dur": 0.24792, "note": 79, "vel": 85, "track": 2}, {"t": 1.25, "dur": 0.24792, "note": 42, "vel": 64, "track": 7}, {"t": 1.25, "dur": 0.99792, "note": 42, "vel": 66, "track": 9}, {"t": 1.25, "dur": 0.49792, "note": 54, "vel": 75, "track": 8}, {"t": 1.25, "dur": 0.24792, "note": 70, "vel": 61, "track": 2}, {"t": 1.25, "dur": 0.49792, "note": 70, "vel": 63, "track": 3}, {"t": 1.25, "dur": 0.74792, "note": 72, "vel": 64, "track": 4}, {"t": 1.25, "dur": 0.24792, "note": 79, "vel": 85, "track": 6}, {"t": 1.25, "dur": 0.74792, "note": 79, "vel": 77, "track": 0}, {"t": 1.5, "dur": 0.24792, "note": 49, "vel": 82, "track": 7}, {"t": 1.5, "dur": 0.24792, "note": 70, "vel": 60, "track": 6}, {"t": 1.5, "dur": 0.24792, "note": 73, "vel": 82, "track": 2}, {"t": 1.75, "dur": 0.49792, "note": 42, "vel": 64, "track": 8}, {"t": 1.75, "dur": 0.24792, "note": 58, "vel": 86, "track": 7}, {"t": 1.75, "dur": 0.24792, "note": 73, "vel": 81, "track": 6}, {"t": 1.75, "dur": 0.24792, "note": 79, "vel": 89, "track": 2}, {"t": 1.75, "dur": 0.49792, "note": 79, "vel": 91, "track": 3}, {"t": 2.0, "dur": 0.24792, "note": 54, "vel": 69, "track": 7}, {"t": 2.0, "dur": 0.49792, "note": 70, "vel": 79, "track": 5}, {"t": 2.0, "dur": 0.24792, "note": 73, "vel": 68, "track": 2}, {"t": 2.0, "dur": 0.49792, "note": 73, "vel": 79, "track": 5}, {"t": 2.0, "dur": 0.24792, "note": 79, "vel": 86, "track": 6}, {"t": 2.0, "dur": 0.49792, "note": 79, "vel": 38, "track": 4}, {"t": 2.0, "dur": 0.49792, "note": 79, "vel": 80, "track": 0}, {"t": 2.25, "dur": 0.24792, "note": 49, "vel": 73, "track": 7}, {"t": 2.25, "dur": 0.24792, "note": 54, "vel": 83, "track": 8}, {"t": 2.25, "dur": 0.24792, "note": 73, "vel": 62, "track": 6}, {"t": 2.25, "dur": 0.24792, "note": 79, "vel": 79, "track": 3}, {"t": 2.25, "dur": 0.24792, "note": 79, "vel": 89, "track": 2}]}, {"id": 49, "measures": "m71", "meter": [10, 16], "length_ticks": 1200, "length_beats": 2.5, "notes": [{"t": 0.0, "dur": 0.24792, "note": 39, "vel": 70, "track": 7}, {"t": 0.0, "dur": 0.99792, "note": 39, "vel": 69, "track": 9}, {"t": 0.0, "dur": 0.49792, "note": 53, "vel": 76, "track": 8}, {"t": 0.0, "dur": 0.24792, "note": 72, "vel": 62, "track": 2}, {"t": 0.0, "dur": 0.49792, "note": 72, "vel": 64, "track": 3}, {"t": 0.0, "dur": 0.74792, "note": 72, "vel": 69, "track": 4}, {"t": 0.0, "dur": 0.24792, "note": 79, "vel": 89, "track": 6}, {"t": 0.0, "dur": 0.74792, "note": 79, "vel": 77, "track": 0}, {"t": 0.25, "dur": 0.24792, "note": 46, "vel": 87, "track": 7}, {"t": 0.25, "dur": 0.24792, "note": 72, "vel": 61, "track": 6}, {"t": 0.25, "dur": 0.24792, "note": 73, "vel": 78, "track": 2}, {"t": 0.5, "dur": 0.49792, "note": 41, "vel": 64, "track": 8}, {"t": 0.5, "dur": 0.24792, "note": 55, "vel": 86, "track": 7}, {"t": 0.5, "dur": 0.24792, "note": 73, "vel": 73, "track": 6}, {"t": 0.5, "dur": 0.24792, "note": 79, "vel": 87, "track": 2}, {"t": 0.5, "dur": 0.49792, "note": 79, "vel": 87, "track": 3}, {"t": 0.75, "dur": 0.24792, "note": 51, "vel": 72, "track": 7}, {"t": 0.75, "dur": 0.49792, "note": 70, "vel": 85, "track": 5}, {"t": 0.75, "dur": 0.24792, "note": 73, "vel": 66, "track": 2}, {"t": 0.75, "dur": 0.49792, "note": 73, "vel": 85, "track": 5}, {"t": 0.75, "dur": 0.24792, "note": 79, "vel": 92, "track": 6}, {"t": 0.75, "dur": 0.49792, "note": 79, "vel": 76, "track": 0}, {"t": 0.75, "dur": 0.49792, "note": 79, "vel": 85, "track": 4}, {"t": 1.0, "dur": 0.24792, "note": 46, "vel": 69, "track": 7}, {"t": 1.0, "dur": 0.24792, "note": 53, "vel": 86, "track": 8}, {"t": 1.0, "dur": 0.24792, "note": 73, "vel": 69, "track": 6}, {"t": 1.0, "dur": 0.24792, "note": 79, "vel": 80, "track": 3}, {"t": 1.0, "dur": 0.24792, "note": 79, "vel": 83, "track": 2}, {"t": 1.25, "dur": 0.24792, "note": 39, "vel": 68, "track": 7}, {"t": 1.25, "dur": 0.99792, "note": 39, "vel": 67, "track": 9}, {"t": 1.25, "dur": 0.49792, "note": 51, "vel": 75, "track": 8}, {"t": 1.25, "dur": 0.24792, "note": 70, "vel": 60, "track": 2}, {"t": 1.25, "dur": 0.49792, "note": 70, "vel": 55, "track": 3}, {"t": 1.25, "dur": 0.74792, "note": 72, "vel": 64, "track": 4}, {"t": 1.25, "dur": 0.24792, "note": 79, "vel": 84, "track": 6}, {"t": 1.25, "dur": 0.74792, "note": 79, "vel": 79, "track": 0}, {"t": 1.5, "dur": 0.24792, "note": 46, "vel": 82, "track": 7}, {"t": 1.5, "dur": 0.24792, "note": 70, "vel": 65, "track": 6}, {"t": 1.5, "dur": 0.24792, "note": 73, "vel": 81, "track": 2}, {"t": 1.75, "dur": 0.49792, "note": 39, "vel": 66, "track": 8}, {"t": 1.75, "dur": 0.24792, "note": 55, "vel": 80, "track": 7}, {"t": 1.75, "dur": 0.24792, "note": 73, "vel": 78, "track": 6}, {"t": 1.75, "dur": 0.24792, "note": 79, "vel": 90, "track": 2}, {"t": 1.75, "dur": 0.49792, "note": 79, "vel": 91, "track": 3}, {"t": 2.0, "dur": 0.24792, "note": 51, "vel": 70, "track": 7}, {"t": 2.0, "dur": 0.49792, "note": 70, "vel": 79, "track": 5}, {"t": 2.0, "dur": 0.24792, "note": 73, "vel": 65, "track": 2}, {"t": 2.0, "dur": 0.49792, "note": 73, "vel": 79, "track": 5}, {"t": 2.0, "dur": 0.24792, "note": 79, "vel": 88, "track": 6}, {"t": 2.0, "dur": 0.49792, "note": 79, "vel": 35, "track": 4}, {"t": 2.0, "dur": 0.49792, "note": 79, "vel": 79, "track": 0}, {"t": 2.25, "dur": 0.24792, "note": 46, "vel": 72, "track": 7}, {"t": 2.25, "dur": 0.24792, "note": 51, "vel": 81, "track": 8}, {"t": 2.25, "dur": 0.24792, "note": 73, "vel": 68, "track": 6}, {"t": 2.25, "dur": 0.24792, "note": 79, "vel": 77, "track": 3}, {"t": 2.25, "dur": 0.24792, "note": 79, "vel": 88, "track": 2}]}, {"id": 50, "measures": "m72", "meter": [15, 16], "length_ticks": 1800, "length_beats": 3.75, "notes": [{"t": 0.0, "dur": 0.24792, "note": 39, "vel": 70, "track": 7}, {"t": 0.0, "dur": 0.99792, "note": 39, "vel": 72, "track": 9}, {"t": 0.0, "dur": 0.49792, "note": 53, "vel": 80, "track": 8}, {"t": 0.0, "dur": 0.24792, "note": 72, "vel": 69, "track": 2}, {"t": 0.0, "dur": 0.49792, "note": 72, "vel": 61, "track": 3}, {"t": 0.0, "dur": 0.74792, "note": 72, "vel": 73, "track": 4}, {"t": 0.0, "dur": 0.24792, "note": 79, "vel": 87, "track": 6}, {"t": 0.0, "dur": 0.74792, "note": 79, "vel": 78, "track": 0}, {"t": 0.25, "dur": 0.24792, "note": 46, "vel": 77, "track": 7}, {"t": 0.25, "dur": 0.24792, "note": 72, "vel": 63, "track": 6}, {"t": 0.25, "dur": 0.24792, "note": 73, "vel": 74, "track": 2}, {"t": 0.5, "dur": 0.49792, "note": 41, "vel": 71, "track": 8}, {"t": 0.5, "dur": 0.24792, "note": 55, "vel": 89, "track": 7}, {"t": 0.5, "dur": 0.24792, "note": 73, "vel": 76, "track": 6}, {"t": 0.5, "dur": 0.24792, "note": 79, "vel": 87, "track": 2}, {"t": 0.5, "dur": 0.49792, "note": 79, "vel": 88, "track": 3}, {"t": 0.75, "dur": 0.24792, "note": 51, "vel": 74, "track": 7}, {"t": 0.75, "dur": 0.74792, "note": 70, "vel": 92, "track": 5}, {"t": 0.75, "dur": 0.24792, "note": 73, "vel": 67, "track": 2}, {"t": 0.75, "dur": 0.74792, "note": 73, "vel": 92, "track": 5}, {"t": 0.75, "dur": 0.24792, "note": 79, "vel": 94, "track": 6}, {"t": 0.75, "dur": 0.49792, "note": 79, "vel": 77, "track": 0}, {"t": 0.75, "dur": 0.49792, "note": 79, "vel": 92, "track": 4}, {"t": 1.0, "dur": 0.24792, "note": 46, "vel": 66, "track": 7}, {"t": 1.0, "dur": 0.24792, "note": 53, "vel": 83, "track": 8}, {"t": 1.0, "dur": 0.24792, "note": 73, "vel": 64, "track": 6}, {"t": 1.0, "dur": 0.24792, "note": 79, "vel": 78, "track": 3}, {"t": 1.0, "dur": 0.24792, "note": 79, "vel": 88, "track": 2}, {"t": 1.25, "dur": 0.24792, "note": 39, "vel": 72, "track": 7}, {"t": 1.25, "dur": 0.99792, "note": 39, "vel": 69, "track": 9}, {"t": 1.25, "dur": 0.49792, "note": 51, "vel": 78, "track": 8}, {"t": 1.25, "dur": 0.24792, "note": 70, "vel": 66, "track": 2}, {"t": 1.25, "dur": 0.49792, "note": 70, "vel": 55, "track": 3}, {"t": 1.25, "dur": 0.74792, "note": 72, "vel": 67, "track": 4}, {"t": 1.25, "dur": 0.24792, "note": 79, "vel": 87, "track": 6}, {"t": 1.25, "dur": 0.74792, "note": 79, "vel": 77, "track": 0}, {"t": 1.5, "dur": 0.24792, "note": 46, "vel": 81, "track": 7}, {"t": 1.5, "dur": 0.24792, "note": 70, "vel": 61, "track": 6}, {"t": 1.5, "dur": 0.24792, "note": 73, "vel": 75, "track": 2}, {"t": 1.75, "dur": 0.49792, "note": 39, "vel": 64, "track": 8}, {"t": 1.75, "dur": 0.24792, "note": 55, "vel": 88, "track": 7}, {"t": 1.75, "dur": 0.24792, "note": 73, "vel": 78, "track": 6}, {"t": 1.75, "dur": 0.24792, "note": 79, "vel": 89, "track": 2}, {"t": 1.75, "dur": 0.49792, "note": 79, "vel": 88, "track": 3}, {"t": 2.0, "dur": 0.24792, "note": 51, "vel": 73, "track": 7}, {"t": 2.0, "dur": 0.49792, "note": 70, "vel": 77, "track": 5}, {"t": 2.0, "dur": 0.24792, "note": 73, "vel": 65, "track": 2}, {"t": 2.0, "dur": 0.49792, "note": 73, "vel": 77, "track": 5}, {"t": 2.0, "dur": 0.24792, "note": 81, "vel": 93, "track": 6}, {"t": 2.0, "dur": 0.49792, "note": 81, "vel": 37, "track": 4}, {"t": 2.0, "dur": 0.49792, "note": 81, "vel": 83, "track": 0}, {"t": 2.25, "dur": 0.24792, "note": 46, "vel": 77, "track": 7}, {"t": 2.25, "dur": 0.24792, "note": 51, "vel": 83, "track": 8}, {"t": 2.25, "dur": 0.24792, "note": 73, "vel": 63, "track": 6}, {"t": 2.25, "dur": 0.24792, "note": 81, "vel": 85, "track": 3}, {"t": 2.25, "dur": 0.24792, "note": 81, "vel": 88, "track": 2}, {"t": 2.5, "dur": 0.24792, "note": 39, "vel": 68, "track": 7}, {"t": 2.5, "dur": 0.99792, "note": 39, "vel": 70, "track": 9}, {"t": 2.5, "dur": 0.49792, "note": 53, "vel": 80, "track": 8}, {"t": 2.5, "dur": 0.24792, "note": 72, "vel": 57, "track": 2}, {"t": 2.5, "dur": 0.49792, "note": 72, "vel": 57, "track": 3}, {"t": 2.5, "dur": 0.74792, "note": 72, "vel": 69, "track": 4}, {"t": 2.5, "dur": 0.24792, "note": 81, "vel": 86, "track": 6}, {"t": 2.5, "dur": 0.74792, "note": 81, "vel": 78, "track": 0}, {"t": 2.75, "dur": 0.24792, "note": 46, "vel": 83, "track": 7}, {"t": 2.75, "dur": 0.24792, "note": 72, "vel": 61, "track": 6}, {"t": 2.75, "dur": 0.24792, "note": 73, "vel": 78, "track": 2}, {"t": 3.0, "dur": 0.49792, "note": 41, "vel": 65, "track": 8}, {"t": 3.0, "dur": 0.24792, "note": 55, "vel": 84, "track": 7}, {"t": 3.0, "dur": 0.24792, "note": 73, "vel": 78, "track": 6}, {"t": 3.0, "dur": 0.24792, "note": 81, "vel": 90, "track": 2}, {"t": 3.0, "dur": 0.49792, "note": 81, "vel": 88, "track": 3}, {"t": 3.25, "dur": 0.24792, "note": 51, "vel": 74, "track": 7}, {"t": 3.25, "dur": 0.49792, "note": 70, "vel": 75, "track": 5}, {"t": 3.25, "dur": 0.24792, "note": 73, "vel": 63, "track": 2}, {"t": 3.25, "dur": 0.49792, "note": 73, "vel": 75, "track": 5}, {"t": 3.25, "dur": 0.24792, "note": 82, "vel": 90, "track": 6}, {"t": 3.25, "dur": 0.49792, "note": 82, "vel": 37, "track": 4}, {"t": 3.25, "dur": 0.49792, "note": 82, "vel": 80, "track": 0}, {"t": 3.5, "dur": 0.24792, "note": 46, "vel": 76, "track": 7}, {"t": 3.5, "dur": 0.24792, "note": 53, "vel": 86, "track": 8}, {"t": 3.5, "dur": 0.24792, "note": 73, "vel": 60, "track": 6}, {"t": 3.5, "dur": 0.24792, "note": 82, "vel": 79, "track": 3}, {"t": 3.5, "dur": 0.24792, "note": 82, "vel": 93, "track": 2}]}, {"id": 51, "measures": "m73", "meter": [10, 16], "length_ticks": 1200, "length_beats": 2.5, "notes": [{"t": 0.0, "dur": 0.24792, "note": 37, "vel": 68, "track": 7}, {"t": 0.0, "dur": 0.99792, "note": 37, "vel": 70, "track": 9}, {"t": 0.0, "dur": 0.49792, "note": 51, "vel": 73, "track": 8}, {"t": 0.0, "dur": 0.24792, "note": 72, "vel": 58, "track": 2}, {"t": 0.0, "dur": 0.49792, "note": 72, "vel": 57, "track": 3}, {"t": 0.0, "dur": 0.74792, "note": 75, "vel": 83, "track": 4}, {"t": 0.0, "dur": 0.24792, "note": 82, "vel": 92, "track": 6}, {"t": 0.0, "dur": 0.74792, "note": 82, "vel": 77, "track": 0}, {"t": 0.25, "dur": 0.24792, "note": 44, "vel": 82, "track": 7}, {"t": 0.25, "dur": 0.24792, "note": 72, "vel": 57, "track": 6}, {"t": 0.25, "dur": 0.24792, "note": 77, "vel": 84, "track": 2}, {"t": 0.5, "dur": 0.49792, "note": 39, "vel": 68, "track": 8}, {"t": 0.5, "dur": 0.24792, "note": 53, "vel": 82, "track": 7}, {"t": 0.5, "dur": 0.24792, "note": 77, "vel": 87, "track": 6}, {"t": 0.5, "dur": 0.24792, "note": 82, "vel": 90, "track": 2}, {"t": 0.5, "dur": 0.49792, "note": 82, "vel": 91, "track": 3}, {"t": 0.75, "dur": 0.24792, "note": 49, "vel": 71, "track": 7}, {"t": 0.75, "dur": 0.49792, "note": 71, "vel": 89, "track": 5}, {"t": 0.75, "dur": 0.24792, "note": 77, "vel": 65, "track": 2}, {"t": 0.75, "dur": 0.49792, "note": 77, "vel": 89, "track": 5}, {"t": 0.75, "dur": 0.24792, "note": 82, "vel": 84, "track": 6}, {"t": 0.75, "dur": 0.49792, "note": 82, "vel": 76, "track": 0}, {"t": 0.75, "dur": 0.49792, "note": 82, "vel": 89, "track": 4}, {"t": 1.0, "dur": 0.24792, "note": 44, "vel": 70, "track": 7}, {"t": 1.0, "dur": 0.24792, "note": 51, "vel": 86, "track": 8}, {"t": 1.0, "dur": 0.24792, "note": 77, "vel": 63, "track": 6}, {"t": 1.0, "dur": 0.24792, "note": 82, "vel": 74, "track": 3}, {"t": 1.0, "dur": 0.24792, "note": 82, "vel": 85, "track": 2}, {"t": 1.25, "dur": 0.24792, "note": 37, "vel": 71, "track": 7}, {"t": 1.25, "dur": 0.99792, "note": 37, "vel": 64, "track": 9}, {"t": 1.25, "dur": 0.49792, "note": 49, "vel": 71, "track": 8}, {"t": 1.25, "dur": 0.24792, "note": 71, "vel": 57, "track": 2}, {"t": 1.25, "dur": 0.49792, "note": 71, "vel": 56, "track": 3}, {"t": 1.25, "dur": 0.74792, "note": 72, "vel": 58, "track": 4}, {"t": 1.25, "dur": 0.24792, "note": 82, "vel": 82, "track": 6}, {"t": 1.25, "dur": 0.74792, "note": 82, "vel": 78, "track": 0}, {"t": 1.5, "dur": 0.24792, "note": 44, "vel": 81, "track": 7}, {"t": 1.5, "dur": 0.24792, "note": 71, "vel": 57, "track": 6}, {"t": 1.5, "dur": 0.24792, "note": 77, "vel": 87, "track": 2}, {"t": 1.75, "dur": 0.49792, "note": 37, "vel": 68, "track": 8}, {"t": 1.75, "dur": 0.24792, "note": 53, "vel": 82, "track": 7}, {"t": 1.75, "dur": 0.24792, "note": 77, "vel": 84, "track": 6}, {"t": 1.75, "dur": 0.24792, "note": 82, "vel": 85, "track": 2}, {"t": 1.75, "dur": 0.49792, "note": 82, "vel": 91, "track": 3}, {"t": 2.0, "dur": 0.24792, "note": 49, "vel": 72, "track": 7}, {"t": 2.0, "dur": 0.49792, "note": 71, "vel": 81, "track": 5}, {"t": 2.0, "dur": 0.24792, "note": 77, "vel": 73, "track": 2}, {"t": 2.0, "dur": 0.49792, "note": 77, "vel": 81, "track": 5}, {"t": 2.0, "dur": 0.24792, "note": 80, "vel": 82, "track": 6}, {"t": 2.0, "dur": 0.49792, "note": 80, "vel": 33, "track": 4}, {"t": 2.0, "dur": 0.49792, "note": 80, "vel": 73, "track": 0}, {"t": 2.25, "dur": 0.24792, "note": 44, "vel": 67, "track": 7}, {"t": 2.25, "dur": 0.24792, "note": 49, "vel": 87, "track": 8}, {"t": 2.25, "dur": 0.24792, "note": 77, "vel": 71, "track": 6}, {"t": 2.25, "dur": 0.24792, "note": 80, "vel": 78, "track": 3}, {"t": 2.25, "dur": 0.24792, "note": 80, "vel": 85, "track": 2}]}, {"id": 52, "measures": "m74-75", "meter": [10, 16], "length_ticks": 2400, "length_beats": 5.0, "notes": [{"t": 0.0, "dur": 0.24792, "note": 42, "vel": 70, "track": 7}, {"t": 0.0, "dur": 0.99792, "note": 42, "vel": 67, "track": 9}, {"t": 0.0, "dur": 0.49792, "note": 54, "vel": 79, "track": 8}, {"t": 0.0, "dur": 0.24792, "note": 72, "vel": 63, "track": 2}, {"t": 0.0, "dur": 0.49792, "note": 72, "vel": 64, "track": 3}, {"t": 0.0, "dur": 0.24792, "note": 84, "vel": 88, "track": 6}, {"t": 0.0, "dur": 0.74792, "note": 84, "vel": 83, "track": 0}, {"t": 0.25, "dur": 0.24792, "note": 49, "vel": 83, "track": 7}, {"t": 0.25, "dur": 0.24792, "note": 70, "vel": 58, "track": 6}, {"t": 0.25, "dur": 0.24792, "note": 73, "vel": 81, "track": 2}, {"t": 0.5, "dur": 0.49792, "note": 42, "vel": 63, "track": 8}, {"t": 0.5, "dur": 0.24792, "note": 60, "vel": 99, "track": 7}, {"t": 0.5, "dur": 0.24792, "note": 73, "vel": 79, "track": 6}, {"t": 0.5, "dur": 0.24792, "note": 84, "vel": 97, "track": 2}, {"t": 0.5, "dur": 0.49792, "note": 84, "vel": 94, "track": 3}, {"t": 0.75, "dur": 0.24792, "note": 54, "vel": 76, "track": 7}, {"t": 0.75, "dur": 0.24792, "note": 73, "vel": 60, "track": 2}, {"t": 0.75, "dur": 0.49792, "note": 73, "vel": 67, "track": 5}, {"t": 0.75, "dur": 0.49792, "note": 78, "vel": 67, "track": 5}, {"t": 0.75, "dur": 0.24792, "note": 82, "vel": 92, "track": 6}, {"t": 0.75, "dur": 0.49792, "note": 82, "vel": 67, "track": 4}, {"t": 0.75, "dur": 0.49792, "note": 82, "vel": 75, "track": 0}, {"t": 1.0, "dur": 0.24792, "note": 49, "vel": 69, "track": 7}, {"t": 1.0, "dur": 0.24792, "note": 54, "vel": 86, "track": 8}, {"t": 1.0, "dur": 0.24792, "note": 73, "vel": 62, "track": 6}, {"t": 1.0, "dur": 0.24792, "note": 82, "vel": 73, "track": 3}, {"t": 1.0, "dur": 0.24792, "note": 82, "vel": 88, "track": 2}, {"t": 1.25, "dur": 0.24792, "note": 42, "vel": 72, "track": 7}, {"t": 1.25, "dur": 0.99792, "note": 42, "vel": 69, "track": 9}, {"t": 1.25, "dur": 0.49792, "note": 54, "vel": 79, "track": 8}, {"t": 1.25, "dur": 0.24792, "note": 70, "vel": 55, "track": 2}, {"t": 1.25, "dur": 0.49792, "note": 70, "vel": 56, "track": 3}, {"t": 1.25, "dur": 0.24792, "note": 84, "vel": 98, "track": 6}, {"t": 1.25, "dur": 0.49792, "note": 84, "vel": 81, "track": 4}, {"t": 1.25, "dur": 0.74792, "note": 84, "vel": 82, "track": 0}, {"t": 1.5, "dur": 0.24792, "note": 49, "vel": 82, "track": 7}, {"t": 1.5, "dur": 0.24792, "note": 70, "vel": 58, "track": 6}, {"t": 1.5, "dur": 0.24792, "note": 73, "vel": 81, "track": 2}, {"t": 1.75, "dur": 0.49792, "note": 42, "vel": 66, "track": 8}, {"t": 1.75, "dur": 0.24792, "note": 58, "vel": 86, "track": 7}, {"t": 1.75, "dur": 0.24792, "note": 73, "vel": 80, "track": 6}, {"t": 1.75, "dur": 0.24792, "note": 84, "vel": 96, "track": 2}, {"t": 1.75, "dur": 0.49792, "note": 84, "vel": 97, "track": 3}, {"t": 2.0, "dur": 0.24792, "note": 54, "vel": 76, "track": 7}, {"t": 2.0, "dur": 0.24792, "note": 73, "vel": 57, "track": 2}, {"t": 2.0, "dur": 0.49792, "note": 73, "vel": 66, "track": 5}, {"t": 2.0, "dur": 0.49792, "note": 78, "vel": 66, "track": 5}, {"t": 2.0, "dur": 0.24792, "note": 82, "vel": 94, "track": 6}, {"t": 2.0, "dur": 0.49792, "note": 82, "vel": 34, "track": 4}, {"t": 2.0, "dur": 0.49792, "note": 82, "vel": 71, "track": 0}, {"t": 2.25, "dur": 0.24792, "note": 49, "vel": 73, "track": 7}, {"t": 2.25, "dur": 0.24792, "note": 54, "vel": 84, "track": 8}, {"t": 2.25, "dur": 0.24792, "note": 73, "vel": 64, "track": 6}, {"t": 2.25, "dur": 0.24792, "note": 82, "vel": 70, "track": 3}, {"t": 2.25, "dur": 0.24792, "note": 82, "vel": 90, "track": 2}, {"t": 2.5, "dur": 0.24792, "note": 42, "vel": 69, "track": 7}, {"t": 2.5, "dur": 0.99792, "note": 42, "vel": 66, "track": 9}, {"t": 2.5, "dur": 0.49792, "note": 54, "vel": 79, "track": 8}, {"t": 2.5, "dur": 0.24792, "note": 72, "vel": 61, "track": 2}, {"t": 2.5, "dur": 0.49792, "note": 72, "vel": 61, "track": 3}, {"t": 2.5, "dur": 0.24792, "note": 84, "vel": 91, "track": 6}, {"t": 2.5, "dur": 0.49792, "note": 84, "vel": 88, "track": 4}, {"t": 2.5, "dur": 0.74792, "note": 84, "vel": 83, "track": 0}, {"t": 2.75, "dur": 0.24792, "note": 49, "vel": 82, "track": 7}, {"t": 2.75, "dur": 0.24792, "note": 70, "vel": 63, "track": 6}, {"t": 2.75, "dur": 0.24792, "note": 73, "vel": 75, "track": 2}, {"t": 3.0, "dur": 0.49792, "note": 42, "vel": 71, "track": 8}, {"t": 3.0, "dur": 0.24792, "note": 60, "vel": 96, "track": 7}, {"t": 3.0, "dur": 0.24792, "note": 73, "vel": 79, "track": 6}, {"t": 3.0, "dur": 0.24792, "note": 84, "vel": 98, "track": 2}, {"t": 3.0, "dur": 0.49792, "note": 84, "vel": 92, "track": 3}, {"t": 3.25, "dur": 0.24792, "note": 54, "vel": 77, "track": 7}, {"t": 3.25, "dur": 0.24792, "note": 73, "vel": 66, "track": 2}, {"t": 3.25, "dur": 0.49792, "note": 73, "vel": 71, "track": 5}, {"t": 3.25, "dur": 0.49792, "note": 78, "vel": 71, "track": 5}, {"t": 3.25, "dur": 0.24792, "note": 82, "vel": 96, "track": 6}, {"t": 3.25, "dur": 0.49792, "note": 82, "vel": 71, "track": 4}, {"t": 3.25, "dur": 0.49792, "note": 82, "vel": 73, "track": 0}, {"t": 3.5, "dur": 0.24792, "note": 49, "vel": 73, "track": 7}, {"t": 3.5, "dur": 0.24792, "note": 54, "vel": 87, "track": 8}, {"t": 3.5, "dur": 0.24792, "note": 73, "vel": 64, "track": 6}, {"t": 3.5, "dur": 0.24792, "note": 82, "vel": 71, "track": 3}, {"t": 3.5, "dur": 0.24792, "note": 82, "vel": 89, "track": 2}, {"t": 3.75, "dur": 0.24792, "note": 42, "vel": 66, "track": 7}, {"t": 3.75, "dur": 0.99792, "note": 42, "vel": 68, "track": 9}, {"t": 3.75, "dur": 0.49792, "note": 54, "vel": 79, "track": 8}, {"t": 3.75, "dur": 0.24792, "note": 70, "vel": 60, "track": 2}, {"t": 3.75, "dur": 0.49792, "note": 70, "vel": 52, "track": 3}, {"t": 3.75, "dur": 0.24792, "note": 84, "vel": 94, "track": 6}, {"t": 3.75, "dur": 0.49792, "note": 84, "vel": 82, "track": 4}, {"t": 3.75, "dur": 0.74792, "note": 84, "vel": 75, "track": 0}, {"t": 4.0, "dur": 0.24792, "note": 49, "vel": 83, "track": 7}, {"t": 4.0, "dur": 0.24792, "note": 70, "vel": 58, "track": 6}, {"t": 4.0, "dur": 0.24792, "note": 73, "vel": 79, "track": 2}, {"t": 4.25, "dur": 0.49792, "note": 42, "vel": 64, "track": 8}, {"t": 4.25, "dur": 0.24792, "note": 58, "vel": 85, "track": 7}, {"t": 4.25, "dur": 0.24792, "note": 73, "vel": 81, "track": 6}, {"t": 4.25, "dur": 0.24792, "note": 84, "vel": 97, "track": 2}, {"t": 4.25, "dur": 0.49792, "note": 84, "vel": 96, "track": 3}, {"t": 4.5, "dur": 0.24792, "note": 54, "vel": 77, "track": 7}, {"t": 4.5, "dur": 0.24792, "note": 73, "vel": 60, "track": 2}, {"t": 4.5, "dur": 0.49792, "note": 73, "vel": 68, "track": 5}, {"t": 4.5, "dur": 0.49792, "note": 78, "vel": 68, "track": 5}, {"t": 4.5, "dur": 0.24792, "note": 82, "vel": 94, "track": 6}, {"t": 4.5, "dur": 0.49792, "note": 82, "vel": 34, "track": 4}, {"t": 4.5, "dur": 0.49792, "note": 82, "vel": 71, "track": 0}, {"t": 4.75, "dur": 0.24792, "note": 49, "vel": 74, "track": 7}, {"t": 4.75, "dur": 0.24792, "note": 54, "vel": 85, "track": 8}, {"t": 4.75, "dur": 0.24792, "note": 73, "vel": 64, "track": 6}, {"t": 4.75, "dur": 0.24792, "note": 82, "vel": 74, "track": 3}, {"t": 4.75, "dur": 0.24792, "note": 82, "vel": 91, "track": 2}]}, {"id": 53, "measures": "m76", "meter": [10, 16], "length_ticks": 1200, "length_beats": 2.5, "notes": [{"t": 0.0, "dur": 0.24792, "note": 46, "vel": 69, "track": 7}, {"t": 0.0, "dur": 0.99792, "note": 46, "vel": 74, "track": 9}, {"t": 0.0, "dur": 0.49792, "note": 58, "vel": 87, "track": 8}, {"t": 0.0, "dur": 0.24792, "note": 75, "vel": 64, "track": 2}, {"t": 0.0, "dur": 0.49792, "note": 75, "vel": 58, "track": 3}, {"t": 0.0, "dur": 0.24792, "note": 84, "vel": 93, "track": 6}, {"t": 0.0, "dur": 0.49792, "note": 84, "vel": 80, "track": 4}, {"t": 0.0, "dur": 0.74792, "note": 84, "vel": 84, "track": 0}, {"t": 0.25, "dur": 0.24792, "note": 53, "vel": 88, "track": 7}, {"t": 0.25, "dur": 0.24792, "note": 73, "vel": 56, "track": 6}, {"t": 0.25, "dur": 0.24792, "note": 77, "vel": 75, "track": 2}, {"t": 0.5, "dur": 0.49792, "note": 46, "vel": 68, "track": 8}, {"t": 0.5, "dur": 0.24792, "note": 63, "vel": 91, "track": 7}, {"t": 0.5, "dur": 0.24792, "note": 77, "vel": 82, "track": 6}, {"t": 0.5, "dur": 0.24792, "note": 84, "vel": 90, "track": 2}, {"t": 0.5, "dur": 0.49792, "note": 84, "vel": 91, "track": 3}, {"t": 0.75, "dur": 0.24792, "note": 58, "vel": 77, "track": 7}, {"t": 0.75, "dur": 0.49792, "note": 73, "vel": 66, "track": 5}, {"t": 0.75, "dur": 0.24792, "note": 77, "vel": 65, "track": 2}, {"t": 0.75, "dur": 0.49792, "note": 77, "vel": 66, "track": 5}, {"t": 0.75, "dur": 0.24792, "note": 82, "vel": 88, "track": 6}, {"t": 0.75, "dur": 0.49792, "note": 82, "vel": 66, "track": 4}, {"t": 0.75, "dur": 0.49792, "note": 82, "vel": 71, "track": 0}, {"t": 1.0, "dur": 0.24792, "note": 53, "vel": 72, "track": 7}, {"t": 1.0, "dur": 0.24792, "note": 58, "vel": 80, "track": 8}, {"t": 1.0, "dur": 0.24792, "note": 73, "vel": 58, "track": 6}, {"t": 1.0, "dur": 0.24792, "note": 82, "vel": 72, "track": 3}, {"t": 1.0, "dur": 0.24792, "note": 82, "vel": 85, "track": 2}, {"t": 1.25, "dur": 0.24792, "note": 46, "vel": 71, "track": 7}, {"t": 1.25, "dur": 0.99792, "note": 46, "vel": 72, "track": 9}, {"t": 1.25, "dur": 0.49792, "note": 58, "vel": 82, "track": 8}, {"t": 1.25, "dur": 0.24792, "note": 73, "vel": 59, "track": 2}, {"t": 1.25, "dur": 0.49792, "note": 73, "vel": 63, "track": 3}, {"t": 1.25, "dur": 0.24792, "note": 84, "vel": 95, "track": 6}, {"t": 1.25, "dur": 0.49792, "note": 84, "vel": 75, "track": 4}, {"t": 1.25, "dur": 0.74792, "note": 84, "vel": 69, "track": 0}, {"t": 1.5, "dur": 0.24792, "note": 53, "vel": 82, "track": 7}, {"t": 1.5, "dur": 0.24792, "note": 73, "vel": 64, "track": 6}, {"t": 1.5, "dur": 0.24792, "note": 77, "vel": 85, "track": 2}, {"t": 1.75, "dur": 0.49792, "note": 46, "vel": 65, "track": 8}, {"t": 1.75, "dur": 0.24792, "note": 61, "vel": 93, "track": 7}, {"t": 1.75, "dur": 0.24792, "note": 77, "vel": 80, "track": 6}, {"t": 1.75, "dur": 0.24792, "note": 84, "vel": 89, "track": 2}, {"t": 1.75, "dur": 0.49792, "note": 84, "vel": 96, "track": 3}, {"t": 2.0, "dur": 0.24792, "note": 58, "vel": 78, "track": 7}, {"t": 2.0, "dur": 0.49792, "note": 73, "vel": 69, "track": 5}, {"t": 2.0, "dur": 0.24792, "note": 77, "vel": 67, "track": 2}, {"t": 2.0, "dur": 0.49792, "note": 77, "vel": 69, "track": 5}, {"t": 2.0, "dur": 0.24792, "note": 82, "vel": 86, "track": 6}, {"t": 2.0, "dur": 0.49792, "note": 82, "vel": 32, "track": 4}, {"t": 2.0, "dur": 0.49792, "note": 82, "vel": 68, "track": 0}, {"t": 2.25, "dur": 0.24792, "note": 53, "vel": 73, "track": 7}, {"t": 2.25, "dur": 0.24792, "note": 58, "vel": 86, "track": 8}, {"t": 2.25, "dur": 0.24792, "note": 77, "vel": 64, "track": 6}, {"t": 2.25, "dur": 0.24792, "note": 82, "vel": 78, "track": 3}, {"t": 2.25, "dur": 0.24792, "note": 82, "vel": 82, "track": 2}]}, {"id": 54, "measures": "m77", "meter": [10, 16], "length_ticks": 1200, "length_beats": 2.5, "notes": [{"t": 0.0, "dur": 0.24792, "note": 51, "vel": 70, "track": 7}, {"t": 0.0, "dur": 0.99792, "note": 51, "vel": 66, "track": 9}, {"t": 0.0, "dur": 0.49792, "note": 63, "vel": 88, "track": 8}, {"t": 0.0, "dur": 0.24792, "note": 73, "vel": 62, "track": 2}, {"t": 0.0, "dur": 0.49792, "note": 73, "vel": 62, "track": 3}, {"t": 0.0, "dur": 0.24792, "note": 84, "vel": 85, "track": 6}, {"t": 0.0, "dur": 0.49792, "note": 84, "vel": 89, "track": 4}, {"t": 0.0, "dur": 0.74792, "note": 84, "vel": 71, "track": 0}, {"t": 0.25, "dur": 0.24792, "note": 58, "vel": 84, "track": 7}, {"t": 0.25, "dur": 0.24792, "note": 73, "vel": 59, "track": 6}, {"t": 0.25, "dur": 0.24792, "note": 80, "vel": 84, "track": 2}, {"t": 0.5, "dur": 0.49792, "note": 51, "vel": 64, "track": 8}, {"t": 0.5, "dur": 0.24792, "note": 68, "vel": 97, "track": 7}, {"t": 0.5, "dur": 0.24792, "note": 79, "vel": 83, "track": 6}, {"t": 0.5, "dur": 0.24792, "note": 84, "vel": 87, "track": 2}, {"t": 0.5, "dur": 0.49792, "note": 84, "vel": 99, "track": 3}, {"t": 0.75, "dur": 0.24792, "note": 63, "vel": 74, "track": 7}, {"t": 0.75, "dur": 0.49792, "note": 73, "vel": 67, "track": 5}, {"t": 0.75, "dur": 0.49792, "note": 79, "vel": 67, "track": 5}, {"t": 0.75, "dur": 0.24792, "note": 80, "vel": 68, "track": 2}, {"t": 0.75, "dur": 0.24792, "note": 82, "vel": 84, "track": 6}, {"t": 0.75, "dur": 0.49792, "note": 82, "vel": 67, "track": 4}, {"t": 0.75, "dur": 0.49792, "note": 82, "vel": 70, "track": 0}, {"t": 1.0, "dur": 0.24792, "note": 58, "vel": 70, "track": 7}, {"t": 1.0, "dur": 0.24792, "note": 63, "vel": 91, "track": 8}, {"t": 1.0, "dur": 0.24792, "note": 79, "vel": 73, "track": 6}, {"t": 1.0, "dur": 0.24792, "note": 82, "vel": 76, "track": 3}, {"t": 1.0, "dur": 0.24792, "note": 82, "vel": 77, "track": 2}, {"t": 1.25, "dur": 0.24792, "note": 51, "vel": 71, "track": 7}, {"t": 1.25, "dur": 0.99792, "note": 51, "vel": 70, "track": 9}, {"t": 1.25, "dur": 0.49792, "note": 63, "vel": 80, "track": 8}, {"t": 1.25, "dur": 0.24792, "note": 73, "vel": 60, "track": 2}, {"t": 1.25, "dur": 0.49792, "note": 73, "vel": 59, "track": 3}, {"t": 1.25, "dur": 0.24792, "note": 84, "vel": 85, "track": 6}, {"t": 1.25, "dur": 0.49792, "note": 84, "vel": 73, "track": 4}, {"t": 1.25, "dur": 0.74792, "note": 84, "vel": 66, "track": 0}, {"t": 1.5, "dur": 0.24792, "note": 58, "vel": 80, "track": 7}, {"t": 1.5, "dur": 0.24792, "note": 73, "vel": 64, "track": 6}, {"t": 1.5, "dur": 0.24792, "note": 79, "vel": 88, "track": 2}, {"t": 1.75, "dur": 0.49792, "note": 51, "vel": 67, "track": 8}, {"t": 1.75, "dur": 0.24792, "note": 67, "vel": 92, "track": 7}, {"t": 1.75, "dur": 0.24792, "note": 79, "vel": 89, "track": 6}, {"t": 1.75, "dur": 0.24792, "note": 84, "vel": 88, "track": 2}, {"t": 1.75, "dur": 0.49792, "note": 84, "vel": 92, "track": 3}, {"t": 2.0, "dur": 0.24792, "note": 63, "vel": 73, "track": 7}, {"t": 2.0, "dur": 0.49792, "note": 73, "vel": 65, "track": 5}, {"t": 2.0, "dur": 0.24792, "note": 79, "vel": 65, "track": 2}, {"t": 2.0, "dur": 0.49792, "note": 79, "vel": 65, "track": 5}, {"t": 2.0, "dur": 0.24792, "note": 82, "vel": 80, "track": 6}, {"t": 2.0, "dur": 0.49792, "note": 82, "vel": 32, "track": 4}, {"t": 2.0, "dur": 0.49792, "note": 82, "vel": 71, "track": 0}, {"t": 2.25, "dur": 0.24792, "note": 58, "vel": 69, "track": 7}, {"t": 2.25, "dur": 0.24792, "note": 63, "vel": 90, "track": 8}, {"t": 2.25, "dur": 0.24792, "note": 79, "vel": 71, "track": 6}, {"t": 2.25, "dur": 0.24792, "note": 82, "vel": 71, "track": 3}, {"t": 2.25, "dur": 0.24792, "note": 82, "vel": 85, "track": 2}]}, {"id": 55, "measures": "m78", "meter": [10, 16], "length_ticks": 1200, "length_beats": 2.5, "notes": [{"t": 0.0, "dur": 0.24792, "note": 49, "vel": 70, "track": 7}, {"t": 0.0, "dur": 0.99792, "note": 49, "vel": 69, "track": 9}, {"t": 0.0, "dur": 0.49792, "note": 61, "vel": 74, "track": 8}, {"t": 0.0, "dur": 0.24792, "note": 79, "vel": 66, "track": 2}, {"t": 0.0, "dur": 0.49792, "note": 79, "vel": 72, "track": 3}, {"t": 0.0, "dur": 0.24792, "note": 84, "vel": 88, "track": 6}, {"t": 0.0, "dur": 0.49792, "note": 84, "vel": 82, "track": 4}, {"t": 0.0, "dur": 0.74792, "note": 84, "vel": 65, "track": 0}, {"t": 0.25, "dur": 0.24792, "note": 56, "vel": 77, "track": 7}, {"t": 0.25, "dur": 0.24792, "note": 77, "vel": 62, "track": 6}, {"t": 0.25, "dur": 0.24792, "note": 80, "vel": 84, "track": 2}, {"t": 0.5, "dur": 0.49792, "note": 49, "vel": 65, "track": 8}, {"t": 0.5, "dur": 0.24792, "note": 67, "vel": 94, "track": 7}, {"t": 0.5, "dur": 0.24792, "note": 80, "vel": 82, "track": 6}, {"t": 0.5, "dur": 0.24792, "note": 84, "vel": 83, "track": 2}, {"t": 0.5, "dur": 0.49792, "note": 84, "vel": 85, "track": 3}, {"t": 0.75, "dur": 0.24792, "note": 61, "vel": 68, "track": 7}, {"t": 0.75, "dur": 0.49792, "note": 77, "vel": 70, "track": 5}, {"t": 0.75, "dur": 0.24792, "note": 80, "vel": 70, "track": 2}, {"t": 0.75, "dur": 0.49792, "note": 80, "vel": 70, "track": 5}, {"t": 0.75, "dur": 0.24792, "note": 82, "vel": 82, "track": 6}, {"t": 0.75, "dur": 0.49792, "note": 82, "vel": 68, "track": 0}, {"t": 0.75, "dur": 0.49792, "note": 82, "vel": 70, "track": 4}, {"t": 1.0, "dur": 0.24792, "note": 56, "vel": 72, "track": 7}, {"t": 1.0, "dur": 0.24792, "note": 61, "vel": 93, "track": 8}, {"t": 1.0, "dur": 0.24792, "note": 80, "vel": 69, "track": 6}, {"t": 1.0, "dur": 0.24792, "note": 82, "vel": 71, "track": 3}, {"t": 1.0, "dur": 0.24792, "note": 82, "vel": 82, "track": 2}, {"t": 1.25, "dur": 0.24792, "note": 49, "vel": 68, "track": 7}, {"t": 1.25, "dur": 0.99792, "note": 49, "vel": 68, "track": 9}, {"t": 1.25, "dur": 0.49792, "note": 61, "vel": 76, "track": 8}, {"t": 1.25, "dur": 0.24792, "note": 77, "vel": 66, "track": 2}, {"t": 1.25, "dur": 0.49792, "note": 77, "vel": 67, "track": 3}, {"t": 1.25, "dur": 0.24792, "note": 84, "vel": 87, "track": 6}, {"t": 1.25, "dur": 0.49792, "note": 84, "vel": 81, "track": 4}, {"t": 1.25, "dur": 0.74792, "note": 84, "vel": 70, "track": 0}, {"t": 1.5, "dur": 0.24792, "note": 56, "vel": 83, "track": 7}, {"t": 1.5, "dur": 0.24792, "note": 77, "vel": 67, "track": 6}, {"t": 1.5, "dur": 0.24792, "note": 80, "vel": 83, "track": 2}, {"t": 1.75, "dur": 0.49792, "note": 49, "vel": 66, "track": 8}, {"t": 1.75, "dur": 0.24792, "note": 65, "vel": 93, "track": 7}, {"t": 1.75, "dur": 0.24792, "note": 80, "vel": 80, "track": 6}, {"t": 1.75, "dur": 0.24792, "note": 84, "vel": 89, "track": 2}, {"t": 1.75, "dur": 0.49792, "note": 84, "vel": 90, "track": 3}, {"t": 2.0, "dur": 0.24792, "note": 61, "vel": 67, "track": 7}, {"t": 2.0, "dur": 0.49792, "note": 77, "vel": 68, "track": 5}, {"t": 2.0, "dur": 0.24792, "note": 80, "vel": 67, "track": 2}, {"t": 2.0, "dur": 0.49792, "note": 80, "vel": 68, "track": 5}, {"t": 2.0, "dur": 0.24792, "note": 82, "vel": 83, "track": 6}, {"t": 2.0, "dur": 0.49792, "note": 82, "vel": 36, "track": 4}, {"t": 2.0, "dur": 0.49792, "note": 82, "vel": 69, "track": 0}, {"t": 2.25, "dur": 0.24792, "note": 56, "vel": 71, "track": 7}, {"t": 2.25, "dur": 0.24792, "note": 61, "vel": 91, "track": 8}, {"t": 2.25, "dur": 0.24792, "note": 80, "vel": 67, "track": 6}, {"t": 2.25, "dur": 0.24792, "note": 82, "vel": 70, "track": 3}, {"t": 2.25, "dur": 0.24792, "note": 82, "vel": 80, "track": 2}]}, {"id": 56, "measures": "m79", "meter": [10, 16], "length_ticks": 1200, "length_beats": 2.5, "notes": [{"t": 0.0, "dur": 0.24792, "note": 47, "vel": 64, "track": 7}, {"t": 0.0, "dur": 0.99792, "note": 47, "vel": 71, "track": 9}, {"t": 0.0, "dur": 0.49792, "note": 59, "vel": 76, "track": 8}, {"t": 0.0, "dur": 0.24792, "note": 77, "vel": 70, "track": 2}, {"t": 0.0, "dur": 0.49792, "note": 77, "vel": 69, "track": 3}, {"t": 0.0, "dur": 0.24792, "note": 89, "vel": 88, "track": 6}, {"t": 0.0, "dur": 0.49792, "note": 89, "vel": 46, "track": 4}, {"t": 0.0, "dur": 0.74792, "note": 89, "vel": 68, "track": 0}, {"t": 0.25, "dur": 0.24792, "note": 54, "vel": 83, "track": 7}, {"t": 0.25, "dur": 0.24792, "note": 78, "vel": 61, "track": 6}, {"t": 0.25, "dur": 0.24792, "note": 83, "vel": 83, "track": 2}, {"t": 0.5, "dur": 0.49792, "note": 47, "vel": 65, "track": 8}, {"t": 0.5, "dur": 0.24792, "note": 65, "vel": 99, "track": 7}, {"t": 0.5, "dur": 0.24792, "note": 83, "vel": 80, "track": 6}, {"t": 0.5, "dur": 0.24792, "note": 89, "vel": 93, "track": 2}, {"t": 0.5, "dur": 0.49792, "note": 89, "vel": 93, "track": 3}, {"t": 0.75, "dur": 0.24792, "note": 59, "vel": 75, "track": 7}, {"t": 0.75, "dur": 0.49792, "note": 78, "vel": 67, "track": 5}, {"t": 0.75, "dur": 0.24792, "note": 83, "vel": 68, "track": 2}, {"t": 0.75, "dur": 0.49792, "note": 83, "vel": 67, "track": 5}, {"t": 0.75, "dur": 0.24792, "note": 87, "vel": 81, "track": 6}, {"t": 0.75, "dur": 0.49792, "note": 87, "vel": 33, "track": 4}, {"t": 0.75, "dur": 0.49792, "note": 87, "vel": 69, "track": 0}, {"t": 1.0, "dur": 0.24792, "note": 54, "vel": 68, "track": 7}, {"t": 1.0, "dur": 0.24792, "note": 59, "vel": 85, "track": 8}, {"t": 1.0, "dur": 0.24792, "note": 83, "vel": 68, "track": 6}, {"t": 1.0, "dur": 0.24792, "note": 87, "vel": 73, "track": 3}, {"t": 1.0, "dur": 0.24792, "note": 87, "vel": 87, "track": 2}, {"t": 1.25, "dur": 0.24792, "note": 47, "vel": 69, "track": 7}, {"t": 1.25, "dur": 0.99792, "note": 47, "vel": 65, "track": 9}, {"t": 1.25, "dur": 0.49792, "note": 59, "vel": 79, "track": 8}, {"t": 1.25, "dur": 0.24792, "note": 75, "vel": 54, "track": 2}, {"t": 1.25, "dur": 0.49792, "note": 75, "vel": 54, "track": 3}, {"t": 1.25, "dur": 0.24792, "note": 89, "vel": 91, "track": 6}, {"t": 1.25, "dur": 0.49792, "note": 89, "vel": 41, "track": 4}, {"t": 1.25, "dur": 0.74792, "note": 89, "vel": 67, "track": 0}, {"t": 1.5, "dur": 0.24792, "note": 54, "vel": 84, "track": 7}, {"t": 1.5, "dur": 0.24792, "note": 78, "vel": 58, "track": 6}, {"t": 1.5, "dur": 0.24792, "note": 83, "vel": 88, "track": 2}, {"t": 1.75, "dur": 0.49792, "note": 47, "vel": 66, "track": 8}, {"t": 1.75, "dur": 0.24792, "note": 63, "vel": 92, "track": 7}, {"t": 1.75, "dur": 0.24792, "note": 83, "vel": 84, "track": 6}, {"t": 1.75, "dur": 0.24792, "note": 89, "vel": 90, "track": 2}, {"t": 1.75, "dur": 0.49792, "note": 89, "vel": 99, "track": 3}, {"t": 2.0, "dur": 0.24792, "note": 59, "vel": 71, "track": 7}, {"t": 2.0, "dur": 0.49792, "note": 78, "vel": 66, "track": 5}, {"t": 2.0, "dur": 0.24792, "note": 83, "vel": 66, "track": 2}, {"t": 2.0, "dur": 0.49792, "note": 83, "vel": 66, "track": 5}, {"t": 2.0, "dur": 0.24792, "note": 87, "vel": 82, "track": 6}, {"t": 2.0, "dur": 0.49792, "note": 87, "vel": 37, "track": 4}, {"t": 2.0, "dur": 0.49792, "note": 87, "vel": 74, "track": 0}, {"t": 2.25, "dur": 0.24792, "note": 54, "vel": 68, "track": 7}, {"t": 2.25, "dur": 0.24792, "note": 59, "vel": 82, "track": 8}, {"t": 2.25, "dur": 0.24792, "note": 83, "vel": 70, "track": 6}, {"t": 2.25, "dur": 0.24792, "note": 87, "vel": 74, "track": 2}, {"t": 2.25, "dur": 0.24792, "note": 87, "vel": 75, "track": 3}]}, {"id": 57, "measures": "m80", "meter": [5, 16], "length_ticks": 600, "length_beats": 1.25, "notes": [{"t": 0.0, "dur": 0.24792, "note": 51, "vel": 82, "track": 7}, {"t": 0.0, "dur": 0.99792, "note": 51, "vel": 67, "track": 9}, {"t": 0.0, "dur": 0.24792, "note": 78, "vel": 67, "track": 2}, {"t": 0.0, "dur": 0.49792, "note": 78, "vel": 60, "track": 3}, {"t": 0.0, "dur": 0.24792, "note": 89, "vel": 41, "track": 4}, {"t": 0.0, "dur": 0.24792, "note": 89, "vel": 85, "track": 6}, {"t": 0.0, "dur": 0.74792, "note": 89, "vel": 71, "track": 0}, {"t": 0.25, "dur": 0.24792, "note": 58, "vel": 87, "track": 7}, {"t": 0.25, "dur": 0.24792, "note": 78, "vel": 56, "track": 6}, {"t": 0.25, "dur": 0.24792, "note": 82, "vel": 84, "track": 2}, {"t": 0.5, "dur": 0.74792, "note": 66, "vel": 68, "track": 7}, {"t": 0.5, "dur": 0.24792, "note": 82, "vel": 77, "track": 6}, {"t": 0.5, "dur": 0.24792, "note": 89, "vel": 86, "track": 2}, {"t": 0.5, "dur": 0.49792, "note": 89, "vel": 90, "track": 3}, {"t": 0.75, "dur": 0.24792, "note": 63, "vel": 72, "track": 7}, {"t": 0.75, "dur": 0.49792, "note": 78, "vel": 67, "track": 5}, {"t": 0.75, "dur": 0.24792, "note": 82, "vel": 67, "track": 2}, {"t": 0.75, "dur": 0.49792, "note": 82, "vel": 67, "track": 5}, {"t": 0.75, "dur": 0.24792, "note": 87, "vel": 91, "track": 6}, {"t": 0.75, "dur": 0.49792, "note": 87, "vel": 33, "track": 4}, {"t": 0.75, "dur": 0.49792, "note": 87, "vel": 70, "track": 0}, {"t": 1.0, "dur": 0.24792, "note": 58, "vel": 69, "track": 7}, {"t": 1.0, "dur": 0.24792, "note": 82, "vel": 69, "track": 6}, {"t": 1.0, "dur": 0.24792, "note": 87, "vel": 74, "track": 3}, {"t": 1.0, "dur": 0.24792, "note": 87, "vel": 84, "track": 2}]}, {"id": 58, "measures": "m81", "meter": [5, 16], "length_ticks": 600, "length_beats": 1.25, "notes": [{"t": 0.0, "dur": 0.24792, "note": 54, "vel": 69, "track": 7}, {"t": 0.0, "dur": 0.99792, "note": 54, "vel": 68, "track": 9}, {"t": 0.0, "dur": 0.24792, "note": 78, "vel": 57, "track": 2}, {"t": 0.0, "dur": 0.49792, "note": 78, "vel": 59, "track": 3}, {"t": 0.0, "dur": 0.24792, "note": 89, "vel": 40, "track": 4}, {"t": 0.0, "dur": 0.24792, "note": 89, "vel": 83, "track": 6}, {"t": 0.0, "dur": 0.74792, "note": 89, "vel": 80, "track": 0}, {"t": 0.25, "dur": 0.24792, "note": 61, "vel": 85, "track": 7}, {"t": 0.25, "dur": 0.24792, "note": 78, "vel": 58, "track": 6}, {"t": 0.25, "dur": 0.24792, "note": 82, "vel": 86, "track": 2}, {"t": 0.5, "dur": 0.74792, "note": 70, "vel": 69, "track": 7}, {"t": 0.5, "dur": 0.24792, "note": 82, "vel": 81, "track": 6}, {"t": 0.5, "dur": 0.24792, "note": 89, "vel": 93, "track": 2}, {"t": 0.5, "dur": 0.49792, "note": 89, "vel": 90, "track": 3}, {"t": 0.75, "dur": 0.24792, "note": 66, "vel": 69, "track": 7}, {"t": 0.75, "dur": 0.49792, "note": 78, "vel": 68, "track": 5}, {"t": 0.75, "dur": 0.24792, "note": 82, "vel": 62, "track": 2}, {"t": 0.75, "dur": 0.49792, "note": 82, "vel": 68, "track": 5}, {"t": 0.75, "dur": 0.24792, "note": 87, "vel": 86, "track": 6}, {"t": 0.75, "dur": 0.49792, "note": 87, "vel": 32, "track": 4}, {"t": 0.75, "dur": 0.49792, "note": 87, "vel": 75, "track": 0}, {"t": 1.0, "dur": 0.24792, "note": 61, "vel": 66, "track": 7}, {"t": 1.0, "dur": 0.24792, "note": 82, "vel": 69, "track": 6}, {"t": 1.0, "dur": 0.24792, "note": 87, "vel": 76, "track": 3}, {"t": 1.0, "dur": 0.24792, "note": 87, "vel": 88, "track": 2}]}, {"id": 59, "measures": "m82", "meter": [5, 16], "length_ticks": 600, "length_beats": 1.25, "notes": [{"t": 0.0, "dur": 0.24792, "note": 55, "vel": 63, "track": 7}, {"t": 0.0, "dur": 0.99792, "note": 55, "vel": 67, "track": 9}, {"t": 0.0, "dur": 0.24792, "note": 75, "vel": 54, "track": 2}, {"t": 0.0, "dur": 0.49792, "note": 75, "vel": 54, "track": 3}, {"t": 0.0, "dur": 0.24792, "note": 89, "vel": 42, "track": 4}, {"t": 0.0, "dur": 0.24792, "note": 89, "vel": 88, "track": 6}, {"t": 0.0, "dur": 0.74792, "note": 89, "vel": 80, "track": 0}, {"t": 0.25, "dur": 0.24792, "note": 61, "vel": 83, "track": 7}, {"t": 0.25, "dur": 0.24792, "note": 75, "vel": 57, "track": 6}, {"t": 0.25, "dur": 0.24792, "note": 82, "vel": 81, "track": 2}, {"t": 0.5, "dur": 0.74792, "note": 70, "vel": 70, "track": 7}, {"t": 0.5, "dur": 0.24792, "note": 82, "vel": 87, "track": 6}, {"t": 0.5, "dur": 0.24792, "note": 89, "vel": 91, "track": 2}, {"t": 0.5, "dur": 0.49792, "note": 89, "vel": 87, "track": 3}, {"t": 0.75, "dur": 0.24792, "note": 63, "vel": 65, "track": 7}, {"t": 0.75, "dur": 0.49792, "note": 75, "vel": 70, "track": 5}, {"t": 0.75, "dur": 0.24792, "note": 82, "vel": 67, "track": 2}, {"t": 0.75, "dur": 0.49792, "note": 82, "vel": 70, "track": 5}, {"t": 0.75, "dur": 0.24792, "note": 87, "vel": 82, "track": 6}, {"t": 0.75, "dur": 0.49792, "note": 87, "vel": 36, "track": 4}, {"t": 0.75, "dur": 0.49792, "note": 87, "vel": 73, "track": 0}, {"t": 1.0, "dur": 0.24792, "note": 61, "vel": 69, "track": 7}, {"t": 1.0, "dur": 0.24792, "note": 82, "vel": 71, "track": 6}, {"t": 1.0, "dur": 0.24792, "note": 87, "vel": 74, "track": 3}, {"t": 1.0, "dur": 0.24792, "note": 87, "vel": 87, "track": 2}]}, {"id": 60, "measures": "m83", "meter": [5, 16], "length_ticks": 600, "length_beats": 1.25, "notes": [{"t": 0.0, "dur": 0.24792, "note": 56, "vel": 74, "track": 7}, {"t": 0.0, "dur": 0.99792, "note": 56, "vel": 71, "track": 9}, {"t": 0.0, "dur": 0.24792, "note": 75, "vel": 58, "track": 2}, {"t": 0.0, "dur": 0.49792, "note": 75, "vel": 52, "track": 3}, {"t": 0.0, "dur": 0.24792, "note": 89, "vel": 37, "track": 4}, {"t": 0.0, "dur": 0.24792, "note": 89, "vel": 89, "track": 6}, {"t": 0.0, "dur": 0.74792, "note": 89, "vel": 83, "track": 0}, {"t": 0.25, "dur": 0.24792, "note": 63, "vel": 89, "track": 7}, {"t": 0.25, "dur": 0.24792, "note": 75, "vel": 58, "track": 6}, {"t": 0.25, "dur": 0.24792, "note": 80, "vel": 82, "track": 2}, {"t": 0.5, "dur": 0.74792, "note": 71, "vel": 72, "track": 7}, {"t": 0.5, "dur": 0.24792, "note": 80, "vel": 82, "track": 6}, {"t": 0.5, "dur": 0.24792, "note": 89, "vel": 94, "track": 2}, {"t": 0.5, "dur": 0.49792, "note": 89, "vel": 92, "track": 3}, {"t": 0.75, "dur": 0.24792, "note": 68, "vel": 72, "track": 7}, {"t": 0.75, "dur": 0.49792, "note": 75, "vel": 69, "track": 5}, {"t": 0.75, "dur": 0.24792, "note": 80, "vel": 65, "track": 2}, {"t": 0.75, "dur": 0.49792, "note": 80, "vel": 69, "track": 5}, {"t": 0.75, "dur": 0.24792, "note": 87, "vel": 94, "track": 6}, {"t": 0.75, "dur": 0.49792, "note": 87, "vel": 32, "track": 4}, {"t": 0.75, "dur": 0.49792, "note": 87, "vel": 73, "track": 0}, {"t": 1.0, "dur": 0.24792, "note": 63, "vel": 65, "track": 7}, {"t": 1.0, "dur": 0.24792, "note": 80, "vel": 64, "track": 6}, {"t": 1.0, "dur": 0.24792, "note": 87, "vel": 74, "track": 3}, {"t": 1.0, "dur": 0.24792, "note": 87, "vel": 88, "track": 2}]}, {"id": 61, "measures": "m84", "meter": [5, 16], "length_ticks": 600, "length_beats": 1.25, "notes": [{"t": 0.0, "dur": 0.24792, "note": 56, "vel": 72, "track": 7}, {"t": 0.0, "dur": 0.99792, "note": 56, "vel": 68, "track": 9}, {"t": 0.0, "dur": 0.24792, "note": 68, "vel": 55, "track": 2}, {"t": 0.0, "dur": 0.49792, "note": 80, "vel": 56, "track": 3}, {"t": 0.0, "dur": 0.24792, "note": 82, "vel": 80, "track": 6}, {"t": 0.0, "dur": 0.24792, "note": 94, "vel": 32, "track": 4}, {"t": 0.0, "dur": 0.74792, "note": 94, "vel": 64, "track": 0}, {"t": 0.25, "dur": 0.24792, "note": 63, "vel": 87, "track": 7}, {"t": 0.25, "dur": 0.24792, "note": 68, "vel": 56, "track": 6}, {"t": 0.25, "dur": 0.24792, "note": 75, "vel": 85, "track": 2}, {"t": 0.5, "dur": 0.74792, "note": 71, "vel": 62, "track": 7}, {"t": 0.5, "dur": 0.24792, "note": 75, "vel": 91, "track": 6}, {"t": 0.5, "dur": 0.24792, "note": 82, "vel": 90, "track": 2}, {"t": 0.5, "dur": 0.49792, "note": 94, "vel": 96, "track": 3}, {"t": 0.75, "dur": 0.24792, "note": 68, "vel": 74, "track": 7}, {"t": 0.75, "dur": 0.24792, "note": 75, "vel": 69, "track": 2}, {"t": 0.75, "dur": 0.24792, "note": 80, "vel": 91, "track": 6}, {"t": 0.75, "dur": 0.49792, "note": 80, "vel": 67, "track": 5}, {"t": 0.75, "dur": 0.49792, "note": 87, "vel": 67, "track": 5}, {"t": 0.75, "dur": 0.49792, "note": 92, "vel": 38, "track": 4}, {"t": 0.75, "dur": 0.49792, "note": 92, "vel": 71, "track": 0}, {"t": 1.0, "dur": 0.24792, "note": 63, "vel": 73, "track": 7}, {"t": 1.0, "dur": 0.24792, "note": 75, "vel": 68, "track": 6}, {"t": 1.0, "dur": 0.24792, "note": 80, "vel": 81, "track": 2}, {"t": 1.0, "dur": 0.24792, "note": 92, "vel": 71, "track": 3}]}, {"id": 62, "measures": "m85", "meter": [5, 16], "length_ticks": 600, "length_beats": 1.25, "notes": [{"t": 0.0, "dur": 0.24792, "note": 58, "vel": 69, "track": 7}, {"t": 0.0, "dur": 0.99792, "note": 58, "vel": 67, "track": 9}, {"t": 0.0, "dur": 0.24792, "note": 70, "vel": 56, "track": 2}, {"t": 0.0, "dur": 0.24792, "note": 82, "vel": 90, "track": 6}, {"t": 0.0, "dur": 0.49792, "note": 82, "vel": 58, "track": 3}, {"t": 0.0, "dur": 0.24792, "note": 94, "vel": 46, "track": 4}, {"t": 0.0, "dur": 0.74792, "note": 94, "vel": 77, "track": 0}, {"t": 0.25, "dur": 0.24792, "note": 64, "vel": 89, "track": 7}, {"t": 0.25, "dur": 0.24792, "note": 70, "vel": 56, "track": 6}, {"t": 0.25, "dur": 0.24792, "note": 76, "vel": 86, "track": 2}, {"t": 0.5, "dur": 0.74792, "note": 73, "vel": 73, "track": 7}, {"t": 0.5, "dur": 0.24792, "note": 76, "vel": 87, "track": 6}, {"t": 0.5, "dur": 0.24792, "note": 82, "vel": 88, "track": 2}, {"t": 0.5, "dur": 0.49792, "note": 94, "vel": 94, "track": 3}, {"t": 0.75, "dur": 0.24792, "note": 68, "vel": 69, "track": 7}, {"t": 0.75, "dur": 0.24792, "note": 76, "vel": 66, "track": 2}, {"t": 0.75, "dur": 0.24792, "note": 80, "vel": 85, "track": 6}, {"t": 0.75, "dur": 0.49792, "note": 82, "vel": 68, "track": 5}, {"t": 0.75, "dur": 0.49792, "note": 88, "vel": 68, "track": 5}, {"t": 0.75, "dur": 0.49792, "note": 92, "vel": 33, "track": 4}, {"t": 0.75, "dur": 0.49792, "note": 92, "vel": 75, "track": 0}, {"t": 1.0, "dur": 0.24792, "note": 64, "vel": 62, "track": 7}, {"t": 1.0, "dur": 0.24792, "note": 76, "vel": 71, "track": 6}, {"t": 1.0, "dur": 0.24792, "note": 80, "vel": 84, "track": 2}, {"t": 1.0, "dur": 0.24792, "note": 92, "vel": 75, "track": 3}]}, {"id": 63, "measures": "m86", "meter": [5, 16], "length_ticks": 600, "length_beats": 1.25, "notes": [{"t": 0.0, "dur": 0.24792, "note": 59, "vel": 70, "track": 7}, {"t": 0.0, "dur": 0.99792, "note": 59, "vel": 69, "track": 9}, {"t": 0.0, "dur": 0.24792, "note": 68, "vel": 55, "track": 2}, {"t": 0.0, "dur": 0.49792, "note": 80, "vel": 57, "track": 3}, {"t": 0.0, "dur": 0.24792, "note": 82, "vel": 87, "track": 6}, {"t": 0.0, "dur": 0.24792, "note": 94, "vel": 38, "track": 4}, {"t": 0.0, "dur": 0.74792, "note": 94, "vel": 85, "track": 0}, {"t": 0.25, "dur": 0.24792, "note": 63, "vel": 86, "track": 7}, {"t": 0.25, "dur": 0.24792, "note": 68, "vel": 55, "track": 6}, {"t": 0.25, "dur": 0.24792, "note": 75, "vel": 88, "track": 2}, {"t": 0.5, "dur": 0.24792, "note": 75, "vel": 87, "track": 6}, {"t": 0.5, "dur": 0.74792, "note": 75, "vel": 67, "track": 7}, {"t": 0.5, "dur": 0.24792, "note": 82, "vel": 90, "track": 2}, {"t": 0.5, "dur": 0.49792, "note": 94, "vel": 95, "track": 3}, {"t": 0.75, "dur": 0.24792, "note": 68, "vel": 66, "track": 7}, {"t": 0.75, "dur": 0.24792, "note": 75, "vel": 66, "track": 2}, {"t": 0.75, "dur": 0.24792, "note": 80, "vel": 86, "track": 6}, {"t": 0.75, "dur": 0.49792, "note": 80, "vel": 69, "track": 5}, {"t": 0.75, "dur": 0.49792, "note": 87, "vel": 69, "track": 5}, {"t": 0.75, "dur": 0.49792, "note": 92, "vel": 37, "track": 4}, {"t": 0.75, "dur": 0.49792, "note": 92, "vel": 69, "track": 0}, {"t": 1.0, "dur": 0.24792, "note": 63, "vel": 66, "track": 7}, {"t": 1.0, "dur": 0.24792, "note": 75, "vel": 67, "track": 6}, {"t": 1.0, "dur": 0.24792, "note": 80, "vel": 80, "track": 2}, {"t": 1.0, "dur": 0.24792, "note": 92, "vel": 77, "track": 3}]}, {"id": 64, "measures": "m87", "meter": [5, 16], "length_ticks": 600, "length_beats": 1.25, "notes": [{"t": 0.0, "dur": 0.24792, "note": 61, "vel": 67, "track": 7}, {"t": 0.0, "dur": 0.99792, "note": 61, "vel": 69, "track": 9}, {"t": 0.0, "dur": 0.24792, "note": 68, "vel": 58, "track": 2}, {"t": 0.0, "dur": 0.49792, "note": 80, "vel": 57, "track": 3}, {"t": 0.0, "dur": 0.24792, "note": 82, "vel": 86, "track": 6}, {"t": 0.0, "dur": 0.24792, "note": 94, "vel": 41, "track": 4}, {"t": 0.0, "dur": 0.74792, "note": 94, "vel": 85, "track": 0}, {"t": 0.25, "dur": 0.24792, "note": 68, "vel": 54, "track": 6}, {"t": 0.25, "dur": 0.24792, "note": 68, "vel": 86, "track": 7}, {"t": 0.25, "dur": 0.24792, "note": 73, "vel": 81, "track": 2}, {"t": 0.5, "dur": 0.24792, "note": 73, "vel": 81, "track": 6}, {"t": 0.5, "dur": 0.74792, "note": 76, "vel": 70, "track": 7}, {"t": 0.5, "dur": 0.24792, "note": 82, "vel": 94, "track": 2}, {"t": 0.5, "dur": 0.49792, "note": 94, "vel": 93, "track": 3}, {"t": 0.75, "dur": 0.24792, "note": 73, "vel": 63, "track": 2}, {"t": 0.75, "dur": 0.24792, "note": 73, "vel": 68, "track": 7}, {"t": 0.75, "dur": 0.24792, "note": 80, "vel": 93, "track": 6}, {"t": 0.75, "dur": 0.49792, "note": 80, "vel": 68, "track": 5}, {"t": 0.75, "dur": 0.49792, "note": 85, "vel": 68, "track": 5}, {"t": 0.75, "dur": 0.49792, "note": 92, "vel": 38, "track": 4}, {"t": 0.75, "dur": 0.49792, "note": 92, "vel": 70, "track": 0}, {"t": 1.0, "dur": 0.24792, "note": 68, "vel": 61, "track": 7}, {"t": 1.0, "dur": 0.24792, "note": 73, "vel": 62, "track": 6}, {"t": 1.0, "dur": 0.24792, "note": 80, "vel": 88, "track": 2}, {"t": 1.0, "dur": 0.24792, "note": 92, "vel": 75, "track": 3}]}, {"id": 65, "measures": "m88", "meter": [5, 16], "length_ticks": 600, "length_beats": 1.25, "notes": [{"t": 0.0, "dur": 0.24792, "note": 62, "vel": 62, "track": 7}, {"t": 0.0, "dur": 0.99792, "note": 62, "vel": 71, "track": 9}, {"t": 0.0, "dur": 0.24792, "note": 70, "vel": 63, "track": 2}, {"t": 0.0, "dur": 0.24792, "note": 82, "vel": 90, "track": 6}, {"t": 0.0, "dur": 0.49792, "note": 82, "vel": 57, "track": 3}, {"t": 0.0, "dur": 0.24792, "note": 94, "vel": 47, "track": 4}, {"t": 0.0, "dur": 0.74792, "note": 94, "vel": 74, "track": 0}, {"t": 0.25, "dur": 0.24792, "note": 68, "vel": 84, "track": 7}, {"t": 0.25, "dur": 0.24792, "note": 70, "vel": 56, "track": 6}, {"t": 0.25, "dur": 0.24792, "note": 77, "vel": 83, "track": 2}, {"t": 0.5, "dur": 0.24792, "note": 77, "vel": 83, "track": 6}, {"t": 0.5, "dur": 0.74792, "note": 77, "vel": 72, "track": 7}, {"t": 0.5, "dur": 0.24792, "note": 82, "vel": 86, "track": 2}, {"t": 0.5, "dur": 0.49792, "note": 94, "vel": 96, "track": 3}, {"t": 0.75, "dur": 0.24792, "note": 70, "vel": 69, "track": 7}, {"t": 0.75, "dur": 0.24792, "note": 77, "vel": 72, "track": 2}, {"t": 0.75, "dur": 0.24792, "note": 80, "vel": 86, "track": 6}, {"t": 0.75, "dur": 0.49792, "note": 82, "vel": 69, "track": 5}, {"t": 0.75, "dur": 0.49792, "note": 89, "vel": 69, "track": 5}, {"t": 0.75, "dur": 0.49792, "note": 92, "vel": 35, "track": 4}, {"t": 0.75, "dur": 0.49792, "note": 92, "vel": 73, "track": 0}, {"t": 1.0, "dur": 0.24792, "note": 68, "vel": 73, "track": 7}, {"t": 1.0, "dur": 0.24792, "note": 77, "vel": 71, "track": 6}, {"t": 1.0, "dur": 0.24792, "note": 80, "vel": 82, "track": 2}, {"t": 1.0, "dur": 0.24792, "note": 92, "vel": 72, "track": 3}]}, {"id": 66, "measures": "m89", "meter": [5, 16], "length_ticks": 600, "length_beats": 1.25, "notes": [{"t": 0.0, "dur": 0.24792, "note": 63, "vel": 70, "track": 7}, {"t": 0.0, "dur": 0.99792, "note": 63, "vel": 71, "track": 9}, {"t": 0.0, "dur": 0.24792, "note": 70, "vel": 61, "track": 2}, {"t": 0.0, "dur": 0.24792, "note": 82, "vel": 89, "track": 6}, {"t": 0.0, "dur": 0.49792, "note": 82, "vel": 60, "track": 3}, {"t": 0.0, "dur": 0.24792, "note": 94, "vel": 41, "track": 4}, {"t": 0.0, "dur": 0.74792, "note": 94, "vel": 78, "track": 0}, {"t": 0.25, "dur": 0.24792, "note": 70, "vel": 60, "track": 6}, {"t": 0.25, "dur": 0.24792, "note": 70, "vel": 86, "track": 7}, {"t": 0.25, "dur": 0.24792, "note": 75, "vel": 83, "track": 2}, {"t": 0.5, "dur": 0.24792, "note": 75, "vel": 84, "track": 6}, {"t": 0.5, "dur": 0.74792, "note": 78, "vel": 70, "track": 7}, {"t": 0.5, "dur": 0.24792, "note": 82, "vel": 89, "track": 2}, {"t": 0.5, "dur": 0.49792, "note": 94, "vel": 94, "track": 3}, {"t": 0.75, "dur": 0.24792, "note": 75, "vel": 64, "track": 2}, {"t": 0.75, "dur": 0.24792, "note": 75, "vel": 70, "track": 7}, {"t": 0.75, "dur": 0.24792, "note": 80, "vel": 86, "track": 6}, {"t": 0.75, "dur": 0.49792, "note": 82, "vel": 66, "track": 5}, {"t": 0.75, "dur": 0.49792, "note": 87, "vel": 66, "track": 5}, {"t": 0.75, "dur": 0.49792, "note": 92, "vel": 36, "track": 4}, {"t": 0.75, "dur": 0.49792, "note": 92, "vel": 70, "track": 0}, {"t": 1.0, "dur": 0.24792, "note": 70, "vel": 65, "track": 7}, {"t": 1.0, "dur": 0.24792, "note": 75, "vel": 64, "track": 6}, {"t": 1.0, "dur": 0.24792, "note": 80, "vel": 87, "track": 2}, {"t": 1.0, "dur": 0.24792, "note": 92, "vel": 73, "track": 3}]}, {"id": 67, "measures": "m90", "meter": [5, 16], "length_ticks": 600, "length_beats": 1.25, "notes": [{"t": 0.0, "dur": 0.24792, "note": 61, "vel": 64, "track": 7}, {"t": 0.0, "dur": 0.99792, "note": 61, "vel": 67, "track": 9}, {"t": 0.0, "dur": 0.24792, "note": 70, "vel": 63, "track": 2}, {"t": 0.0, "dur": 0.24792, "note": 82, "vel": 92, "track": 6}, {"t": 0.0, "dur": 0.49792, "note": 82, "vel": 54, "track": 3}, {"t": 0.0, "dur": 0.24792, "note": 94, "vel": 39, "track": 4}, {"t": 0.0, "dur": 0.74792, "note": 94, "vel": 82, "track": 0}, {"t": 0.25, "dur": 0.24792, "note": 70, "vel": 58, "track": 6}, {"t": 0.25, "dur": 0.24792, "note": 70, "vel": 94, "track": 7}, {"t": 0.25, "dur": 0.24792, "note": 75, "vel": 85, "track": 2}, {"t": 0.5, "dur": 0.24792, "note": 75, "vel": 81, "track": 6}, {"t": 0.5, "dur": 0.74792, "note": 78, "vel": 72, "track": 7}, {"t": 0.5, "dur": 0.24792, "note": 82, "vel": 88, "track": 2}, {"t": 0.5, "dur": 0.49792, "note": 94, "vel": 97, "track": 3}, {"t": 0.75, "dur": 0.24792, "note": 75, "vel": 63, "track": 2}, {"t": 0.75, "dur": 0.24792, "note": 75, "vel": 73, "track": 7}, {"t": 0.75, "dur": 0.24792, "note": 80, "vel": 91, "track": 6}, {"t": 0.75, "dur": 0.49792, "note": 82, "vel": 68, "track": 5}, {"t": 0.75, "dur": 0.49792, "note": 87, "vel": 68, "track": 5}, {"t": 0.75, "dur": 0.49792, "note": 92, "vel": 32, "track": 4}, {"t": 0.75, "dur": 0.49792, "note": 92, "vel": 71, "track": 0}, {"t": 1.0, "dur": 0.24792, "note": 70, "vel": 66, "track": 7}, {"t": 1.0, "dur": 0.24792, "note": 75, "vel": 66, "track": 6}, {"t": 1.0, "dur": 0.24792, "note": 80, "vel": 82, "track": 2}, {"t": 1.0, "dur": 0.24792, "note": 92, "vel": 70, "track": 3}]}, {"id": 68, "measures": "m91", "meter": [5, 16], "length_ticks": 600, "length_beats": 1.25, "notes": [{"t": 0.0, "dur": 0.24792, "note": 60, "vel": 56, "track": 7}, {"t": 0.0, "dur": 0.99792, "note": 60, "vel": 66, "track": 9}, {"t": 0.0, "dur": 0.24792, "note": 68, "vel": 60, "track": 2}, {"t": 0.0, "dur": 0.49792, "note": 80, "vel": 58, "track": 3}, {"t": 0.0, "dur": 0.24792, "note": 82, "vel": 87, "track": 6}, {"t": 0.0, "dur": 0.24792, "note": 94, "vel": 38, "track": 4}, {"t": 0.0, "dur": 0.74792, "note": 94, "vel": 80, "track": 0}, {"t": 0.25, "dur": 0.24792, "note": 63, "vel": 77, "track": 7}, {"t": 0.25, "dur": 0.24792, "note": 68, "vel": 57, "track": 6}, {"t": 0.25, "dur": 0.24792, "note": 75, "vel": 90, "track": 2}, {"t": 0.5, "dur": 0.24792, "note": 75, "vel": 85, "track": 6}, {"t": 0.5, "dur": 0.74792, "note": 75, "vel": 64, "track": 7}, {"t": 0.5, "dur": 0.24792, "note": 82, "vel": 93, "track": 2}, {"t": 0.5, "dur": 0.49792, "note": 94, "vel": 95, "track": 3}, {"t": 0.75, "dur": 0.24792, "note": 68, "vel": 72, "track": 7}, {"t": 0.75, "dur": 0.24792, "note": 75, "vel": 68, "track": 2}, {"t": 0.75, "dur": 0.24792, "note": 80, "vel": 90, "track": 6}, {"t": 0.75, "dur": 0.49792, "note": 80, "vel": 70, "track": 5}, {"t": 0.75, "dur": 0.49792, "note": 87, "vel": 70, "track": 5}, {"t": 0.75, "dur": 0.49792, "note": 92, "vel": 37, "track": 4}, {"t": 0.75, "dur": 0.49792, "note": 92, "vel": 70, "track": 0}, {"t": 1.0, "dur": 0.24792, "note": 63, "vel": 57, "track": 7}, {"t": 1.0, "dur": 0.24792, "note": 75, "vel": 69, "track": 6}, {"t": 1.0, "dur": 0.24792, "note": 80, "vel": 86, "track": 2}, {"t": 1.0, "dur": 0.24792, "note": 92, "vel": 79, "track": 3}]}, {"id": 69, "measures": "m92", "meter": [5, 16], "length_ticks": 600, "length_beats": 1.25, "notes": [{"t": 0.0, "dur": 0.24792, "note": 59, "vel": 71, "track": 7}, {"t": 0.0, "dur": 0.99792, "note": 59, "vel": 67, "track": 9}, {"t": 0.0, "dur": 0.24792, "note": 68, "vel": 52, "track": 2}, {"t": 0.0, "dur": 0.49792, "note": 80, "vel": 52, "track": 3}, {"t": 0.0, "dur": 0.24792, "note": 82, "vel": 89, "track": 6}, {"t": 0.0, "dur": 0.24792, "note": 94, "vel": 39, "track": 4}, {"t": 0.0, "dur": 0.74792, "note": 94, "vel": 82, "track": 0}, {"t": 0.25, "dur": 0.24792, "note": 65, "vel": 90, "track": 7}, {"t": 0.25, "dur": 0.24792, "note": 68, "vel": 56, "track": 6}, {"t": 0.25, "dur": 0.24792, "note": 73, "vel": 82, "track": 2}, {"t": 0.5, "dur": 0.24792, "note": 73, "vel": 78, "track": 6}, {"t": 0.5, "dur": 0.74792, "note": 73, "vel": 64, "track": 7}, {"t": 0.5, "dur": 0.24792, "note": 82, "vel": 93, "track": 2}, {"t": 0.5, "dur": 0.49792, "note": 94, "vel": 91, "track": 3}, {"t": 0.75, "dur": 0.24792, "note": 68, "vel": 68, "track": 7}, {"t": 0.75, "dur": 0.24792, "note": 73, "vel": 63, "track": 2}, {"t": 0.75, "dur": 0.24792, "note": 80, "vel": 88, "track": 6}, {"t": 0.75, "dur": 0.49792, "note": 80, "vel": 72, "track": 5}, {"t": 0.75, "dur": 0.49792, "note": 85, "vel": 72, "track": 5}, {"t": 0.75, "dur": 0.49792, "note": 92, "vel": 36, "track": 4}, {"t": 0.75, "dur": 0.49792, "note": 92, "vel": 74, "track": 0}, {"t": 1.0, "dur": 0.24792, "note": 65, "vel": 71, "track": 7}, {"t": 1.0, "dur": 0.24792, "note": 73, "vel": 65, "track": 6}, {"t": 1.0, "dur": 0.24792, "note": 80, "vel": 85, "track": 2}, {"t": 1.0, "dur": 0.24792, "note": 92, "vel": 70, "track": 3}]}, {"id": 70, "measures": "m93", "meter": [5, 16], "length_ticks": 600, "length_beats": 1.25, "notes": [{"t": 0.0, "dur": 0.24792, "note": 58, "vel": 71, "track": 7}, {"t": 0.0, "dur": 0.99792, "note": 58, "vel": 70, "track": 9}, {"t": 0.0, "dur": 0.24792, "note": 66, "vel": 55, "track": 2}, {"t": 0.0, "dur": 0.49792, "note": 78, "vel": 57, "track": 3}, {"t": 0.0, "dur": 0.24792, "note": 82, "vel": 89, "track": 6}, {"t": 0.0, "dur": 0.24792, "note": 94, "vel": 36, "track": 4}, {"t": 0.0, "dur": 0.74792, "note": 94, "vel": 83, "track": 0}, {"t": 0.25, "dur": 0.24792, "note": 61, "vel": 83, "track": 7}, {"t": 0.25, "dur": 0.24792, "note": 66, "vel": 62, "track": 6}, {"t": 0.25, "dur": 0.24792, "note": 73, "vel": 84, "track": 2}, {"t": 0.5, "dur": 0.24792, "note": 73, "vel": 85, "track": 6}, {"t": 0.5, "dur": 0.74792, "note": 73, "vel": 69, "track": 7}, {"t": 0.5, "dur": 0.24792, "note": 82, "vel": 96, "track": 2}, {"t": 0.5, "dur": 0.49792, "note": 94, "vel": 93, "track": 3}, {"t": 0.75, "dur": 0.24792, "note": 66, "vel": 67, "track": 7}, {"t": 0.75, "dur": 0.24792, "note": 73, "vel": 61, "track": 2}, {"t": 0.75, "dur": 0.49792, "note": 78, "vel": 69, "track": 5}, {"t": 0.75, "dur": 0.24792, "note": 80, "vel": 93, "track": 6}, {"t": 0.75, "dur": 0.49792, "note": 85, "vel": 69, "track": 5}, {"t": 0.75, "dur": 0.49792, "note": 92, "vel": 34, "track": 4}, {"t": 0.75, "dur": 0.49792, "note": 92, "vel": 71, "track": 0}, {"t": 1.0, "dur": 0.24792, "note": 61, "vel": 66, "track": 7}, {"t": 1.0, "dur": 0.24792, "note": 73, "vel": 63, "track": 6}, {"t": 1.0, "dur": 0.24792, "note": 80, "vel": 88, "track": 2}, {"t": 1.0, "dur": 0.24792, "note": 92, "vel": 71, "track": 3}]}, {"id": 71, "measures": "m94", "meter": [5, 16], "length_ticks": 600, "length_beats": 1.25, "notes": [{"t": 0.0, "dur": 0.24792, "note": 56, "vel": 66, "track": 7}, {"t": 0.0, "dur": 0.99792, "note": 56, "vel": 74, "track": 9}, {"t": 0.0, "dur": 0.24792, "note": 71, "vel": 60, "track": 2}, {"t": 0.0, "dur": 0.24792, "note": 82, "vel": 90, "track": 6}, {"t": 0.0, "dur": 0.49792, "note": 83, "vel": 60, "track": 3}, {"t": 0.0, "dur": 0.24792, "note": 94, "vel": 44, "track": 4}, {"t": 0.0, "dur": 0.74792, "note": 94, "vel": 80, "track": 0}, {"t": 0.25, "dur": 0.24792, "note": 61, "vel": 90, "track": 7}, {"t": 0.25, "dur": 0.24792, "note": 71, "vel": 61, "track": 6}, {"t": 0.25, "dur": 0.24792, "note": 77, "vel": 92, "track": 2}, {"t": 0.5, "dur": 0.74792, "note": 71, "vel": 68, "track": 7}, {"t": 0.5, "dur": 0.24792, "note": 77, "vel": 86, "track": 6}, {"t": 0.5, "dur": 0.24792, "note": 82, "vel": 81, "track": 2}, {"t": 0.5, "dur": 0.49792, "note": 94, "vel": 96, "track": 3}, {"t": 0.75, "dur": 0.24792, "note": 65, "vel": 65, "track": 7}, {"t": 0.75, "dur": 0.24792, "note": 77, "vel": 65, "track": 2}, {"t": 0.75, "dur": 0.24792, "note": 80, "vel": 84, "track": 6}, {"t": 0.75, "dur": 0.49792, "note": 83, "vel": 72, "track": 5}, {"t": 0.75, "dur": 0.49792, "note": 89, "vel": 72, "track": 5}, {"t": 0.75, "dur": 0.49792, "note": 92, "vel": 39, "track": 4}, {"t": 0.75, "dur": 0.49792, "note": 92, "vel": 73, "track": 0}, {"t": 1.0, "dur": 0.24792, "note": 61, "vel": 62, "track": 7}, {"t": 1.0, "dur": 0.24792, "note": 77, "vel": 70, "track": 6}, {"t": 1.0, "dur": 0.24792, "note": 80, "vel": 85, "track": 2}, {"t": 1.0, "dur": 0.24792, "note": 92, "vel": 73, "track": 3}]}, {"id": 72, "measures": "m95-96", "meter": [5, 16], "length_ticks": 1200, "length_beats": 2.5, "notes": [{"t": 0.0, "dur": 0.24792, "note": 42, "vel": 64, "track": 7}, {"t": 0.0, "dur": 0.99792, "note": 42, "vel": 66, "track": 9}, {"t": 0.0, "dur": 0.24792, "note": 61, "vel": 58, "track": 2}, {"t": 0.0, "dur": 0.49792, "note": 61, "vel": 49, "track": 3}, {"t": 0.0, "dur": 0.24792, "note": 70, "vel": 65, "track": 6}, {"t": 0.0, "dur": 0.74792, "note": 70, "vel": 60, "track": 0}, {"t": 0.25, "dur": 0.24792, "note": 49, "vel": 84, "track": 7}, {"t": 0.25, "dur": 0.24792, "note": 61, "vel": 53, "track": 6}, {"t": 0.25, "dur": 0.24792, "note": 66, "vel": 86, "track": 2}, {"t": 0.5, "dur": 0.74792, "note": 58, "vel": 71, "track": 7}, {"t": 0.5, "dur": 0.24792, "note": 66, "vel": 81, "track": 6}, {"t": 0.5, "dur": 0.24792, "note": 68, "vel": 82, "track": 2}, {"t": 0.5, "dur": 0.49792, "note": 68, "vel": 82, "track": 3}, {"t": 0.75, "dur": 0.24792, "note": 54, "vel": 73, "track": 7}, {"t": 0.75, "dur": 0.49792, "note": 61, "vel": 70, "track": 5}, {"t": 0.75, "dur": 0.24792, "note": 66, "vel": 74, "track": 2}, {"t": 0.75, "dur": 0.49792, "note": 66, "vel": 70, "track": 5}, {"t": 0.75, "dur": 0.24792, "note": 68, "vel": 80, "track": 6}, {"t": 0.75, "dur": 0.49792, "note": 68, "vel": 35, "track": 4}, {"t": 0.75, "dur": 0.49792, "note": 68, "vel": 70, "track": 0}, {"t": 1.0, "dur": 0.24792, "note": 49, "vel": 68, "track": 7}, {"t": 1.0, "dur": 0.24792, "note": 66, "vel": 71, "track": 6}, {"t": 1.0, "dur": 0.24792, "note": 70, "vel": 86, "track": 3}, {"t": 1.0, "dur": 0.24792, "note": 70, "vel": 88, "track": 2}, {"t": 1.25, "dur": 0.24792, "note": 42, "vel": 68, "track": 7}, {"t": 1.25, "dur": 0.99792, "note": 42, "vel": 68, "track": 9}, {"t": 1.25, "dur": 0.24792, "note": 61, "vel": 60, "track": 2}, {"t": 1.25, "dur": 0.49792, "note": 61, "vel": 67, "track": 3}, {"t": 1.25, "dur": 0.24792, "note": 70, "vel": 38, "track": 4}, {"t": 1.25, "dur": 0.24792, "note": 70, "vel": 86, "track": 6}, {"t": 1.25, "dur": 0.74792, "note": 70, "vel": 84, "track": 0}, {"t": 1.5, "dur": 0.24792, "note": 49, "vel": 78, "track": 7}, {"t": 1.5, "dur": 0.24792, "note": 61, "vel": 60, "track": 6}, {"t": 1.5, "dur": 0.24792, "note": 66, "vel": 85, "track": 2}, {"t": 1.75, "dur": 0.74792, "note": 58, "vel": 69, "track": 7}, {"t": 1.75, "dur": 0.24792, "note": 66, "vel": 83, "track": 6}, {"t": 1.75, "dur": 0.24792, "note": 68, "vel": 80, "track": 2}, {"t": 1.75, "dur": 0.49792, "note": 68, "vel": 84, "track": 3}, {"t": 2.0, "dur": 0.24792, "note": 54, "vel": 75, "track": 7}, {"t": 2.0, "dur": 0.49792, "note": 61, "vel": 70, "track": 5}, {"t": 2.0, "dur": 0.24792, "note": 66, "vel": 69, "track": 2}, {"t": 2.0, "dur": 0.49792, "note": 66, "vel": 70, "track": 5}, {"t": 2.0, "dur": 0.24792, "note": 68, "vel": 81, "track": 6}, {"t": 2.0, "dur": 0.49792, "note": 68, "vel": 33, "track": 4}, {"t": 2.0, "dur": 0.49792, "note": 68, "vel": 72, "track": 0}, {"t": 2.25, "dur": 0.24792, "note": 49, "vel": 68, "track": 7}, {"t": 2.25, "dur": 0.24792, "note": 66, "vel": 80, "track": 6}, {"t": 2.25, "dur": 0.24792, "note": 70, "vel": 82, "track": 3}, {"t": 2.25, "dur": 0.24792, "note": 70, "vel": 86, "track": 2}]}, {"id": 73, "measures": "m97", "meter": [5, 16], "length_ticks": 600, "length_beats": 1.25, "notes": [{"t": 0.0, "dur": 0.24792, "note": 40, "vel": 67, "track": 7}, {"t": 0.0, "dur": 0.99792, "note": 40, "vel": 74, "track": 9}, {"t": 0.0, "dur": 0.24792, "note": 59, "vel": 68, "track": 2}, {"t": 0.0, "dur": 0.49792, "note": 59, "vel": 62, "track": 3}, {"t": 0.0, "dur": 0.24792, "note": 70, "vel": 40, "track": 4}, {"t": 0.0, "dur": 0.24792, "note": 70, "vel": 84, "track": 6}, {"t": 0.0, "dur": 0.74792, "note": 70, "vel": 78, "track": 0}, {"t": 0.25, "dur": 0.24792, "note": 47, "vel": 80, "track": 7}, {"t": 0.25, "dur": 0.24792, "note": 59, "vel": 75, "track": 6}, {"t": 0.25, "dur": 0.24792, "note": 64, "vel": 91, "track": 2}, {"t": 0.5, "dur": 0.74792, "note": 56, "vel": 70, "track": 7}, {"t": 0.5, "dur": 0.24792, "note": 64, "vel": 89, "track": 6}, {"t": 0.5, "dur": 0.24792, "note": 68, "vel": 85, "track": 2}, {"t": 0.5, "dur": 0.49792, "note": 68, "vel": 92, "track": 3}, {"t": 0.75, "dur": 0.24792, "note": 52, "vel": 76, "track": 7}, {"t": 0.75, "dur": 0.49792, "note": 59, "vel": 73, "track": 5}, {"t": 0.75, "dur": 0.49792, "note": 64, "vel": 73, "track": 5}, {"t": 0.75, "dur": 0.24792, "note": 66, "vel": 76, "track": 2}, {"t": 0.75, "dur": 0.24792, "note": 68, "vel": 87, "track": 6}, {"t": 0.75, "dur": 0.49792, "note": 68, "vel": 36, "track": 4}, {"t": 0.75, "dur": 0.49792, "note": 68, "vel": 74, "track": 0}, {"t": 1.0, "dur": 0.24792, "note": 47, "vel": 72, "track": 7}, {"t": 1.0, "dur": 0.24792, "note": 64, "vel": 67, "track": 6}, {"t": 1.0, "dur": 0.24792, "note": 70, "vel": 81, "track": 3}, {"t": 1.0, "dur": 0.24792, "note": 70, "vel": 86, "track": 2}]}, {"id": 74, "measures": "m98", "meter": [5, 16], "length_ticks": 600, "length_beats": 1.25, "notes": [{"t": 0.0, "dur": 0.24792, "note": 39, "vel": 65, "track": 7}, {"t": 0.0, "dur": 0.99792, "note": 39, "vel": 67, "track": 9}, {"t": 0.0, "dur": 0.24792, "note": 58, "vel": 66, "track": 2}, {"t": 0.0, "dur": 0.49792, "note": 58, "vel": 65, "track": 3}, {"t": 0.0, "dur": 0.24792, "note": 70, "vel": 41, "track": 4}, {"t": 0.0, "dur": 0.24792, "note": 70, "vel": 89, "track": 6}, {"t": 0.0, "dur": 0.74792, "note": 70, "vel": 79, "track": 0}, {"t": 0.25, "dur": 0.24792, "note": 46, "vel": 83, "track": 7}, {"t": 0.25, "dur": 0.24792, "note": 58, "vel": 62, "track": 6}, {"t": 0.25, "dur": 0.24792, "note": 63, "vel": 81, "track": 2}, {"t": 0.5, "dur": 0.74792, "note": 55, "vel": 67, "track": 7}, {"t": 0.5, "dur": 0.24792, "note": 63, "vel": 84, "track": 6}, {"t": 0.5, "dur": 0.24792, "note": 68, "vel": 89, "track": 2}, {"t": 0.5, "dur": 0.49792, "note": 68, "vel": 95, "track": 3}, {"t": 0.75, "dur": 0.24792, "note": 51, "vel": 76, "track": 7}, {"t": 0.75, "dur": 0.49792, "note": 58, "vel": 72, "track": 5}, {"t": 0.75, "dur": 0.24792, "note": 63, "vel": 64, "track": 2}, {"t": 0.75, "dur": 0.49792, "note": 63, "vel": 72, "track": 5}, {"t": 0.75, "dur": 0.24792, "note": 68, "vel": 88, "track": 6}, {"t": 0.75, "dur": 0.49792, "note": 68, "vel": 35, "track": 4}, {"t": 0.75, "dur": 0.49792, "note": 68, "vel": 74, "track": 0}, {"t": 1.0, "dur": 0.24792, "note": 46, "vel": 74, "track": 7}, {"t": 1.0, "dur": 0.24792, "note": 63, "vel": 69, "track": 6}, {"t": 1.0, "dur": 0.24792, "note": 70, "vel": 85, "track": 3}, {"t": 1.0, "dur": 0.24792, "note": 70, "vel": 89, "track": 2}]}, {"id": 75, "measures": "m99", "meter": [5, 16], "length_ticks": 600, "length_beats": 1.25, "notes": [{"t": 0.0, "dur": 0.24792, "note": 44, "vel": 73, "track": 7}, {"t": 0.0, "dur": 0.99792, "note": 44, "vel": 69, "track": 9}, {"t": 0.0, "dur": 0.24792, "note": 59, "vel": 70, "track": 2}, {"t": 0.0, "dur": 0.49792, "note": 59, "vel": 70, "track": 3}, {"t": 0.0, "dur": 0.24792, "note": 70, "vel": 45, "track": 4}, {"t": 0.0, "dur": 0.24792, "note": 70, "vel": 93, "track": 6}, {"t": 0.0, "dur": 0.74792, "note": 70, "vel": 82, "track": 0}, {"t": 0.25, "dur": 0.24792, "note": 51, "vel": 89, "track": 7}, {"t": 0.25, "dur": 0.24792, "note": 59, "vel": 71, "track": 6}, {"t": 0.25, "dur": 0.24792, "note": 63, "vel": 85, "track": 2}, {"t": 0.5, "dur": 0.74792, "note": 59, "vel": 69, "track": 7}, {"t": 0.5, "dur": 0.24792, "note": 63, "vel": 80, "track": 6}, {"t": 0.5, "dur": 0.24792, "note": 68, "vel": 88, "track": 2}, {"t": 0.5, "dur": 0.49792, "note": 68, "vel": 93, "track": 3}, {"t": 0.75, "dur": 0.24792, "note": 56, "vel": 74, "track": 7}, {"t": 0.75, "dur": 0.24792, "note": 63, "vel": 68, "track": 2}, {"t": 0.75, "dur": 0.49792, "note": 63, "vel": 67, "track": 5}, {"t": 0.75, "dur": 0.24792, "note": 68, "vel": 83, "track": 6}, {"t": 0.75, "dur": 0.49792, "note": 68, "vel": 31, "track": 4}, {"t": 0.75, "dur": 0.49792, "note": 68, "vel": 78, "track": 0}, {"t": 1.0, "dur": 0.24792, "note": 51, "vel": 76, "track": 7}, {"t": 1.0, "dur": 0.24792, "note": 63, "vel": 71, "track": 6}, {"t": 1.0, "dur": 0.24792, "note": 70, "vel": 81, "track": 3}, {"t": 1.0, "dur": 0.24792, "note": 70, "vel": 93, "track": 2}]}, {"id": 76, "measures": "m100", "meter": [5, 16], "length_ticks": 600, "length_beats": 1.25, "notes": [{"t": 0.0, "dur": 0.24792, "note": 44, "vel": 66, "track": 7}, {"t": 0.0, "dur": 0.99792, "note": 44, "vel": 68, "track": 9}, {"t": 0.0, "dur": 0.24792, "note": 63, "vel": 65, "track": 2}, {"t": 0.0, "dur": 0.49792, "note": 63, "vel": 66, "track": 3}, {"t": 0.0, "dur": 0.24792, "note": 75, "vel": 47, "track": 4}, {"t": 0.0, "dur": 0.24792, "note": 75, "vel": 102, "track": 6}, {"t": 0.0, "dur": 0.74792, "note": 75, "vel": 88, "track": 0}, {"t": 0.25, "dur": 0.24792, "note": 51, "vel": 84, "track": 7}, {"t": 0.25, "dur": 0.24792, "note": 63, "vel": 55, "track": 6}, {"t": 0.25, "dur": 0.24792, "note": 68, "vel": 83, "track": 2}, {"t": 0.5, "dur": 0.74792, "note": 59, "vel": 68, "track": 7}, {"t": 0.5, "dur": 0.24792, "note": 68, "vel": 81, "track": 6}, {"t": 0.5, "dur": 0.24792, "note": 74, "vel": 91, "track": 2}, {"t": 0.5, "dur": 0.49792, "note": 74, "vel": 93, "track": 3}, {"t": 0.75, "dur": 0.24792, "note": 56, "vel": 75, "track": 7}, {"t": 0.75, "dur": 0.49792, "note": 63, "vel": 62, "track": 5}, {"t": 0.75, "dur": 0.24792, "note": 68, "vel": 65, "track": 2}, {"t": 0.75, "dur": 0.49792, "note": 68, "vel": 62, "track": 5}, {"t": 0.75, "dur": 0.24792, "note": 74, "vel": 86, "track": 6}, {"t": 0.75, "dur": 0.49792, "note": 74, "vel": 30, "track": 4}, {"t": 0.75, "dur": 0.49792, "note": 74, "vel": 76, "track": 0}, {"t": 1.0, "dur": 0.24792, "note": 51, "vel": 67, "track": 7}, {"t": 1.0, "dur": 0.24792, "note": 68, "vel": 65, "track": 6}, {"t": 1.0, "dur": 0.24792, "note": 75, "vel": 85, "track": 3}, {"t": 1.0, "dur": 0.24792, "note": 75, "vel": 89, "track": 2}]}, {"id": 77, "measures": "m101", "meter": [5, 16], "length_ticks": 600, "length_beats": 1.25, "notes": [{"t": 0.0, "dur": 0.24792, "note": 46, "vel": 72, "track": 7}, {"t": 0.0, "dur": 0.99792, "note": 46, "vel": 70, "track": 9}, {"t": 0.0, "dur": 0.24792, "note": 64, "vel": 52, "track": 2}, {"t": 0.0, "dur": 0.49792, "note": 64, "vel": 55, "track": 3}, {"t": 0.0, "dur": 0.24792, "note": 75, "vel": 39, "track": 4}, {"t": 0.0, "dur": 0.24792, "note": 75, "vel": 92, "track": 6}, {"t": 0.0, "dur": 0.74792, "note": 75, "vel": 77, "track": 0}, {"t": 0.25, "dur": 0.24792, "note": 52, "vel": 84, "track": 7}, {"t": 0.25, "dur": 0.24792, "note": 64, "vel": 56, "track": 6}, {"t": 0.25, "dur": 0.24792, "note": 68, "vel": 78, "track": 2}, {"t": 0.5, "dur": 0.74792, "note": 61, "vel": 66, "track": 7}, {"t": 0.5, "dur": 0.24792, "note": 68, "vel": 78, "track": 6}, {"t": 0.5, "dur": 0.24792, "note": 74, "vel": 93, "track": 2}, {"t": 0.5, "dur": 0.49792, "note": 74, "vel": 90, "track": 3}, {"t": 0.75, "dur": 0.24792, "note": 56, "vel": 76, "track": 7}, {"t": 0.75, "dur": 0.49792, "note": 64, "vel": 68, "track": 5}, {"t": 0.75, "dur": 0.24792, "note": 68, "vel": 66, "track": 2}, {"t": 0.75, "dur": 0.49792, "note": 68, "vel": 68, "track": 5}, {"t": 0.75, "dur": 0.24792, "note": 74, "vel": 89, "track": 6}, {"t": 0.75, "dur": 0.49792, "note": 74, "vel": 37, "track": 4}, {"t": 0.75, "dur": 0.49792, "note": 74, "vel": 74, "track": 0}, {"t": 1.0, "dur": 0.24792, "note": 52, "vel": 77, "track": 7}, {"t": 1.0, "dur": 0.24792, "note": 68, "vel": 65, "track": 6}, {"t": 1.0, "dur": 0.24792, "note": 75, "vel": 85, "track": 3}, {"t": 1.0, "dur": 0.24792, "note": 75, "vel": 88, "track": 2}]}, {"id": 78, "measures": "m102", "meter": [5, 16], "length_ticks": 600, "length_beats": 1.25, "notes": [{"t": 0.0, "dur": 0.24792, "note": 47, "vel": 71, "track": 7}, {"t": 0.0, "dur": 0.99792, "note": 47, "vel": 71, "track": 9}, {"t": 0.0, "dur": 0.24792, "note": 63, "vel": 56, "track": 2}, {"t": 0.0, "dur": 0.49792, "note": 63, "vel": 54, "track": 3}, {"t": 0.0, "dur": 0.24792, "note": 75, "vel": 42, "track": 4}, {"t": 0.0, "dur": 0.24792, "note": 75, "vel": 89, "track": 6}, {"t": 0.0, "dur": 0.74792, "note": 75, "vel": 78, "track": 0}, {"t": 0.25, "dur": 0.24792, "note": 51, "vel": 78, "track": 7}, {"t": 0.25, "dur": 0.24792, "note": 63, "vel": 56, "track": 6}, {"t": 0.25, "dur": 0.24792, "note": 68, "vel": 86, "track": 2}, {"t": 0.5, "dur": 0.74792, "note": 63, "vel": 66, "track": 7}, {"t": 0.5, "dur": 0.24792, "note": 68, "vel": 85, "track": 6}, {"t": 0.5, "dur": 0.24792, "note": 74, "vel": 88, "track": 2}, {"t": 0.5, "dur": 0.49792, "note": 74, "vel": 91, "track": 3}, {"t": 0.75, "dur": 0.24792, "note": 56, "vel": 75, "track": 7}, {"t": 0.75, "dur": 0.24792, "note": 68, "vel": 67, "track": 2}, {"t": 0.75, "dur": 0.49792, "note": 68, "vel": 68, "track": 5}, {"t": 0.75, "dur": 0.24792, "note": 74, "vel": 90, "track": 6}, {"t": 0.75, "dur": 0.49792, "note": 74, "vel": 33, "track": 4}, {"t": 0.75, "dur": 0.49792, "note": 74, "vel": 76, "track": 0}, {"t": 1.0, "dur": 0.24792, "note": 51, "vel": 73, "track": 7}, {"t": 1.0, "dur": 0.24792, "note": 68, "vel": 65, "track": 6}, {"t": 1.0, "dur": 0.24792, "note": 75, "vel": 84, "track": 3}, {"t": 1.0, "dur": 0.24792, "note": 75, "vel": 90, "track": 2}]}, {"id": 79, "measures": "m103", "meter": [5, 16], "length_ticks": 600, "length_beats": 1.25, "notes": [{"t": 0.0, "dur": 0.24792, "note": 49, "vel": 76, "track": 7}, {"t": 0.0, "dur": 0.99792, "note": 49, "vel": 74, "track": 9}, {"t": 0.0, "dur": 0.24792, "note": 64, "vel": 60, "track": 2}, {"t": 0.0, "dur": 0.49792, "note": 64, "vel": 57, "track": 3}, {"t": 0.0, "dur": 0.24792, "note": 75, "vel": 44, "track": 4}, {"t": 0.0, "dur": 0.24792, "note": 75, "vel": 90, "track": 6}, {"t": 0.0, "dur": 0.74792, "note": 75, "vel": 79, "track": 0}, {"t": 0.25, "dur": 0.24792, "note": 56, "vel": 84, "track": 7}, {"t": 0.25, "dur": 0.24792, "note": 64, "vel": 58, "track": 6}, {"t": 0.25, "dur": 0.24792, "note": 68, "vel": 84, "track": 2}, {"t": 0.5, "dur": 0.74792, "note": 64, "vel": 71, "track": 7}, {"t": 0.5, "dur": 0.24792, "note": 68, "vel": 82, "track": 6}, {"t": 0.5, "dur": 0.24792, "note": 74, "vel": 87, "track": 2}, {"t": 0.5, "dur": 0.49792, "note": 74, "vel": 91, "track": 3}, {"t": 0.75, "dur": 0.24792, "note": 61, "vel": 71, "track": 7}, {"t": 0.75, "dur": 0.24792, "note": 68, "vel": 68, "track": 2}, {"t": 0.75, "dur": 0.49792, "note": 68, "vel": 73, "track": 5}, {"t": 0.75, "dur": 0.24792, "note": 74, "vel": 89, "track": 6}, {"t": 0.75, "dur": 0.49792, "note": 74, "vel": 31, "track": 4}, {"t": 0.75, "dur": 0.49792, "note": 74, "vel": 72, "track": 0}, {"t": 1.0, "dur": 0.24792, "note": 56, "vel": 71, "track": 7}, {"t": 1.0, "dur": 0.24792, "note": 68, "vel": 68, "track": 6}, {"t": 1.0, "dur": 0.24792, "note": 75, "vel": 79, "track": 3}, {"t": 1.0, "dur": 0.24792, "note": 75, "vel": 91, "track": 2}]}, {"id": 80, "measures": "m104", "meter": [5, 16], "length_ticks": 600, "length_beats": 1.25, "notes": [{"t": 0.0, "dur": 0.24792, "note": 50, "vel": 75, "track": 7}, {"t": 0.0, "dur": 0.99792, "note": 50, "vel": 67, "track": 9}, {"t": 0.0, "dur": 0.24792, "note": 68, "vel": 61, "track": 2}, {"t": 0.0, "dur": 0.49792, "note": 68, "vel": 64, "track": 3}, {"t": 0.0, "dur": 0.24792, "note": 75, "vel": 39, "track": 4}, {"t": 0.0, "dur": 0.24792, "note": 75, "vel": 88, "track": 6}, {"t": 0.0, "dur": 0.74792, "note": 75, "vel": 81, "track": 0}, {"t": 0.25, "dur": 0.24792, "note": 56, "vel": 78, "track": 7}, {"t": 0.25, "dur": 0.24792, "note": 68, "vel": 66, "track": 6}, {"t": 0.25, "dur": 0.24792, "note": 70, "vel": 76, "track": 2}, {"t": 0.5, "dur": 0.74792, "note": 65, "vel": 70, "track": 7}, {"t": 0.5, "dur": 0.24792, "note": 70, "vel": 84, "track": 6}, {"t": 0.5, "dur": 0.24792, "note": 74, "vel": 83, "track": 2}, {"t": 0.5, "dur": 0.49792, "note": 74, "vel": 86, "track": 3}, {"t": 0.75, "dur": 0.24792, "note": 58, "vel": 77, "track": 7}, {"t": 0.75, "dur": 0.49792, "note": 68, "vel": 66, "track": 5}, {"t": 0.75, "dur": 0.24792, "note": 70, "vel": 70, "track": 2}, {"t": 0.75, "dur": 0.49792, "note": 70, "vel": 66, "track": 5}, {"t": 0.75, "dur": 0.24792, "note": 74, "vel": 88, "track": 6}, {"t": 0.75, "dur": 0.49792, "note": 74, "vel": 34, "track": 4}, {"t": 0.75, "dur": 0.49792, "note": 74, "vel": 76, "track": 0}, {"t": 1.0, "dur": 0.24792, "note": 56, "vel": 70, "track": 7}, {"t": 1.0, "dur": 0.24792, "note": 70, "vel": 65, "track": 6}, {"t": 1.0, "dur": 0.24792, "note": 75, "vel": 81, "track": 2}, {"t": 1.0, "dur": 0.24792, "note": 75, "vel": 84, "track": 3}]}, {"id": 81, "measures": "m105-108", "meter": [5, 16], "length_ticks": 2400, "length_beats": 5.0, "notes": [{"t": 0.0, "dur": 0.24792, "note": 51, "vel": 74, "track": 7}, {"t": 0.0, "dur": 0.99792, "note": 51, "vel": 69, "track": 9}, {"t": 0.0, "dur": 0.24792, "note": 66, "vel": 60, "track": 2}, {"t": 0.0, "dur": 0.49792, "note": 66, "vel": 57, "track": 3}, {"t": 0.0, "dur": 0.24792, "note": 75, "vel": 38, "track": 4}, {"t": 0.0, "dur": 0.24792, "note": 75, "vel": 86, "track": 6}, {"t": 0.0, "dur": 0.74792, "note": 75, "vel": 79, "track": 0}, {"t": 0.25, "dur": 0.24792, "note": 58, "vel": 84, "track": 7}, {"t": 0.25, "dur": 0.24792, "note": 66, "vel": 61, "track": 6}, {"t": 0.25, "dur": 0.24792, "note": 70, "vel": 81, "track": 2}, {"t": 0.5, "dur": 0.74792, "note": 66, "vel": 67, "track": 7}, {"t": 0.5, "dur": 0.24792, "note": 70, "vel": 86, "track": 6}, {"t": 0.5, "dur": 0.24792, "note": 74, "vel": 81, "track": 2}, {"t": 0.5, "dur": 0.49792, "note": 74, "vel": 88, "track": 3}, {"t": 0.75, "dur": 0.24792, "note": 63, "vel": 72, "track": 7}, {"t": 0.75, "dur": 0.24792, "note": 70, "vel": 66, "track": 2}, {"t": 0.75, "dur": 0.49792, "note": 70, "vel": 66, "track": 5}, {"t": 0.75, "dur": 0.24792, "note": 74, "vel": 90, "track": 6}, {"t": 0.75, "dur": 0.49792, "note": 74, "vel": 39, "track": 4}, {"t": 0.75, "dur": 0.49792, "note": 74, "vel": 74, "track": 0}, {"t": 1.0, "dur": 0.24792, "note": 58, "vel": 70, "track": 7}, {"t": 1.0, "dur": 0.24792, "note": 70, "vel": 68, "track": 6}, {"t": 1.0, "dur": 0.24792, "note": 75, "vel": 82, "track": 3}, {"t": 1.0, "dur": 0.24792, "note": 75, "vel": 86, "track": 2}, {"t": 1.25, "dur": 0.24792, "note": 49, "vel": 64, "track": 7}, {"t": 1.25, "dur": 0.99792, "note": 49, "vel": 70, "track": 9}, {"t": 1.25, "dur": 0.24792, "note": 68, "vel": 62, "track": 2}, {"t": 1.25, "dur": 0.49792, "note": 68, "vel": 67, "track": 3}, {"t": 1.25, "dur": 0.24792, "note": 75, "vel": 43, "track": 4}, {"t": 1.25, "dur": 0.24792, "note": 75, "vel": 82, "track": 6}, {"t": 1.25, "dur": 0.74792, "note": 75, "vel": 79, "track": 0}, {"t": 1.5, "dur": 0.24792, "note": 56, "vel": 82, "track": 7}, {"t": 1.5, "dur": 0.24792, "note": 68, "vel": 61, "track": 6}, {"t": 1.5, "dur": 0.24792, "note": 73, "vel": 86, "track": 2}, {"t": 1.75, "dur": 0.74792, "note": 65, "vel": 71, "track": 7}, {"t": 1.75, "dur": 0.24792, "note": 73, "vel": 84, "track": 6}, {"t": 1.75, "dur": 0.24792, "note": 74, "vel": 81, "track": 2}, {"t": 1.75, "dur": 0.49792, "note": 74, "vel": 82, "track": 3}, {"t": 2.0, "dur": 0.24792, "note": 61, "vel": 72, "track": 7}, {"t": 2.0, "dur": 0.49792, "note": 68, "vel": 68, "track": 5}, {"t": 2.0, "dur": 0.24792, "note": 73, "vel": 73, "track": 2}, {"t": 2.0, "dur": 0.49792, "note": 73, "vel": 68, "track": 5}, {"t": 2.0, "dur": 0.24792, "note": 74, "vel": 78, "track": 6}, {"t": 2.0, "dur": 0.49792, "note": 74, "vel": 36, "track": 4}, {"t": 2.0, "dur": 0.49792, "note": 74, "vel": 75, "track": 0}, {"t": 2.25, "dur": 0.24792, "note": 56, "vel": 70, "track": 7}, {"t": 2.25, "dur": 0.24792, "note": 73, "vel": 72, "track": 6}, {"t": 2.25, "dur": 0.24792, "note": 75, "vel": 82, "track": 3}, {"t": 2.25, "dur": 0.24792, "note": 75, "vel": 88, "track": 2}, {"t": 2.5, "dur": 0.24792, "note": 47, "vel": 66, "track": 7}, {"t": 2.5, "dur": 0.99792, "note": 47, "vel": 68, "track": 9}, {"t": 2.5, "dur": 0.24792, "note": 66, "vel": 58, "track": 2}, {"t": 2.5, "dur": 0.49792, "note": 66, "vel": 54, "track": 3}, {"t": 2.5, "dur": 0.24792, "note": 75, "vel": 39, "track": 4}, {"t": 2.5, "dur": 0.24792, "note": 75, "vel": 81, "track": 6}, {"t": 2.5, "dur": 0.74792, "note": 75, "vel": 78, "track": 0}, {"t": 2.75, "dur": 0.24792, "note": 54, "vel": 79, "track": 7}, {"t": 2.75, "dur": 0.24792, "note": 66, "vel": 59, "track": 6}, {"t": 2.75, "dur": 0.24792, "note": 71, "vel": 81, "track": 2}, {"t": 3.0, "dur": 0.74792, "note": 63, "vel": 75, "track": 7}, {"t": 3.0, "dur": 0.24792, "note": 71, "vel": 83, "track": 6}, {"t": 3.0, "dur": 0.24792, "note": 74, "vel": 82, "track": 2}, {"t": 3.0, "dur": 0.49792, "note": 74, "vel": 87, "track": 3}, {"t": 3.25, "dur": 0.24792, "note": 59, "vel": 78, "track": 7}, {"t": 3.25, "dur": 0.49792, "note": 66, "vel": 71, "track": 5}, {"t": 3.25, "dur": 0.24792, "note": 71, "vel": 72, "track": 2}, {"t": 3.25, "dur": 0.49792, "note": 71, "vel": 71, "track": 5}, {"t": 3.25, "dur": 0.24792, "note": 74, "vel": 80, "track": 6}, {"t": 3.25, "dur": 0.49792, "note": 74, "vel": 34, "track": 4}, {"t": 3.25, "dur": 0.49792, "note": 74, "vel": 70, "track": 0}, {"t": 3.5, "dur": 0.24792, "note": 54, "vel": 70, "track": 7}, {"t": 3.5, "dur": 0.24792, "note": 71, "vel": 73, "track": 6}, {"t": 3.5, "dur": 0.24792, "note": 75, "vel": 82, "track": 3}, {"t": 3.5, "dur": 0.24792, "note": 75, "vel": 83, "track": 2}, {"t": 3.75, "dur": 0.24792, "note": 46, "vel": 68, "track": 7}, {"t": 3.75, "dur": 0.99792, "note": 46, "vel": 69, "track": 9}, {"t": 3.75, "dur": 0.24792, "note": 65, "vel": 61, "track": 2}, {"t": 3.75, "dur": 0.49792, "note": 65, "vel": 62, "track": 3}, {"t": 3.75, "dur": 0.24792, "note": 75, "vel": 45, "track": 4}, {"t": 3.75, "dur": 0.24792, "note": 75, "vel": 86, "track": 6}, {"t": 3.75, "dur": 0.74792, "note": 75, "vel": 80, "track": 0}, {"t": 4.0, "dur": 0.24792, "note": 53, "vel": 79, "track": 7}, {"t": 4.0, "dur": 0.24792, "note": 65, "vel": 61, "track": 6}, {"t": 4.0, "dur": 0.24792, "note": 70, "vel": 83, "track": 2}, {"t": 4.25, "dur": 0.74792, "note": 65, "vel": 70, "track": 7}, {"t": 4.25, "dur": 0.24792, "note": 70, "vel": 82, "track": 6}, {"t": 4.25, "dur": 0.24792, "note": 74, "vel": 88, "track": 2}, {"t": 4.25, "dur": 0.49792, "note": 74, "vel": 88, "track": 3}, {"t": 4.5, "dur": 0.24792, "note": 58, "vel": 73, "track": 7}, {"t": 4.5, "dur": 0.49792, "note": 65, "vel": 71, "track": 5}, {"t": 4.5, "dur": 0.24792, "note": 70, "vel": 68, "track": 2}, {"t": 4.5, "dur": 0.49792, "note": 70, "vel": 71, "track": 5}, {"t": 4.5, "dur": 0.24792, "note": 74, "vel": 88, "track": 6}, {"t": 4.5, "dur": 0.49792, "note": 74, "vel": 30, "track": 4}, {"t": 4.5, "dur": 0.49792, "note": 74, "vel": 75, "track": 0}, {"t": 4.75, "dur": 0.24792, "note": 53, "vel": 71, "track": 7}, {"t": 4.75, "dur": 0.24792, "note": 70, "vel": 75, "track": 6}, {"t": 4.75, "dur": 0.24792, "note": 75, "vel": 80, "track": 3}, {"t": 4.75, "dur": 0.24792, "note": 75, "vel": 85, "track": 2}]}, {"id": 82, "measures": "m109", "meter": [10, 16], "length_ticks": 1200, "length_beats": 2.5, "notes": [{"t": 0.0, "dur": 0.24792, "note": 42, "vel": 64, "track": 7}, {"t": 0.0, "dur": 0.99792, "note": 42, "vel": 70, "track": 9}, {"t": 0.0, "dur": 0.24792, "note": 70, "vel": 64, "track": 2}, {"t": 0.0, "dur": 0.49792, "note": 70, "vel": 66, "track": 3}, {"t": 0.0, "dur": 0.24792, "note": 82, "vel": 98, "track": 6}, {"t": 0.0, "dur": 0.74792, "note": 82, "vel": 90, "track": 0}, {"t": 0.25, "dur": 0.24792, "note": 49, "vel": 82, "track": 7}, {"t": 0.25, "dur": 0.24792, "note": 70, "vel": 56, "track": 6}, {"t": 0.25, "dur": 0.24792, "note": 77, "vel": 89, "track": 2}, {"t": 0.5, "dur": 0.74792, "note": 58, "vel": 70, "track": 7}, {"t": 0.5, "dur": 0.24792, "note": 77, "vel": 86, "track": 6}, {"t": 0.5, "dur": 0.24792, "note": 82, "vel": 86, "track": 2}, {"t": 0.5, "dur": 0.49792, "note": 82, "vel": 94, "track": 3}, {"t": 0.75, "dur": 0.24792, "note": 54, "vel": 71, "track": 7}, {"t": 0.75, "dur": 0.24792, "note": 77, "vel": 69, "track": 2}, {"t": 0.75, "dur": 0.24792, "note": 82, "vel": 93, "track": 6}, {"t": 0.75, "dur": 0.49792, "note": 82, "vel": 75, "track": 0}, {"t": 1.0, "dur": 0.24792, "note": 49, "vel": 74, "track": 7}, {"t": 1.0, "dur": 0.24792, "note": 77, "vel": 65, "track": 6}, {"t": 1.0, "dur": 0.24792, "note": 82, "vel": 83, "track": 3}, {"t": 1.0, "dur": 0.24792, "note": 82, "vel": 84, "track": 2}, {"t": 1.25, "dur": 0.24792, "note": 42, "vel": 69, "track": 7}, {"t": 1.25, "dur": 0.99792, "note": 42, "vel": 72, "track": 9}, {"t": 1.25, "dur": 0.24792, "note": 70, "vel": 65, "track": 2}, {"t": 1.25, "dur": 0.49792, "note": 70, "vel": 55, "track": 3}, {"t": 1.25, "dur": 0.24792, "note": 82, "vel": 81, "track": 6}, {"t": 1.25, "dur": 1.24792, "note": 82, "vel": 78, "track": 0}, {"t": 1.5, "dur": 0.24792, "note": 49, "vel": 83, "track": 7}, {"t": 1.5, "dur": 0.24792, "note": 70, "vel": 62, "track": 6}, {"t": 1.5, "dur": 0.24792, "note": 77, "vel": 87, "track": 2}, {"t": 1.75, "dur": 0.74792, "note": 58, "vel": 74, "track": 7}, {"t": 1.75, "dur": 0.24792, "note": 77, "vel": 93, "track": 6}, {"t": 1.75, "dur": 0.24792, "note": 78, "vel": 86, "track": 2}, {"t": 1.75, "dur": 0.49792, "note": 78, "vel": 91, "track": 3}, {"t": 2.0, "dur": 0.24792, "note": 54, "vel": 74, "track": 7}, {"t": 2.0, "dur": 0.24792, "note": 77, "vel": 76, "track": 2}, {"t": 2.0, "dur": 0.24792, "note": 78, "vel": 83, "track": 6}, {"t": 2.25, "dur": 0.24792, "note": 49, "vel": 73, "track": 7}, {"t": 2.25, "dur": 0.24792, "note": 77, "vel": 77, "track": 6}, {"t": 2.25, "dur": 0.24792, "note": 82, "vel": 85, "track": 3}, {"t": 2.25, "dur": 0.24792, "note": 82, "vel": 89, "track": 2}]}, {"id": 83, "measures": "m110", "meter": [10, 16], "length_ticks": 1200, "length_beats": 2.5, "notes": [{"t": 0.0, "dur": 0.24792, "note": 46, "vel": 74, "track": 7}, {"t": 0.0, "dur": 0.99792, "note": 46, "vel": 68, "track": 9}, {"t": 0.0, "dur": 0.24792, "note": 65, "vel": 58, "track": 2}, {"t": 0.0, "dur": 0.49792, "note": 65, "vel": 57, "track": 3}, {"t": 0.0, "dur": 0.24792, "note": 77, "vel": 78, "track": 6}, {"t": 0.0, "dur": 0.74792, "note": 77, "vel": 67, "track": 0}, {"t": 0.25, "dur": 0.24792, "note": 53, "vel": 80, "track": 7}, {"t": 0.25, "dur": 0.24792, "note": 65, "vel": 56, "track": 6}, {"t": 0.25, "dur": 0.24792, "note": 72, "vel": 86, "track": 2}, {"t": 0.5, "dur": 0.74792, "note": 61, "vel": 68, "track": 7}, {"t": 0.5, "dur": 0.24792, "note": 72, "vel": 90, "track": 6}, {"t": 0.5, "dur": 0.24792, "note": 77, "vel": 85, "track": 2}, {"t": 0.5, "dur": 0.49792, "note": 77, "vel": 95, "track": 3}, {"t": 0.75, "dur": 0.24792, "note": 58, "vel": 74, "track": 7}, {"t": 0.75, "dur": 0.24792, "note": 72, "vel": 72, "track": 2}, {"t": 0.75, "dur": 0.24792, "note": 77, "vel": 85, "track": 6}, {"t": 0.75, "dur": 0.49792, "note": 77, "vel": 73, "track": 0}, {"t": 1.0, "dur": 0.24792, "note": 53, "vel": 70, "track": 7}, {"t": 1.0, "dur": 0.24792, "note": 72, "vel": 71, "track": 6}, {"t": 1.0, "dur": 0.24792, "note": 77, "vel": 81, "track": 3}, {"t": 1.0, "dur": 0.24792, "note": 77, "vel": 85, "track": 2}, {"t": 1.25, "dur": 0.24792, "note": 46, "vel": 71, "track": 7}, {"t": 1.25, "dur": 0.99792, "note": 46, "vel": 70, "track": 9}, {"t": 1.25, "dur": 0.24792, "note": 65, "vel": 51, "track": 2}, {"t": 1.25, "dur": 0.49792, "note": 65, "vel": 57, "track": 3}, {"t": 1.25, "dur": 0.24792, "note": 77, "vel": 86, "track": 6}, {"t": 1.25, "dur": 1.24792, "note": 77, "vel": 76, "track": 0}, {"t": 1.5, "dur": 0.24792, "note": 54, "vel": 80, "track": 7}, {"t": 1.5, "dur": 0.24792, "note": 65, "vel": 59, "track": 6}, {"t": 1.5, "dur": 0.24792, "note": 72, "vel": 90, "track": 2}, {"t": 1.75, "dur": 0.74792, "note": 61, "vel": 69, "track": 7}, {"t": 1.75, "dur": 0.24792, "note": 72, "vel": 83, "track": 6}, {"t": 1.75, "dur": 0.24792, "note": 73, "vel": 89, "track": 2}, {"t": 1.75, "dur": 0.49792, "note": 73, "vel": 84, "track": 3}, {"t": 2.0, "dur": 0.24792, "note": 58, "vel": 77, "track": 7}, {"t": 2.0, "dur": 0.24792, "note": 72, "vel": 72, "track": 2}, {"t": 2.0, "dur": 0.24792, "note": 73, "vel": 83, "track": 6}, {"t": 2.25, "dur": 0.24792, "note": 53, "vel": 70, "track": 7}, {"t": 2.25, "dur": 0.24792, "note": 72, "vel": 70, "track": 6}, {"t": 2.25, "dur": 0.24792, "note": 77, "vel": 85, "track": 2}, {"t": 2.25, "dur": 0.24792, "note": 77, "vel": 87, "track": 3}]}, {"id": 84, "measures": "m111", "meter": [10, 16], "length_ticks": 1200, "length_beats": 2.5, "notes": [{"t": 0.0, "dur": 0.24792, "note": 44, "vel": 66, "track": 7}, {"t": 0.0, "dur": 0.99792, "note": 44, "vel": 73, "track": 9}, {"t": 0.0, "dur": 0.24792, "note": 66, "vel": 57, "track": 2}, {"t": 0.0, "dur": 0.49792, "note": 66, "vel": 55, "track": 3}, {"t": 0.0, "dur": 0.24792, "note": 77, "vel": 87, "track": 6}, {"t": 0.0, "dur": 0.74792, "note": 77, "vel": 79, "track": 0}, {"t": 0.25, "dur": 0.24792, "note": 51, "vel": 82, "track": 7}, {"t": 0.25, "dur": 0.24792, "note": 66, "vel": 61, "track": 6}, {"t": 0.25, "dur": 0.24792, "note": 72, "vel": 83, "track": 2}, {"t": 0.5, "dur": 0.74792, "note": 60, "vel": 69, "track": 7}, {"t": 0.5, "dur": 0.24792, "note": 72, "vel": 82, "track": 6}, {"t": 0.5, "dur": 0.24792, "note": 77, "vel": 90, "track": 2}, {"t": 0.5, "dur": 0.49792, "note": 77, "vel": 91, "track": 3}, {"t": 0.75, "dur": 0.24792, "note": 56, "vel": 75, "track": 7}, {"t": 0.75, "dur": 0.24792, "note": 72, "vel": 68, "track": 2}, {"t": 0.75, "dur": 0.24792, "note": 77, "vel": 85, "track": 6}, {"t": 0.75, "dur": 0.49792, "note": 77, "vel": 76, "track": 0}, {"t": 1.0, "dur": 0.24792, "note": 51, "vel": 72, "track": 7}, {"t": 1.0, "dur": 0.24792, "note": 72, "vel": 68, "track": 6}, {"t": 1.0, "dur": 0.24792, "note": 77, "vel": 80, "track": 3}, {"t": 1.0, "dur": 0.24792, "note": 77, "vel": 86, "track": 2}, {"t": 1.25, "dur": 0.24792, "note": 44, "vel": 74, "track": 7}, {"t": 1.25, "dur": 0.99792, "note": 44, "vel": 66, "track": 9}, {"t": 1.25, "dur": 0.24792, "note": 66, "vel": 62, "track": 2}, {"t": 1.25, "dur": 0.49792, "note": 66, "vel": 58, "track": 3}, {"t": 1.25, "dur": 0.24792, "note": 77, "vel": 86, "track": 6}, {"t": 1.25, "dur": 1.24792, "note": 77, "vel": 74, "track": 0}, {"t": 1.5, "dur": 0.24792, "note": 51, "vel": 83, "track": 7}, {"t": 1.5, "dur": 0.24792, "note": 66, "vel": 60, "track": 6}, {"t": 1.5, "dur": 0.24792, "note": 72, "vel": 83, "track": 2}, {"t": 1.75, "dur": 0.74792, "note": 60, "vel": 66, "track": 7}, {"t": 1.75, "dur": 0.24792, "note": 72, "vel": 86, "track": 6}, {"t": 1.75, "dur": 0.24792, "note": 73, "vel": 83, "track": 2}, {"t": 1.75, "dur": 0.49792, "note": 73, "vel": 88, "track": 3}, {"t": 2.0, "dur": 0.24792, "note": 56, "vel": 73, "track": 7}, {"t": 2.0, "dur": 0.24792, "note": 72, "vel": 72, "track": 2}, {"t": 2.0, "dur": 0.24792, "note": 73, "vel": 83, "track": 6}, {"t": 2.25, "dur": 0.24792, "note": 51, "vel": 68, "track": 7}, {"t": 2.25, "dur": 0.24792, "note": 72, "vel": 69, "track": 6}, {"t": 2.25, "dur": 0.24792, "note": 77, "vel": 86, "track": 3}, {"t": 2.25, "dur": 0.24792, "note": 77, "vel": 90, "track": 2}]}, {"id": 85, "measures": "m112", "meter": [10, 16], "length_ticks": 1200, "length_beats": 2.5, "notes": [{"t": 0.0, "dur": 0.24792, "note": 49, "vel": 73, "track": 7}, {"t": 0.0, "dur": 0.99792, "note": 49, "vel": 71, "track": 9}, {"t": 0.0, "dur": 0.24792, "note": 65, "vel": 60, "track": 2}, {"t": 0.0, "dur": 0.49792, "note": 65, "vel": 58, "track": 3}, {"t": 0.0, "dur": 0.24792, "note": 77, "vel": 84, "track": 6}, {"t": 0.0, "dur": 0.74792, "note": 77, "vel": 74, "track": 0}, {"t": 0.25, "dur": 0.24792, "note": 56, "vel": 82, "track": 7}, {"t": 0.25, "dur": 0.24792, "note": 65, "vel": 56, "track": 6}, {"t": 0.25, "dur": 0.24792, "note": 72, "vel": 85, "track": 2}, {"t": 0.5, "dur": 0.74792, "note": 64, "vel": 71, "track": 7}, {"t": 0.5, "dur": 0.24792, "note": 72, "vel": 90, "track": 6}, {"t": 0.5, "dur": 0.24792, "note": 77, "vel": 86, "track": 2}, {"t": 0.5, "dur": 0.49792, "note": 77, "vel": 95, "track": 3}, {"t": 0.75, "dur": 0.24792, "note": 61, "vel": 75, "track": 7}, {"t": 0.75, "dur": 0.24792, "note": 72, "vel": 68, "track": 2}, {"t": 0.75, "dur": 0.24792, "note": 77, "vel": 89, "track": 6}, {"t": 0.75, "dur": 0.49792, "note": 77, "vel": 77, "track": 0}, {"t": 1.0, "dur": 0.24792, "note": 56, "vel": 72, "track": 7}, {"t": 1.0, "dur": 0.24792, "note": 72, "vel": 71, "track": 6}, {"t": 1.0, "dur": 0.24792, "note": 77, "vel": 81, "track": 3}, {"t": 1.0, "dur": 0.24792, "note": 77, "vel": 90, "track": 2}, {"t": 1.25, "dur": 0.24792, "note": 49, "vel": 71, "track": 7}, {"t": 1.25, "dur": 0.99792, "note": 49, "vel": 66, "track": 9}, {"t": 1.25, "dur": 0.24792, "note": 65, "vel": 58, "track": 2}, {"t": 1.25, "dur": 0.49792, "note": 65, "vel": 53, "track": 3}, {"t": 1.25, "dur": 0.24792, "note": 77, "vel": 85, "track": 6}, {"t": 1.25, "dur": 1.24792, "note": 77, "vel": 77, "track": 0}, {"t": 1.5, "dur": 0.24792, "note": 56, "vel": 81, "track": 7}, {"t": 1.5, "dur": 0.24792, "note": 65, "vel": 54, "track": 6}, {"t": 1.5, "dur": 0.24792, "note": 72, "vel": 83, "track": 2}, {"t": 1.75, "dur": 0.74792, "note": 64, "vel": 70, "track": 7}, {"t": 1.75, "dur": 0.24792, "note": 72, "vel": 88, "track": 6}, {"t": 1.75, "dur": 0.24792, "note": 73, "vel": 87, "track": 2}, {"t": 1.75, "dur": 0.49792, "note": 73, "vel": 87, "track": 3}, {"t": 2.0, "dur": 0.24792, "note": 61, "vel": 70, "track": 7}, {"t": 2.0, "dur": 0.24792, "note": 72, "vel": 80, "track": 2}, {"t": 2.0, "dur": 0.24792, "note": 73, "vel": 81, "track": 6}, {"t": 2.25, "dur": 0.24792, "note": 56, "vel": 67, "track": 7}, {"t": 2.25, "dur": 0.24792, "note": 72, "vel": 72, "track": 6}, {"t": 2.25, "dur": 0.24792, "note": 77, "vel": 86, "track": 2}, {"t": 2.25, "dur": 0.24792, "note": 77, "vel": 88, "track": 3}]}, {"id": 86, "measures": "m113", "meter": [10, 16], "length_ticks": 1200, "length_beats": 2.5, "notes": [{"t": 0.0, "dur": 0.24792, "note": 48, "vel": 70, "track": 7}, {"t": 0.0, "dur": 0.99792, "note": 48, "vel": 68, "track": 9}, {"t": 0.0, "dur": 0.24792, "note": 65, "vel": 57, "track": 2}, {"t": 0.0, "dur": 0.49792, "note": 65, "vel": 57, "track": 3}, {"t": 0.0, "dur": 0.24792, "note": 77, "vel": 86, "track": 6}, {"t": 0.0, "dur": 0.74792, "note": 77, "vel": 79, "track": 0}, {"t": 0.25, "dur": 0.24792, "note": 53, "vel": 77, "track": 7}, {"t": 0.25, "dur": 0.24792, "note": 65, "vel": 61, "track": 6}, {"t": 0.25, "dur": 0.24792, "note": 72, "vel": 79, "track": 2}, {"t": 0.5, "dur": 0.74792, "note": 63, "vel": 68, "track": 7}, {"t": 0.5, "dur": 0.24792, "note": 72, "vel": 88, "track": 6}, {"t": 0.5, "dur": 0.24792, "note": 77, "vel": 89, "track": 2}, {"t": 0.5, "dur": 0.49792, "note": 77, "vel": 94, "track": 3}, {"t": 0.75, "dur": 0.24792, "note": 57, "vel": 72, "track": 7}, {"t": 0.75, "dur": 0.24792, "note": 72, "vel": 66, "track": 2}, {"t": 0.75, "dur": 0.24792, "note": 77, "vel": 92, "track": 6}, {"t": 0.75, "dur": 0.49792, "note": 77, "vel": 80, "track": 0}, {"t": 1.0, "dur": 0.24792, "note": 53, "vel": 71, "track": 7}, {"t": 1.0, "dur": 0.24792, "note": 72, "vel": 71, "track": 6}, {"t": 1.0, "dur": 0.24792, "note": 77, "vel": 78, "track": 3}, {"t": 1.0, "dur": 0.24792, "note": 77, "vel": 81, "track": 2}, {"t": 1.25, "dur": 0.24792, "note": 48, "vel": 72, "track": 7}, {"t": 1.25, "dur": 0.99792, "note": 48, "vel": 71, "track": 9}, {"t": 1.25, "dur": 0.24792, "note": 65, "vel": 56, "track": 2}, {"t": 1.25, "dur": 0.49792, "note": 65, "vel": 53, "track": 3}, {"t": 1.25, "dur": 0.24792, "note": 77, "vel": 86, "track": 6}, {"t": 1.25, "dur": 1.24792, "note": 77, "vel": 76, "track": 0}, {"t": 1.5, "dur": 0.24792, "note": 53, "vel": 78, "track": 7}, {"t": 1.5, "dur": 0.24792, "note": 65, "vel": 56, "track": 6}, {"t": 1.5, "dur": 0.24792, "note": 72, "vel": 89, "track": 2}, {"t": 1.75, "dur": 0.74792, "note": 63, "vel": 68, "track": 7}, {"t": 1.75, "dur": 0.24792, "note": 72, "vel": 82, "track": 6}, {"t": 1.75, "dur": 0.24792, "note": 73, "vel": 75, "track": 2}, {"t": 1.75, "dur": 0.49792, "note": 73, "vel": 90, "track": 3}, {"t": 2.0, "dur": 0.24792, "note": 57, "vel": 72, "track": 7}, {"t": 2.0, "dur": 0.24792, "note": 72, "vel": 74, "track": 2}, {"t": 2.0, "dur": 0.24792, "note": 73, "vel": 80, "track": 6}, {"t": 2.25, "dur": 0.24792, "note": 53, "vel": 75, "track": 7}, {"t": 2.25, "dur": 0.24792, "note": 72, "vel": 73, "track": 6}, {"t": 2.25, "dur": 0.24792, "note": 77, "vel": 86, "track": 3}, {"t": 2.25, "dur": 0.24792, "note": 77, "vel": 88, "track": 2}]}, {"id": 87, "measures": "m114-122", "meter": [10, 16], "length_ticks": 10800, "length_beats": 22.5, "notes": [{"t": 0.0, "dur": 0.24792, "note": 46, "vel": 66, "track": 7}, {"t": 0.0, "dur": 0.99792, "note": 46, "vel": 70, "track": 9}, {"t": 0.0, "dur": 0.49792, "note": 58, "vel": 73, "track": 8}, {"t": 0.0, "dur": 1.24792, "note": 58, "vel": 78, "track": 10}, {"t": 0.0, "dur": 0.24792, "note": 65, "vel": 55, "track": 2}, {"t": 0.0, "dur": 0.49792, "note": 65, "vel": 57, "track": 3}, {"t": 0.0, "dur": 0.24792, "note": 77, "vel": 84, "track": 6}, {"t": 0.0, "dur": 0.74792, "note": 77, "vel": 74, "track": 0}, {"t": 0.25, "dur": 0.24792, "note": 53, "vel": 80, "track": 7}, {"t": 0.25, "dur": 0.24792, "note": 65, "vel": 56, "track": 6}, {"t": 0.25, "dur": 0.24792, "note": 72, "vel": 86, "track": 2}, {"t": 0.5, "dur": 0.49792, "note": 58, "vel": 79, "track": 8}, {"t": 0.5, "dur": 0.74792, "note": 61, "vel": 70, "track": 7}, {"t": 0.5, "dur": 0.24792, "note": 72, "vel": 89, "track": 6}, {"t": 0.5, "dur": 0.24792, "note": 73, "vel": 79, "track": 2}, {"t": 0.5, "dur": 0.49792, "note": 73, "vel": 88, "track": 3}, {"t": 0.75, "dur": 0.24792, "note": 58, "vel": 73, "track": 7}, {"t": 0.75, "dur": 0.49792, "note": 65, "vel": 69, "track": 5}, {"t": 0.75, "dur": 0.24792, "note": 70, "vel": 76, "track": 2}, {"t": 0.75, "dur": 0.49792, "note": 70, "vel": 69, "track": 5}, {"t": 0.75, "dur": 0.24792, "note": 77, "vel": 89, "track": 6}, {"t": 0.75, "dur": 0.49792, "note": 77, "vel": 32, "track": 4}, {"t": 0.75, "dur": 0.49792, "note": 77, "vel": 77, "track": 0}, {"t": 1.0, "dur": 0.24792, "note": 53, "vel": 73, "track": 7}, {"t": 1.0, "dur": 0.24792, "note": 58, "vel": 73, "track": 8}, {"t": 1.0, "dur": 0.24792, "note": 72, "vel": 65, "track": 6}, {"t": 1.0, "dur": 0.24792, "note": 77, "vel": 85, "track": 3}, {"t": 1.0, "dur": 0.24792, "note": 77, "vel": 95, "track": 2}, {"t": 1.25, "dur": 0.24792, "note": 48, "vel": 71, "track": 7}, {"t": 1.25, "dur": 0.99792, "note": 48, "vel": 70, "track": 9}, {"t": 1.25, "dur": 0.49792, "note": 60, "vel": 82, "track": 8}, {"t": 1.25, "dur": 1.24792, "note": 60, "vel": 81, "track": 10}, {"t": 1.25, "dur": 0.24792, "note": 66, "vel": 59, "track": 2}, {"t": 1.25, "dur": 0.49792, "note": 66, "vel": 59, "track": 3}, {"t": 1.25, "dur": 1.24792, "note": 66, "vel": 78, "track": 5}, {"t": 1.25, "dur": 0.74792, "note": 70, "vel": 78, "track": 5}, {"t": 1.25, "dur": 0.24792, "note": 77, "vel": 85, "track": 6}, {"t": 1.25, "dur": 0.74792, "note": 77, "vel": 38, "track": 4}, {"t": 1.25, "dur": 0.74792, "note": 77, "vel": 79, "track": 0}, {"t": 1.5, "dur": 0.24792, "note": 54, "vel": 81, "track": 7}, {"t": 1.5, "dur": 0.24792, "note": 66, "vel": 55, "track": 6}, {"t": 1.5, "dur": 0.24792, "note": 70, "vel": 77, "track": 2}, {"t": 1.75, "dur": 0.49792, "note": 60, "vel": 76, "track": 8}, {"t": 1.75, "dur": 0.74792, "note": 63, "vel": 72, "track": 7}, {"t": 1.75, "dur": 0.24792, "note": 70, "vel": 80, "track": 6}, {"t": 1.75, "dur": 0.24792, "note": 77, "vel": 94, "track": 2}, {"t": 1.75, "dur": 0.49792, "note": 77, "vel": 93, "track": 3}, {"t": 2.0, "dur": 0.24792, "note": 58, "vel": 75, "track": 7}, {"t": 2.0, "dur": 0.24792, "note": 70, "vel": 66, "track": 2}, {"t": 2.0, "dur": 0.49792, "note": 70, "vel": 77, "track": 5}, {"t": 2.0, "dur": 0.24792, "note": 75, "vel": 84, "track": 6}, {"t": 2.0, "dur": 0.49792, "note": 75, "vel": 34, "track": 4}, {"t": 2.0, "dur": 0.49792, "note": 75, "vel": 68, "track": 0}, {"t": 2.25, "dur": 0.24792, "note": 54, "vel": 75, "track": 7}, {"t": 2.25, "dur": 0.24792, "note": 60, "vel": 76, "track": 8}, {"t": 2.25, "dur": 0.24792, "note": 70, "vel": 65, "track": 6}, {"t": 2.25, "dur": 0.24792, "note": 75, "vel": 72, "track": 3}, {"t": 2.25, "dur": 0.24792, "note": 75, "vel": 87, "track": 2}, {"t": 2.5, "dur": 0.24792, "note": 46, "vel": 66, "track": 7}, {"t": 2.5, "dur": 0.99792, "note": 46, "vel": 71, "track": 9}, {"t": 2.5, "dur": 0.49792, "note": 58, "vel": 73, "track": 8}, {"t": 2.5, "dur": 1.24792, "note": 58, "vel": 73, "track": 10}, {"t": 2.5, "dur": 0.24792, "note": 65, "vel": 65, "track": 2}, {"t": 2.5, "dur": 0.49792, "note": 65, "vel": 59, "track": 3}, {"t": 2.5, "dur": 0.24792, "note": 77, "vel": 88, "track": 6}, {"t": 2.5, "dur": 1.24792, "note": 77, "vel": 78, "track": 0}, {"t": 2.75, "dur": 0.24792, "note": 53, "vel": 79, "track": 7}, {"t": 2.75, "dur": 0.24792, "note": 65, "vel": 58, "track": 6}, {"t": 2.75, "dur": 0.24792, "note": 70, "vel": 81, "track": 2}, {"t": 3.0, "dur": 0.49792, "note": 58, "vel": 77, "track": 8}, {"t": 3.0, "dur": 0.74792, "note": 61, "vel": 69, "track": 7}, {"t": 3.0, "dur": 0.24792, "note": 66, "vel": 81, "track": 6}, {"t": 3.0, "dur": 0.24792, "note": 73, "vel": 87, "track": 2}, {"t": 3.0, "dur": 0.49792, "note": 73, "vel": 88, "track": 3}, {"t": 3.25, "dur": 0.24792, "note": 58, "vel": 74, "track": 7}, {"t": 3.25, "dur": 0.24792, "note": 65, "vel": 63, "track": 2}, {"t": 3.25, "dur": 0.49792, "note": 65, "vel": 69, "track": 5}, {"t": 3.25, "dur": 0.24792, "note": 68, "vel": 78, "track": 6}, {"t": 3.25, "dur": 0.49792, "note": 72, "vel": 69, "track": 5}, {"t": 3.25, "dur": 0.49792, "note": 77, "vel": 35, "track": 4}, {"t": 3.5, "dur": 0.24792, "note": 53, "vel": 74, "track": 7}, {"t": 3.5, "dur": 0.24792, "note": 58, "vel": 69, "track": 8}, {"t": 3.5, "dur": 0.24792, "note": 66, "vel": 60, "track": 3}, {"t": 3.5, "dur": 0.24792, "note": 66, "vel": 74, "track": 6}, {"t": 3.5, "dur": 0.24792, "note": 66, "vel": 82, "track": 2}, {"t": 3.75, "dur": 0.24792, "note": 48, "vel": 71, "track": 7}, {"t": 3.75, "dur": 0.99792, "note": 48, "vel": 66, "track": 9}, {"t": 3.75, "dur": 0.49792, "note": 60, "vel": 82, "track": 8}, {"t": 3.75, "dur": 1.24792, "note": 60, "vel": 87, "track": 10}, {"t": 3.75, "dur": 0.24792, "note": 63, "vel": 70, "track": 2}, {"t": 3.75, "dur": 0.49792, "note": 63, "vel": 71, "track": 3}, {"t": 3.75, "dur": 1.24792, "note": 65, "vel": 63, "track": 5}, {"t": 3.75, "dur": 1.24792, "note": 66, "vel": 63, "track": 5}, {"t": 3.75, "dur": 0.24792, "note": 70, "vel": 86, "track": 6}, {"t": 3.75, "dur": 1.24792, "note": 70, "vel": 30, "track": 4}, {"t": 3.75, "dur": 1.24792, "note": 70, "vel": 60, "track": 0}, {"t": 4.0, "dur": 0.24792, "note": 54, "vel": 80, "track": 7}, {"t": 4.0, "dur": 0.24792, "note": 63, "vel": 65, "track": 6}, {"t": 4.0, "dur": 0.24792, "note": 66, "vel": 84, "track": 2}, {"t": 4.25, "dur": 0.49792, "note": 60, "vel": 79, "track": 8}, {"t": 4.25, "dur": 0.74792, "note": 63, "vel": 65, "track": 7}, {"t": 4.25, "dur": 0.24792, "note": 66, "vel": 83, "track": 6}, {"t": 4.25, "dur": 0.24792, "note": 70, "vel": 86, "track": 2}, {"t": 4.25, "dur": 0.24792, "note": 70, "vel": 94, "track": 3}, {"t": 4.5, "dur": 0.24792, "note": 58, "vel": 70, "track": 7}, {"t": 4.5, "dur": 0.24792, "note": 69, "vel": 73, "track": 2}, {"t": 4.5, "dur": 0.24792, "note": 69, "vel": 77, "track": 3}, {"t": 4.5, "dur": 0.24792, "note": 70, "vel": 84, "track": 6}, {"t": 4.75, "dur": 0.24792, "note": 54, "vel": 73, "track": 7}, {"t": 4.75, "dur": 0.24792, "note": 60, "vel": 78, "track": 8}, {"t": 4.75, "dur": 0.24792, "note": 66, "vel": 66, "track": 6}, {"t": 4.75, "dur": 0.24792, "note": 70, "vel": 77, "track": 2}, {"t": 4.75, "dur": 0.24792, "note": 70, "vel": 80, "track": 3}, {"t": 5.0, "dur": 0.24792, "note": 46, "vel": 70, "track": 7}, {"t": 5.0, "dur": 0.99792, "note": 46, "vel": 67, "track": 9}, {"t": 5.0, "dur": 0.49792, "note": 58, "vel": 72, "track": 8}, {"t": 5.0, "dur": 1.24792, "note": 58, "vel": 70, "track": 10}, {"t": 5.0, "dur": 0.24792, "note": 65, "vel": 61, "track": 2}, {"t": 5.0, "dur": 0.49792, "note": 65, "vel": 68, "track": 3}, {"t": 5.0, "dur": 0.24792, "note": 77, "vel": 96, "track": 6}, {"t": 5.0, "dur": 0.74792, "note": 77, "vel": 90, "track": 0}, {"t": 5.25, "dur": 0.24792, "note": 53, "vel": 82, "track": 7}, {"t": 5.25, "dur": 0.24792, "note": 65, "vel": 61, "track": 6}, {"t": 5.25, "dur": 0.24792, "note": 70, "vel": 78, "track": 2}, {"t": 5.5, "dur": 0.49792, "note": 58, "vel": 77, "track": 8}, {"t": 5.5, "dur": 0.74792, "note": 61, "vel": 71, "track": 7}, {"t": 5.5, "dur": 0.24792, "note": 70, "vel": 85, "track": 6}, {"t": 5.5, "dur": 0.24792, "note": 73, "vel": 87, "track": 2}, {"t": 5.5, "dur": 0.24792, "note": 73, "vel": 89, "track": 3}, {"t": 5.75, "dur": 0.24792, "note": 58, "vel": 74, "track": 7}, {"t": 5.75, "dur": 0.49792, "note": 65, "vel": 66, "track": 5}, {"t": 5.75, "dur": 0.24792, "note": 72, "vel": 69, "track": 2}, {"t": 5.75, "dur": 0.24792, "note": 72, "vel": 78, "track": 3}, {"t": 5.75, "dur": 0.49792, "note": 72, "vel": 66, "track": 5}, {"t": 5.75, "dur": 0.24792, "note": 77, "vel": 94, "track": 6}, {"t": 5.75, "dur": 0.49792, "note": 77, "vel": 39, "track": 4}, {"t": 5.75, "dur": 0.49792, "note": 77, "vel": 79, "track": 0}, {"t": 6.0, "dur": 0.24792, "note": 53, "vel": 69, "track": 7}, {"t": 6.0, "dur": 0.24792, "note": 58, "vel": 73, "track": 8}, {"t": 6.0, "dur": 0.24792, "note": 70, "vel": 65, "track": 6}, {"t": 6.0, "dur": 0.24792, "note": 73, "vel": 80, "track": 2}, {"t": 6.0, "dur": 0.24792, "note": 73, "vel": 80, "track": 3}, {"t": 6.25, "dur": 0.24792, "note": 48, "vel": 73, "track": 7}, {"t": 6.25, "dur": 0.99792, "note": 48, "vel": 67, "track": 9}, {"t": 6.25, "dur": 0.49792, "note": 60, "vel": 82, "track": 8}, {"t": 6.25, "dur": 1.24792, "note": 60, "vel": 79, "track": 10}, {"t": 6.25, "dur": 0.24792, "note": 66, "vel": 63, "track": 2}, {"t": 6.25, "dur": 0.49792, "note": 66, "vel": 67, "track": 3}, {"t": 6.25, "dur": 1.24792, "note": 68, "vel": 81, "track": 5}, {"t": 6.25, "dur": 1.24792, "note": 75, "vel": 81, "track": 5}, {"t": 6.25, "dur": 0.74792, "note": 80, "vel": 41, "track": 4}, {"t": 6.25, "dur": 0.24792, "note": 82, "vel": 92, "track": 6}, {"t": 6.25, "dur": 0.74792, "note": 82, "vel": 80, "track": 0}, {"t": 6.5, "dur": 0.24792, "note": 54, "vel": 83, "track": 7}, {"t": 6.5, "dur": 0.24792, "note": 68, "vel": 53, "track": 6}, {"t": 6.5, "dur": 0.24792, "note": 68, "vel": 75, "track": 2}, {"t": 6.75, "dur": 0.49792, "note": 60, "vel": 80, "track": 8}, {"t": 6.75, "dur": 0.74792, "note": 63, "vel": 69, "track": 7}, {"t": 6.75, "dur": 0.24792, "note": 75, "vel": 87, "track": 6}, {"t": 6.75, "dur": 0.24792, "note": 75, "vel": 89, "track": 2}, {"t": 6.75, "dur": 0.24792, "note": 75, "vel": 93, "track": 3}, {"t": 7.0, "dur": 0.24792, "note": 56, "vel": 76, "track": 7}, {"t": 7.0, "dur": 0.24792, "note": 73, "vel": 70, "track": 2}, {"t": 7.0, "dur": 0.24792, "note": 73, "vel": 74, "track": 3}, {"t": 7.0, "dur": 0.49792, "note": 78, "vel": 36, "track": 4}, {"t": 7.0, "dur": 0.24792, "note": 80, "vel": 68, "track": 0}, {"t": 7.0, "dur": 0.24792, "note": 80, "vel": 88, "track": 6}, {"t": 7.25, "dur": 0.24792, "note": 53, "vel": 73, "track": 7}, {"t": 7.25, "dur": 0.24792, "note": 60, "vel": 75, "track": 8}, {"t": 7.25, "dur": 0.24792, "note": 75, "vel": 81, "track": 3}, {"t": 7.25, "dur": 0.24792, "note": 75, "vel": 84, "track": 2}, {"t": 7.25, "dur": 0.24792, "note": 78, "vel": 72, "track": 6}, {"t": 7.25, "dur": 0.24792, "note": 78, "vel": 75, "track": 0}, {"t": 7.5, "dur": 0.24792, "note": 49, "vel": 70, "track": 7}, {"t": 7.5, "dur": 0.99792, "note": 49, "vel": 66, "track": 9}, {"t": 7.5, "dur": 0.49792, "note": 61, "vel": 84, "track": 8}, {"t": 7.5, "dur": 1.24792, "note": 61, "vel": 76, "track": 10}, {"t": 7.5, "dur": 0.24792, "note": 68, "vel": 64, "track": 2}, {"t": 7.5, "dur": 0.49792, "note": 68, "vel": 64, "track": 3}, {"t": 7.5, "dur": 0.24792, "note": 77, "vel": 72, "track": 6}, {"t": 7.5, "dur": 1.24792, "note": 77, "vel": 72, "track": 0}, {"t": 7.75, "dur": 0.24792, "note": 56, "vel": 82, "track": 7}, {"t": 7.75, "dur": 0.24792, "note": 68, "vel": 60, "track": 6}, {"t": 7.75, "dur": 0.24792, "note": 73, "vel": 82, "track": 2}, {"t": 8.0, "dur": 0.49792, "note": 61, "vel": 80, "track": 8}, {"t": 8.0, "dur": 0.74792, "note": 65, "vel": 64, "track": 7}, {"t": 8.0, "dur": 0.24792, "note": 73, "vel": 83, "track": 6}, {"t": 8.0, "dur": 0.24792, "note": 77, "vel": 85, "track": 2}, {"t": 8.0, "dur": 0.24792, "note": 77, "vel": 86, "track": 3}, {"t": 8.25, "dur": 0.24792, "note": 61, "vel": 71, "track": 7}, {"t": 8.25, "dur": 0.49792, "note": 68, "vel": 71, "track": 5}, {"t": 8.25, "dur": 0.49792, "note": 73, "vel": 71, "track": 5}, {"t": 8.25, "dur": 0.24792, "note": 76, "vel": 77, "track": 2}, {"t": 8.25, "dur": 0.24792, "note": 76, "vel": 77, "track": 3}, {"t": 8.25, "dur": 0.24792, "note": 77, "vel": 90, "track": 6}, {"t": 8.25, "dur": 0.49792, "note": 77, "vel": 39, "track": 4}, {"t": 8.5, "dur": 0.24792, "note": 56, "vel": 69, "track": 7}, {"t": 8.5, "dur": 0.24792, "note": 61, "vel": 76, "track": 8}, {"t": 8.5, "dur": 0.24792, "note": 73, "vel": 69, "track": 6}, {"t": 8.5, "dur": 0.24792, "note": 77, "vel": 83, "track": 3}, {"t": 8.5, "dur": 0.24792, "note": 77, "vel": 90, "track": 2}, {"t": 8.75, "dur": 0.24792, "note": 50, "vel": 69, "track": 7}, {"t": 8.75, "dur": 0.99792, "note": 50, "vel": 69, "track": 9}, {"t": 8.75, "dur": 0.49792, "note": 62, "vel": 79, "track": 8}, {"t": 8.75, "dur": 1.24792, "note": 62, "vel": 82, "track": 10}, {"t": 8.75, "dur": 0.24792, "note": 68, "vel": 60, "track": 2}, {"t": 8.75, "dur": 0.49792, "note": 68, "vel": 59, "track": 3}, {"t": 8.75, "dur": 1.24792, "note": 68, "vel": 64, "track": 5}, {"t": 8.75, "dur": 1.24792, "note": 70, "vel": 64, "track": 5}, {"t": 8.75, "dur": 0.24792, "note": 77, "vel": 84, "track": 6}, {"t": 8.75, "dur": 1.24792, "note": 77, "vel": 44, "track": 4}, {"t": 9.0, "dur": 0.24792, "note": 56, "vel": 85, "track": 7}, {"t": 9.0, "dur": 0.24792, "note": 68, "vel": 60, "track": 6}, {"t": 9.0, "dur": 0.24792, "note": 70, "vel": 75, "track": 2}, {"t": 9.25, "dur": 0.49792, "note": 62, "vel": 74, "track": 8}, {"t": 9.25, "dur": 0.74792, "note": 65, "vel": 67, "track": 7}, {"t": 9.25, "dur": 0.24792, "note": 70, "vel": 80, "track": 6}, {"t": 9.25, "dur": 0.24792, "note": 77, "vel": 91, "track": 2}, {"t": 9.25, "dur": 0.24792, "note": 77, "vel": 91, "track": 3}, {"t": 9.5, "dur": 0.24792, "note": 58, "vel": 73, "track": 7}, {"t": 9.5, "dur": 0.24792, "note": 76, "vel": 68, "track": 2}, {"t": 9.5, "dur": 0.24792, "note": 76, "vel": 76, "track": 3}, {"t": 9.5, "dur": 0.24792, "note": 77, "vel": 92, "track": 6}, {"t": 9.5, "dur": 0.49792, "note": 77, "vel": 71, "track": 0}, {"t": 9.75, "dur": 0.24792, "note": 56, "vel": 72, "track": 7}, {"t": 9.75, "dur": 0.24792, "note": 62, "vel": 77, "track": 8}, {"t": 9.75, "dur": 0.24792, "note": 70, "vel": 65, "track": 6}, {"t": 9.75, "dur": 0.24792, "note": 77, "vel": 81, "track": 2}, {"t": 9.75, "dur": 0.24792, "note": 77, "vel": 82, "track": 3}, {"t": 10.0, "dur": 0.24792, "note": 51, "vel": 74, "track": 7}, {"t": 10.0, "dur": 0.99792, "note": 51, "vel": 64, "track": 9}, {"t": 10.0, "dur": 0.49792, "note": 63, "vel": 80, "track": 8}, {"t": 10.0, "dur": 0.99792, "note": 63, "vel": 81, "track": 10}, {"t": 10.0, "dur": 0.24792, "note": 70, "vel": 65, "track": 2}, {"t": 10.0, "dur": 0.74792, "note": 70, "vel": 62, "track": 3}, {"t": 10.0, "dur": 0.24792, "note": 78, "vel": 89, "track": 6}, {"t": 10.0, "dur": 0.74792, "note": 78, "vel": 80, "track": 0}, {"t": 10.25, "dur": 0.24792, "note": 58, "vel": 82, "track": 7}, {"t": 10.25, "dur": 0.24792, "note": 70, "vel": 66, "track": 6}, {"t": 10.25, "dur": 0.24792, "note": 75, "vel": 81, "track": 2}, {"t": 10.5, "dur": 0.49792, "note": 63, "vel": 77, "track": 8}, {"t": 10.5, "dur": 0.74792, "note": 66, "vel": 65, "track": 7}, {"t": 10.5, "dur": 0.24792, "note": 75, "vel": 89, "track": 6}, {"t": 10.5, "dur": 0.24792, "note": 78, "vel": 80, "track": 2}, {"t": 10.75, "dur": 0.24792, "note": 63, "vel": 75, "track": 7}, {"t": 10.75, "dur": 0.49792, "note": 70, "vel": 67, "track": 5}, {"t": 10.75, "dur": 0.24792, "note": 73, "vel": 68, "track": 2}, {"t": 10.75, "dur": 0.24792, "note": 73, "vel": 75, "track": 3}, {"t": 10.75, "dur": 0.49792, "note": 77, "vel": 67, "track": 5}, {"t": 10.75, "dur": 0.24792, "note": 78, "vel": 83, "track": 6}, {"t": 10.75, "dur": 0.49792, "note": 78, "vel": 35, "track": 4}, {"t": 10.75, "dur": 0.49792, "note": 78, "vel": 77, "track": 0}, {"t": 11.0, "dur": 0.24792, "note": 58, "vel": 65, "track": 7}, {"t": 11.0, "dur": 0.24792, "note": 61, "vel": 70, "track": 10}, {"t": 11.0, "dur": 0.24792, "note": 61, "vel": 72, "track": 8}, {"t": 11.0, "dur": 0.24792, "note": 72, "vel": 65, "track": 2}, {"t": 11.0, "dur": 0.24792, "note": 72, "vel": 74, "track": 3}, {"t": 11.0, "dur": 0.24792, "note": 75, "vel": 76, "track": 6}, {"t": 11.25, "dur": 0.24792, "note": 48, "vel": 65, "track": 7}, {"t": 11.25, "dur": 0.99792, "note": 48, "vel": 66, "track": 9}, {"t": 11.25, "dur": 0.49792, "note": 60, "vel": 73, "track": 8}, {"t": 11.25, "dur": 1.24792, "note": 60, "vel": 71, "track": 10}, {"t": 11.25, "dur": 1.24792, "note": 68, "vel": 72, "track": 5}, {"t": 11.25, "dur": 0.24792, "note": 70, "vel": 72, "track": 2}, {"t": 11.25, "dur": 0.49792, "note": 70, "vel": 74, "track": 3}, {"t": 11.25, "dur": 1.24792, "note": 75, "vel": 72, "track": 5}, {"t": 11.25, "dur": 0.74792, "note": 80, "vel": 46, "track": 4}, {"t": 11.25, "dur": 0.24792, "note": 82, "vel": 90, "track": 6}, {"t": 11.25, "dur": 0.74792, "note": 82, "vel": 84, "track": 0}, {"t": 11.5, "dur": 0.24792, "note": 54, "vel": 78, "track": 7}, {"t": 11.5, "dur": 0.24792, "note": 68, "vel": 58, "track": 6}, {"t": 11.5, "dur": 0.24792, "note": 75, "vel": 91, "track": 2}, {"t": 11.75, "dur": 0.49792, "note": 60, "vel": 77, "track": 8}, {"t": 11.75, "dur": 0.74792, "note": 63, "vel": 73, "track": 7}, {"t": 11.75, "dur": 0.24792, "note": 75, "vel": 87, "track": 6}, {"t": 11.75, "dur": 0.24792, "note": 78, "vel": 83, "track": 2}, {"t": 11.75, "dur": 0.24792, "note": 78, "vel": 88, "track": 3}, {"t": 12.0, "dur": 0.24792, "note": 56, "vel": 78, "track": 7}, {"t": 12.0, "dur": 0.24792, "note": 77, "vel": 74, "track": 2}, {"t": 12.0, "dur": 0.24792, "note": 77, "vel": 74, "track": 3}, {"t": 12.0, "dur": 0.49792, "note": 78, "vel": 37, "track": 4}, {"t": 12.0, "dur": 0.24792, "note": 80, "vel": 76, "track": 0}, {"t": 12.0, "dur": 0.24792, "note": 80, "vel": 89, "track": 6}, {"t": 12.25, "dur": 0.24792, "note": 53, "vel": 71, "track": 7}, {"t": 12.25, "dur": 0.24792, "note": 60, "vel": 77, "track": 8}, {"t": 12.25, "dur": 0.24792, "note": 78, "vel": 70, "track": 0}, {"t": 12.25, "dur": 0.24792, "note": 78, "vel": 74, "track": 6}, {"t": 12.25, "dur": 0.24792, "note": 78, "vel": 79, "track": 2}, {"t": 12.25, "dur": 0.24792, "note": 78, "vel": 79, "track": 3}, {"t": 12.5, "dur": 0.24792, "note": 49, "vel": 70, "track": 7}, {"t": 12.5, "dur": 0.99792, "note": 49, "vel": 65, "track": 9}, {"t": 12.5, "dur": 0.49792, "note": 61, "vel": 78, "track": 8}, {"t": 12.5, "dur": 1.24792, "note": 61, "vel": 80, "track": 10}, {"t": 12.5, "dur": 0.24792, "note": 68, "vel": 57, "track": 2}, {"t": 12.5, "dur": 0.74792, "note": 68, "vel": 57, "track": 3}, {"t": 12.5, "dur": 0.24792, "note": 77, "vel": 70, "track": 6}, {"t": 12.5, "dur": 0.74792, "note": 77, "vel": 72, "track": 0}, {"t": 12.75, "dur": 0.24792, "note": 56, "vel": 87, "track": 7}, {"t": 12.75, "dur": 0.24792, "note": 65, "vel": 49, "track": 6}, {"t": 12.75, "dur": 0.24792, "note": 73, "vel": 85, "track": 2}, {"t": 13.0, "dur": 0.49792, "note": 61, "vel": 75, "track": 8}, {"t": 13.0, "dur": 0.74792, "note": 65, "vel": 67, "track": 7}, {"t": 13.0, "dur": 0.24792, "note": 68, "vel": 77, "track": 6}, {"t": 13.0, "dur": 0.24792, "note": 77, "vel": 88, "track": 2}, {"t": 13.25, "dur": 0.24792, "note": 61, "vel": 76, "track": 7}, {"t": 13.25, "dur": 0.24792, "note": 68, "vel": 58, "track": 2}, {"t": 13.25, "dur": 0.24792, "note": 68, "vel": 71, "track": 3}, {"t": 13.25, "dur": 0.49792, "note": 68, "vel": 72, "track": 5}, {"t": 13.25, "dur": 0.24792, "note": 73, "vel": 84, "track": 6}, {"t": 13.25, "dur": 0.49792, "note": 73, "vel": 38, "track": 4}, {"t": 13.25, "dur": 0.49792, "note": 73, "vel": 64, "track": 0}, {"t": 13.5, "dur": 0.24792, "note": 56, "vel": 71, "track": 7}, {"t": 13.5, "dur": 0.24792, "note": 61, "vel": 80, "track": 8}, {"t": 13.5, "dur": 0.24792, "note": 66, "vel": 68, "track": 3}, {"t": 13.5, "dur": 0.24792, "note": 66, "vel": 72, "track": 2}, {"t": 13.5, "dur": 0.24792, "note": 68, "vel": 71, "track": 6}, {"t": 13.75, "dur": 0.24792, "note": 48, "vel": 64, "track": 7}, {"t": 13.75, "dur": 0.99792, "note": 48, "vel": 69, "track": 9}, {"t": 13.75, "dur": 0.49792, "note": 60, "vel": 71, "track": 8}, {"t": 13.75, "dur": 1.24792, "note": 60, "vel": 74, "track": 10}, {"t": 13.75, "dur": 0.24792, "note": 65, "vel": 75, "track": 2}, {"t": 13.75, "dur": 0.49792, "note": 65, "vel": 73, "track": 3}, {"t": 13.75, "dur": 0.74792, "note": 65, "vel": 71, "track": 5}, {"t": 13.75, "dur": 0.74792, "note": 66, "vel": 71, "track": 5}, {"t": 13.75, "dur": 0.24792, "note": 70, "vel": 77, "track": 6}, {"t": 13.75, "dur": 0.74792, "note": 70, "vel": 36, "track": 4}, {"t": 13.75, "dur": 0.74792, "note": 70, "vel": 68, "track": 0}, {"t": 14.0, "dur": 0.24792, "note": 53, "vel": 81, "track": 7}, {"t": 14.0, "dur": 0.24792, "note": 65, "vel": 69, "track": 6}, {"t": 14.0, "dur": 0.24792, "note": 66, "vel": 80, "track": 2}, {"t": 14.25, "dur": 0.49792, "note": 60, "vel": 78, "track": 8}, {"t": 14.25, "dur": 0.74792, "note": 63, "vel": 67, "track": 7}, {"t": 14.25, "dur": 0.24792, "note": 66, "vel": 79, "track": 6}, {"t": 14.25, "dur": 0.24792, "note": 72, "vel": 92, "track": 2}, {"t": 14.25, "dur": 0.49792, "note": 72, "vel": 94, "track": 3}, {"t": 14.5, "dur": 0.24792, "note": 57, "vel": 74, "track": 7}, {"t": 14.5, "dur": 0.49792, "note": 65, "vel": 74, "track": 5}, {"t": 14.5, "dur": 0.24792, "note": 66, "vel": 65, "track": 2}, {"t": 14.5, "dur": 0.49792, "note": 66, "vel": 74, "track": 5}, {"t": 14.5, "dur": 0.24792, "note": 72, "vel": 89, "track": 6}, {"t": 14.5, "dur": 0.49792, "note": 72, "vel": 42, "track": 4}, {"t": 14.5, "dur": 0.49792, "note": 72, "vel": 80, "track": 0}, {"t": 14.75, "dur": 0.24792, "note": 53, "vel": 74, "track": 7}, {"t": 14.75, "dur": 0.24792, "note": 60, "vel": 76, "track": 8}, {"t": 14.75, "dur": 0.24792, "note": 65, "vel": 69, "track": 6}, {"t": 14.75, "dur": 0.24792, "note": 75, "vel": 88, "track": 3}, {"t": 14.75, "dur": 0.24792, "note": 75, "vel": 90, "track": 2}, {"t": 15.0, "dur": 0.24792, "note": 46, "vel": 70, "track": 7}, {"t": 15.0, "dur": 0.99792, "note": 46, "vel": 68, "track": 9}, {"t": 15.0, "dur": 0.49792, "note": 58, "vel": 74, "track": 8}, {"t": 15.0, "dur": 1.24792, "note": 58, "vel": 74, "track": 10}, {"t": 15.0, "dur": 0.24792, "note": 65, "vel": 57, "track": 2}, {"t": 15.0, "dur": 0.49792, "note": 65, "vel": 59, "track": 3}, {"t": 15.0, "dur": 0.24792, "note": 73, "vel": 84, "track": 6}, {"t": 15.0, "dur": 1.24792, "note": 73, "vel": 78, "track": 0}, {"t": 15.25, "dur": 0.24792, "note": 53, "vel": 85, "track": 7}, {"t": 15.25, "dur": 0.24792, "note": 65, "vel": 67, "track": 6}, {"t": 15.25, "dur": 0.24792, "note": 70, "vel": 83, "track": 2}, {"t": 15.5, "dur": 0.49792, "note": 58, "vel": 79, "track": 8}, {"t": 15.5, "dur": 0.74792, "note": 61, "vel": 66, "track": 7}, {"t": 15.5, "dur": 0.24792, "note": 70, "vel": 84, "track": 6}, {"t": 15.5, "dur": 0.24792, "note": 73, "vel": 85, "track": 2}, {"t": 15.5, "dur": 0.49792, "note": 73, "vel": 88, "track": 3}, {"t": 15.75, "dur": 0.24792, "note": 58, "vel": 76, "track": 7}, {"t": 15.75, "dur": 0.49792, "note": 65, "vel": 70, "track": 5}, {"t": 15.75, "dur": 0.24792, "note": 70, "vel": 70, "track": 2}, {"t": 15.75, "dur": 0.49792, "note": 70, "vel": 70, "track": 5}, {"t": 15.75, "dur": 0.24792, "note": 73, "vel": 84, "track": 6}, {"t": 15.75, "dur": 0.49792, "note": 73, "vel": 36, "track": 4}, {"t": 16.0, "dur": 0.24792, "note": 53, "vel": 69, "track": 7}, {"t": 16.0, "dur": 0.24792, "note": 58, "vel": 78, "track": 8}, {"t": 16.0, "dur": 0.24792, "note": 70, "vel": 71, "track": 6}, {"t": 16.0, "dur": 0.24792, "note": 73, "vel": 78, "track": 3}, {"t": 16.0, "dur": 0.24792, "note": 73, "vel": 81, "track": 2}, {"t": 16.25, "dur": 0.24792, "note": 44, "vel": 69, "track": 7}, {"t": 16.25, "dur": 0.99792, "note": 44, "vel": 71, "track": 9}, {"t": 16.25, "dur": 0.49792, "note": 56, "vel": 75, "track": 8}, {"t": 16.25, "dur": 1.24792, "note": 56, "vel": 73, "track": 10}, {"t": 16.25, "dur": 0.24792, "note": 63, "vel": 59, "track": 2}, {"t": 16.25, "dur": 0.49792, "note": 63, "vel": 61, "track": 3}, {"t": 16.25, "dur": 0.24792, "note": 72, "vel": 78, "track": 6}, {"t": 16.25, "dur": 0.74792, "note": 72, "vel": 70, "track": 0}, {"t": 16.5, "dur": 0.24792, "note": 51, "vel": 77, "track": 7}, {"t": 16.5, "dur": 0.24792, "note": 63, "vel": 64, "track": 6}, {"t": 16.5, "dur": 0.24792, "note": 68, "vel": 84, "track": 2}, {"t": 16.75, "dur": 0.49792, "note": 56, "vel": 80, "track": 8}, {"t": 16.75, "dur": 0.74792, "note": 60, "vel": 65, "track": 7}, {"t": 16.75, "dur": 0.24792, "note": 68, "vel": 78, "track": 6}, {"t": 16.75, "dur": 0.24792, "note": 72, "vel": 88, "track": 2}, {"t": 16.75, "dur": 0.24792, "note": 72, "vel": 92, "track": 3}, {"t": 17.0, "dur": 0.24792, "note": 56, "vel": 73, "track": 7}, {"t": 17.0, "dur": 0.49792, "note": 63, "vel": 67, "track": 5}, {"t": 17.0, "dur": 0.49792, "note": 68, "vel": 67, "track": 5}, {"t": 17.0, "dur": 0.24792, "note": 70, "vel": 71, "track": 0}, {"t": 17.0, "dur": 0.24792, "note": 70, "vel": 73, "track": 2}, {"t": 17.0, "dur": 0.24792, "note": 70, "vel": 74, "track": 3}, {"t": 17.0, "dur": 0.24792, "note": 70, "vel": 83, "track": 6}, {"t": 17.0, "dur": 0.49792, "note": 72, "vel": 33, "track": 4}, {"t": 17.25, "dur": 0.24792, "note": 51, "vel": 75, "track": 7}, {"t": 17.25, "dur": 0.24792, "note": 56, "vel": 73, "track": 8}, {"t": 17.25, "dur": 0.24792, "note": 68, "vel": 71, "track": 2}, {"t": 17.25, "dur": 0.24792, "note": 68, "vel": 71, "track": 6}, {"t": 17.25, "dur": 0.24792, "note": 68, "vel": 73, "track": 3}, {"t": 17.25, "dur": 0.24792, "note": 68, "vel": 76, "track": 0}, {"t": 17.5, "dur": 0.24792, "note": 46, "vel": 73, "track": 7}, {"t": 17.5, "dur": 0.99792, "note": 46, "vel": 66, "track": 9}, {"t": 17.5, "dur": 0.49792, "note": 58, "vel": 78, "track": 8}, {"t": 17.5, "dur": 1.24792, "note": 58, "vel": 78, "track": 10}, {"t": 17.5, "dur": 0.24792, "note": 61, "vel": 63, "track": 2}, {"t": 17.5, "dur": 0.49792, "note": 61, "vel": 59, "track": 3}, {"t": 17.5, "dur": 0.74792, "note": 63, "vel": 71, "track": 5}, {"t": 17.5, "dur": 0.74792, "note": 65, "vel": 71, "track": 5}, {"t": 17.5, "dur": 0.24792, "note": 70, "vel": 84, "track": 6}, {"t": 17.5, "dur": 0.74792, "note": 70, "vel": 37, "track": 4}, {"t": 17.5, "dur": 0.74792, "note": 70, "vel": 80, "track": 0}, {"t": 17.75, "dur": 0.24792, "note": 53, "vel": 83, "track": 7}, {"t": 17.75, "dur": 0.24792, "note": 61, "vel": 58, "track": 6}, {"t": 17.75, "dur": 0.24792, "note": 66, "vel": 86, "track": 2}, {"t": 18.0, "dur": 0.49792, "note": 58, "vel": 77, "track": 8}, {"t": 18.0, "dur": 0.74792, "note": 61, "vel": 69, "track": 7}, {"t": 18.0, "dur": 0.24792, "note": 65, "vel": 82, "track": 6}, {"t": 18.0, "dur": 0.24792, "note": 70, "vel": 80, "track": 2}, {"t": 18.0, "dur": 0.49792, "note": 70, "vel": 90, "track": 3}, {"t": 18.25, "dur": 0.24792, "note": 58, "vel": 76, "track": 7}, {"t": 18.25, "dur": 0.49792, "note": 63, "vel": 74, "track": 5}, {"t": 18.25, "dur": 0.24792, "note": 65, "vel": 65, "track": 2}, {"t": 18.25, "dur": 0.49792, "note": 65, "vel": 74, "track": 5}, {"t": 18.25, "dur": 0.24792, "note": 70, "vel": 86, "track": 6}, {"t": 18.25, "dur": 0.49792, "note": 70, "vel": 44, "track": 4}, {"t": 18.25, "dur": 0.49792, "note": 70, "vel": 76, "track": 0}, {"t": 18.5, "dur": 0.24792, "note": 53, "vel": 70, "track": 7}, {"t": 18.5, "dur": 0.24792, "note": 58, "vel": 77, "track": 8}, {"t": 18.5, "dur": 0.24792, "note": 65, "vel": 70, "track": 6}, {"t": 18.5, "dur": 0.24792, "note": 70, "vel": 78, "track": 3}, {"t": 18.5, "dur": 0.24792, "note": 70, "vel": 86, "track": 2}, {"t": 18.75, "dur": 0.24792, "note": 44, "vel": 67, "track": 7}, {"t": 18.75, "dur": 0.99792, "note": 44, "vel": 70, "track": 9}, {"t": 18.75, "dur": 0.49792, "note": 56, "vel": 74, "track": 8}, {"t": 18.75, "dur": 1.24792, "note": 56, "vel": 75, "track": 10}, {"t": 18.75, "dur": 0.24792, "note": 63, "vel": 62, "track": 2}, {"t": 18.75, "dur": 0.49792, "note": 63, "vel": 61, "track": 3}, {"t": 18.75, "dur": 0.24792, "note": 70, "vel": 88, "track": 6}, {"t": 18.75, "dur": 0.74792, "note": 70, "vel": 81, "track": 0}, {"t": 19.0, "dur": 0.24792, "note": 51, "vel": 85, "track": 7}, {"t": 19.0, "dur": 0.24792, "note": 63, "vel": 60, "track": 6}, {"t": 19.0, "dur": 0.24792, "note": 68, "vel": 86, "track": 2}, {"t": 19.25, "dur": 0.49792, "note": 56, "vel": 83, "track": 8}, {"t": 19.25, "dur": 0.74792, "note": 60, "vel": 67, "track": 7}, {"t": 19.25, "dur": 0.24792, "note": 68, "vel": 88, "track": 6}, {"t": 19.25, "dur": 0.24792, "note": 70, "vel": 82, "track": 2}, {"t": 19.25, "dur": 0.24792, "note": 70, "vel": 87, "track": 3}, {"t": 19.5, "dur": 0.24792, "note": 56, "vel": 71, "track": 7}, {"t": 19.5, "dur": 0.49792, "note": 63, "vel": 70, "track": 5}, {"t": 19.5, "dur": 0.24792, "note": 68, "vel": 70, "track": 2}, {"t": 19.5, "dur": 0.24792, "note": 68, "vel": 71, "track": 3}, {"t": 19.5, "dur": 0.49792, "note": 68, "vel": 70, "track": 5}, {"t": 19.5, "dur": 0.24792, "note": 70, "vel": 80, "track": 6}, {"t": 19.5, "dur": 0.49792, "note": 70, "vel": 33, "track": 4}, {"t": 19.5, "dur": 0.49792, "note": 70, "vel": 74, "track": 0}, {"t": 19.75, "dur": 0.24792, "note": 51, "vel": 69, "track": 7}, {"t": 19.75, "dur": 0.24792, "note": 56, "vel": 79, "track": 8}, {"t": 19.75, "dur": 0.24792, "note": 68, "vel": 77, "track": 6}, {"t": 19.75, "dur": 0.24792, "note": 70, "vel": 76, "track": 2}, {"t": 19.75, "dur": 0.24792, "note": 70, "vel": 83, "track": 3}, {"t": 20.0, "dur": 0.24792, "note": 42, "vel": 67, "track": 7}, {"t": 20.0, "dur": 0.99792, "note": 42, "vel": 71, "track": 9}, {"t": 20.0, "dur": 0.49792, "note": 54, "vel": 76, "track": 8}, {"t": 20.0, "dur": 1.24792, "note": 54, "vel": 76, "track": 10}, {"t": 20.0, "dur": 0.24792, "note": 61, "vel": 58, "track": 2}, {"t": 20.0, "dur": 0.49792, "note": 61, "vel": 64, "track": 3}, {"t": 20.0, "dur": 0.24792, "note": 70, "vel": 82, "track": 6}, {"t": 20.0, "dur": 0.74792, "note": 70, "vel": 76, "track": 0}, {"t": 20.25, "dur": 0.24792, "note": 49, "vel": 80, "track": 7}, {"t": 20.25, "dur": 0.24792, "note": 61, "vel": 55, "track": 6}, {"t": 20.25, "dur": 0.24792, "note": 66, "vel": 85, "track": 2}, {"t": 20.5, "dur": 0.49792, "note": 54, "vel": 78, "track": 8}, {"t": 20.5, "dur": 0.74792, "note": 58, "vel": 69, "track": 7}, {"t": 20.5, "dur": 0.24792, "note": 66, "vel": 86, "track": 6}, {"t": 20.5, "dur": 0.24792, "note": 70, "vel": 86, "track": 2}, {"t": 20.5, "dur": 0.24792, "note": 70, "vel": 88, "track": 3}, {"t": 20.75, "dur": 0.24792, "note": 54, "vel": 75, "track": 7}, {"t": 20.75, "dur": 0.49792, "note": 61, "vel": 67, "track": 5}, {"t": 20.75, "dur": 0.49792, "note": 66, "vel": 67, "track": 5}, {"t": 20.75, "dur": 0.24792, "note": 69, "vel": 76, "track": 3}, {"t": 20.75, "dur": 0.24792, "note": 69, "vel": 78, "track": 2}, {"t": 20.75, "dur": 0.24792, "note": 70, "vel": 82, "track": 6}, {"t": 20.75, "dur": 0.49792, "note": 70, "vel": 37, "track": 4}, {"t": 20.75, "dur": 0.49792, "note": 70, "vel": 77, "track": 0}, {"t": 21.0, "dur": 0.24792, "note": 49, "vel": 70, "track": 7}, {"t": 21.0, "dur": 0.24792, "note": 54, "vel": 78, "track": 8}, {"t": 21.0, "dur": 0.24792, "note": 66, "vel": 71, "track": 6}, {"t": 21.0, "dur": 0.24792, "note": 70, "vel": 79, "track": 2}, {"t": 21.0, "dur": 0.24792, "note": 70, "vel": 81, "track": 3}, {"t": 21.25, "dur": 0.24792, "note": 41, "vel": 70, "track": 7}, {"t": 21.25, "dur": 0.99792, "note": 41, "vel": 69, "track": 9}, {"t": 21.25, "dur": 0.49792, "note": 53, "vel": 75, "track": 8}, {"t": 21.25, "dur": 1.24792, "note": 53, "vel": 68, "track": 10}, {"t": 21.25, "dur": 0.74792, "note": 60, "vel": 76, "track": 5}, {"t": 21.25, "dur": 0.74792, "note": 65, "vel": 76, "track": 5}, {"t": 21.25, "dur": 0.24792, "note": 72, "vel": 81, "track": 2}, {"t": 21.25, "dur": 0.24792, "note": 72, "vel": 90, "track": 6}, {"t": 21.25, "dur": 0.49792, "note": 72, "vel": 81, "track": 3}, {"t": 21.25, "dur": 0.74792, "note": 72, "vel": 38, "track": 4}, {"t": 21.25, "dur": 1.24792, "note": 72, "vel": 81, "track": 0}, {"t": 21.5, "dur": 0.24792, "note": 48, "vel": 83, "track": 7}, {"t": 21.5, "dur": 0.24792, "note": 60, "vel": 56, "track": 6}, {"t": 21.5, "dur": 0.24792, "note": 61, "vel": 55, "track": 2}, {"t": 21.75, "dur": 0.49792, "note": 53, "vel": 72, "track": 8}, {"t": 21.75, "dur": 0.74792, "note": 57, "vel": 68, "track": 7}, {"t": 21.75, "dur": 0.24792, "note": 65, "vel": 83, "track": 6}, {"t": 21.75, "dur": 0.24792, "note": 66, "vel": 67, "track": 3}, {"t": 21.75, "dur": 0.24792, "note": 66, "vel": 85, "track": 2}, {"t": 22.0, "dur": 0.24792, "note": 53, "vel": 72, "track": 7}, {"t": 22.0, "dur": 0.24792, "note": 65, "vel": 65, "track": 3}, {"t": 22.0, "dur": 0.24792, "note": 65, "vel": 74, "track": 2}, {"t": 22.0, "dur": 0.24792, "note": 66, "vel": 81, "track": 6}, {"t": 22.25, "dur": 0.24792, "note": 48, "vel": 70, "track": 7}, {"t": 22.25, "dur": 0.24792, "note": 53, "vel": 79, "track": 8}, {"t": 22.25, "dur": 0.24792, "note": 65, "vel": 67, "track": 6}, {"t": 22.25, "dur": 0.24792, "note": 66, "vel": 77, "track": 3}, {"t": 22.25, "dur": 0.24792, "note": 66, "vel": 81, "track": 2}]}, {"id": 88, "measures": "m123", "meter": [10, 16], "length_ticks": 1200, "length_beats": 2.5, "notes": [{"t": 0.0, "dur": 0.24792, "note": 46, "vel": 71, "track": 7}, {"t": 0.0, "dur": 0.99792, "note": 46, "vel": 75, "track": 9}, {"t": 0.0, "dur": 0.49792, "note": 58, "vel": 82, "track": 8}, {"t": 0.0, "dur": 1.24792, "note": 58, "vel": 79, "track": 10}, {"t": 0.0, "dur": 0.24792, "note": 65, "vel": 73, "track": 2}, {"t": 0.0, "dur": 0.49792, "note": 65, "vel": 69, "track": 3}, {"t": 0.0, "dur": 0.24792, "note": 73, "vel": 89, "track": 6}, {"t": 0.0, "dur": 0.74792, "note": 73, "vel": 79, "track": 0}, {"t": 0.25, "dur": 0.24792, "note": 53, "vel": 78, "track": 7}, {"t": 0.25, "dur": 0.24792, "note": 65, "vel": 65, "track": 6}, {"t": 0.25, "dur": 0.24792, "note": 70, "vel": 90, "track": 2}, {"t": 0.5, "dur": 0.49792, "note": 58, "vel": 79, "track": 8}, {"t": 0.5, "dur": 0.74792, "note": 61, "vel": 64, "track": 7}, {"t": 0.5, "dur": 0.24792, "note": 70, "vel": 83, "track": 6}, {"t": 0.5, "dur": 0.24792, "note": 73, "vel": 83, "track": 2}, {"t": 0.5, "dur": 0.24792, "note": 73, "vel": 87, "track": 3}, {"t": 0.75, "dur": 0.24792, "note": 58, "vel": 74, "track": 7}, {"t": 0.75, "dur": 0.49792, "note": 65, "vel": 68, "track": 5}, {"t": 0.75, "dur": 0.24792, "note": 72, "vel": 74, "track": 2}, {"t": 0.75, "dur": 0.24792, "note": 72, "vel": 77, "track": 3}, {"t": 0.75, "dur": 0.49792, "note": 72, "vel": 68, "track": 5}, {"t": 0.75, "dur": 0.24792, "note": 73, "vel": 84, "track": 6}, {"t": 0.75, "dur": 0.49792, "note": 73, "vel": 33, "track": 4}, {"t": 0.75, "dur": 0.49792, "note": 73, "vel": 79, "track": 0}, {"t": 1.0, "dur": 0.24792, "note": 53, "vel": 69, "track": 7}, {"t": 1.0, "dur": 0.24792, "note": 58, "vel": 76, "track": 8}, {"t": 1.0, "dur": 0.24792, "note": 70, "vel": 71, "track": 6}, {"t": 1.0, "dur": 0.24792, "note": 73, "vel": 77, "track": 3}, {"t": 1.0, "dur": 0.24792, "note": 73, "vel": 83, "track": 2}, {"t": 1.25, "dur": 0.24792, "note": 44, "vel": 63, "track": 7}, {"t": 1.25, "dur": 0.99792, "note": 44, "vel": 72, "track": 9}, {"t": 1.25, "dur": 0.49792, "note": 56, "vel": 71, "track": 8}, {"t": 1.25, "dur": 1.24792, "note": 56, "vel": 77, "track": 10}, {"t": 1.25, "dur": 0.24792, "note": 66, "vel": 65, "track": 2}, {"t": 1.25, "dur": 0.49792, "note": 66, "vel": 64, "track": 3}, {"t": 1.25, "dur": 0.74792, "note": 70, "vel": 75, "track": 5}, {"t": 1.25, "dur": 1.24792, "note": 72, "vel": 75, "track": 5}, {"t": 1.25, "dur": 0.24792, "note": 75, "vel": 86, "track": 6}, {"t": 1.25, "dur": 1.24792, "note": 75, "vel": 42, "track": 4}, {"t": 1.25, "dur": 1.24792, "note": 75, "vel": 82, "track": 0}, {"t": 1.5, "dur": 0.24792, "note": 51, "vel": 80, "track": 7}, {"t": 1.5, "dur": 0.24792, "note": 68, "vel": 67, "track": 6}, {"t": 1.5, "dur": 0.24792, "note": 68, "vel": 81, "track": 2}, {"t": 1.75, "dur": 0.49792, "note": 56, "vel": 78, "track": 8}, {"t": 1.75, "dur": 0.74792, "note": 60, "vel": 73, "track": 7}, {"t": 1.75, "dur": 0.24792, "note": 72, "vel": 79, "track": 6}, {"t": 1.75, "dur": 0.24792, "note": 75, "vel": 92, "track": 3}, {"t": 1.75, "dur": 0.24792, "note": 75, "vel": 93, "track": 2}, {"t": 2.0, "dur": 0.24792, "note": 56, "vel": 75, "track": 7}, {"t": 2.0, "dur": 0.49792, "note": 68, "vel": 73, "track": 4}, {"t": 2.0, "dur": 0.24792, "note": 73, "vel": 70, "track": 2}, {"t": 2.0, "dur": 0.24792, "note": 73, "vel": 73, "track": 3}, {"t": 2.0, "dur": 0.24792, "note": 75, "vel": 82, "track": 6}, {"t": 2.25, "dur": 0.24792, "note": 51, "vel": 75, "track": 7}, {"t": 2.25, "dur": 0.24792, "note": 56, "vel": 73, "track": 8}, {"t": 2.25, "dur": 0.24792, "note": 72, "vel": 71, "track": 6}, {"t": 2.25, "dur": 0.24792, "note": 75, "vel": 77, "track": 2}, {"t": 2.25, "dur": 0.24792, "note": 75, "vel": 82, "track": 3}]}, {"id": 89, "measures": "m124", "meter": [10, 16], "length_ticks": 1200, "length_beats": 2.5, "notes": [{"t": 0.0, "dur": 0.24792, "note": 49, "vel": 71, "track": 7}, {"t": 0.0, "dur": 0.99792, "note": 49, "vel": 68, "track": 9}, {"t": 0.0, "dur": 0.49792, "note": 61, "vel": 87, "track": 8}, {"t": 0.0, "dur": 1.24792, "note": 61, "vel": 82, "track": 10}, {"t": 0.0, "dur": 0.24792, "note": 68, "vel": 61, "track": 2}, {"t": 0.0, "dur": 0.49792, "note": 68, "vel": 63, "track": 3}, {"t": 0.0, "dur": 0.24792, "note": 77, "vel": 89, "track": 6}, {"t": 0.0, "dur": 0.74792, "note": 77, "vel": 80, "track": 0}, {"t": 0.25, "dur": 0.24792, "note": 56, "vel": 82, "track": 7}, {"t": 0.25, "dur": 0.24792, "note": 68, "vel": 56, "track": 6}, {"t": 0.25, "dur": 0.24792, "note": 73, "vel": 90, "track": 2}, {"t": 0.5, "dur": 0.49792, "note": 61, "vel": 79, "track": 8}, {"t": 0.5, "dur": 0.74792, "note": 65, "vel": 68, "track": 7}, {"t": 0.5, "dur": 0.24792, "note": 73, "vel": 83, "track": 6}, {"t": 0.5, "dur": 0.24792, "note": 77, "vel": 85, "track": 2}, {"t": 0.5, "dur": 0.24792, "note": 77, "vel": 88, "track": 3}, {"t": 0.75, "dur": 0.24792, "note": 61, "vel": 73, "track": 7}, {"t": 0.75, "dur": 0.49792, "note": 65, "vel": 66, "track": 5}, {"t": 0.75, "dur": 0.49792, "note": 75, "vel": 66, "track": 5}, {"t": 0.75, "dur": 0.24792, "note": 76, "vel": 73, "track": 3}, {"t": 0.75, "dur": 0.24792, "note": 76, "vel": 74, "track": 2}, {"t": 0.75, "dur": 0.24792, "note": 77, "vel": 85, "track": 6}, {"t": 0.75, "dur": 0.49792, "note": 77, "vel": 37, "track": 4}, {"t": 0.75, "dur": 0.49792, "note": 77, "vel": 77, "track": 0}, {"t": 1.0, "dur": 0.24792, "note": 56, "vel": 71, "track": 7}, {"t": 1.0, "dur": 0.24792, "note": 61, "vel": 73, "track": 8}, {"t": 1.0, "dur": 0.24792, "note": 73, "vel": 71, "track": 6}, {"t": 1.0, "dur": 0.24792, "note": 77, "vel": 78, "track": 3}, {"t": 1.0, "dur": 0.24792, "note": 77, "vel": 82, "track": 2}, {"t": 1.25, "dur": 0.24792, "note": 53, "vel": 75, "track": 7}, {"t": 1.25, "dur": 0.99792, "note": 53, "vel": 70, "track": 9}, {"t": 1.25, "dur": 0.49792, "note": 65, "vel": 86, "track": 8}, {"t": 1.25, "dur": 1.24792, "note": 65, "vel": 83, "track": 10}, {"t": 1.25, "dur": 0.24792, "note": 68, "vel": 63, "track": 2}, {"t": 1.25, "dur": 0.49792, "note": 68, "vel": 55, "track": 3}, {"t": 1.25, "dur": 0.74792, "note": 68, "vel": 68, "track": 5}, {"t": 1.25, "dur": 0.24792, "note": 73, "vel": 75, "track": 6}, {"t": 1.25, "dur": 0.74792, "note": 73, "vel": 68, "track": 4}, {"t": 1.25, "dur": 0.74792, "note": 73, "vel": 71, "track": 0}, {"t": 1.5, "dur": 0.24792, "note": 56, "vel": 80, "track": 7}, {"t": 1.5, "dur": 0.24792, "note": 68, "vel": 65, "track": 6}, {"t": 1.5, "dur": 0.24792, "note": 73, "vel": 85, "track": 2}, {"t": 1.75, "dur": 0.49792, "note": 65, "vel": 75, "track": 8}, {"t": 1.75, "dur": 0.74792, "note": 68, "vel": 68, "track": 7}, {"t": 1.75, "dur": 0.24792, "note": 73, "vel": 87, "track": 6}, {"t": 1.75, "dur": 0.24792, "note": 80, "vel": 92, "track": 2}, {"t": 1.75, "dur": 0.49792, "note": 80, "vel": 93, "track": 3}, {"t": 2.0, "dur": 0.24792, "note": 61, "vel": 68, "track": 7}, {"t": 2.0, "dur": 0.24792, "note": 73, "vel": 67, "track": 2}, {"t": 2.0, "dur": 0.24792, "note": 80, "vel": 90, "track": 6}, {"t": 2.0, "dur": 0.49792, "note": 80, "vel": 34, "track": 4}, {"t": 2.0, "dur": 0.49792, "note": 80, "vel": 90, "track": 0}, {"t": 2.25, "dur": 0.24792, "note": 56, "vel": 68, "track": 7}, {"t": 2.25, "dur": 0.24792, "note": 65, "vel": 75, "track": 8}, {"t": 2.25, "dur": 0.24792, "note": 73, "vel": 67, "track": 6}, {"t": 2.25, "dur": 0.24792, "note": 80, "vel": 75, "track": 3}, {"t": 2.25, "dur": 0.24792, "note": 80, "vel": 91, "track": 2}]}, {"id": 90, "measures": "m125", "meter": [10, 16], "length_ticks": 1200, "length_beats": 2.5, "notes": [{"t": 0.0, "dur": 0.24792, "note": 54, "vel": 70, "track": 7}, {"t": 0.0, "dur": 0.99792, "note": 54, "vel": 69, "track": 9}, {"t": 0.0, "dur": 0.49792, "note": 66, "vel": 82, "track": 8}, {"t": 0.0, "dur": 1.24792, "note": 66, "vel": 80, "track": 10}, {"t": 0.0, "dur": 0.24792, "note": 70, "vel": 64, "track": 2}, {"t": 0.0, "dur": 0.49792, "note": 70, "vel": 57, "track": 3}, {"t": 0.0, "dur": 0.24792, "note": 82, "vel": 94, "track": 6}, {"t": 0.0, "dur": 0.74792, "note": 82, "vel": 77, "track": 0}, {"t": 0.25, "dur": 0.24792, "note": 61, "vel": 88, "track": 7}, {"t": 0.25, "dur": 0.24792, "note": 70, "vel": 58, "track": 6}, {"t": 0.25, "dur": 0.24792, "note": 73, "vel": 80, "track": 2}, {"t": 0.5, "dur": 0.49792, "note": 66, "vel": 78, "track": 8}, {"t": 0.5, "dur": 0.74792, "note": 70, "vel": 66, "track": 7}, {"t": 0.5, "dur": 0.24792, "note": 73, "vel": 80, "track": 6}, {"t": 0.5, "dur": 0.24792, "note": 82, "vel": 92, "track": 2}, {"t": 0.5, "dur": 0.49792, "note": 82, "vel": 100, "track": 3}, {"t": 0.75, "dur": 0.24792, "note": 66, "vel": 72, "track": 7}, {"t": 0.75, "dur": 0.24792, "note": 73, "vel": 68, "track": 2}, {"t": 0.75, "dur": 0.49792, "note": 73, "vel": 66, "track": 5}, {"t": 0.75, "dur": 0.49792, "note": 80, "vel": 66, "track": 5}, {"t": 0.75, "dur": 0.24792, "note": 82, "vel": 94, "track": 6}, {"t": 0.75, "dur": 0.49792, "note": 82, "vel": 39, "track": 4}, {"t": 0.75, "dur": 0.49792, "note": 82, "vel": 71, "track": 0}, {"t": 1.0, "dur": 0.24792, "note": 61, "vel": 64, "track": 7}, {"t": 1.0, "dur": 0.24792, "note": 66, "vel": 74, "track": 8}, {"t": 1.0, "dur": 0.24792, "note": 73, "vel": 64, "track": 6}, {"t": 1.0, "dur": 0.24792, "note": 82, "vel": 80, "track": 3}, {"t": 1.0, "dur": 0.24792, "note": 82, "vel": 92, "track": 2}, {"t": 1.25, "dur": 0.24792, "note": 55, "vel": 69, "track": 7}, {"t": 1.25, "dur": 0.99792, "note": 55, "vel": 70, "track": 9}, {"t": 1.25, "dur": 0.49792, "note": 67, "vel": 81, "track": 8}, {"t": 1.25, "dur": 1.24792, "note": 67, "vel": 82, "track": 10}, {"t": 1.25, "dur": 0.24792, "note": 73, "vel": 62, "track": 2}, {"t": 1.25, "dur": 0.49792, "note": 73, "vel": 57, "track": 3}, {"t": 1.25, "dur": 0.74792, "note": 73, "vel": 64, "track": 5}, {"t": 1.25, "dur": 0.74792, "note": 75, "vel": 64, "track": 5}, {"t": 1.25, "dur": 0.24792, "note": 82, "vel": 92, "track": 6}, {"t": 1.25, "dur": 0.74792, "note": 82, "vel": 42, "track": 4}, {"t": 1.25, "dur": 0.74792, "note": 82, "vel": 71, "track": 0}, {"t": 1.5, "dur": 0.24792, "note": 61, "vel": 90, "track": 7}, {"t": 1.5, "dur": 0.24792, "note": 73, "vel": 60, "track": 6}, {"t": 1.5, "dur": 0.24792, "note": 75, "vel": 78, "track": 2}, {"t": 1.75, "dur": 0.49792, "note": 67, "vel": 80, "track": 8}, {"t": 1.75, "dur": 0.74792, "note": 70, "vel": 67, "track": 7}, {"t": 1.75, "dur": 0.24792, "note": 75, "vel": 78, "track": 6}, {"t": 1.75, "dur": 0.24792, "note": 82, "vel": 90, "track": 2}, {"t": 1.75, "dur": 0.49792, "note": 82, "vel": 93, "track": 3}, {"t": 2.0, "dur": 0.24792, "note": 63, "vel": 66, "track": 7}, {"t": 2.0, "dur": 0.49792, "note": 72, "vel": 64, "track": 5}, {"t": 2.0, "dur": 0.24792, "note": 75, "vel": 65, "track": 2}, {"t": 2.0, "dur": 0.24792, "note": 82, "vel": 72, "track": 0}, {"t": 2.0, "dur": 0.24792, "note": 82, "vel": 92, "track": 6}, {"t": 2.0, "dur": 0.49792, "note": 84, "vel": 44, "track": 4}, {"t": 2.25, "dur": 0.24792, "note": 61, "vel": 69, "track": 7}, {"t": 2.25, "dur": 0.24792, "note": 67, "vel": 74, "track": 8}, {"t": 2.25, "dur": 0.24792, "note": 70, "vel": 63, "track": 2}, {"t": 2.25, "dur": 0.24792, "note": 72, "vel": 61, "track": 6}, {"t": 2.25, "dur": 0.24792, "note": 84, "vel": 83, "track": 0}, {"t": 2.25, "dur": 0.24792, "note": 84, "vel": 87, "track": 3}]}, {"id": 91, "measures": "m126", "meter": [10, 16], "length_ticks": 1200, "length_beats": 2.5, "notes": [{"t": 0.0, "dur": 0.24792, "note": 56, "vel": 69, "track": 7}, {"t": 0.0, "dur": 0.99792, "note": 56, "vel": 67, "track": 9}, {"t": 0.0, "dur": 0.49792, "note": 68, "vel": 81, "track": 8}, {"t": 0.0, "dur": 1.24792, "note": 68, "vel": 79, "track": 10}, {"t": 0.0, "dur": 0.99792, "note": 73, "vel": 43, "track": 5}, {"t": 0.0, "dur": 0.99792, "note": 73, "vel": 77, "track": 3}, {"t": 0.0, "dur": 0.99792, "note": 73, "vel": 80, "track": 1}, {"t": 0.0, "dur": 0.74792, "note": 85, "vel": 94, "track": 2}, {"t": 0.0, "dur": 0.99792, "note": 85, "vel": 43, "track": 4}, {"t": 0.0, "dur": 0.99792, "note": 85, "vel": 77, "track": 3}, {"t": 0.0, "dur": 0.99792, "note": 85, "vel": 80, "track": 0}, {"t": 0.25, "dur": 0.24792, "note": 60, "vel": 86, "track": 7}, {"t": 0.25, "dur": 0.24792, "note": 75, "vel": 59, "track": 2}, {"t": 0.5, "dur": 0.74792, "note": 66, "vel": 66, "track": 7}, {"t": 0.5, "dur": 0.49792, "note": 68, "vel": 76, "track": 8}, {"t": 0.5, "dur": 0.49792, "note": 80, "vel": 84, "track": 2}, {"t": 0.75, "dur": 0.24792, "note": 63, "vel": 73, "track": 7}, {"t": 0.75, "dur": 0.49792, "note": 85, "vel": 83, "track": 2}, {"t": 1.0, "dur": 0.24792, "note": 60, "vel": 69, "track": 7}, {"t": 1.0, "dur": 0.24792, "note": 68, "vel": 72, "track": 8}, {"t": 1.0, "dur": 0.24792, "note": 80, "vel": 69, "track": 2}, {"t": 1.25, "dur": 0.24792, "note": 57, "vel": 70, "track": 7}, {"t": 1.25, "dur": 0.99792, "note": 57, "vel": 68, "track": 9}, {"t": 1.25, "dur": 0.49792, "note": 69, "vel": 82, "track": 8}, {"t": 1.25, "dur": 1.24792, "note": 69, "vel": 81, "track": 10}, {"t": 1.25, "dur": 0.74792, "note": 85, "vel": 79, "track": 2}, {"t": 1.5, "dur": 0.24792, "note": 60, "vel": 85, "track": 7}, {"t": 1.5, "dur": 0.24792, "note": 75, "vel": 60, "track": 2}, {"t": 1.75, "dur": 0.74792, "note": 65, "vel": 66, "track": 7}, {"t": 1.75, "dur": 0.49792, "note": 69, "vel": 74, "track": 8}, {"t": 1.75, "dur": 0.49792, "note": 77, "vel": 77, "track": 2}, {"t": 2.0, "dur": 0.24792, "note": 63, "vel": 75, "track": 7}, {"t": 2.0, "dur": 0.49792, "note": 84, "vel": 72, "track": 0}, {"t": 2.0, "dur": 0.49792, "note": 84, "vel": 72, "track": 2}, {"t": 2.25, "dur": 0.24792, "note": 60, "vel": 69, "track": 7}, {"t": 2.25, "dur": 0.24792, "note": 69, "vel": 78, "track": 8}, {"t": 2.25, "dur": 0.24792, "note": 77, "vel": 66, "track": 2}]}, {"id": 92, "measures": "m127", "meter": [10, 16], "length_ticks": 1200, "length_beats": 2.5, "notes": [{"t": 0.0, "dur": 0.24792, "note": 58, "vel": 72, "track": 7}, {"t": 0.0, "dur": 0.99792, "note": 58, "vel": 65, "track": 9}, {"t": 0.0, "dur": 0.49792, "note": 70, "vel": 81, "track": 8}, {"t": 0.0, "dur": 1.24792, "note": 70, "vel": 75, "track": 10}, {"t": 0.0, "dur": 0.74792, "note": 85, "vel": 74, "track": 0}, {"t": 0.0, "dur": 0.74792, "note": 85, "vel": 74, "track": 2}, {"t": 0.0, "dur": 0.74792, "note": 85, "vel": 74, "track": 4}, {"t": 0.25, "dur": 0.24792, "note": 61, "vel": 84, "track": 7}, {"t": 0.25, "dur": 0.24792, "note": 77, "vel": 64, "track": 2}, {"t": 0.5, "dur": 0.49792, "note": 70, "vel": 75, "track": 8}, {"t": 0.5, "dur": 0.74792, "note": 70, "vel": 72, "track": 7}, {"t": 0.5, "dur": 0.49792, "note": 82, "vel": 83, "track": 2}, {"t": 0.75, "dur": 0.24792, "note": 65, "vel": 68, "track": 7}, {"t": 0.75, "dur": 0.49792, "note": 85, "vel": 75, "track": 0}, {"t": 0.75, "dur": 0.49792, "note": 85, "vel": 75, "track": 2}, {"t": 0.75, "dur": 0.49792, "note": 85, "vel": 75, "track": 4}, {"t": 1.0, "dur": 0.24792, "note": 61, "vel": 71, "track": 7}, {"t": 1.0, "dur": 0.24792, "note": 70, "vel": 76, "track": 8}, {"t": 1.0, "dur": 0.24792, "note": 82, "vel": 68, "track": 2}, {"t": 1.25, "dur": 0.24792, "note": 56, "vel": 71, "track": 7}, {"t": 1.25, "dur": 0.99792, "note": 56, "vel": 62, "track": 9}, {"t": 1.25, "dur": 0.49792, "note": 68, "vel": 73, "track": 8}, {"t": 1.25, "dur": 1.24792, "note": 68, "vel": 74, "track": 10}, {"t": 1.25, "dur": 0.74792, "note": 84, "vel": 84, "track": 1}, {"t": 1.25, "dur": 0.74792, "note": 89, "vel": 81, "track": 0}, {"t": 1.25, "dur": 0.74792, "note": 89, "vel": 81, "track": 2}, {"t": 1.25, "dur": 0.74792, "note": 89, "vel": 81, "track": 4}, {"t": 1.5, "dur": 0.24792, "note": 61, "vel": 84, "track": 7}, {"t": 1.5, "dur": 0.24792, "note": 82, "vel": 69, "track": 2}, {"t": 1.75, "dur": 0.49792, "note": 68, "vel": 80, "track": 8}, {"t": 1.75, "dur": 0.74792, "note": 70, "vel": 73, "track": 7}, {"t": 1.75, "dur": 0.49792, "note": 85, "vel": 85, "track": 2}, {"t": 2.0, "dur": 0.24792, "note": 65, "vel": 67, "track": 7}, {"t": 2.0, "dur": 0.49792, "note": 84, "vel": 80, "track": 1}, {"t": 2.0, "dur": 0.49792, "note": 89, "vel": 76, "track": 0}, {"t": 2.0, "dur": 0.49792, "note": 89, "vel": 76, "track": 2}, {"t": 2.0, "dur": 0.49792, "note": 89, "vel": 76, "track": 4}, {"t": 2.25, "dur": 0.24792, "note": 61, "vel": 65, "track": 7}, {"t": 2.25, "dur": 0.24792, "note": 68, "vel": 77, "track": 8}, {"t": 2.25, "dur": 0.24792, "note": 85, "vel": 69, "track": 2}]}, {"id": 93, "measures": "m128", "meter": [10, 16], "length_ticks": 1200, "length_beats": 2.5, "notes": [{"t": 0.0, "dur": 0.24792, "note": 55, "vel": 69, "track": 7}, {"t": 0.0, "dur": 0.99792, "note": 55, "vel": 72, "track": 9}, {"t": 0.0, "dur": 0.49792, "note": 67, "vel": 74, "track": 8}, {"t": 0.0, "dur": 1.24792, "note": 67, "vel": 69, "track": 10}, {"t": 0.0, "dur": 0.74792, "note": 82, "vel": 64, "track": 1}, {"t": 0.0, "dur": 0.74792, "note": 82, "vel": 64, "track": 5}, {"t": 0.0, "dur": 0.74792, "note": 89, "vel": 80, "track": 0}, {"t": 0.0, "dur": 0.74792, "note": 89, "vel": 80, "track": 4}, {"t": 0.0, "dur": 0.74792, "note": 94, "vel": 64, "track": 0}, {"t": 0.0, "dur": 0.74792, "note": 94, "vel": 64, "track": 2}, {"t": 0.0, "dur": 0.74792, "note": 94, "vel": 64, "track": 4}, {"t": 0.25, "dur": 0.24792, "note": 61, "vel": 86, "track": 7}, {"t": 0.25, "dur": 0.24792, "note": 82, "vel": 56, "track": 2}, {"t": 0.5, "dur": 0.49792, "note": 67, "vel": 81, "track": 8}, {"t": 0.5, "dur": 0.74792, "note": 70, "vel": 71, "track": 7}, {"t": 0.5, "dur": 0.49792, "note": 87, "vel": 83, "track": 2}, {"t": 0.75, "dur": 0.24792, "note": 63, "vel": 64, "track": 7}, {"t": 0.75, "dur": 0.49792, "note": 82, "vel": 72, "track": 1}, {"t": 0.75, "dur": 0.49792, "note": 82, "vel": 72, "track": 5}, {"t": 0.75, "dur": 0.49792, "note": 89, "vel": 80, "track": 0}, {"t": 0.75, "dur": 0.49792, "note": 89, "vel": 80, "track": 4}, {"t": 0.75, "dur": 0.49792, "note": 94, "vel": 72, "track": 0}, {"t": 0.75, "dur": 0.49792, "note": 94, "vel": 72, "track": 2}, {"t": 0.75, "dur": 0.49792, "note": 94, "vel": 72, "track": 4}, {"t": 1.0, "dur": 0.24792, "note": 61, "vel": 70, "track": 7}, {"t": 1.0, "dur": 0.24792, "note": 67, "vel": 76, "track": 8}, {"t": 1.0, "dur": 0.24792, "note": 87, "vel": 64, "track": 2}, {"t": 1.25, "dur": 0.24792, "note": 54, "vel": 64, "track": 7}, {"t": 1.25, "dur": 0.99792, "note": 54, "vel": 66, "track": 9}, {"t": 1.25, "dur": 0.49792, "note": 66, "vel": 77, "track": 8}, {"t": 1.25, "dur": 1.24792, "note": 66, "vel": 73, "track": 10}, {"t": 1.25, "dur": 0.74792, "note": 82, "vel": 61, "track": 1}, {"t": 1.25, "dur": 0.74792, "note": 82, "vel": 61, "track": 5}, {"t": 1.25, "dur": 0.74792, "note": 87, "vel": 61, "track": 0}, {"t": 1.25, "dur": 0.74792, "note": 87, "vel": 61, "track": 2}, {"t": 1.25, "dur": 0.74792, "note": 87, "vel": 61, "track": 4}, {"t": 1.5, "dur": 0.24792, "note": 60, "vel": 88, "track": 7}, {"t": 1.5, "dur": 0.24792, "note": 75, "vel": 56, "track": 2}, {"t": 1.75, "dur": 0.49792, "note": 66, "vel": 69, "track": 8}, {"t": 1.75, "dur": 0.74792, "note": 68, "vel": 69, "track": 7}, {"t": 1.75, "dur": 0.49792, "note": 80, "vel": 81, "track": 2}, {"t": 2.0, "dur": 0.24792, "note": 63, "vel": 73, "track": 7}, {"t": 2.0, "dur": 0.49792, "note": 82, "vel": 75, "track": 1}, {"t": 2.0, "dur": 0.49792, "note": 82, "vel": 75, "track": 5}, {"t": 2.0, "dur": 0.49792, "note": 87, "vel": 75, "track": 0}, {"t": 2.0, "dur": 0.49792, "note": 87, "vel": 75, "track": 2}, {"t": 2.0, "dur": 0.49792, "note": 87, "vel": 75, "track": 4}, {"t": 2.25, "dur": 0.24792, "note": 60, "vel": 69, "track": 7}, {"t": 2.25, "dur": 0.24792, "note": 66, "vel": 77, "track": 8}, {"t": 2.25, "dur": 0.24792, "note": 80, "vel": 65, "track": 2}]}, {"id": 94, "measures": "m129", "meter": [10, 16], "length_ticks": 1200, "length_beats": 2.5, "notes": [{"t": 0.0, "dur": 0.24792, "note": 53, "vel": 71, "track": 7}, {"t": 0.0, "dur": 0.99792, "note": 53, "vel": 72, "track": 9}, {"t": 0.0, "dur": 0.49792, "note": 65, "vel": 73, "track": 8}, {"t": 0.0, "dur": 1.24792, "note": 65, "vel": 78, "track": 10}, {"t": 0.0, "dur": 0.74792, "note": 82, "vel": 64, "track": 1}, {"t": 0.0, "dur": 0.74792, "note": 82, "vel": 64, "track": 5}, {"t": 0.0, "dur": 0.74792, "note": 89, "vel": 80, "track": 0}, {"t": 0.0, "dur": 0.74792, "note": 89, "vel": 80, "track": 4}, {"t": 0.0, "dur": 0.74792, "note": 92, "vel": 87, "track": 2}, {"t": 0.0, "dur": 0.74792, "note": 94, "vel": 64, "track": 0}, {"t": 0.0, "dur": 0.74792, "note": 94, "vel": 64, "track": 4}, {"t": 0.25, "dur": 0.24792, "note": 56, "vel": 76, "track": 7}, {"t": 0.25, "dur": 0.24792, "note": 80, "vel": 54, "track": 2}, {"t": 0.5, "dur": 0.49792, "note": 65, "vel": 76, "track": 8}, {"t": 0.5, "dur": 0.74792, "note": 68, "vel": 65, "track": 7}, {"t": 0.5, "dur": 0.49792, "note": 85, "vel": 83, "track": 2}, {"t": 0.75, "dur": 0.24792, "note": 61, "vel": 66, "track": 7}, {"t": 0.75, "dur": 0.49792, "note": 82, "vel": 72, "track": 1}, {"t": 0.75, "dur": 0.49792, "note": 82, "vel": 72, "track": 5}, {"t": 0.75, "dur": 0.49792, "note": 89, "vel": 80, "track": 0}, {"t": 0.75, "dur": 0.49792, "note": 89, "vel": 80, "track": 4}, {"t": 0.75, "dur": 0.49792, "note": 92, "vel": 80, "track": 2}, {"t": 0.75, "dur": 0.49792, "note": 94, "vel": 72, "track": 0}, {"t": 0.75, "dur": 0.49792, "note": 94, "vel": 72, "track": 4}, {"t": 1.0, "dur": 0.24792, "note": 56, "vel": 65, "track": 7}, {"t": 1.0, "dur": 0.24792, "note": 65, "vel": 71, "track": 8}, {"t": 1.0, "dur": 0.24792, "note": 85, "vel": 66, "track": 2}, {"t": 1.25, "dur": 0.24792, "note": 53, "vel": 69, "track": 7}, {"t": 1.25, "dur": 0.99792, "note": 53, "vel": 67, "track": 9}, {"t": 1.25, "dur": 0.49792, "note": 63, "vel": 71, "track": 8}, {"t": 1.25, "dur": 1.24792, "note": 63, "vel": 72, "track": 10}, {"t": 1.25, "dur": 0.74792, "note": 82, "vel": 61, "track": 1}, {"t": 1.25, "dur": 0.74792, "note": 82, "vel": 61, "track": 5}, {"t": 1.25, "dur": 0.74792, "note": 87, "vel": 61, "track": 0}, {"t": 1.25, "dur": 0.74792, "note": 87, "vel": 61, "track": 4}, {"t": 1.25, "dur": 0.74792, "note": 90, "vel": 70, "track": 2}, {"t": 1.5, "dur": 0.24792, "note": 56, "vel": 82, "track": 7}, {"t": 1.5, "dur": 0.24792, "note": 78, "vel": 56, "track": 2}, {"t": 1.75, "dur": 0.49792, "note": 63, "vel": 75, "track": 8}, {"t": 1.75, "dur": 0.74792, "note": 66, "vel": 68, "track": 7}, {"t": 1.75, "dur": 0.49792, "note": 84, "vel": 89, "track": 2}, {"t": 2.0, "dur": 0.24792, "note": 60, "vel": 71, "track": 7}, {"t": 2.0, "dur": 0.49792, "note": 82, "vel": 75, "track": 1}, {"t": 2.0, "dur": 0.49792, "note": 82, "vel": 75, "track": 5}, {"t": 2.0, "dur": 0.49792, "note": 87, "vel": 75, "track": 0}, {"t": 2.0, "dur": 0.49792, "note": 87, "vel": 75, "track": 4}, {"t": 2.0, "dur": 0.49792, "note": 90, "vel": 76, "track": 2}, {"t": 2.25, "dur": 0.24792, "note": 56, "vel": 69, "track": 7}, {"t": 2.25, "dur": 0.24792, "note": 63, "vel": 78, "track": 8}, {"t": 2.25, "dur": 0.24792, "note": 84, "vel": 67, "track": 2}]}, {"id": 95, "measures": "m130", "meter": [10, 16], "length_ticks": 1200, "length_beats": 2.5, "notes": [{"t": 0.0, "dur": 0.24792, "note": 50, "vel": 69, "track": 7}, {"t": 0.0, "dur": 0.99792, "note": 50, "vel": 71, "track": 9}, {"t": 0.0, "dur": 0.49792, "note": 62, "vel": 77, "track": 8}, {"t": 0.0, "dur": 1.24792, "note": 62, "vel": 70, "track": 10}, {"t": 0.0, "dur": 0.74792, "note": 89, "vel": 72, "track": 2}, {"t": 0.25, "dur": 0.24792, "note": 56, "vel": 83, "track": 7}, {"t": 0.25, "dur": 0.24792, "note": 77, "vel": 59, "track": 2}, {"t": 0.5, "dur": 0.49792, "note": 62, "vel": 70, "track": 8}, {"t": 0.5, "dur": 0.74792, "note": 65, "vel": 60, "track": 7}, {"t": 0.5, "dur": 0.49792, "note": 83, "vel": 92, "track": 2}, {"t": 0.5, "dur": 0.49792, "note": 89, "vel": 83, "track": 0}, {"t": 0.75, "dur": 0.24792, "note": 59, "vel": 74, "track": 7}, {"t": 0.75, "dur": 0.49792, "note": 89, "vel": 67, "track": 2}, {"t": 1.0, "dur": 0.24792, "note": 56, "vel": 78, "track": 7}, {"t": 1.0, "dur": 0.24792, "note": 62, "vel": 73, "track": 8}, {"t": 1.0, "dur": 0.24792, "note": 77, "vel": 83, "track": 1}, {"t": 1.0, "dur": 0.24792, "note": 83, "vel": 70, "track": 2}, {"t": 1.0, "dur": 0.24792, "note": 83, "vel": 83, "track": 1}, {"t": 1.0, "dur": 0.24792, "note": 89, "vel": 83, "track": 0}, {"t": 1.25, "dur": 0.24792, "note": 49, "vel": 72, "track": 7}, {"t": 1.25, "dur": 0.99792, "note": 49, "vel": 70, "track": 9}, {"t": 1.25, "dur": 0.49792, "note": 61, "vel": 73, "track": 8}, {"t": 1.25, "dur": 1.24792, "note": 61, "vel": 72, "track": 10}, {"t": 1.25, "dur": 0.74792, "note": 88, "vel": 69, "track": 2}, {"t": 1.5, "dur": 0.24792, "note": 55, "vel": 82, "track": 7}, {"t": 1.5, "dur": 0.24792, "note": 76, "vel": 54, "track": 2}, {"t": 1.75, "dur": 0.49792, "note": 61, "vel": 73, "track": 8}, {"t": 1.75, "dur": 0.74792, "note": 64, "vel": 74, "track": 7}, {"t": 1.75, "dur": 0.49792, "note": 82, "vel": 88, "track": 2}, {"t": 2.0, "dur": 0.24792, "note": 58, "vel": 79, "track": 7}, {"t": 2.0, "dur": 0.49792, "note": 77, "vel": 72, "track": 1}, {"t": 2.0, "dur": 0.49792, "note": 82, "vel": 72, "track": 0}, {"t": 2.0, "dur": 0.49792, "note": 88, "vel": 76, "track": 2}, {"t": 2.25, "dur": 0.24792, "note": 55, "vel": 73, "track": 7}, {"t": 2.25, "dur": 0.24792, "note": 61, "vel": 75, "track": 8}, {"t": 2.25, "dur": 0.24792, "note": 82, "vel": 65, "track": 2}]}, {"id": 96, "measures": "m131", "meter": [10, 16], "length_ticks": 1200, "length_beats": 2.5, "notes": [{"t": 0.0, "dur": 0.24792, "note": 48, "vel": 70, "track": 7}, {"t": 0.0, "dur": 0.99792, "note": 48, "vel": 67, "track": 9}, {"t": 0.0, "dur": 0.49792, "note": 60, "vel": 71, "track": 8}, {"t": 0.0, "dur": 1.24792, "note": 60, "vel": 76, "track": 10}, {"t": 0.0, "dur": 0.74792, "note": 78, "vel": 98, "track": 1}, {"t": 0.0, "dur": 0.74792, "note": 80, "vel": 98, "track": 0}, {"t": 0.0, "dur": 0.74792, "note": 87, "vel": 98, "track": 2}, {"t": 0.25, "dur": 0.24792, "note": 54, "vel": 80, "track": 7}, {"t": 0.25, "dur": 0.24792, "note": 75, "vel": 61, "track": 2}, {"t": 0.5, "dur": 0.49792, "note": 60, "vel": 78, "track": 8}, {"t": 0.5, "dur": 0.74792, "note": 63, "vel": 67, "track": 7}, {"t": 0.5, "dur": 0.49792, "note": 81, "vel": 83, "track": 2}, {"t": 0.75, "dur": 0.24792, "note": 56, "vel": 72, "track": 7}, {"t": 0.75, "dur": 0.49792, "note": 78, "vel": 80, "track": 1}, {"t": 0.75, "dur": 0.49792, "note": 80, "vel": 80, "track": 0}, {"t": 0.75, "dur": 0.49792, "note": 87, "vel": 80, "track": 2}, {"t": 1.0, "dur": 0.24792, "note": 54, "vel": 71, "track": 7}, {"t": 1.0, "dur": 0.24792, "note": 60, "vel": 72, "track": 8}, {"t": 1.0, "dur": 0.24792, "note": 81, "vel": 65, "track": 2}, {"t": 1.25, "dur": 0.24792, "note": 49, "vel": 73, "track": 7}, {"t": 1.25, "dur": 0.99792, "note": 49, "vel": 71, "track": 9}, {"t": 1.25, "dur": 0.49792, "note": 61, "vel": 80, "track": 8}, {"t": 1.25, "dur": 1.24792, "note": 61, "vel": 80, "track": 10}, {"t": 1.25, "dur": 0.74792, "note": 77, "vel": 76, "track": 1}, {"t": 1.25, "dur": 0.74792, "note": 80, "vel": 76, "track": 0}, {"t": 1.25, "dur": 0.74792, "note": 87, "vel": 76, "track": 2}, {"t": 1.5, "dur": 0.24792, "note": 56, "vel": 84, "track": 7}, {"t": 1.5, "dur": 0.24792, "note": 77, "vel": 62, "track": 2}, {"t": 1.75, "dur": 0.49792, "note": 61, "vel": 73, "track": 8}, {"t": 1.75, "dur": 0.74792, "note": 65, "vel": 66, "track": 7}, {"t": 1.75, "dur": 0.49792, "note": 80, "vel": 84, "track": 2}, {"t": 2.0, "dur": 0.24792, "note": 61, "vel": 70, "track": 7}, {"t": 2.0, "dur": 0.49792, "note": 75, "vel": 69, "track": 1}, {"t": 2.0, "dur": 0.49792, "note": 77, "vel": 69, "track": 0}, {"t": 2.0, "dur": 0.49792, "note": 85, "vel": 69, "track": 2}, {"t": 2.25, "dur": 0.24792, "note": 56, "vel": 69, "track": 7}, {"t": 2.25, "dur": 0.24792, "note": 61, "vel": 76, "track": 8}, {"t": 2.25, "dur": 0.24792, "note": 80, "vel": 66, "track": 2}]}, {"id": 97, "measures": "m132", "meter": [10, 16], "length_ticks": 1200, "length_beats": 2.5, "notes": [{"t": 0.0, "dur": 0.24792, "note": 45, "vel": 70, "track": 7}, {"t": 0.0, "dur": 0.99792, "note": 45, "vel": 63, "track": 9}, {"t": 0.0, "dur": 0.49792, "note": 57, "vel": 69, "track": 8}, {"t": 0.0, "dur": 1.24792, "note": 57, "vel": 73, "track": 10}, {"t": 0.0, "dur": 0.74792, "note": 72, "vel": 80, "track": 1}, {"t": 0.0, "dur": 0.74792, "note": 75, "vel": 80, "track": 1}, {"t": 0.0, "dur": 0.74792, "note": 84, "vel": 80, "track": 0}, {"t": 0.0, "dur": 0.74792, "note": 85, "vel": 78, "track": 2}, {"t": 0.25, "dur": 0.24792, "note": 51, "vel": 84, "track": 7}, {"t": 0.25, "dur": 0.24792, "note": 72, "vel": 53, "track": 2}, {"t": 0.5, "dur": 0.49792, "note": 57, "vel": 75, "track": 8}, {"t": 0.5, "dur": 0.74792, "note": 60, "vel": 67, "track": 7}, {"t": 0.5, "dur": 0.49792, "note": 77, "vel": 81, "track": 2}, {"t": 0.75, "dur": 0.24792, "note": 53, "vel": 73, "track": 7}, {"t": 0.75, "dur": 0.49792, "note": 72, "vel": 80, "track": 1}, {"t": 0.75, "dur": 0.49792, "note": 75, "vel": 80, "track": 0}, {"t": 0.75, "dur": 0.49792, "note": 84, "vel": 73, "track": 2}, {"t": 1.0, "dur": 0.24792, "note": 51, "vel": 70, "track": 7}, {"t": 1.0, "dur": 0.24792, "note": 57, "vel": 73, "track": 8}, {"t": 1.0, "dur": 0.24792, "note": 77, "vel": 64, "track": 2}, {"t": 1.25, "dur": 0.24792, "note": 46, "vel": 71, "track": 7}, {"t": 1.25, "dur": 0.99792, "note": 46, "vel": 66, "track": 9}, {"t": 1.25, "dur": 0.49792, "note": 58, "vel": 75, "track": 8}, {"t": 1.25, "dur": 1.24792, "note": 58, "vel": 75, "track": 10}, {"t": 1.25, "dur": 0.74792, "note": 72, "vel": 76, "track": 1}, {"t": 1.25, "dur": 0.74792, "note": 73, "vel": 80, "track": 0}, {"t": 1.25, "dur": 0.74792, "note": 84, "vel": 76, "track": 2}, {"t": 1.5, "dur": 0.24792, "note": 53, "vel": 76, "track": 7}, {"t": 1.5, "dur": 0.24792, "note": 73, "vel": 58, "track": 2}, {"t": 1.75, "dur": 0.49792, "note": 58, "vel": 78, "track": 8}, {"t": 1.75, "dur": 0.74792, "note": 61, "vel": 66, "track": 7}, {"t": 1.75, "dur": 0.49792, "note": 77, "vel": 78, "track": 2}, {"t": 2.0, "dur": 0.24792, "note": 58, "vel": 75, "track": 7}, {"t": 2.0, "dur": 0.49792, "note": 72, "vel": 80, "track": 1}, {"t": 2.0, "dur": 0.49792, "note": 73, "vel": 80, "track": 0}, {"t": 2.0, "dur": 0.49792, "note": 82, "vel": 73, "track": 2}, {"t": 2.25, "dur": 0.24792, "note": 53, "vel": 74, "track": 7}, {"t": 2.25, "dur": 0.24792, "note": 58, "vel": 81, "track": 8}, {"t": 2.25, "dur": 0.24792, "note": 77, "vel": 69, "track": 2}]}, {"id": 98, "measures": "m133", "meter": [10, 16], "length_ticks": 1200, "length_beats": 2.5, "notes": [{"t": 0.0, "dur": 0.24792, "note": 48, "vel": 69, "track": 7}, {"t": 0.0, "dur": 0.99792, "note": 48, "vel": 67, "track": 9}, {"t": 0.0, "dur": 0.49792, "note": 60, "vel": 87, "track": 8}, {"t": 0.0, "dur": 1.24792, "note": 60, "vel": 81, "track": 10}, {"t": 0.0, "dur": 0.74792, "note": 70, "vel": 80, "track": 1}, {"t": 0.0, "dur": 0.74792, "note": 73, "vel": 80, "track": 1}, {"t": 0.0, "dur": 0.74792, "note": 82, "vel": 73, "track": 2}, {"t": 0.0, "dur": 0.74792, "note": 82, "vel": 80, "track": 0}, {"t": 0.25, "dur": 0.24792, "note": 54, "vel": 86, "track": 7}, {"t": 0.25, "dur": 0.24792, "note": 68, "vel": 54, "track": 2}, {"t": 0.5, "dur": 0.49792, "note": 60, "vel": 75, "track": 8}, {"t": 0.5, "dur": 0.74792, "note": 63, "vel": 70, "track": 7}, {"t": 0.5, "dur": 0.49792, "note": 75, "vel": 88, "track": 2}, {"t": 0.75, "dur": 0.24792, "note": 56, "vel": 73, "track": 7}, {"t": 0.75, "dur": 0.49792, "note": 68, "vel": 80, "track": 1}, {"t": 0.75, "dur": 0.49792, "note": 73, "vel": 80, "track": 1}, {"t": 0.75, "dur": 0.49792, "note": 80, "vel": 70, "track": 2}, {"t": 0.75, "dur": 0.49792, "note": 82, "vel": 80, "track": 0}, {"t": 1.0, "dur": 0.24792, "note": 54, "vel": 73, "track": 7}, {"t": 1.0, "dur": 0.24792, "note": 60, "vel": 74, "track": 8}, {"t": 1.0, "dur": 0.24792, "note": 73, "vel": 67, "track": 2}, {"t": 1.25, "dur": 0.24792, "note": 44, "vel": 70, "track": 7}, {"t": 1.25, "dur": 0.99792, "note": 44, "vel": 72, "track": 9}, {"t": 1.25, "dur": 0.49792, "note": 56, "vel": 72, "track": 8}, {"t": 1.25, "dur": 1.24792, "note": 56, "vel": 68, "track": 10}, {"t": 1.25, "dur": 0.74792, "note": 68, "vel": 76, "track": 1}, {"t": 1.25, "dur": 0.74792, "note": 72, "vel": 80, "track": 1}, {"t": 1.25, "dur": 0.74792, "note": 80, "vel": 80, "track": 0}, {"t": 1.25, "dur": 0.74792, "note": 82, "vel": 80, "track": 2}, {"t": 1.5, "dur": 0.24792, "note": 51, "vel": 80, "track": 7}, {"t": 1.5, "dur": 0.24792, "note": 72, "vel": 66, "track": 2}, {"t": 1.75, "dur": 0.49792, "note": 56, "vel": 78, "track": 8}, {"t": 1.75, "dur": 0.74792, "note": 60, "vel": 70, "track": 7}, {"t": 1.75, "dur": 0.24792, "note": 75, "vel": 77, "track": 2}, {"t": 2.0, "dur": 0.24792, "note": 56, "vel": 77, "track": 7}, {"t": 2.0, "dur": 0.49792, "note": 66, "vel": 80, "track": 1}, {"t": 2.0, "dur": 0.49792, "note": 72, "vel": 80, "track": 1}, {"t": 2.0, "dur": 0.49792, "note": 78, "vel": 80, "track": 0}, {"t": 2.0, "dur": 0.24792, "note": 80, "vel": 69, "track": 2}, {"t": 2.25, "dur": 0.24792, "note": 51, "vel": 70, "track": 7}, {"t": 2.25, "dur": 0.24792, "note": 56, "vel": 77, "track": 8}, {"t": 2.25, "dur": 0.24792, "note": 78, "vel": 70, "track": 2}]}, {"id": 99, "measures": "m134", "meter": [10, 16], "length_ticks": 1200, "length_beats": 2.5, "notes": [{"t": 0.0, "dur": 0.24792, "note": 45, "vel": 75, "track": 7}, {"t": 0.0, "dur": 0.99792, "note": 45, "vel": 68, "track": 9}, {"t": 0.0, "dur": 0.49792, "note": 57, "vel": 75, "track": 8}, {"t": 0.0, "dur": 1.24792, "note": 57, "vel": 77, "track": 10}, {"t": 0.0, "dur": 1.24792, "note": 65, "vel": 72, "track": 1}, {"t": 0.0, "dur": 1.24792, "note": 72, "vel": 72, "track": 1}, {"t": 0.0, "dur": 0.99792, "note": 77, "vel": 70, "track": 2}, {"t": 0.0, "dur": 1.24792, "note": 77, "vel": 72, "track": 0}, {"t": 0.0, "dur": 0.24792, "note": 78, "vel": 80, "track": 4}, {"t": 0.25, "dur": 0.24792, "note": 51, "vel": 84, "track": 7}, {"t": 0.25, "dur": 0.24792, "note": 65, "vel": 58, "track": 2}, {"t": 0.25, "dur": 0.24792, "note": 65, "vel": 58, "track": 4}, {"t": 0.25, "dur": 0.24792, "note": 78, "vel": 80, "track": 4}, {"t": 0.5, "dur": 0.49792, "note": 57, "vel": 76, "track": 8}, {"t": 0.5, "dur": 0.74792, "note": 60, "vel": 66, "track": 7}, {"t": 0.5, "dur": 0.24792, "note": 72, "vel": 90, "track": 2}, {"t": 0.5, "dur": 0.24792, "note": 72, "vel": 90, "track": 4}, {"t": 0.5, "dur": 0.49792, "note": 77, "vel": 70, "track": 4}, {"t": 0.75, "dur": 0.24792, "note": 53, "vel": 77, "track": 7}, {"t": 0.75, "dur": 0.24792, "note": 75, "vel": 69, "track": 2}, {"t": 0.75, "dur": 0.24792, "note": 75, "vel": 69, "track": 4}, {"t": 1.0, "dur": 0.24792, "note": 51, "vel": 71, "track": 7}, {"t": 1.0, "dur": 0.24792, "note": 57, "vel": 77, "track": 8}, {"t": 1.0, "dur": 0.24792, "note": 73, "vel": 75, "track": 2}, {"t": 1.0, "dur": 0.24792, "note": 73, "vel": 75, "track": 4}, {"t": 1.25, "dur": 0.24792, "note": 46, "vel": 77, "track": 7}, {"t": 1.25, "dur": 0.99792, "note": 46, "vel": 69, "track": 9}, {"t": 1.25, "dur": 0.49792, "note": 58, "vel": 79, "track": 8}, {"t": 1.25, "dur": 1.24792, "note": 58, "vel": 81, "track": 10}, {"t": 1.25, "dur": 0.74792, "note": 73, "vel": 75, "track": 2}, {"t": 1.25, "dur": 0.74792, "note": 73, "vel": 75, "track": 4}, {"t": 1.5, "dur": 0.24792, "note": 53, "vel": 79, "track": 7}, {"t": 1.5, "dur": 0.24792, "note": 65, "vel": 65, "track": 2}, {"t": 1.5, "dur": 0.24792, "note": 65, "vel": 65, "track": 4}, {"t": 1.75, "dur": 0.49792, "note": 58, "vel": 77, "track": 8}, {"t": 1.75, "dur": 0.74792, "note": 61, "vel": 72, "track": 7}, {"t": 1.75, "dur": 0.49792, "note": 70, "vel": 86, "track": 2}, {"t": 1.75, "dur": 0.49792, "note": 70, "vel": 86, "track": 4}, {"t": 2.0, "dur": 0.24792, "note": 58, "vel": 74, "track": 7}, {"t": 2.0, "dur": 0.49792, "note": 73, "vel": 72, "track": 0}, {"t": 2.0, "dur": 0.49792, "note": 73, "vel": 80, "track": 2}, {"t": 2.0, "dur": 0.49792, "note": 73, "vel": 80, "track": 4}, {"t": 2.25, "dur": 0.24792, "note": 53, "vel": 70, "track": 7}, {"t": 2.25, "dur": 0.24792, "note": 58, "vel": 71, "track": 8}, {"t": 2.25, "dur": 0.24792, "note": 70, "vel": 76, "track": 2}, {"t": 2.25, "dur": 0.24792, "note": 70, "vel": 76, "track": 4}]}, {"id": 100, "measures": "m135", "meter": [10, 16], "length_ticks": 1200, "length_beats": 2.5, "notes": [{"t": 0.0, "dur": 0.24792, "note": 48, "vel": 70, "track": 7}, {"t": 0.0, "dur": 0.99792, "note": 48, "vel": 70, "track": 9}, {"t": 0.0, "dur": 0.24792, "note": 63, "vel": 55, "track": 2}, {"t": 0.0, "dur": 0.49792, "note": 63, "vel": 67, "track": 3}, {"t": 0.0, "dur": 0.24792, "note": 75, "vel": 77, "track": 6}, {"t": 0.0, "dur": 0.74792, "note": 75, "vel": 78, "track": 0}, {"t": 0.25, "dur": 0.24792, "note": 54, "vel": 82, "track": 7}, {"t": 0.25, "dur": 0.24792, "note": 66, "vel": 56, "track": 6}, {"t": 0.25, "dur": 0.24792, "note": 66, "vel": 76, "track": 2}, {"t": 0.5, "dur": 0.74792, "note": 63, "vel": 73, "track": 7}, {"t": 0.5, "dur": 0.24792, "note": 70, "vel": 79, "track": 6}, {"t": 0.5, "dur": 0.24792, "note": 70, "vel": 83, "track": 2}, {"t": 0.5, "dur": 0.24792, "note": 70, "vel": 89, "track": 3}, {"t": 0.75, "dur": 0.24792, "note": 58, "vel": 74, "track": 7}, {"t": 0.75, "dur": 0.24792, "note": 69, "vel": 73, "track": 2}, {"t": 0.75, "dur": 0.24792, "note": 69, "vel": 73, "track": 3}, {"t": 0.75, "dur": 0.24792, "note": 75, "vel": 77, "track": 0}, {"t": 0.75, "dur": 0.24792, "note": 75, "vel": 90, "track": 6}, {"t": 1.0, "dur": 0.24792, "note": 54, "vel": 75, "track": 7}, {"t": 1.0, "dur": 0.24792, "note": 70, "vel": 76, "track": 3}, {"t": 1.0, "dur": 0.24792, "note": 70, "vel": 79, "track": 2}, {"t": 1.0, "dur": 0.24792, "note": 72, "vel": 67, "track": 0}, {"t": 1.0, "dur": 0.24792, "note": 72, "vel": 71, "track": 6}, {"t": 1.25, "dur": 0.24792, "note": 46, "vel": 65, "track": 7}, {"t": 1.25, "dur": 0.99792, "note": 46, "vel": 66, "track": 9}, {"t": 1.25, "dur": 0.24792, "note": 65, "vel": 68, "track": 2}, {"t": 1.25, "dur": 0.49792, "note": 65, "vel": 67, "track": 3}, {"t": 1.25, "dur": 0.24792, "note": 73, "vel": 80, "track": 6}, {"t": 1.25, "dur": 0.74792, "note": 73, "vel": 76, "track": 0}, {"t": 1.5, "dur": 0.24792, "note": 53, "vel": 82, "track": 7}, {"t": 1.5, "dur": 0.24792, "note": 65, "vel": 62, "track": 6}, {"t": 1.5, "dur": 0.24792, "note": 70, "vel": 82, "track": 2}, {"t": 1.75, "dur": 0.74792, "note": 61, "vel": 69, "track": 7}, {"t": 1.75, "dur": 0.24792, "note": 70, "vel": 82, "track": 6}, {"t": 1.75, "dur": 0.24792, "note": 73, "vel": 84, "track": 2}, {"t": 1.75, "dur": 0.24792, "note": 73, "vel": 88, "track": 3}, {"t": 2.0, "dur": 0.24792, "note": 58, "vel": 72, "track": 7}, {"t": 2.0, "dur": 0.24792, "note": 72, "vel": 73, "track": 2}, {"t": 2.0, "dur": 0.24792, "note": 72, "vel": 75, "track": 3}, {"t": 2.0, "dur": 0.24792, "note": 73, "vel": 84, "track": 6}, {"t": 2.0, "dur": 0.49792, "note": 73, "vel": 78, "track": 0}, {"t": 2.25, "dur": 0.24792, "note": 53, "vel": 71, "track": 7}, {"t": 2.25, "dur": 0.24792, "note": 70, "vel": 69, "track": 6}, {"t": 2.25, "dur": 0.24792, "note": 73, "vel": 79, "track": 2}, {"t": 2.25, "dur": 0.24792, "note": 73, "vel": 83, "track": 3}]}, {"id": 101, "measures": "m136", "meter": [10, 16], "length_ticks": 1200, "length_beats": 2.5, "notes": [{"t": 0.0, "dur": 0.24792, "note": 48, "vel": 68, "track": 7}, {"t": 0.0, "dur": 0.99792, "note": 48, "vel": 68, "track": 9}, {"t": 0.0, "dur": 0.24792, "note": 66, "vel": 62, "track": 2}, {"t": 0.0, "dur": 0.49792, "note": 66, "vel": 61, "track": 3}, {"t": 0.0, "dur": 0.24792, "note": 75, "vel": 85, "track": 6}, {"t": 0.0, "dur": 0.74792, "note": 75, "vel": 85, "track": 0}, {"t": 0.25, "dur": 0.24792, "note": 54, "vel": 84, "track": 7}, {"t": 0.25, "dur": 0.24792, "note": 66, "vel": 59, "track": 6}, {"t": 0.25, "dur": 0.24792, "note": 70, "vel": 79, "track": 2}, {"t": 0.5, "dur": 0.74792, "note": 63, "vel": 67, "track": 7}, {"t": 0.5, "dur": 0.24792, "note": 70, "vel": 80, "track": 6}, {"t": 0.5, "dur": 0.24792, "note": 75, "vel": 85, "track": 2}, {"t": 0.5, "dur": 0.24792, "note": 75, "vel": 91, "track": 3}, {"t": 0.75, "dur": 0.24792, "note": 58, "vel": 79, "track": 7}, {"t": 0.75, "dur": 0.24792, "note": 74, "vel": 72, "track": 3}, {"t": 0.75, "dur": 0.24792, "note": 74, "vel": 74, "track": 2}, {"t": 0.75, "dur": 0.24792, "note": 75, "vel": 76, "track": 0}, {"t": 0.75, "dur": 0.24792, "note": 75, "vel": 90, "track": 6}, {"t": 1.0, "dur": 0.24792, "note": 54, "vel": 77, "track": 7}, {"t": 1.0, "dur": 0.24792, "note": 75, "vel": 78, "track": 3}, {"t": 1.0, "dur": 0.24792, "note": 75, "vel": 80, "track": 2}, {"t": 1.0, "dur": 0.24792, "note": 78, "vel": 79, "track": 0}, {"t": 1.0, "dur": 0.24792, "note": 78, "vel": 83, "track": 6}, {"t": 1.25, "dur": 0.24792, "note": 46, "vel": 65, "track": 7}, {"t": 1.25, "dur": 0.99792, "note": 46, "vel": 66, "track": 9}, {"t": 1.25, "dur": 0.24792, "note": 65, "vel": 56, "track": 2}, {"t": 1.25, "dur": 0.49792, "note": 65, "vel": 63, "track": 3}, {"t": 1.25, "dur": 0.24792, "note": 77, "vel": 73, "track": 6}, {"t": 1.25, "dur": 0.74792, "note": 77, "vel": 73, "track": 0}, {"t": 1.5, "dur": 0.24792, "note": 53, "vel": 83, "track": 7}, {"t": 1.5, "dur": 0.24792, "note": 65, "vel": 58, "track": 6}, {"t": 1.5, "dur": 0.24792, "note": 70, "vel": 82, "track": 2}, {"t": 1.75, "dur": 0.74792, "note": 61, "vel": 76, "track": 7}, {"t": 1.75, "dur": 0.24792, "note": 70, "vel": 83, "track": 6}, {"t": 1.75, "dur": 0.24792, "note": 77, "vel": 87, "track": 2}, {"t": 1.75, "dur": 0.24792, "note": 77, "vel": 90, "track": 3}, {"t": 2.0, "dur": 0.24792, "note": 58, "vel": 77, "track": 7}, {"t": 2.0, "dur": 0.24792, "note": 73, "vel": 82, "track": 6}, {"t": 2.0, "dur": 0.49792, "note": 73, "vel": 67, "track": 0}, {"t": 2.0, "dur": 0.24792, "note": 76, "vel": 75, "track": 2}, {"t": 2.0, "dur": 0.24792, "note": 76, "vel": 75, "track": 3}, {"t": 2.25, "dur": 0.24792, "note": 53, "vel": 72, "track": 7}, {"t": 2.25, "dur": 0.24792, "note": 70, "vel": 67, "track": 6}, {"t": 2.25, "dur": 0.24792, "note": 77, "vel": 78, "track": 2}, {"t": 2.25, "dur": 0.24792, "note": 77, "vel": 81, "track": 3}]}, {"id": 102, "measures": "m137", "meter": [10, 16], "length_ticks": 1200, "length_beats": 2.5, "notes": [{"t": 0.0, "dur": 0.24792, "note": 48, "vel": 72, "track": 7}, {"t": 0.0, "dur": 0.99792, "note": 48, "vel": 67, "track": 9}, {"t": 0.0, "dur": 0.24792, "note": 66, "vel": 57, "track": 2}, {"t": 0.0, "dur": 0.49792, "note": 66, "vel": 56, "track": 3}, {"t": 0.0, "dur": 0.24792, "note": 75, "vel": 84, "track": 6}, {"t": 0.0, "dur": 0.74792, "note": 75, "vel": 78, "track": 0}, {"t": 0.25, "dur": 0.24792, "note": 54, "vel": 75, "track": 7}, {"t": 0.25, "dur": 0.24792, "note": 66, "vel": 62, "track": 6}, {"t": 0.25, "dur": 0.24792, "note": 70, "vel": 78, "track": 2}, {"t": 0.5, "dur": 0.74792, "note": 63, "vel": 73, "track": 7}, {"t": 0.5, "dur": 0.24792, "note": 68, "vel": 81, "track": 6}, {"t": 0.5, "dur": 0.24792, "note": 75, "vel": 86, "track": 2}, {"t": 0.5, "dur": 0.49792, "note": 75, "vel": 88, "track": 3}, {"t": 0.75, "dur": 0.24792, "note": 56, "vel": 71, "track": 7}, {"t": 0.75, "dur": 0.24792, "note": 68, "vel": 66, "track": 2}, {"t": 0.75, "dur": 0.24792, "note": 75, "vel": 72, "track": 0}, {"t": 0.75, "dur": 0.24792, "note": 75, "vel": 87, "track": 6}, {"t": 1.0, "dur": 0.24792, "note": 54, "vel": 72, "track": 7}, {"t": 1.0, "dur": 0.24792, "note": 78, "vel": 83, "track": 3}, {"t": 1.0, "dur": 0.24792, "note": 78, "vel": 83, "track": 6}, {"t": 1.0, "dur": 0.24792, "note": 78, "vel": 85, "track": 0}, {"t": 1.0, "dur": 0.24792, "note": 78, "vel": 92, "track": 2}, {"t": 1.25, "dur": 0.24792, "note": 49, "vel": 73, "track": 7}, {"t": 1.25, "dur": 0.99792, "note": 49, "vel": 67, "track": 9}, {"t": 1.25, "dur": 0.24792, "note": 68, "vel": 59, "track": 2}, {"t": 1.25, "dur": 0.49792, "note": 68, "vel": 63, "track": 3}, {"t": 1.25, "dur": 0.24792, "note": 77, "vel": 70, "track": 6}, {"t": 1.25, "dur": 1.24792, "note": 77, "vel": 75, "track": 0}, {"t": 1.5, "dur": 0.24792, "note": 56, "vel": 87, "track": 7}, {"t": 1.5, "dur": 0.24792, "note": 68, "vel": 55, "track": 6}, {"t": 1.5, "dur": 0.24792, "note": 73, "vel": 81, "track": 2}, {"t": 1.75, "dur": 0.74792, "note": 65, "vel": 68, "track": 7}, {"t": 1.75, "dur": 0.24792, "note": 73, "vel": 81, "track": 6}, {"t": 1.75, "dur": 0.24792, "note": 77, "vel": 83, "track": 2}, {"t": 1.75, "dur": 0.24792, "note": 77, "vel": 91, "track": 3}, {"t": 2.0, "dur": 0.24792, "note": 61, "vel": 71, "track": 7}, {"t": 2.0, "dur": 0.24792, "note": 76, "vel": 68, "track": 3}, {"t": 2.0, "dur": 0.24792, "note": 76, "vel": 74, "track": 2}, {"t": 2.0, "dur": 0.24792, "note": 77, "vel": 86, "track": 6}, {"t": 2.25, "dur": 0.24792, "note": 56, "vel": 73, "track": 7}, {"t": 2.25, "dur": 0.24792, "note": 73, "vel": 67, "track": 6}, {"t": 2.25, "dur": 0.24792, "note": 77, "vel": 80, "track": 2}, {"t": 2.25, "dur": 0.24792, "note": 77, "vel": 83, "track": 3}]}, {"id": 103, "measures": "m138", "meter": [10, 16], "length_ticks": 1200, "length_beats": 2.5, "notes": [{"t": 0.0, "dur": 0.24792, "note": 50, "vel": 72, "track": 7}, {"t": 0.0, "dur": 0.99792, "note": 50, "vel": 69, "track": 9}, {"t": 0.0, "dur": 0.24792, "note": 68, "vel": 57, "track": 2}, {"t": 0.0, "dur": 0.49792, "note": 68, "vel": 59, "track": 3}, {"t": 0.0, "dur": 0.24792, "note": 77, "vel": 86, "track": 6}, {"t": 0.0, "dur": 0.74792, "note": 77, "vel": 77, "track": 0}, {"t": 0.25, "dur": 0.24792, "note": 56, "vel": 81, "track": 7}, {"t": 0.25, "dur": 0.24792, "note": 68, "vel": 61, "track": 6}, {"t": 0.25, "dur": 0.24792, "note": 70, "vel": 75, "track": 2}, {"t": 0.5, "dur": 0.74792, "note": 65, "vel": 71, "track": 7}, {"t": 0.5, "dur": 0.24792, "note": 70, "vel": 78, "track": 6}, {"t": 0.5, "dur": 0.24792, "note": 77, "vel": 94, "track": 2}, {"t": 0.5, "dur": 0.49792, "note": 77, "vel": 87, "track": 3}, {"t": 0.75, "dur": 0.24792, "note": 58, "vel": 74, "track": 7}, {"t": 0.75, "dur": 0.24792, "note": 70, "vel": 64, "track": 2}, {"t": 0.75, "dur": 0.24792, "note": 77, "vel": 74, "track": 0}, {"t": 0.75, "dur": 0.24792, "note": 77, "vel": 90, "track": 6}, {"t": 1.0, "dur": 0.24792, "note": 56, "vel": 68, "track": 7}, {"t": 1.0, "dur": 0.24792, "note": 80, "vel": 85, "track": 6}, {"t": 1.0, "dur": 0.24792, "note": 80, "vel": 87, "track": 0}, {"t": 1.0, "dur": 0.24792, "note": 80, "vel": 89, "track": 3}, {"t": 1.0, "dur": 0.24792, "note": 80, "vel": 92, "track": 2}, {"t": 1.25, "dur": 0.24792, "note": 51, "vel": 72, "track": 7}, {"t": 1.25, "dur": 0.99792, "note": 51, "vel": 69, "track": 9}, {"t": 1.25, "dur": 0.24792, "note": 70, "vel": 64, "track": 2}, {"t": 1.25, "dur": 0.49792, "note": 70, "vel": 62, "track": 3}, {"t": 1.25, "dur": 0.24792, "note": 78, "vel": 73, "track": 6}, {"t": 1.25, "dur": 1.24792, "note": 78, "vel": 71, "track": 0}, {"t": 1.5, "dur": 0.24792, "note": 58, "vel": 80, "track": 7}, {"t": 1.5, "dur": 0.24792, "note": 70, "vel": 61, "track": 6}, {"t": 1.5, "dur": 0.24792, "note": 75, "vel": 87, "track": 2}, {"t": 1.75, "dur": 0.74792, "note": 66, "vel": 70, "track": 7}, {"t": 1.75, "dur": 0.24792, "note": 75, "vel": 88, "track": 6}, {"t": 1.75, "dur": 0.24792, "note": 78, "vel": 84, "track": 2}, {"t": 1.75, "dur": 0.24792, "note": 78, "vel": 91, "track": 3}, {"t": 2.0, "dur": 0.24792, "note": 63, "vel": 73, "track": 7}, {"t": 2.0, "dur": 0.24792, "note": 77, "vel": 72, "track": 3}, {"t": 2.0, "dur": 0.24792, "note": 77, "vel": 75, "track": 2}, {"t": 2.0, "dur": 0.24792, "note": 78, "vel": 82, "track": 6}, {"t": 2.25, "dur": 0.24792, "note": 58, "vel": 71, "track": 7}, {"t": 2.25, "dur": 0.24792, "note": 75, "vel": 71, "track": 6}, {"t": 2.25, "dur": 0.24792, "note": 78, "vel": 80, "track": 2}, {"t": 2.25, "dur": 0.24792, "note": 78, "vel": 80, "track": 3}]}, {"id": 104, "measures": "m139", "meter": [10, 16], "length_ticks": 1200, "length_beats": 2.5, "notes": [{"t": 0.0, "dur": 0.24792, "note": 52, "vel": 70, "track": 7}, {"t": 0.0, "dur": 0.99792, "note": 52, "vel": 70, "track": 9}, {"t": 0.0, "dur": 0.24792, "note": 72, "vel": 66, "track": 2}, {"t": 0.0, "dur": 0.49792, "note": 72, "vel": 68, "track": 3}, {"t": 0.0, "dur": 0.24792, "note": 82, "vel": 90, "track": 6}, {"t": 0.0, "dur": 0.74792, "note": 82, "vel": 85, "track": 0}, {"t": 0.25, "dur": 0.24792, "note": 58, "vel": 89, "track": 7}, {"t": 0.25, "dur": 0.24792, "note": 72, "vel": 63, "track": 6}, {"t": 0.25, "dur": 0.24792, "note": 79, "vel": 90, "track": 2}, {"t": 0.5, "dur": 0.74792, "note": 67, "vel": 77, "track": 7}, {"t": 0.5, "dur": 0.24792, "note": 79, "vel": 89, "track": 6}, {"t": 0.5, "dur": 0.24792, "note": 82, "vel": 85, "track": 2}, {"t": 0.5, "dur": 0.49792, "note": 82, "vel": 94, "track": 3}, {"t": 0.75, "dur": 0.24792, "note": 60, "vel": 66, "track": 7}, {"t": 0.75, "dur": 0.24792, "note": 79, "vel": 72, "track": 2}, {"t": 0.75, "dur": 0.24792, "note": 82, "vel": 76, "track": 0}, {"t": 0.75, "dur": 0.24792, "note": 82, "vel": 89, "track": 6}, {"t": 1.0, "dur": 0.24792, "note": 58, "vel": 72, "track": 7}, {"t": 1.0, "dur": 0.24792, "note": 79, "vel": 70, "track": 0}, {"t": 1.0, "dur": 0.24792, "note": 79, "vel": 72, "track": 6}, {"t": 1.0, "dur": 0.24792, "note": 84, "vel": 83, "track": 3}, {"t": 1.0, "dur": 0.24792, "note": 84, "vel": 85, "track": 2}, {"t": 1.25, "dur": 0.24792, "note": 53, "vel": 74, "track": 7}, {"t": 1.25, "dur": 0.99792, "note": 53, "vel": 71, "track": 9}, {"t": 1.25, "dur": 0.24792, "note": 72, "vel": 60, "track": 2}, {"t": 1.25, "dur": 0.49792, "note": 72, "vel": 60, "track": 3}, {"t": 1.25, "dur": 0.74792, "note": 80, "vel": 76, "track": 0}, {"t": 1.25, "dur": 0.24792, "note": 81, "vel": 83, "track": 6}, {"t": 1.5, "dur": 0.24792, "note": 60, "vel": 88, "track": 7}, {"t": 1.5, "dur": 0.24792, "note": 77, "vel": 76, "track": 6}, {"t": 1.5, "dur": 0.24792, "note": 77, "vel": 79, "track": 2}, {"t": 1.75, "dur": 0.74792, "note": 69, "vel": 67, "track": 7}, {"t": 1.75, "dur": 0.24792, "note": 81, "vel": 87, "track": 6}, {"t": 1.75, "dur": 0.24792, "note": 84, "vel": 93, "track": 2}, {"t": 1.75, "dur": 0.49792, "note": 84, "vel": 91, "track": 3}, {"t": 2.0, "dur": 0.24792, "note": 65, "vel": 70, "track": 7}, {"t": 2.0, "dur": 0.24792, "note": 77, "vel": 64, "track": 2}, {"t": 2.0, "dur": 0.24792, "note": 84, "vel": 84, "track": 6}, {"t": 2.0, "dur": 0.49792, "note": 84, "vel": 85, "track": 0}, {"t": 2.25, "dur": 0.24792, "note": 60, "vel": 67, "track": 7}, {"t": 2.25, "dur": 0.24792, "note": 81, "vel": 71, "track": 6}, {"t": 2.25, "dur": 0.24792, "note": 84, "vel": 80, "track": 3}, {"t": 2.25, "dur": 0.24792, "note": 84, "vel": 87, "track": 2}]}, {"id": 105, "measures": "m140", "meter": [15, 16], "length_ticks": 1800, "length_beats": 3.75, "notes": [{"t": 0.0, "dur": 0.24792, "note": 52, "vel": 65, "track": 7}, {"t": 0.0, "dur": 0.99792, "note": 52, "vel": 67, "track": 9}, {"t": 0.0, "dur": 0.24792, "note": 77, "vel": 67, "track": 2}, {"t": 0.0, "dur": 0.49792, "note": 77, "vel": 62, "track": 3}, {"t": 0.0, "dur": 0.24792, "note": 89, "vel": 89, "track": 6}, {"t": 0.0, "dur": 0.74792, "note": 89, "vel": 86, "track": 0}, {"t": 0.25, "dur": 0.49792, "note": 58, "vel": 81, "track": 7}, {"t": 0.25, "dur": 0.24792, "note": 77, "vel": 54, "track": 6}, {"t": 0.25, "dur": 0.24792, "note": 81, "vel": 82, "track": 2}, {"t": 0.5, "dur": 0.74792, "note": 67, "vel": 66, "track": 7}, {"t": 0.5, "dur": 0.24792, "note": 81, "vel": 80, "track": 6}, {"t": 0.5, "dur": 0.24792, "note": 89, "vel": 97, "track": 2}, {"t": 0.5, "dur": 0.49792, "note": 89, "vel": 99, "track": 3}, {"t": 0.75, "dur": 0.24792, "note": 60, "vel": 63, "track": 7}, {"t": 0.75, "dur": 0.24792, "note": 81, "vel": 57, "track": 2}, {"t": 0.75, "dur": 0.24792, "note": 89, "vel": 86, "track": 6}, {"t": 0.75, "dur": 0.49792, "note": 89, "vel": 74, "track": 0}, {"t": 1.0, "dur": 0.24792, "note": 58, "vel": 71, "track": 7}, {"t": 1.0, "dur": 0.24792, "note": 81, "vel": 65, "track": 6}, {"t": 1.0, "dur": 0.24792, "note": 89, "vel": 79, "track": 3}, {"t": 1.0, "dur": 0.24792, "note": 89, "vel": 89, "track": 2}, {"t": 1.25, "dur": 0.24792, "note": 53, "vel": 73, "track": 7}, {"t": 1.25, "dur": 0.99792, "note": 53, "vel": 66, "track": 9}, {"t": 1.25, "dur": 0.24792, "note": 77, "vel": 61, "track": 2}, {"t": 1.25, "dur": 0.49792, "note": 77, "vel": 52, "track": 3}, {"t": 1.25, "dur": 0.24792, "note": 89, "vel": 89, "track": 6}, {"t": 1.25, "dur": 0.74792, "note": 89, "vel": 76, "track": 0}, {"t": 1.5, "dur": 0.24792, "note": 60, "vel": 92, "track": 7}, {"t": 1.5, "dur": 0.24792, "note": 77, "vel": 58, "track": 6}, {"t": 1.5, "dur": 0.24792, "note": 80, "vel": 80, "track": 2}, {"t": 1.75, "dur": 0.74792, "note": 69, "vel": 69, "track": 7}, {"t": 1.75, "dur": 0.24792, "note": 80, "vel": 81, "track": 6}, {"t": 1.75, "dur": 0.24792, "note": 89, "vel": 93, "track": 2}, {"t": 1.75, "dur": 0.49792, "note": 89, "vel": 88, "track": 3}, {"t": 2.0, "dur": 0.24792, "note": 65, "vel": 73, "track": 7}, {"t": 2.0, "dur": 0.24792, "note": 80, "vel": 67, "track": 2}, {"t": 2.0, "dur": 0.24792, "note": 89, "vel": 89, "track": 6}, {"t": 2.0, "dur": 0.49792, "note": 89, "vel": 77, "track": 0}, {"t": 2.25, "dur": 0.24792, "note": 60, "vel": 68, "track": 7}, {"t": 2.25, "dur": 0.24792, "note": 80, "vel": 68, "track": 6}, {"t": 2.25, "dur": 0.24792, "note": 89, "vel": 74, "track": 3}, {"t": 2.25, "dur": 0.24792, "note": 89, "vel": 93, "track": 2}, {"t": 2.5, "dur": 0.24792, "note": 48, "vel": 67, "track": 7}, {"t": 2.5, "dur": 0.99792, "note": 48, "vel": 71, "track": 9}, {"t": 2.5, "dur": 0.24792, "note": 77, "vel": 57, "track": 2}, {"t": 2.5, "dur": 0.49792, "note": 77, "vel": 50, "track": 3}, {"t": 2.5, "dur": 0.24792, "note": 89, "vel": 91, "track": 6}, {"t": 2.5, "dur": 1.24792, "note": 89, "vel": 76, "track": 0}, {"t": 2.75, "dur": 0.24792, "note": 53, "vel": 80, "track": 7}, {"t": 2.75, "dur": 0.24792, "note": 77, "vel": 59, "track": 6}, {"t": 2.75, "dur": 0.24792, "note": 84, "vel": 88, "track": 2}, {"t": 3.0, "dur": 0.74792, "note": 64, "vel": 68, "track": 7}, {"t": 3.0, "dur": 0.24792, "note": 84, "vel": 87, "track": 6}, {"t": 3.0, "dur": 0.24792, "note": 89, "vel": 91, "track": 2}, {"t": 3.0, "dur": 0.49792, "note": 89, "vel": 95, "track": 3}, {"t": 3.25, "dur": 0.24792, "note": 57, "vel": 74, "track": 7}, {"t": 3.25, "dur": 0.24792, "note": 84, "vel": 66, "track": 2}, {"t": 3.25, "dur": 0.24792, "note": 85, "vel": 78, "track": 6}, {"t": 3.5, "dur": 0.24792, "note": 53, "vel": 68, "track": 7}, {"t": 3.5, "dur": 0.24792, "note": 84, "vel": 76, "track": 6}, {"t": 3.5, "dur": 0.24792, "note": 89, "vel": 80, "track": 3}, {"t": 3.5, "dur": 0.24792, "note": 89, "vel": 84, "track": 2}]}, {"id": 106, "measures": "m141-149", "meter": [10, 16], "length_ticks": 10800, "length_beats": 22.5, "notes": [{"t": 0.0, "dur": 0.24792, "note": 46, "vel": 70, "track": 7}, {"t": 0.0, "dur": 0.99792, "note": 46, "vel": 71, "track": 9}, {"t": 0.0, "dur": 0.24792, "note": 77, "vel": 55, "track": 2}, {"t": 0.0, "dur": 0.49792, "note": 77, "vel": 58, "track": 3}, {"t": 0.0, "dur": 0.24792, "note": 89, "vel": 85, "track": 6}, {"t": 0.0, "dur": 0.74792, "note": 89, "vel": 77, "track": 0}, {"t": 0.25, "dur": 0.24792, "note": 53, "vel": 81, "track": 7}, {"t": 0.25, "dur": 0.24792, "note": 77, "vel": 55, "track": 6}, {"t": 0.25, "dur": 0.24792, "note": 82, "vel": 80, "track": 2}, {"t": 0.5, "dur": 0.74792, "note": 61, "vel": 62, "track": 7}, {"t": 0.5, "dur": 0.24792, "note": 82, "vel": 89, "track": 6}, {"t": 0.5, "dur": 0.24792, "note": 89, "vel": 89, "track": 2}, {"t": 0.5, "dur": 0.49792, "note": 89, "vel": 91, "track": 3}, {"t": 0.75, "dur": 0.24792, "note": 58, "vel": 77, "track": 7}, {"t": 0.75, "dur": 0.24792, "note": 82, "vel": 66, "track": 2}, {"t": 0.75, "dur": 0.24792, "note": 89, "vel": 89, "track": 6}, {"t": 0.75, "dur": 0.49792, "note": 89, "vel": 76, "track": 0}, {"t": 1.0, "dur": 0.24792, "note": 53, "vel": 68, "track": 7}, {"t": 1.0, "dur": 0.24792, "note": 82, "vel": 64, "track": 6}, {"t": 1.0, "dur": 0.24792, "note": 89, "vel": 79, "track": 3}, {"t": 1.0, "dur": 0.24792, "note": 89, "vel": 91, "track": 2}, {"t": 1.25, "dur": 0.24792, "note": 48, "vel": 72, "track": 7}, {"t": 1.25, "dur": 0.99792, "note": 48, "vel": 69, "track": 9}, {"t": 1.25, "dur": 0.24792, "note": 78, "vel": 60, "track": 2}, {"t": 1.25, "dur": 0.49792, "note": 78, "vel": 57, "track": 3}, {"t": 1.25, "dur": 0.24792, "note": 89, "vel": 87, "track": 6}, {"t": 1.25, "dur": 0.74792, "note": 89, "vel": 75, "track": 0}, {"t": 1.5, "dur": 0.24792, "note": 54, "vel": 84, "track": 7}, {"t": 1.5, "dur": 0.24792, "note": 78, "vel": 59, "track": 6}, {"t": 1.5, "dur": 0.24792, "note": 82, "vel": 81, "track": 2}, {"t": 1.75, "dur": 0.74792, "note": 63, "vel": 72, "track": 7}, {"t": 1.75, "dur": 0.24792, "note": 82, "vel": 84, "track": 6}, {"t": 1.75, "dur": 0.24792, "note": 89, "vel": 89, "track": 2}, {"t": 1.75, "dur": 0.49792, "note": 89, "vel": 89, "track": 3}, {"t": 2.0, "dur": 0.24792, "note": 58, "vel": 79, "track": 7}, {"t": 2.0, "dur": 0.24792, "note": 82, "vel": 66, "track": 2}, {"t": 2.0, "dur": 0.24792, "note": 87, "vel": 86, "track": 6}, {"t": 2.0, "dur": 0.49792, "note": 87, "vel": 71, "track": 0}, {"t": 2.25, "dur": 0.24792, "note": 54, "vel": 75, "track": 7}, {"t": 2.25, "dur": 0.24792, "note": 82, "vel": 65, "track": 6}, {"t": 2.25, "dur": 0.24792, "note": 87, "vel": 75, "track": 3}, {"t": 2.25, "dur": 0.24792, "note": 87, "vel": 81, "track": 2}, {"t": 2.5, "dur": 0.24792, "note": 46, "vel": 65, "track": 7}, {"t": 2.5, "dur": 0.99792, "note": 46, "vel": 70, "track": 9}, {"t": 2.5, "dur": 0.24792, "note": 77, "vel": 59, "track": 2}, {"t": 2.5, "dur": 0.49792, "note": 77, "vel": 60, "track": 3}, {"t": 2.5, "dur": 0.24792, "note": 89, "vel": 90, "track": 6}, {"t": 2.5, "dur": 1.24792, "note": 89, "vel": 78, "track": 0}, {"t": 2.75, "dur": 0.24792, "note": 53, "vel": 80, "track": 7}, {"t": 2.75, "dur": 0.24792, "note": 77, "vel": 61, "track": 6}, {"t": 2.75, "dur": 0.24792, "note": 82, "vel": 83, "track": 2}, {"t": 3.0, "dur": 0.74792, "note": 61, "vel": 68, "track": 7}, {"t": 3.0, "dur": 0.24792, "note": 78, "vel": 74, "track": 6}, {"t": 3.0, "dur": 0.24792, "note": 85, "vel": 88, "track": 2}, {"t": 3.0, "dur": 0.49792, "note": 85, "vel": 87, "track": 3}, {"t": 3.25, "dur": 0.24792, "note": 58, "vel": 72, "track": 7}, {"t": 3.25, "dur": 0.24792, "note": 77, "vel": 64, "track": 2}, {"t": 3.25, "dur": 0.24792, "note": 80, "vel": 83, "track": 6}, {"t": 3.5, "dur": 0.24792, "note": 53, "vel": 68, "track": 7}, {"t": 3.5, "dur": 0.24792, "note": 78, "vel": 60, "track": 3}, {"t": 3.5, "dur": 0.24792, "note": 78, "vel": 72, "track": 6}, {"t": 3.5, "dur": 0.24792, "note": 78, "vel": 84, "track": 2}, {"t": 3.75, "dur": 0.24792, "note": 48, "vel": 76, "track": 7}, {"t": 3.75, "dur": 0.99792, "note": 48, "vel": 72, "track": 9}, {"t": 3.75, "dur": 0.24792, "note": 75, "vel": 69, "track": 2}, {"t": 3.75, "dur": 0.49792, "note": 75, "vel": 70, "track": 3}, {"t": 3.75, "dur": 0.24792, "note": 82, "vel": 84, "track": 6}, {"t": 3.75, "dur": 1.24792, "note": 82, "vel": 59, "track": 0}, {"t": 4.0, "dur": 0.24792, "note": 54, "vel": 83, "track": 7}, {"t": 4.0, "dur": 0.24792, "note": 75, "vel": 65, "track": 6}, {"t": 4.0, "dur": 0.24792, "note": 78, "vel": 79, "track": 2}, {"t": 4.25, "dur": 0.74792, "note": 63, "vel": 68, "track": 7}, {"t": 4.25, "dur": 0.24792, "note": 78, "vel": 82, "track": 6}, {"t": 4.25, "dur": 0.24792, "note": 82, "vel": 87, "track": 2}, {"t": 4.25, "dur": 0.24792, "note": 82, "vel": 90, "track": 3}, {"t": 4.5, "dur": 0.24792, "note": 58, "vel": 75, "track": 7}, {"t": 4.5, "dur": 0.24792, "note": 81, "vel": 74, "track": 2}, {"t": 4.5, "dur": 0.24792, "note": 81, "vel": 76, "track": 3}, {"t": 4.5, "dur": 0.24792, "note": 82, "vel": 87, "track": 6}, {"t": 4.75, "dur": 0.24792, "note": 54, "vel": 73, "track": 7}, {"t": 4.75, "dur": 0.24792, "note": 78, "vel": 68, "track": 6}, {"t": 4.75, "dur": 0.24792, "note": 82, "vel": 79, "track": 2}, {"t": 4.75, "dur": 0.24792, "note": 82, "vel": 80, "track": 3}, {"t": 5.0, "dur": 0.24792, "note": 46, "vel": 68, "track": 7}, {"t": 5.0, "dur": 0.99792, "note": 46, "vel": 65, "track": 9}, {"t": 5.0, "dur": 0.24792, "note": 77, "vel": 67, "track": 6}, {"t": 5.0, "dur": 0.24792, "note": 77, "vel": 68, "track": 2}, {"t": 5.0, "dur": 0.49792, "note": 77, "vel": 64, "track": 3}, {"t": 5.0, "dur": 0.74792, "note": 89, "vel": 72, "track": 0}, {"t": 5.25, "dur": 0.24792, "note": 53, "vel": 80, "track": 7}, {"t": 5.25, "dur": 0.24792, "note": 65, "vel": 49, "track": 6}, {"t": 5.25, "dur": 0.24792, "note": 82, "vel": 83, "track": 2}, {"t": 5.5, "dur": 0.74792, "note": 61, "vel": 67, "track": 7}, {"t": 5.5, "dur": 0.24792, "note": 70, "vel": 85, "track": 6}, {"t": 5.5, "dur": 0.24792, "note": 85, "vel": 84, "track": 2}, {"t": 5.5, "dur": 0.24792, "note": 85, "vel": 88, "track": 3}, {"t": 5.75, "dur": 0.24792, "note": 58, "vel": 74, "track": 7}, {"t": 5.75, "dur": 0.24792, "note": 77, "vel": 93, "track": 6}, {"t": 5.75, "dur": 0.24792, "note": 84, "vel": 75, "track": 3}, {"t": 5.75, "dur": 0.24792, "note": 84, "vel": 76, "track": 2}, {"t": 5.75, "dur": 0.49792, "note": 89, "vel": 76, "track": 0}, {"t": 6.0, "dur": 0.24792, "note": 53, "vel": 71, "track": 7}, {"t": 6.0, "dur": 0.24792, "note": 70, "vel": 64, "track": 6}, {"t": 6.0, "dur": 0.24792, "note": 85, "vel": 80, "track": 2}, {"t": 6.0, "dur": 0.24792, "note": 85, "vel": 81, "track": 3}, {"t": 6.25, "dur": 0.24792, "note": 48, "vel": 76, "track": 7}, {"t": 6.25, "dur": 0.99792, "note": 48, "vel": 66, "track": 9}, {"t": 6.25, "dur": 0.24792, "note": 78, "vel": 62, "track": 2}, {"t": 6.25, "dur": 0.49792, "note": 78, "vel": 63, "track": 3}, {"t": 6.25, "dur": 0.24792, "note": 82, "vel": 93, "track": 6}, {"t": 6.25, "dur": 0.74792, "note": 94, "vel": 80, "track": 0}, {"t": 6.5, "dur": 0.24792, "note": 54, "vel": 80, "track": 7}, {"t": 6.5, "dur": 0.24792, "note": 68, "vel": 61, "track": 6}, {"t": 6.5, "dur": 0.24792, "note": 80, "vel": 80, "track": 2}, {"t": 6.75, "dur": 0.74792, "note": 63, "vel": 69, "track": 7}, {"t": 6.75, "dur": 0.24792, "note": 75, "vel": 84, "track": 6}, {"t": 6.75, "dur": 0.24792, "note": 87, "vel": 87, "track": 2}, {"t": 6.75, "dur": 0.24792, "note": 87, "vel": 94, "track": 3}, {"t": 7.0, "dur": 0.24792, "note": 56, "vel": 75, "track": 7}, {"t": 7.0, "dur": 0.24792, "note": 80, "vel": 86, "track": 6}, {"t": 7.0, "dur": 0.24792, "note": 85, "vel": 73, "track": 3}, {"t": 7.0, "dur": 0.24792, "note": 85, "vel": 74, "track": 2}, {"t": 7.0, "dur": 0.24792, "note": 92, "vel": 71, "track": 0}, {"t": 7.25, "dur": 0.24792, "note": 54, "vel": 73, "track": 7}, {"t": 7.25, "dur": 0.24792, "note": 78, "vel": 74, "track": 6}, {"t": 7.25, "dur": 0.24792, "note": 87, "vel": 80, "track": 2}, {"t": 7.25, "dur": 0.24792, "note": 87, "vel": 86, "track": 3}, {"t": 7.25, "dur": 0.24792, "note": 90, "vel": 76, "track": 0}, {"t": 7.5, "dur": 0.24792, "note": 49, "vel": 69, "track": 7}, {"t": 7.5, "dur": 0.99792, "note": 49, "vel": 70, "track": 9}, {"t": 7.5, "dur": 0.24792, "note": 77, "vel": 70, "track": 6}, {"t": 7.5, "dur": 0.24792, "note": 80, "vel": 61, "track": 2}, {"t": 7.5, "dur": 0.49792, "note": 80, "vel": 63, "track": 3}, {"t": 7.5, "dur": 1.24792, "note": 89, "vel": 73, "track": 0}, {"t": 7.75, "dur": 0.24792, "note": 56, "vel": 76, "track": 7}, {"t": 7.75, "dur": 0.24792, "note": 68, "vel": 57, "track": 6}, {"t": 7.75, "dur": 0.24792, "note": 85, "vel": 82, "track": 2}, {"t": 8.0, "dur": 0.74792, "note": 65, "vel": 69, "track": 7}, {"t": 8.0, "dur": 0.24792, "note": 73, "vel": 87, "track": 6}, {"t": 8.0, "dur": 0.24792, "note": 89, "vel": 89, "track": 2}, {"t": 8.0, "dur": 0.24792, "note": 89, "vel": 92, "track": 3}, {"t": 8.25, "dur": 0.24792, "note": 61, "vel": 71, "track": 7}, {"t": 8.25, "dur": 0.24792, "note": 77, "vel": 86, "track": 6}, {"t": 8.25, "dur": 0.24792, "note": 88, "vel": 76, "track": 2}, {"t": 8.25, "dur": 0.24792, "note": 88, "vel": 78, "track": 3}, {"t": 8.5, "dur": 0.24792, "note": 56, "vel": 69, "track": 7}, {"t": 8.5, "dur": 0.24792, "note": 73, "vel": 67, "track": 6}, {"t": 8.5, "dur": 0.24792, "note": 89, "vel": 77, "track": 3}, {"t": 8.5, "dur": 0.24792, "note": 89, "vel": 79, "track": 2}, {"t": 8.75, "dur": 0.24792, "note": 50, "vel": 70, "track": 7}, {"t": 8.75, "dur": 0.99792, "note": 50, "vel": 74, "track": 9}, {"t": 8.75, "dur": 0.24792, "note": 77, "vel": 80, "track": 6}, {"t": 8.75, "dur": 0.24792, "note": 80, "vel": 60, "track": 2}, {"t": 8.75, "dur": 0.49792, "note": 80, "vel": 62, "track": 3}, {"t": 9.0, "dur": 0.24792, "note": 56, "vel": 87, "track": 7}, {"t": 9.0, "dur": 0.24792, "note": 68, "vel": 59, "track": 6}, {"t": 9.0, "dur": 0.24792, "note": 82, "vel": 79, "track": 2}, {"t": 9.25, "dur": 0.74792, "note": 65, "vel": 70, "track": 7}, {"t": 9.25, "dur": 0.24792, "note": 70, "vel": 80, "track": 6}, {"t": 9.25, "dur": 0.24792, "note": 89, "vel": 91, "track": 3}, {"t": 9.25, "dur": 0.24792, "note": 89, "vel": 93, "track": 2}, {"t": 9.5, "dur": 0.24792, "note": 58, "vel": 76, "track": 7}, {"t": 9.5, "dur": 0.24792, "note": 77, "vel": 90, "track": 6}, {"t": 9.5, "dur": 0.24792, "note": 88, "vel": 76, "track": 2}, {"t": 9.5, "dur": 0.24792, "note": 88, "vel": 76, "track": 3}, {"t": 9.5, "dur": 0.49792, "note": 89, "vel": 68, "track": 0}, {"t": 9.75, "dur": 0.24792, "note": 56, "vel": 77, "track": 7}, {"t": 9.75, "dur": 0.24792, "note": 70, "vel": 64, "track": 6}, {"t": 9.75, "dur": 0.24792, "note": 89, "vel": 79, "track": 2}, {"t": 9.75, "dur": 0.24792, "note": 89, "vel": 81, "track": 3}, {"t": 10.0, "dur": 0.24792, "note": 51, "vel": 70, "track": 7}, {"t": 10.0, "dur": 0.99792, "note": 51, "vel": 72, "track": 9}, {"t": 10.0, "dur": 0.24792, "note": 78, "vel": 92, "track": 6}, {"t": 10.0, "dur": 0.24792, "note": 82, "vel": 64, "track": 2}, {"t": 10.0, "dur": 0.74792, "note": 82, "vel": 62, "track": 3}, {"t": 10.0, "dur": 0.74792, "note": 90, "vel": 77, "track": 0}, {"t": 10.25, "dur": 0.24792, "note": 58, "vel": 85, "track": 7}, {"t": 10.25, "dur": 0.24792, "note": 70, "vel": 63, "track": 6}, {"t": 10.25, "dur": 0.24792, "note": 87, "vel": 84, "track": 2}, {"t": 10.5, "dur": 0.74792, "note": 66, "vel": 73, "track": 7}, {"t": 10.5, "dur": 0.24792, "note": 75, "vel": 84, "track": 6}, {"t": 10.5, "dur": 0.24792, "note": 90, "vel": 86, "track": 2}, {"t": 10.75, "dur": 0.24792, "note": 63, "vel": 68, "track": 7}, {"t": 10.75, "dur": 0.24792, "note": 78, "vel": 84, "track": 6}, {"t": 10.75, "dur": 0.24792, "note": 85, "vel": 69, "track": 2}, {"t": 10.75, "dur": 0.24792, "note": 85, "vel": 81, "track": 3}, {"t": 10.75, "dur": 0.49792, "note": 90, "vel": 77, "track": 0}, {"t": 11.0, "dur": 0.24792, "note": 58, "vel": 67, "track": 7}, {"t": 11.0, "dur": 0.24792, "note": 75, "vel": 73, "track": 6}, {"t": 11.0, "dur": 0.24792, "note": 84, "vel": 70, "track": 3}, {"t": 11.0, "dur": 0.24792, "note": 84, "vel": 76, "track": 2}, {"t": 11.25, "dur": 0.24792, "note": 48, "vel": 68, "track": 7}, {"t": 11.25, "dur": 0.99792, "note": 48, "vel": 65, "track": 9}, {"t": 11.25, "dur": 0.24792, "note": 82, "vel": 71, "track": 2}, {"t": 11.25, "dur": 0.24792, "note": 82, "vel": 92, "track": 6}, {"t": 11.25, "dur": 0.49792, "note": 82, "vel": 74, "track": 3}, {"t": 11.25, "dur": 0.74792, "note": 94, "vel": 83, "track": 0}, {"t": 11.5, "dur": 0.24792, "note": 54, "vel": 80, "track": 7}, {"t": 11.5, "dur": 0.24792, "note": 68, "vel": 59, "track": 6}, {"t": 11.5, "dur": 0.24792, "note": 87, "vel": 83, "track": 2}, {"t": 11.75, "dur": 0.74792, "note": 63, "vel": 67, "track": 7}, {"t": 11.75, "dur": 0.24792, "note": 75, "vel": 86, "track": 6}, {"t": 11.75, "dur": 0.24792, "note": 90, "vel": 83, "track": 2}, {"t": 11.75, "dur": 0.24792, "note": 90, "vel": 88, "track": 3}, {"t": 12.0, "dur": 0.24792, "note": 56, "vel": 74, "track": 7}, {"t": 12.0, "dur": 0.24792, "note": 80, "vel": 89, "track": 6}, {"t": 12.0, "dur": 0.24792, "note": 89, "vel": 72, "track": 2}, {"t": 12.0, "dur": 0.24792, "note": 89, "vel": 75, "track": 3}, {"t": 12.0, "dur": 0.24792, "note": 92, "vel": 72, "track": 0}, {"t": 12.25, "dur": 0.24792, "note": 54, "vel": 77, "track": 7}, {"t": 12.25, "dur": 0.24792, "note": 78, "vel": 68, "track": 6}, {"t": 12.25, "dur": 0.24792, "note": 90, "vel": 68, "track": 0}, {"t": 12.25, "dur": 0.24792, "note": 90, "vel": 75, "track": 3}, {"t": 12.25, "dur": 0.24792, "note": 90, "vel": 76, "track": 2}, {"t": 12.5, "dur": 0.24792, "note": 49, "vel": 73, "track": 7}, {"t": 12.5, "dur": 0.99792, "note": 49, "vel": 68, "track": 9}, {"t": 12.5, "dur": 0.24792, "note": 77, "vel": 74, "track": 6}, {"t": 12.5, "dur": 0.24792, "note": 80, "vel": 60, "track": 2}, {"t": 12.5, "dur": 0.74792, "note": 80, "vel": 57, "track": 3}, {"t": 12.5, "dur": 0.74792, "note": 89, "vel": 75, "track": 0}, {"t": 12.75, "dur": 0.24792, "note": 56, "vel": 83, "track": 7}, {"t": 12.75, "dur": 0.24792, "note": 65, "vel": 54, "track": 6}, {"t": 12.75, "dur": 0.24792, "note": 85, "vel": 88, "track": 2}, {"t": 13.0, "dur": 0.74792, "note": 65, "vel": 71, "track": 7}, {"t": 13.0, "dur": 0.24792, "note": 68, "vel": 78, "track": 6}, {"t": 13.0, "dur": 0.24792, "note": 89, "vel": 87, "track": 2}, {"t": 13.25, "dur": 0.24792, "note": 61, "vel": 71, "track": 7}, {"t": 13.25, "dur": 0.24792, "note": 73, "vel": 83, "track": 6}, {"t": 13.25, "dur": 0.24792, "note": 80, "vel": 60, "track": 2}, {"t": 13.25, "dur": 0.24792, "note": 80, "vel": 75, "track": 3}, {"t": 13.25, "dur": 0.49792, "note": 85, "vel": 67, "track": 0}, {"t": 13.5, "dur": 0.24792, "note": 56, "vel": 69, "track": 7}, {"t": 13.5, "dur": 0.24792, "note": 68, "vel": 68, "track": 6}, {"t": 13.5, "dur": 0.24792, "note": 78, "vel": 67, "track": 2}, {"t": 13.5, "dur": 0.24792, "note": 78, "vel": 73, "track": 3}, {"t": 13.75, "dur": 0.24792, "note": 46, "vel": 67, "track": 7}, {"t": 13.75, "dur": 0.99792, "note": 46, "vel": 73, "track": 9}, {"t": 13.75, "dur": 0.24792, "note": 70, "vel": 79, "track": 6}, {"t": 13.75, "dur": 0.24792, "note": 77, "vel": 72, "track": 2}, {"t": 13.75, "dur": 0.49792, "note": 77, "vel": 71, "track": 3}, {"t": 13.75, "dur": 0.74792, "note": 82, "vel": 67, "track": 0}, {"t": 14.0, "dur": 0.24792, "note": 53, "vel": 78, "track": 7}, {"t": 14.0, "dur": 0.24792, "note": 65, "vel": 66, "track": 6}, {"t": 14.0, "dur": 0.24792, "note": 78, "vel": 82, "track": 2}, {"t": 14.25, "dur": 0.74792, "note": 63, "vel": 70, "track": 7}, {"t": 14.25, "dur": 0.24792, "note": 66, "vel": 78, "track": 6}, {"t": 14.25, "dur": 0.24792, "note": 84, "vel": 88, "track": 3}, {"t": 14.25, "dur": 0.24792, "note": 84, "vel": 90, "track": 2}, {"t": 14.5, "dur": 0.24792, "note": 57, "vel": 75, "track": 7}, {"t": 14.5, "dur": 0.24792, "note": 72, "vel": 87, "track": 6}, {"t": 14.5, "dur": 0.24792, "note": 78, "vel": 61, "track": 2}, {"t": 14.5, "dur": 0.24792, "note": 78, "vel": 69, "track": 3}, {"t": 14.5, "dur": 0.49792, "note": 84, "vel": 78, "track": 0}, {"t": 14.75, "dur": 0.24792, "note": 53, "vel": 76, "track": 7}, {"t": 14.75, "dur": 0.24792, "note": 65, "vel": 69, "track": 6}, {"t": 14.75, "dur": 0.24792, "note": 87, "vel": 92, "track": 2}, {"t": 14.75, "dur": 0.24792, "note": 87, "vel": 94, "track": 3}, {"t": 15.0, "dur": 0.24792, "note": 46, "vel": 68, "track": 7}, {"t": 15.0, "dur": 0.99792, "note": 46, "vel": 66, "track": 9}, {"t": 15.0, "dur": 0.24792, "note": 73, "vel": 91, "track": 6}, {"t": 15.0, "dur": 0.24792, "note": 77, "vel": 60, "track": 2}, {"t": 15.0, "dur": 0.49792, "note": 77, "vel": 60, "track": 3}, {"t": 15.0, "dur": 0.74792, "note": 85, "vel": 81, "track": 0}, {"t": 15.25, "dur": 0.24792, "note": 53, "vel": 86, "track": 7}, {"t": 15.25, "dur": 0.24792, "note": 65, "vel": 64, "track": 6}, {"t": 15.25, "dur": 0.24792, "note": 82, "vel": 83, "track": 2}, {"t": 15.5, "dur": 0.74792, "note": 61, "vel": 75, "track": 7}, {"t": 15.5, "dur": 0.24792, "note": 70, "vel": 82, "track": 6}, {"t": 15.5, "dur": 0.24792, "note": 85, "vel": 78, "track": 2}, {"t": 15.5, "dur": 0.49792, "note": 85, "vel": 92, "track": 3}, {"t": 15.75, "dur": 0.24792, "note": 58, "vel": 76, "track": 7}, {"t": 15.75, "dur": 0.24792, "note": 73, "vel": 83, "track": 6}, {"t": 15.75, "dur": 0.24792, "note": 82, "vel": 74, "track": 2}, {"t": 15.75, "dur": 0.49792, "note": 85, "vel": 75, "track": 0}, {"t": 16.0, "dur": 0.24792, "note": 53, "vel": 71, "track": 7}, {"t": 16.0, "dur": 0.24792, "note": 70, "vel": 70, "track": 6}, {"t": 16.0, "dur": 0.24792, "note": 85, "vel": 82, "track": 2}, {"t": 16.0, "dur": 0.24792, "note": 85, "vel": 84, "track": 3}, {"t": 16.25, "dur": 0.24792, "note": 44, "vel": 67, "track": 7}, {"t": 16.25, "dur": 0.99792, "note": 44, "vel": 67, "track": 9}, {"t": 16.25, "dur": 0.24792, "note": 72, "vel": 82, "track": 6}, {"t": 16.25, "dur": 0.24792, "note": 75, "vel": 59, "track": 2}, {"t": 16.25, "dur": 0.49792, "note": 75, "vel": 63, "track": 3}, {"t": 16.25, "dur": 0.74792, "note": 84, "vel": 76, "track": 0}, {"t": 16.5, "dur": 0.24792, "note": 51, "vel": 80, "track": 7}, {"t": 16.5, "dur": 0.24792, "note": 63, "vel": 63, "track": 6}, {"t": 16.5, "dur": 0.24792, "note": 80, "vel": 88, "track": 2}, {"t": 16.75, "dur": 0.74792, "note": 60, "vel": 67, "track": 7}, {"t": 16.75, "dur": 0.24792, "note": 68, "vel": 82, "track": 6}, {"t": 16.75, "dur": 0.24792, "note": 84, "vel": 85, "track": 2}, {"t": 16.75, "dur": 0.24792, "note": 84, "vel": 93, "track": 3}, {"t": 17.0, "dur": 0.24792, "note": 56, "vel": 74, "track": 7}, {"t": 17.0, "dur": 0.24792, "note": 70, "vel": 78, "track": 6}, {"t": 17.0, "dur": 0.24792, "note": 82, "vel": 70, "track": 2}, {"t": 17.0, "dur": 0.24792, "note": 82, "vel": 72, "track": 0}, {"t": 17.0, "dur": 0.24792, "note": 82, "vel": 77, "track": 3}, {"t": 17.25, "dur": 0.24792, "note": 51, "vel": 71, "track": 7}, {"t": 17.25, "dur": 0.24792, "note": 68, "vel": 69, "track": 6}, {"t": 17.25, "dur": 0.24792, "note": 80, "vel": 68, "track": 3}, {"t": 17.25, "dur": 0.24792, "note": 80, "vel": 70, "track": 0}, {"t": 17.25, "dur": 0.24792, "note": 80, "vel": 74, "track": 2}, {"t": 17.5, "dur": 0.24792, "note": 46, "vel": 71, "track": 7}, {"t": 17.5, "dur": 0.99792, "note": 46, "vel": 70, "track": 9}, {"t": 17.5, "dur": 0.24792, "note": 73, "vel": 67, "track": 2}, {"t": 17.5, "dur": 0.49792, "note": 73, "vel": 62, "track": 3}, {"t": 17.5, "dur": 0.24792, "note": 82, "vel": 96, "track": 6}, {"t": 17.5, "dur": 0.74792, "note": 82, "vel": 99, "track": 0}, {"t": 17.75, "dur": 0.24792, "note": 53, "vel": 83, "track": 7}, {"t": 17.75, "dur": 0.24792, "note": 73, "vel": 61, "track": 6}, {"t": 17.75, "dur": 0.24792, "note": 77, "vel": 81, "track": 2}, {"t": 18.0, "dur": 0.74792, "note": 61, "vel": 70, "track": 7}, {"t": 18.0, "dur": 0.24792, "note": 77, "vel": 80, "track": 6}, {"t": 18.0, "dur": 0.24792, "note": 82, "vel": 88, "track": 2}, {"t": 18.0, "dur": 0.49792, "note": 82, "vel": 91, "track": 3}, {"t": 18.25, "dur": 0.24792, "note": 58, "vel": 75, "track": 7}, {"t": 18.25, "dur": 0.24792, "note": 77, "vel": 71, "track": 2}, {"t": 18.25, "dur": 0.24792, "note": 82, "vel": 85, "track": 6}, {"t": 18.25, "dur": 0.49792, "note": 82, "vel": 80, "track": 0}, {"t": 18.5, "dur": 0.24792, "note": 53, "vel": 73, "track": 7}, {"t": 18.5, "dur": 0.24792, "note": 77, "vel": 65, "track": 6}, {"t": 18.5, "dur": 0.24792, "note": 82, "vel": 78, "track": 3}, {"t": 18.5, "dur": 0.24792, "note": 82, "vel": 87, "track": 2}, {"t": 18.75, "dur": 0.24792, "note": 44, "vel": 66, "track": 7}, {"t": 18.75, "dur": 0.99792, "note": 44, "vel": 72, "track": 9}, {"t": 18.75, "dur": 0.24792, "note": 75, "vel": 61, "track": 2}, {"t": 18.75, "dur": 0.49792, "note": 75, "vel": 61, "track": 3}, {"t": 18.75, "dur": 0.24792, "note": 82, "vel": 85, "track": 6}, {"t": 18.75, "dur": 0.74792, "note": 82, "vel": 73, "track": 0}, {"t": 19.0, "dur": 0.24792, "note": 51, "vel": 81, "track": 7}, {"t": 19.0, "dur": 0.24792, "note": 75, "vel": 65, "track": 6}, {"t": 19.0, "dur": 0.24792, "note": 80, "vel": 87, "track": 2}, {"t": 19.25, "dur": 0.74792, "note": 60, "vel": 65, "track": 7}, {"t": 19.25, "dur": 0.24792, "note": 80, "vel": 86, "track": 6}, {"t": 19.25, "dur": 0.24792, "note": 82, "vel": 81, "track": 2}, {"t": 19.25, "dur": 0.24792, "note": 82, "vel": 86, "track": 3}, {"t": 19.5, "dur": 0.24792, "note": 56, "vel": 74, "track": 7}, {"t": 19.5, "dur": 0.24792, "note": 80, "vel": 71, "track": 2}, {"t": 19.5, "dur": 0.24792, "note": 80, "vel": 72, "track": 3}, {"t": 19.5, "dur": 0.24792, "note": 82, "vel": 80, "track": 0}, {"t": 19.5, "dur": 0.24792, "note": 82, "vel": 81, "track": 6}, {"t": 19.75, "dur": 0.24792, "note": 51, "vel": 69, "track": 7}, {"t": 19.75, "dur": 0.24792, "note": 80, "vel": 69, "track": 0}, {"t": 19.75, "dur": 0.24792, "note": 80, "vel": 74, "track": 6}, {"t": 19.75, "dur": 0.24792, "note": 82, "vel": 78, "track": 2}, {"t": 19.75, "dur": 0.24792, "note": 82, "vel": 81, "track": 3}, {"t": 20.0, "dur": 0.24792, "note": 42, "vel": 69, "track": 7}, {"t": 20.0, "dur": 0.99792, "note": 42, "vel": 70, "track": 9}, {"t": 20.0, "dur": 0.24792, "note": 73, "vel": 62, "track": 2}, {"t": 20.0, "dur": 0.49792, "note": 73, "vel": 57, "track": 3}, {"t": 20.0, "dur": 0.24792, "note": 82, "vel": 79, "track": 6}, {"t": 20.0, "dur": 0.74792, "note": 82, "vel": 79, "track": 0}, {"t": 20.25, "dur": 0.24792, "note": 49, "vel": 80, "track": 7}, {"t": 20.25, "dur": 0.24792, "note": 73, "vel": 63, "track": 6}, {"t": 20.25, "dur": 0.24792, "note": 78, "vel": 77, "track": 2}, {"t": 20.5, "dur": 0.74792, "note": 58, "vel": 72, "track": 7}, {"t": 20.5, "dur": 0.24792, "note": 78, "vel": 82, "track": 6}, {"t": 20.5, "dur": 0.24792, "note": 82, "vel": 86, "track": 2}, {"t": 20.5, "dur": 0.24792, "note": 82, "vel": 90, "track": 3}, {"t": 20.75, "dur": 0.24792, "note": 54, "vel": 73, "track": 7}, {"t": 20.75, "dur": 0.24792, "note": 81, "vel": 70, "track": 2}, {"t": 20.75, "dur": 0.24792, "note": 81, "vel": 74, "track": 3}, {"t": 20.75, "dur": 0.24792, "note": 82, "vel": 83, "track": 6}, {"t": 20.75, "dur": 0.49792, "note": 82, "vel": 77, "track": 0}, {"t": 21.0, "dur": 0.24792, "note": 49, "vel": 72, "track": 7}, {"t": 21.0, "dur": 0.24792, "note": 78, "vel": 71, "track": 6}, {"t": 21.0, "dur": 0.24792, "note": 82, "vel": 76, "track": 2}, {"t": 21.0, "dur": 0.24792, "note": 82, "vel": 80, "track": 3}, {"t": 21.25, "dur": 0.24792, "note": 41, "vel": 70, "track": 7}, {"t": 21.25, "dur": 0.99792, "note": 41, "vel": 71, "track": 9}, {"t": 21.25, "dur": 0.24792, "note": 84, "vel": 83, "track": 2}, {"t": 21.25, "dur": 0.24792, "note": 84, "vel": 88, "track": 6}, {"t": 21.25, "dur": 0.49792, "note": 84, "vel": 80, "track": 3}, {"t": 21.25, "dur": 1.24792, "note": 84, "vel": 83, "track": 0}, {"t": 21.5, "dur": 0.24792, "note": 48, "vel": 80, "track": 7}, {"t": 21.5, "dur": 0.24792, "note": 72, "vel": 55, "track": 2}, {"t": 21.5, "dur": 0.24792, "note": 72, "vel": 60, "track": 6}, {"t": 21.75, "dur": 0.74792, "note": 57, "vel": 71, "track": 7}, {"t": 21.75, "dur": 0.24792, "note": 77, "vel": 89, "track": 6}, {"t": 21.75, "dur": 0.24792, "note": 78, "vel": 61, "track": 3}, {"t": 21.75, "dur": 0.24792, "note": 78, "vel": 89, "track": 2}, {"t": 22.0, "dur": 0.24792, "note": 53, "vel": 72, "track": 7}, {"t": 22.0, "dur": 0.24792, "note": 77, "vel": 69, "track": 3}, {"t": 22.0, "dur": 0.24792, "note": 77, "vel": 74, "track": 2}, {"t": 22.0, "dur": 0.24792, "note": 78, "vel": 84, "track": 6}, {"t": 22.25, "dur": 0.24792, "note": 48, "vel": 74, "track": 7}, {"t": 22.25, "dur": 0.24792, "note": 77, "vel": 76, "track": 6}, {"t": 22.25, "dur": 0.24792, "note": 78, "vel": 78, "track": 3}, {"t": 22.25, "dur": 0.24792, "note": 78, "vel": 81, "track": 2}]}, {"id": 107, "measures": "m150-151", "meter": [10, 16], "length_ticks": 2400, "length_beats": 5.0, "notes": [{"t": 0.0, "dur": 0.24792, "note": 46, "vel": 69, "track": 7}, {"t": 0.0, "dur": 0.99792, "note": 46, "vel": 68, "track": 9}, {"t": 0.0, "dur": 0.24792, "note": 65, "vel": 57, "track": 2}, {"t": 0.0, "dur": 0.49792, "note": 65, "vel": 47, "track": 3}, {"t": 0.0, "dur": 0.24792, "note": 77, "vel": 75, "track": 6}, {"t": 0.0, "dur": 0.74792, "note": 77, "vel": 60, "track": 0}, {"t": 0.25, "dur": 0.24792, "note": 53, "vel": 82, "track": 7}, {"t": 0.25, "dur": 0.24792, "note": 65, "vel": 55, "track": 6}, {"t": 0.25, "dur": 0.24792, "note": 72, "vel": 79, "track": 2}, {"t": 0.5, "dur": 0.74792, "note": 61, "vel": 67, "track": 7}, {"t": 0.5, "dur": 0.24792, "note": 72, "vel": 85, "track": 6}, {"t": 0.5, "dur": 0.24792, "note": 77, "vel": 89, "track": 2}, {"t": 0.5, "dur": 0.49792, "note": 77, "vel": 92, "track": 3}, {"t": 0.75, "dur": 0.24792, "note": 58, "vel": 79, "track": 7}, {"t": 0.75, "dur": 0.24792, "note": 72, "vel": 69, "track": 2}, {"t": 0.75, "dur": 0.24792, "note": 77, "vel": 86, "track": 6}, {"t": 0.75, "dur": 0.49792, "note": 77, "vel": 76, "track": 0}, {"t": 1.0, "dur": 0.24792, "note": 53, "vel": 76, "track": 7}, {"t": 1.0, "dur": 0.24792, "note": 72, "vel": 66, "track": 6}, {"t": 1.0, "dur": 0.24792, "note": 77, "vel": 81, "track": 3}, {"t": 1.0, "dur": 0.24792, "note": 77, "vel": 88, "track": 2}, {"t": 1.25, "dur": 0.24792, "note": 48, "vel": 72, "track": 7}, {"t": 1.25, "dur": 0.99792, "note": 48, "vel": 67, "track": 9}, {"t": 1.25, "dur": 0.24792, "note": 66, "vel": 62, "track": 2}, {"t": 1.25, "dur": 0.49792, "note": 66, "vel": 56, "track": 3}, {"t": 1.25, "dur": 0.24792, "note": 77, "vel": 79, "track": 6}, {"t": 1.25, "dur": 0.74792, "note": 77, "vel": 76, "track": 0}, {"t": 1.5, "dur": 0.24792, "note": 54, "vel": 82, "track": 7}, {"t": 1.5, "dur": 0.24792, "note": 66, "vel": 61, "track": 6}, {"t": 1.5, "dur": 0.24792, "note": 70, "vel": 83, "track": 2}, {"t": 1.75, "dur": 0.74792, "note": 63, "vel": 66, "track": 7}, {"t": 1.75, "dur": 0.24792, "note": 70, "vel": 86, "track": 6}, {"t": 1.75, "dur": 0.24792, "note": 77, "vel": 88, "track": 2}, {"t": 1.75, "dur": 0.49792, "note": 77, "vel": 94, "track": 3}, {"t": 2.0, "dur": 0.24792, "note": 58, "vel": 77, "track": 7}, {"t": 2.0, "dur": 0.24792, "note": 70, "vel": 68, "track": 2}, {"t": 2.0, "dur": 0.24792, "note": 77, "vel": 88, "track": 6}, {"t": 2.0, "dur": 0.49792, "note": 77, "vel": 71, "track": 0}, {"t": 2.25, "dur": 0.24792, "note": 54, "vel": 74, "track": 7}, {"t": 2.25, "dur": 0.24792, "note": 70, "vel": 59, "track": 6}, {"t": 2.25, "dur": 0.24792, "note": 77, "vel": 80, "track": 3}, {"t": 2.25, "dur": 0.24792, "note": 77, "vel": 92, "track": 2}, {"t": 2.5, "dur": 0.24792, "note": 46, "vel": 68, "track": 7}, {"t": 2.5, "dur": 0.99792, "note": 46, "vel": 64, "track": 9}, {"t": 2.5, "dur": 0.24792, "note": 65, "vel": 60, "track": 2}, {"t": 2.5, "dur": 0.49792, "note": 65, "vel": 59, "track": 3}, {"t": 2.5, "dur": 0.24792, "note": 77, "vel": 91, "track": 6}, {"t": 2.5, "dur": 0.74792, "note": 77, "vel": 81, "track": 0}, {"t": 2.75, "dur": 0.24792, "note": 53, "vel": 84, "track": 7}, {"t": 2.75, "dur": 0.24792, "note": 65, "vel": 60, "track": 6}, {"t": 2.75, "dur": 0.24792, "note": 72, "vel": 88, "track": 2}, {"t": 3.0, "dur": 0.74792, "note": 61, "vel": 67, "track": 7}, {"t": 3.0, "dur": 0.24792, "note": 72, "vel": 85, "track": 6}, {"t": 3.0, "dur": 0.24792, "note": 77, "vel": 92, "track": 2}, {"t": 3.0, "dur": 0.49792, "note": 77, "vel": 93, "track": 3}, {"t": 3.25, "dur": 0.24792, "note": 58, "vel": 75, "track": 7}, {"t": 3.25, "dur": 0.24792, "note": 72, "vel": 66, "track": 2}, {"t": 3.25, "dur": 0.24792, "note": 77, "vel": 86, "track": 6}, {"t": 3.25, "dur": 0.49792, "note": 77, "vel": 75, "track": 0}, {"t": 3.5, "dur": 0.24792, "note": 53, "vel": 72, "track": 7}, {"t": 3.5, "dur": 0.24792, "note": 72, "vel": 68, "track": 6}, {"t": 3.5, "dur": 0.24792, "note": 77, "vel": 76, "track": 3}, {"t": 3.5, "dur": 0.24792, "note": 77, "vel": 86, "track": 2}, {"t": 3.75, "dur": 0.24792, "note": 48, "vel": 72, "track": 7}, {"t": 3.75, "dur": 0.99792, "note": 48, "vel": 66, "track": 9}, {"t": 3.75, "dur": 0.24792, "note": 66, "vel": 58, "track": 2}, {"t": 3.75, "dur": 0.49792, "note": 66, "vel": 57, "track": 3}, {"t": 3.75, "dur": 0.24792, "note": 77, "vel": 87, "track": 6}, {"t": 3.75, "dur": 0.74792, "note": 77, "vel": 76, "track": 0}, {"t": 4.0, "dur": 0.24792, "note": 54, "vel": 82, "track": 7}, {"t": 4.0, "dur": 0.24792, "note": 66, "vel": 56, "track": 6}, {"t": 4.0, "dur": 0.24792, "note": 70, "vel": 79, "track": 2}, {"t": 4.25, "dur": 0.74792, "note": 63, "vel": 66, "track": 7}, {"t": 4.25, "dur": 0.24792, "note": 70, "vel": 81, "track": 6}, {"t": 4.25, "dur": 0.24792, "note": 77, "vel": 91, "track": 2}, {"t": 4.25, "dur": 0.49792, "note": 77, "vel": 94, "track": 3}, {"t": 4.5, "dur": 0.24792, "note": 58, "vel": 73, "track": 7}, {"t": 4.5, "dur": 0.24792, "note": 70, "vel": 66, "track": 2}, {"t": 4.5, "dur": 0.24792, "note": 75, "vel": 84, "track": 6}, {"t": 4.5, "dur": 0.49792, "note": 75, "vel": 73, "track": 0}, {"t": 4.75, "dur": 0.24792, "note": 54, "vel": 69, "track": 7}, {"t": 4.75, "dur": 0.24792, "note": 70, "vel": 69, "track": 6}, {"t": 4.75, "dur": 0.24792, "note": 75, "vel": 74, "track": 3}, {"t": 4.75, "dur": 0.24792, "note": 75, "vel": 81, "track": 2}]}, {"id": 108, "measures": "m152-153", "meter": [10, 16], "length_ticks": 2400, "length_beats": 5.0, "notes": [{"t": 0.0, "dur": 0.24792, "note": 49, "vel": 71, "track": 7}, {"t": 0.0, "dur": 0.99792, "note": 49, "vel": 70, "track": 9}, {"t": 0.0, "dur": 0.24792, "note": 65, "vel": 59, "track": 2}, {"t": 0.0, "dur": 0.49792, "note": 65, "vel": 59, "track": 3}, {"t": 0.0, "dur": 0.24792, "note": 77, "vel": 83, "track": 6}, {"t": 0.0, "dur": 1.24792, "note": 77, "vel": 81, "track": 0}, {"t": 0.25, "dur": 0.24792, "note": 56, "vel": 89, "track": 7}, {"t": 0.25, "dur": 0.24792, "note": 65, "vel": 56, "track": 6}, {"t": 0.25, "dur": 0.24792, "note": 71, "vel": 84, "track": 2}, {"t": 0.5, "dur": 0.74792, "note": 65, "vel": 69, "track": 7}, {"t": 0.5, "dur": 0.24792, "note": 71, "vel": 85, "track": 6}, {"t": 0.5, "dur": 0.24792, "note": 77, "vel": 94, "track": 2}, {"t": 0.5, "dur": 0.49792, "note": 77, "vel": 91, "track": 3}, {"t": 0.75, "dur": 0.24792, "note": 61, "vel": 71, "track": 7}, {"t": 0.75, "dur": 0.24792, "note": 71, "vel": 66, "track": 2}, {"t": 0.75, "dur": 0.24792, "note": 77, "vel": 89, "track": 6}, {"t": 1.0, "dur": 0.24792, "note": 56, "vel": 70, "track": 7}, {"t": 1.0, "dur": 0.24792, "note": 71, "vel": 68, "track": 6}, {"t": 1.0, "dur": 0.24792, "note": 77, "vel": 75, "track": 3}, {"t": 1.0, "dur": 0.24792, "note": 77, "vel": 90, "track": 2}, {"t": 1.25, "dur": 0.24792, "note": 50, "vel": 71, "track": 7}, {"t": 1.25, "dur": 0.99792, "note": 50, "vel": 70, "track": 9}, {"t": 1.25, "dur": 0.24792, "note": 66, "vel": 57, "track": 2}, {"t": 1.25, "dur": 0.49792, "note": 66, "vel": 57, "track": 3}, {"t": 1.25, "dur": 0.24792, "note": 77, "vel": 85, "track": 6}, {"t": 1.25, "dur": 0.74792, "note": 77, "vel": 74, "track": 0}, {"t": 1.5, "dur": 0.24792, "note": 56, "vel": 83, "track": 7}, {"t": 1.5, "dur": 0.24792, "note": 68, "vel": 62, "track": 6}, {"t": 1.5, "dur": 0.24792, "note": 70, "vel": 79, "track": 2}, {"t": 1.75, "dur": 0.74792, "note": 65, "vel": 67, "track": 7}, {"t": 1.75, "dur": 0.24792, "note": 70, "vel": 75, "track": 6}, {"t": 1.75, "dur": 0.24792, "note": 77, "vel": 89, "track": 2}, {"t": 1.75, "dur": 0.49792, "note": 77, "vel": 88, "track": 3}, {"t": 2.0, "dur": 0.24792, "note": 58, "vel": 73, "track": 7}, {"t": 2.0, "dur": 0.24792, "note": 70, "vel": 63, "track": 2}, {"t": 2.0, "dur": 0.24792, "note": 77, "vel": 87, "track": 6}, {"t": 2.0, "dur": 0.49792, "note": 77, "vel": 79, "track": 0}, {"t": 2.25, "dur": 0.24792, "note": 56, "vel": 73, "track": 7}, {"t": 2.25, "dur": 0.24792, "note": 70, "vel": 63, "track": 6}, {"t": 2.25, "dur": 0.24792, "note": 77, "vel": 81, "track": 3}, {"t": 2.25, "dur": 0.24792, "note": 77, "vel": 87, "track": 2}, {"t": 2.5, "dur": 0.24792, "note": 49, "vel": 67, "track": 7}, {"t": 2.5, "dur": 0.99792, "note": 49, "vel": 64, "track": 9}, {"t": 2.5, "dur": 0.24792, "note": 65, "vel": 53, "track": 2}, {"t": 2.5, "dur": 0.49792, "note": 65, "vel": 54, "track": 3}, {"t": 2.5, "dur": 0.24792, "note": 77, "vel": 88, "track": 6}, {"t": 2.5, "dur": 0.74792, "note": 77, "vel": 74, "track": 0}, {"t": 2.75, "dur": 0.24792, "note": 56, "vel": 78, "track": 7}, {"t": 2.75, "dur": 0.24792, "note": 65, "vel": 60, "track": 6}, {"t": 2.75, "dur": 0.24792, "note": 71, "vel": 82, "track": 2}, {"t": 3.0, "dur": 0.74792, "note": 65, "vel": 65, "track": 7}, {"t": 3.0, "dur": 0.24792, "note": 71, "vel": 89, "track": 6}, {"t": 3.0, "dur": 0.24792, "note": 77, "vel": 90, "track": 2}, {"t": 3.0, "dur": 0.49792, "note": 77, "vel": 96, "track": 3}, {"t": 3.25, "dur": 0.24792, "note": 61, "vel": 71, "track": 7}, {"t": 3.25, "dur": 0.24792, "note": 71, "vel": 69, "track": 2}, {"t": 3.25, "dur": 0.24792, "note": 77, "vel": 88, "track": 6}, {"t": 3.25, "dur": 0.49792, "note": 77, "vel": 79, "track": 0}, {"t": 3.5, "dur": 0.24792, "note": 56, "vel": 70, "track": 7}, {"t": 3.5, "dur": 0.24792, "note": 71, "vel": 66, "track": 6}, {"t": 3.5, "dur": 0.24792, "note": 77, "vel": 81, "track": 3}, {"t": 3.5, "dur": 0.24792, "note": 77, "vel": 85, "track": 2}, {"t": 3.75, "dur": 0.24792, "note": 50, "vel": 69, "track": 7}, {"t": 3.75, "dur": 0.99792, "note": 50, "vel": 76, "track": 9}, {"t": 3.75, "dur": 0.24792, "note": 68, "vel": 63, "track": 2}, {"t": 3.75, "dur": 0.49792, "note": 68, "vel": 64, "track": 3}, {"t": 3.75, "dur": 0.24792, "note": 77, "vel": 85, "track": 6}, {"t": 3.75, "dur": 0.74792, "note": 77, "vel": 78, "track": 0}, {"t": 4.0, "dur": 0.24792, "note": 56, "vel": 79, "track": 7}, {"t": 4.0, "dur": 0.24792, "note": 68, "vel": 61, "track": 6}, {"t": 4.0, "dur": 0.24792, "note": 70, "vel": 78, "track": 2}, {"t": 4.25, "dur": 0.74792, "note": 65, "vel": 69, "track": 7}, {"t": 4.25, "dur": 0.24792, "note": 70, "vel": 77, "track": 6}, {"t": 4.25, "dur": 0.24792, "note": 71, "vel": 84, "track": 2}, {"t": 4.25, "dur": 0.49792, "note": 71, "vel": 82, "track": 3}, {"t": 4.5, "dur": 0.24792, "note": 58, "vel": 67, "track": 7}, {"t": 4.5, "dur": 0.24792, "note": 70, "vel": 75, "track": 2}, {"t": 4.5, "dur": 0.24792, "note": 71, "vel": 80, "track": 6}, {"t": 4.5, "dur": 0.49792, "note": 71, "vel": 64, "track": 0}, {"t": 4.75, "dur": 0.24792, "note": 56, "vel": 78, "track": 7}, {"t": 4.75, "dur": 0.24792, "note": 70, "vel": 72, "track": 6}, {"t": 4.75, "dur": 0.24792, "note": 75, "vel": 85, "track": 2}, {"t": 4.75, "dur": 0.24792, "note": 75, "vel": 94, "track": 3}]}, {"id": 109, "measures": "m154-157", "meter": [10, 16], "length_ticks": 4800, "length_beats": 10.0, "notes": [{"t": 0.0, "dur": 0.24792, "note": 51, "vel": 77, "track": 7}, {"t": 0.0, "dur": 0.99792, "note": 51, "vel": 62, "track": 9}, {"t": 0.0, "dur": 0.24792, "note": 66, "vel": 62, "track": 2}, {"t": 0.0, "dur": 0.49792, "note": 66, "vel": 61, "track": 3}, {"t": 0.0, "dur": 0.24792, "note": 77, "vel": 89, "track": 6}, {"t": 0.0, "dur": 0.74792, "note": 77, "vel": 84, "track": 0}, {"t": 0.25, "dur": 0.24792, "note": 58, "vel": 82, "track": 7}, {"t": 0.25, "dur": 0.24792, "note": 66, "vel": 60, "track": 6}, {"t": 0.25, "dur": 0.24792, "note": 70, "vel": 81, "track": 2}, {"t": 0.5, "dur": 0.74792, "note": 66, "vel": 68, "track": 7}, {"t": 0.5, "dur": 0.24792, "note": 70, "vel": 84, "track": 6}, {"t": 0.5, "dur": 0.24792, "note": 77, "vel": 90, "track": 2}, {"t": 0.5, "dur": 0.49792, "note": 77, "vel": 92, "track": 3}, {"t": 0.75, "dur": 0.24792, "note": 63, "vel": 75, "track": 7}, {"t": 0.75, "dur": 0.24792, "note": 70, "vel": 68, "track": 2}, {"t": 0.75, "dur": 0.24792, "note": 78, "vel": 87, "track": 6}, {"t": 0.75, "dur": 0.49792, "note": 78, "vel": 87, "track": 0}, {"t": 1.0, "dur": 0.24792, "note": 58, "vel": 73, "track": 7}, {"t": 1.0, "dur": 0.24792, "note": 70, "vel": 64, "track": 6}, {"t": 1.0, "dur": 0.24792, "note": 78, "vel": 83, "track": 3}, {"t": 1.0, "dur": 0.24792, "note": 78, "vel": 88, "track": 2}, {"t": 1.25, "dur": 0.24792, "note": 49, "vel": 64, "track": 7}, {"t": 1.25, "dur": 0.99792, "note": 49, "vel": 71, "track": 9}, {"t": 1.25, "dur": 0.24792, "note": 66, "vel": 56, "track": 2}, {"t": 1.25, "dur": 0.49792, "note": 66, "vel": 53, "track": 3}, {"t": 1.25, "dur": 0.24792, "note": 78, "vel": 89, "track": 6}, {"t": 1.25, "dur": 0.74792, "note": 78, "vel": 78, "track": 0}, {"t": 1.5, "dur": 0.24792, "note": 58, "vel": 81, "track": 7}, {"t": 1.5, "dur": 0.24792, "note": 66, "vel": 60, "track": 6}, {"t": 1.5, "dur": 0.24792, "note": 70, "vel": 80, "track": 2}, {"t": 1.75, "dur": 0.74792, "note": 66, "vel": 71, "track": 7}, {"t": 1.75, "dur": 0.24792, "note": 70, "vel": 83, "track": 6}, {"t": 1.75, "dur": 0.24792, "note": 77, "vel": 92, "track": 2}, {"t": 1.75, "dur": 0.49792, "note": 77, "vel": 94, "track": 3}, {"t": 2.0, "dur": 0.24792, "note": 63, "vel": 71, "track": 7}, {"t": 2.0, "dur": 0.24792, "note": 70, "vel": 62, "track": 2}, {"t": 2.0, "dur": 0.24792, "note": 75, "vel": 88, "track": 6}, {"t": 2.0, "dur": 0.49792, "note": 75, "vel": 71, "track": 0}, {"t": 2.25, "dur": 0.24792, "note": 58, "vel": 68, "track": 7}, {"t": 2.25, "dur": 0.24792, "note": 70, "vel": 69, "track": 6}, {"t": 2.25, "dur": 0.24792, "note": 75, "vel": 76, "track": 3}, {"t": 2.25, "dur": 0.24792, "note": 75, "vel": 88, "track": 2}, {"t": 2.5, "dur": 0.24792, "note": 48, "vel": 61, "track": 7}, {"t": 2.5, "dur": 0.99792, "note": 48, "vel": 65, "track": 9}, {"t": 2.5, "dur": 0.24792, "note": 66, "vel": 64, "track": 2}, {"t": 2.5, "dur": 0.49792, "note": 66, "vel": 58, "track": 3}, {"t": 2.5, "dur": 0.24792, "note": 75, "vel": 83, "track": 6}, {"t": 2.5, "dur": 0.74792, "note": 75, "vel": 76, "track": 0}, {"t": 2.75, "dur": 0.24792, "note": 54, "vel": 79, "track": 7}, {"t": 2.75, "dur": 0.24792, "note": 66, "vel": 61, "track": 6}, {"t": 2.75, "dur": 0.24792, "note": 70, "vel": 85, "track": 2}, {"t": 3.0, "dur": 0.74792, "note": 63, "vel": 67, "track": 7}, {"t": 3.0, "dur": 0.24792, "note": 68, "vel": 75, "track": 6}, {"t": 3.0, "dur": 0.24792, "note": 75, "vel": 88, "track": 2}, {"t": 3.0, "dur": 0.49792, "note": 75, "vel": 89, "track": 3}, {"t": 3.25, "dur": 0.24792, "note": 56, "vel": 68, "track": 7}, {"t": 3.25, "dur": 0.24792, "note": 68, "vel": 68, "track": 2}, {"t": 3.25, "dur": 0.24792, "note": 77, "vel": 75, "track": 0}, {"t": 3.25, "dur": 0.24792, "note": 77, "vel": 93, "track": 6}, {"t": 3.5, "dur": 0.24792, "note": 54, "vel": 74, "track": 7}, {"t": 3.5, "dur": 0.24792, "note": 77, "vel": 84, "track": 2}, {"t": 3.5, "dur": 0.24792, "note": 77, "vel": 86, "track": 3}, {"t": 3.5, "dur": 0.24792, "note": 78, "vel": 76, "track": 0}, {"t": 3.5, "dur": 0.24792, "note": 78, "vel": 82, "track": 6}, {"t": 3.75, "dur": 0.24792, "note": 49, "vel": 72, "track": 7}, {"t": 3.75, "dur": 0.99792, "note": 49, "vel": 71, "track": 9}, {"t": 3.75, "dur": 0.24792, "note": 65, "vel": 53, "track": 2}, {"t": 3.75, "dur": 0.49792, "note": 65, "vel": 57, "track": 3}, {"t": 3.75, "dur": 0.24792, "note": 77, "vel": 77, "track": 6}, {"t": 3.75, "dur": 0.74792, "note": 77, "vel": 78, "track": 0}, {"t": 4.0, "dur": 0.24792, "note": 56, "vel": 87, "track": 7}, {"t": 4.0, "dur": 0.24792, "note": 65, "vel": 56, "track": 6}, {"t": 4.0, "dur": 0.24792, "note": 72, "vel": 85, "track": 2}, {"t": 4.25, "dur": 0.74792, "note": 65, "vel": 69, "track": 7}, {"t": 4.25, "dur": 0.24792, "note": 68, "vel": 80, "track": 6}, {"t": 4.25, "dur": 0.24792, "note": 75, "vel": 85, "track": 2}, {"t": 4.25, "dur": 0.49792, "note": 75, "vel": 92, "track": 3}, {"t": 4.5, "dur": 0.24792, "note": 61, "vel": 70, "track": 7}, {"t": 4.5, "dur": 0.24792, "note": 68, "vel": 61, "track": 2}, {"t": 4.5, "dur": 0.24792, "note": 73, "vel": 88, "track": 6}, {"t": 4.5, "dur": 0.49792, "note": 73, "vel": 70, "track": 0}, {"t": 4.75, "dur": 0.24792, "note": 56, "vel": 69, "track": 7}, {"t": 4.75, "dur": 0.24792, "note": 68, "vel": 69, "track": 6}, {"t": 4.75, "dur": 0.24792, "note": 73, "vel": 76, "track": 3}, {"t": 4.75, "dur": 0.24792, "note": 73, "vel": 87, "track": 2}, {"t": 5.0, "dur": 0.24792, "note": 48, "vel": 65, "track": 7}, {"t": 5.0, "dur": 0.99792, "note": 48, "vel": 67, "track": 9}, {"t": 5.0, "dur": 0.24792, "note": 65, "vel": 60, "track": 2}, {"t": 5.0, "dur": 0.49792, "note": 65, "vel": 63, "track": 3}, {"t": 5.0, "dur": 0.24792, "note": 73, "vel": 87, "track": 6}, {"t": 5.0, "dur": 0.74792, "note": 73, "vel": 76, "track": 0}, {"t": 5.25, "dur": 0.24792, "note": 53, "vel": 82, "track": 7}, {"t": 5.25, "dur": 0.24792, "note": 65, "vel": 64, "track": 6}, {"t": 5.25, "dur": 0.24792, "note": 66, "vel": 76, "track": 2}, {"t": 5.5, "dur": 0.74792, "note": 63, "vel": 64, "track": 7}, {"t": 5.5, "dur": 0.24792, "note": 66, "vel": 75, "track": 6}, {"t": 5.5, "dur": 0.24792, "note": 73, "vel": 87, "track": 2}, {"t": 5.5, "dur": 0.49792, "note": 73, "vel": 91, "track": 3}, {"t": 5.75, "dur": 0.24792, "note": 57, "vel": 77, "track": 7}, {"t": 5.75, "dur": 0.24792, "note": 66, "vel": 62, "track": 2}, {"t": 5.75, "dur": 0.24792, "note": 72, "vel": 84, "track": 6}, {"t": 5.75, "dur": 0.49792, "note": 72, "vel": 77, "track": 0}, {"t": 6.0, "dur": 0.24792, "note": 54, "vel": 70, "track": 7}, {"t": 6.0, "dur": 0.24792, "note": 66, "vel": 68, "track": 6}, {"t": 6.0, "dur": 0.24792, "note": 72, "vel": 76, "track": 3}, {"t": 6.0, "dur": 0.24792, "note": 72, "vel": 87, "track": 2}, {"t": 6.25, "dur": 0.24792, "note": 46, "vel": 67, "track": 7}, {"t": 6.25, "dur": 0.99792, "note": 46, "vel": 71, "track": 9}, {"t": 6.25, "dur": 0.24792, "note": 61, "vel": 61, "track": 2}, {"t": 6.25, "dur": 0.49792, "note": 61, "vel": 59, "track": 3}, {"t": 6.25, "dur": 0.24792, "note": 73, "vel": 88, "track": 6}, {"t": 6.25, "dur": 0.74792, "note": 73, "vel": 79, "track": 0}, {"t": 6.5, "dur": 0.24792, "note": 53, "vel": 82, "track": 7}, {"t": 6.5, "dur": 0.24792, "note": 65, "vel": 58, "track": 6}, {"t": 6.5, "dur": 0.24792, "note": 65, "vel": 79, "track": 2}, {"t": 6.75, "dur": 0.74792, "note": 61, "vel": 68, "track": 7}, {"t": 6.75, "dur": 0.24792, "note": 70, "vel": 85, "track": 6}, {"t": 6.75, "dur": 0.24792, "note": 73, "vel": 89, "track": 2}, {"t": 6.75, "dur": 0.49792, "note": 73, "vel": 91, "track": 3}, {"t": 7.0, "dur": 0.24792, "note": 58, "vel": 71, "track": 7}, {"t": 7.0, "dur": 0.24792, "note": 65, "vel": 68, "track": 2}, {"t": 7.0, "dur": 0.24792, "note": 73, "vel": 83, "track": 6}, {"t": 7.0, "dur": 0.49792, "note": 73, "vel": 73, "track": 0}, {"t": 7.25, "dur": 0.24792, "note": 53, "vel": 71, "track": 7}, {"t": 7.25, "dur": 0.24792, "note": 70, "vel": 74, "track": 3}, {"t": 7.25, "dur": 0.24792, "note": 70, "vel": 74, "track": 6}, {"t": 7.25, "dur": 0.24792, "note": 70, "vel": 83, "track": 2}, {"t": 7.5, "dur": 0.24792, "note": 44, "vel": 68, "track": 7}, {"t": 7.5, "dur": 0.99792, "note": 44, "vel": 64, "track": 9}, {"t": 7.5, "dur": 0.24792, "note": 63, "vel": 66, "track": 2}, {"t": 7.5, "dur": 0.49792, "note": 63, "vel": 61, "track": 3}, {"t": 7.5, "dur": 0.24792, "note": 72, "vel": 82, "track": 6}, {"t": 7.5, "dur": 0.74792, "note": 72, "vel": 71, "track": 0}, {"t": 7.75, "dur": 0.24792, "note": 51, "vel": 78, "track": 7}, {"t": 7.75, "dur": 0.24792, "note": 63, "vel": 62, "track": 6}, {"t": 7.75, "dur": 0.24792, "note": 68, "vel": 88, "track": 2}, {"t": 8.0, "dur": 0.74792, "note": 60, "vel": 71, "track": 7}, {"t": 8.0, "dur": 0.24792, "note": 68, "vel": 88, "track": 6}, {"t": 8.0, "dur": 0.24792, "note": 72, "vel": 84, "track": 2}, {"t": 8.0, "dur": 0.49792, "note": 72, "vel": 91, "track": 3}, {"t": 8.25, "dur": 0.24792, "note": 56, "vel": 75, "track": 7}, {"t": 8.25, "dur": 0.24792, "note": 68, "vel": 67, "track": 2}, {"t": 8.25, "dur": 0.24792, "note": 70, "vel": 72, "track": 0}, {"t": 8.25, "dur": 0.24792, "note": 70, "vel": 80, "track": 6}, {"t": 8.5, "dur": 0.24792, "note": 51, "vel": 71, "track": 7}, {"t": 8.5, "dur": 0.24792, "note": 68, "vel": 71, "track": 6}, {"t": 8.5, "dur": 0.24792, "note": 68, "vel": 73, "track": 0}, {"t": 8.5, "dur": 0.24792, "note": 70, "vel": 78, "track": 3}, {"t": 8.5, "dur": 0.24792, "note": 70, "vel": 80, "track": 2}, {"t": 8.75, "dur": 0.24792, "note": 46, "vel": 75, "track": 7}, {"t": 8.75, "dur": 0.99792, "note": 46, "vel": 70, "track": 9}, {"t": 8.75, "dur": 0.24792, "note": 61, "vel": 61, "track": 2}, {"t": 8.75, "dur": 0.49792, "note": 61, "vel": 65, "track": 3}, {"t": 8.75, "dur": 0.24792, "note": 70, "vel": 77, "track": 6}, {"t": 8.75, "dur": 0.74792, "note": 70, "vel": 81, "track": 0}, {"t": 9.0, "dur": 0.24792, "note": 53, "vel": 78, "track": 7}, {"t": 9.0, "dur": 0.24792, "note": 61, "vel": 59, "track": 6}, {"t": 9.0, "dur": 0.24792, "note": 65, "vel": 83, "track": 2}, {"t": 9.25, "dur": 0.74792, "note": 61, "vel": 65, "track": 7}, {"t": 9.25, "dur": 0.24792, "note": 65, "vel": 79, "track": 6}, {"t": 9.25, "dur": 0.24792, "note": 70, "vel": 86, "track": 2}, {"t": 9.25, "dur": 0.49792, "note": 70, "vel": 93, "track": 3}, {"t": 9.5, "dur": 0.24792, "note": 58, "vel": 75, "track": 7}, {"t": 9.5, "dur": 0.24792, "note": 65, "vel": 67, "track": 2}, {"t": 9.5, "dur": 0.24792, "note": 77, "vel": 101, "track": 6}, {"t": 9.5, "dur": 0.49792, "note": 77, "vel": 91, "track": 0}, {"t": 9.75, "dur": 0.24792, "note": 53, "vel": 71, "track": 7}, {"t": 9.75, "dur": 0.24792, "note": 70, "vel": 74, "track": 6}, {"t": 9.75, "dur": 0.24792, "note": 77, "vel": 93, "track": 3}, {"t": 9.75, "dur": 0.24792, "note": 77, "vel": 97, "track": 2}]}, {"id": 110, "measures": "m158", "meter": [10, 16], "length_ticks": 1200, "length_beats": 2.5, "notes": [{"t": 0.0, "dur": 0.24792, "note": 44, "vel": 70, "track": 7}, {"t": 0.0, "dur": 0.99792, "note": 44, "vel": 69, "track": 9}, {"t": 0.0, "dur": 0.24792, "note": 63, "vel": 61, "track": 2}, {"t": 0.0, "dur": 0.49792, "note": 63, "vel": 56, "track": 3}, {"t": 0.0, "dur": 0.24792, "note": 72, "vel": 81, "track": 6}, {"t": 0.0, "dur": 0.74792, "note": 72, "vel": 71, "track": 0}, {"t": 0.25, "dur": 0.24792, "note": 51, "vel": 84, "track": 7}, {"t": 0.25, "dur": 0.24792, "note": 63, "vel": 58, "track": 6}, {"t": 0.25, "dur": 0.24792, "note": 68, "vel": 82, "track": 2}, {"t": 0.5, "dur": 0.74792, "note": 60, "vel": 74, "track": 7}, {"t": 0.5, "dur": 0.24792, "note": 68, "vel": 86, "track": 6}, {"t": 0.5, "dur": 0.24792, "note": 72, "vel": 84, "track": 2}, {"t": 0.5, "dur": 0.49792, "note": 72, "vel": 90, "track": 3}, {"t": 0.75, "dur": 0.24792, "note": 56, "vel": 78, "track": 7}, {"t": 0.75, "dur": 0.24792, "note": 68, "vel": 72, "track": 2}, {"t": 0.75, "dur": 0.24792, "note": 70, "vel": 75, "track": 0}, {"t": 0.75, "dur": 0.24792, "note": 70, "vel": 78, "track": 6}, {"t": 1.0, "dur": 0.24792, "note": 51, "vel": 72, "track": 7}, {"t": 1.0, "dur": 0.24792, "note": 68, "vel": 72, "track": 6}, {"t": 1.0, "dur": 0.24792, "note": 68, "vel": 76, "track": 0}, {"t": 1.0, "dur": 0.24792, "note": 70, "vel": 72, "track": 3}, {"t": 1.0, "dur": 0.24792, "note": 70, "vel": 80, "track": 2}, {"t": 1.25, "dur": 0.24792, "note": 46, "vel": 68, "track": 7}, {"t": 1.25, "dur": 0.99792, "note": 46, "vel": 69, "track": 9}, {"t": 1.25, "dur": 0.24792, "note": 61, "vel": 64, "track": 2}, {"t": 1.25, "dur": 0.49792, "note": 61, "vel": 59, "track": 3}, {"t": 1.25, "dur": 0.24792, "note": 70, "vel": 81, "track": 6}, {"t": 1.25, "dur": 0.74792, "note": 70, "vel": 83, "track": 0}, {"t": 1.5, "dur": 0.24792, "note": 53, "vel": 86, "track": 7}, {"t": 1.5, "dur": 0.24792, "note": 61, "vel": 60, "track": 6}, {"t": 1.5, "dur": 0.24792, "note": 65, "vel": 77, "track": 2}, {"t": 1.75, "dur": 0.74792, "note": 61, "vel": 71, "track": 7}, {"t": 1.75, "dur": 0.24792, "note": 65, "vel": 78, "track": 6}, {"t": 1.75, "dur": 0.24792, "note": 70, "vel": 87, "track": 2}, {"t": 1.75, "dur": 0.49792, "note": 70, "vel": 88, "track": 3}, {"t": 2.0, "dur": 0.24792, "note": 58, "vel": 72, "track": 7}, {"t": 2.0, "dur": 0.24792, "note": 65, "vel": 64, "track": 2}, {"t": 2.0, "dur": 0.24792, "note": 70, "vel": 89, "track": 6}, {"t": 2.0, "dur": 0.49792, "note": 70, "vel": 75, "track": 0}, {"t": 2.25, "dur": 0.24792, "note": 53, "vel": 69, "track": 7}, {"t": 2.25, "dur": 0.24792, "note": 65, "vel": 70, "track": 6}, {"t": 2.25, "dur": 0.24792, "note": 70, "vel": 77, "track": 3}, {"t": 2.25, "dur": 0.24792, "note": 70, "vel": 85, "track": 2}]}, {"id": 111, "measures": "m159-160", "meter": [10, 16], "length_ticks": 2400, "length_beats": 5.0, "notes": [{"t": 0.0, "dur": 0.24792, "note": 44, "vel": 74, "track": 7}, {"t": 0.0, "dur": 0.99792, "note": 44, "vel": 71, "track": 9}, {"t": 0.0, "dur": 0.24792, "note": 63, "vel": 65, "track": 2}, {"t": 0.0, "dur": 0.49792, "note": 63, "vel": 62, "track": 3}, {"t": 0.0, "dur": 0.24792, "note": 70, "vel": 85, "track": 6}, {"t": 0.0, "dur": 0.74792, "note": 70, "vel": 75, "track": 0}, {"t": 0.25, "dur": 0.24792, "note": 51, "vel": 82, "track": 7}, {"t": 0.25, "dur": 0.24792, "note": 63, "vel": 65, "track": 6}, {"t": 0.25, "dur": 0.24792, "note": 68, "vel": 81, "track": 2}, {"t": 0.5, "dur": 0.74792, "note": 60, "vel": 71, "track": 7}, {"t": 0.5, "dur": 0.24792, "note": 68, "vel": 88, "track": 6}, {"t": 0.5, "dur": 0.24792, "note": 70, "vel": 80, "track": 2}, {"t": 0.5, "dur": 0.24792, "note": 70, "vel": 88, "track": 3}, {"t": 0.75, "dur": 0.24792, "note": 56, "vel": 76, "track": 7}, {"t": 0.75, "dur": 0.24792, "note": 68, "vel": 71, "track": 2}, {"t": 0.75, "dur": 0.24792, "note": 68, "vel": 71, "track": 3}, {"t": 0.75, "dur": 0.24792, "note": 70, "vel": 78, "track": 6}, {"t": 0.75, "dur": 0.49792, "note": 70, "vel": 79, "track": 0}, {"t": 1.0, "dur": 0.24792, "note": 51, "vel": 67, "track": 7}, {"t": 1.0, "dur": 0.24792, "note": 68, "vel": 71, "track": 6}, {"t": 1.0, "dur": 0.24792, "note": 70, "vel": 77, "track": 3}, {"t": 1.0, "dur": 0.24792, "note": 70, "vel": 78, "track": 2}, {"t": 1.25, "dur": 0.24792, "note": 42, "vel": 66, "track": 7}, {"t": 1.25, "dur": 0.99792, "note": 42, "vel": 68, "track": 9}, {"t": 1.25, "dur": 0.24792, "note": 61, "vel": 61, "track": 2}, {"t": 1.25, "dur": 0.49792, "note": 61, "vel": 64, "track": 3}, {"t": 1.25, "dur": 0.24792, "note": 70, "vel": 83, "track": 6}, {"t": 1.25, "dur": 0.74792, "note": 70, "vel": 75, "track": 0}, {"t": 1.5, "dur": 0.24792, "note": 49, "vel": 86, "track": 7}, {"t": 1.5, "dur": 0.24792, "note": 61, "vel": 58, "track": 6}, {"t": 1.5, "dur": 0.24792, "note": 66, "vel": 83, "track": 2}, {"t": 1.75, "dur": 0.74792, "note": 58, "vel": 74, "track": 7}, {"t": 1.75, "dur": 0.24792, "note": 66, "vel": 81, "track": 6}, {"t": 1.75, "dur": 0.24792, "note": 70, "vel": 86, "track": 2}, {"t": 1.75, "dur": 0.49792, "note": 70, "vel": 91, "track": 3}, {"t": 2.0, "dur": 0.24792, "note": 54, "vel": 80, "track": 7}, {"t": 2.0, "dur": 0.24792, "note": 66, "vel": 72, "track": 2}, {"t": 2.0, "dur": 0.24792, "note": 70, "vel": 85, "track": 6}, {"t": 2.0, "dur": 0.49792, "note": 70, "vel": 76, "track": 0}, {"t": 2.25, "dur": 0.24792, "note": 49, "vel": 68, "track": 7}, {"t": 2.25, "dur": 0.24792, "note": 66, "vel": 69, "track": 6}, {"t": 2.25, "dur": 0.24792, "note": 70, "vel": 80, "track": 3}, {"t": 2.25, "dur": 0.24792, "note": 70, "vel": 86, "track": 2}, {"t": 2.5, "dur": 0.24792, "note": 41, "vel": 65, "track": 7}, {"t": 2.5, "dur": 0.99792, "note": 41, "vel": 67, "track": 9}, {"t": 2.5, "dur": 0.24792, "note": 60, "vel": 59, "track": 2}, {"t": 2.5, "dur": 0.49792, "note": 60, "vel": 58, "track": 3}, {"t": 2.5, "dur": 0.24792, "note": 70, "vel": 88, "track": 6}, {"t": 2.5, "dur": 0.74792, "note": 70, "vel": 76, "track": 0}, {"t": 2.75, "dur": 0.24792, "note": 48, "vel": 83, "track": 7}, {"t": 2.75, "dur": 0.24792, "note": 60, "vel": 60, "track": 6}, {"t": 2.75, "dur": 0.24792, "note": 65, "vel": 84, "track": 2}, {"t": 3.0, "dur": 0.74792, "note": 57, "vel": 64, "track": 7}, {"t": 3.0, "dur": 0.24792, "note": 65, "vel": 84, "track": 6}, {"t": 3.0, "dur": 0.24792, "note": 70, "vel": 93, "track": 2}, {"t": 3.0, "dur": 0.49792, "note": 70, "vel": 92, "track": 3}, {"t": 3.25, "dur": 0.24792, "note": 53, "vel": 73, "track": 7}, {"t": 3.25, "dur": 0.24792, "note": 65, "vel": 69, "track": 2}, {"t": 3.25, "dur": 0.24792, "note": 70, "vel": 81, "track": 6}, {"t": 3.25, "dur": 0.49792, "note": 70, "vel": 77, "track": 0}, {"t": 3.5, "dur": 0.24792, "note": 48, "vel": 74, "track": 7}, {"t": 3.5, "dur": 0.24792, "note": 65, "vel": 65, "track": 6}, {"t": 3.5, "dur": 0.24792, "note": 70, "vel": 77, "track": 3}, {"t": 3.5, "dur": 0.24792, "note": 70, "vel": 87, "track": 2}, {"t": 3.75, "dur": 0.24792, "note": 46, "vel": 73, "track": 7}, {"t": 3.75, "dur": 0.99792, "note": 46, "vel": 71, "track": 9}, {"t": 3.75, "dur": 0.24792, "note": 61, "vel": 64, "track": 2}, {"t": 3.75, "dur": 0.49792, "note": 61, "vel": 57, "track": 3}, {"t": 3.75, "dur": 0.24792, "note": 70, "vel": 84, "track": 6}, {"t": 3.75, "dur": 0.74792, "note": 70, "vel": 78, "track": 0}, {"t": 4.0, "dur": 0.24792, "note": 53, "vel": 81, "track": 7}, {"t": 4.0, "dur": 0.24792, "note": 61, "vel": 64, "track": 6}, {"t": 4.0, "dur": 0.24792, "note": 65, "vel": 84, "track": 2}, {"t": 4.25, "dur": 0.74792, "note": 61, "vel": 69, "track": 7}, {"t": 4.25, "dur": 0.24792, "note": 65, "vel": 82, "track": 6}, {"t": 4.25, "dur": 0.24792, "note": 70, "vel": 89, "track": 2}, {"t": 4.25, "dur": 0.49792, "note": 70, "vel": 88, "track": 3}, {"t": 4.5, "dur": 0.24792, "note": 58, "vel": 72, "track": 7}, {"t": 4.5, "dur": 0.24792, "note": 65, "vel": 67, "track": 2}, {"t": 4.5, "dur": 0.24792, "note": 70, "vel": 91, "track": 6}, {"t": 4.5, "dur": 0.49792, "note": 70, "vel": 77, "track": 0}, {"t": 4.75, "dur": 0.24792, "note": 53, "vel": 70, "track": 7}, {"t": 4.75, "dur": 0.24792, "note": 65, "vel": 65, "track": 6}, {"t": 4.75, "dur": 0.24792, "note": 70, "vel": 81, "track": 3}, {"t": 4.75, "dur": 0.24792, "note": 70, "vel": 83, "track": 2}]}, {"id": 112, "measures": "m161", "meter": [10, 16], "length_ticks": 1200, "length_beats": 2.5, "notes": [{"t": 0.0, "dur": 0.24792, "note": 44, "vel": 67, "track": 7}, {"t": 0.0, "dur": 0.99792, "note": 44, "vel": 70, "track": 9}, {"t": 0.0, "dur": 0.49792, "note": 56, "vel": 78, "track": 8}, {"t": 0.0, "dur": 0.24792, "note": 63, "vel": 60, "track": 2}, {"t": 0.0, "dur": 0.49792, "note": 63, "vel": 62, "track": 3}, {"t": 0.0, "dur": 0.24792, "note": 70, "vel": 86, "track": 6}, {"t": 0.0, "dur": 0.74792, "note": 70, "vel": 80, "track": 0}, {"t": 0.25, "dur": 0.24792, "note": 51, "vel": 78, "track": 7}, {"t": 0.25, "dur": 0.24792, "note": 63, "vel": 63, "track": 6}, {"t": 0.25, "dur": 0.24792, "note": 68, "vel": 81, "track": 2}, {"t": 0.5, "dur": 0.49792, "note": 56, "vel": 75, "track": 8}, {"t": 0.5, "dur": 0.74792, "note": 60, "vel": 72, "track": 7}, {"t": 0.5, "dur": 0.24792, "note": 68, "vel": 85, "track": 6}, {"t": 0.5, "dur": 0.24792, "note": 70, "vel": 83, "track": 2}, {"t": 0.5, "dur": 0.24792, "note": 70, "vel": 85, "track": 3}, {"t": 0.75, "dur": 0.24792, "note": 56, "vel": 75, "track": 7}, {"t": 0.75, "dur": 0.24792, "note": 68, "vel": 70, "track": 3}, {"t": 0.75, "dur": 0.24792, "note": 68, "vel": 71, "track": 2}, {"t": 0.75, "dur": 0.24792, "note": 70, "vel": 79, "track": 6}, {"t": 0.75, "dur": 0.49792, "note": 70, "vel": 77, "track": 0}, {"t": 1.0, "dur": 0.24792, "note": 51, "vel": 70, "track": 7}, {"t": 1.0, "dur": 0.24792, "note": 56, "vel": 77, "track": 8}, {"t": 1.0, "dur": 0.24792, "note": 68, "vel": 70, "track": 6}, {"t": 1.0, "dur": 0.24792, "note": 70, "vel": 79, "track": 2}, {"t": 1.0, "dur": 0.24792, "note": 70, "vel": 80, "track": 3}, {"t": 1.25, "dur": 0.24792, "note": 42, "vel": 66, "track": 7}, {"t": 1.25, "dur": 0.99792, "note": 42, "vel": 73, "track": 9}, {"t": 1.25, "dur": 0.49792, "note": 54, "vel": 74, "track": 8}, {"t": 1.25, "dur": 0.24792, "note": 61, "vel": 61, "track": 2}, {"t": 1.25, "dur": 0.49792, "note": 61, "vel": 64, "track": 3}, {"t": 1.25, "dur": 0.24792, "note": 70, "vel": 83, "track": 6}, {"t": 1.25, "dur": 0.74792, "note": 70, "vel": 77, "track": 0}, {"t": 1.5, "dur": 0.24792, "note": 49, "vel": 79, "track": 7}, {"t": 1.5, "dur": 0.24792, "note": 61, "vel": 60, "track": 6}, {"t": 1.5, "dur": 0.24792, "note": 66, "vel": 85, "track": 2}, {"t": 1.75, "dur": 0.49792, "note": 54, "vel": 79, "track": 8}, {"t": 1.75, "dur": 0.74792, "note": 58, "vel": 71, "track": 7}, {"t": 1.75, "dur": 0.24792, "note": 66, "vel": 84, "track": 6}, {"t": 1.75, "dur": 0.24792, "note": 70, "vel": 80, "track": 2}, {"t": 1.75, "dur": 0.49792, "note": 70, "vel": 92, "track": 3}, {"t": 2.0, "dur": 0.24792, "note": 54, "vel": 76, "track": 7}, {"t": 2.0, "dur": 0.24792, "note": 66, "vel": 70, "track": 2}, {"t": 2.0, "dur": 0.24792, "note": 70, "vel": 86, "track": 6}, {"t": 2.0, "dur": 0.49792, "note": 70, "vel": 76, "track": 0}, {"t": 2.25, "dur": 0.24792, "note": 49, "vel": 69, "track": 7}, {"t": 2.25, "dur": 0.24792, "note": 54, "vel": 80, "track": 8}, {"t": 2.25, "dur": 0.24792, "note": 66, "vel": 70, "track": 6}, {"t": 2.25, "dur": 0.24792, "note": 70, "vel": 79, "track": 3}, {"t": 2.25, "dur": 0.24792, "note": 70, "vel": 89, "track": 2}]}, {"id": 113, "measures": "m162", "meter": [10, 16], "length_ticks": 1200, "length_beats": 2.5, "notes": [{"t": 0.0, "dur": 0.24792, "note": 41, "vel": 63, "track": 7}, {"t": 0.0, "dur": 0.99792, "note": 41, "vel": 71, "track": 9}, {"t": 0.0, "dur": 0.49792, "note": 53, "vel": 73, "track": 8}, {"t": 0.0, "dur": 0.24792, "note": 60, "vel": 67, "track": 2}, {"t": 0.0, "dur": 0.49792, "note": 60, "vel": 56, "track": 3}, {"t": 0.0, "dur": 0.24792, "note": 70, "vel": 83, "track": 6}, {"t": 0.0, "dur": 0.74792, "note": 70, "vel": 76, "track": 0}, {"t": 0.25, "dur": 0.24792, "note": 48, "vel": 79, "track": 7}, {"t": 0.25, "dur": 0.24792, "note": 60, "vel": 58, "track": 6}, {"t": 0.25, "dur": 0.24792, "note": 65, "vel": 84, "track": 2}, {"t": 0.5, "dur": 0.49792, "note": 53, "vel": 71, "track": 8}, {"t": 0.5, "dur": 0.74792, "note": 57, "vel": 71, "track": 7}, {"t": 0.5, "dur": 0.24792, "note": 65, "vel": 81, "track": 6}, {"t": 0.5, "dur": 0.24792, "note": 70, "vel": 89, "track": 2}, {"t": 0.5, "dur": 0.49792, "note": 70, "vel": 92, "track": 3}, {"t": 0.75, "dur": 0.24792, "note": 53, "vel": 68, "track": 7}, {"t": 0.75, "dur": 0.24792, "note": 65, "vel": 69, "track": 2}, {"t": 0.75, "dur": 0.24792, "note": 70, "vel": 89, "track": 6}, {"t": 0.75, "dur": 0.49792, "note": 70, "vel": 74, "track": 0}, {"t": 1.0, "dur": 0.24792, "note": 48, "vel": 71, "track": 7}, {"t": 1.0, "dur": 0.24792, "note": 53, "vel": 79, "track": 8}, {"t": 1.0, "dur": 0.24792, "note": 65, "vel": 71, "track": 6}, {"t": 1.0, "dur": 0.24792, "note": 70, "vel": 75, "track": 3}, {"t": 1.0, "dur": 0.24792, "note": 70, "vel": 84, "track": 2}, {"t": 1.25, "dur": 0.24792, "note": 46, "vel": 72, "track": 7}, {"t": 1.25, "dur": 0.99792, "note": 46, "vel": 68, "track": 9}, {"t": 1.25, "dur": 0.49792, "note": 58, "vel": 81, "track": 8}, {"t": 1.25, "dur": 0.24792, "note": 61, "vel": 60, "track": 2}, {"t": 1.25, "dur": 0.49792, "note": 61, "vel": 60, "track": 3}, {"t": 1.25, "dur": 0.24792, "note": 70, "vel": 83, "track": 6}, {"t": 1.25, "dur": 0.74792, "note": 70, "vel": 76, "track": 0}, {"t": 1.5, "dur": 0.24792, "note": 53, "vel": 85, "track": 7}, {"t": 1.5, "dur": 0.24792, "note": 61, "vel": 62, "track": 6}, {"t": 1.5, "dur": 0.24792, "note": 65, "vel": 80, "track": 2}, {"t": 1.75, "dur": 0.49792, "note": 58, "vel": 72, "track": 8}, {"t": 1.75, "dur": 0.74792, "note": 61, "vel": 68, "track": 7}, {"t": 1.75, "dur": 0.24792, "note": 65, "vel": 84, "track": 6}, {"t": 1.75, "dur": 0.24792, "note": 70, "vel": 86, "track": 2}, {"t": 1.75, "dur": 0.49792, "note": 70, "vel": 85, "track": 3}, {"t": 2.0, "dur": 0.24792, "note": 58, "vel": 77, "track": 7}, {"t": 2.0, "dur": 0.24792, "note": 65, "vel": 69, "track": 2}, {"t": 2.0, "dur": 0.24792, "note": 70, "vel": 89, "track": 6}, {"t": 2.0, "dur": 0.49792, "note": 70, "vel": 80, "track": 0}, {"t": 2.25, "dur": 0.24792, "note": 53, "vel": 73, "track": 7}, {"t": 2.25, "dur": 0.24792, "note": 58, "vel": 77, "track": 8}, {"t": 2.25, "dur": 0.24792, "note": 65, "vel": 73, "track": 6}, {"t": 2.25, "dur": 0.24792, "note": 70, "vel": 80, "track": 3}, {"t": 2.25, "dur": 0.24792, "note": 70, "vel": 89, "track": 2}]}, {"id": 114, "measures": "m163-164", "meter": [10, 16], "length_ticks": 2400, "length_beats": 5.0, "notes": [{"t": 0.0, "dur": 0.24792, "note": 44, "vel": 70, "track": 7}, {"t": 0.0, "dur": 0.99792, "note": 44, "vel": 70, "track": 9}, {"t": 0.0, "dur": 0.49792, "note": 56, "vel": 73, "track": 8}, {"t": 0.0, "dur": 0.24792, "note": 60, "vel": 62, "track": 2}, {"t": 0.0, "dur": 0.49792, "note": 60, "vel": 61, "track": 3}, {"t": 0.0, "dur": 0.24792, "note": 70, "vel": 85, "track": 6}, {"t": 0.0, "dur": 0.74792, "note": 70, "vel": 77, "track": 0}, {"t": 0.25, "dur": 0.24792, "note": 51, "vel": 79, "track": 7}, {"t": 0.25, "dur": 0.24792, "note": 63, "vel": 63, "track": 6}, {"t": 0.25, "dur": 0.24792, "note": 63, "vel": 80, "track": 2}, {"t": 0.5, "dur": 0.49792, "note": 56, "vel": 76, "track": 8}, {"t": 0.5, "dur": 0.74792, "note": 60, "vel": 71, "track": 7}, {"t": 0.5, "dur": 0.24792, "note": 68, "vel": 83, "track": 6}, {"t": 0.5, "dur": 0.24792, "note": 68, "vel": 87, "track": 3}, {"t": 0.5, "dur": 0.24792, "note": 68, "vel": 88, "track": 2}, {"t": 0.75, "dur": 0.24792, "note": 56, "vel": 73, "track": 7}, {"t": 0.75, "dur": 0.24792, "note": 68, "vel": 78, "track": 2}, {"t": 0.75, "dur": 0.24792, "note": 68, "vel": 78, "track": 3}, {"t": 0.75, "dur": 0.24792, "note": 70, "vel": 80, "track": 6}, {"t": 0.75, "dur": 0.49792, "note": 70, "vel": 73, "track": 0}, {"t": 1.0, "dur": 0.24792, "note": 51, "vel": 68, "track": 7}, {"t": 1.0, "dur": 0.24792, "note": 56, "vel": 77, "track": 8}, {"t": 1.0, "dur": 0.24792, "note": 68, "vel": 78, "track": 6}, {"t": 1.0, "dur": 0.24792, "note": 80, "vel": 91, "track": 2}, {"t": 1.0, "dur": 0.24792, "note": 80, "vel": 96, "track": 3}, {"t": 1.25, "dur": 0.24792, "note": 42, "vel": 70, "track": 7}, {"t": 1.25, "dur": 0.99792, "note": 42, "vel": 68, "track": 9}, {"t": 1.25, "dur": 0.49792, "note": 54, "vel": 74, "track": 8}, {"t": 1.25, "dur": 0.24792, "note": 58, "vel": 67, "track": 2}, {"t": 1.25, "dur": 0.49792, "note": 58, "vel": 73, "track": 3}, {"t": 1.25, "dur": 0.24792, "note": 70, "vel": 79, "track": 6}, {"t": 1.25, "dur": 0.74792, "note": 70, "vel": 76, "track": 0}, {"t": 1.5, "dur": 0.24792, "note": 49, "vel": 81, "track": 7}, {"t": 1.5, "dur": 0.24792, "note": 61, "vel": 62, "track": 6}, {"t": 1.5, "dur": 0.24792, "note": 61, "vel": 81, "track": 2}, {"t": 1.75, "dur": 0.49792, "note": 54, "vel": 79, "track": 8}, {"t": 1.75, "dur": 0.74792, "note": 58, "vel": 72, "track": 7}, {"t": 1.75, "dur": 0.24792, "note": 66, "vel": 84, "track": 2}, {"t": 1.75, "dur": 0.24792, "note": 66, "vel": 85, "track": 6}, {"t": 1.75, "dur": 0.49792, "note": 66, "vel": 93, "track": 3}, {"t": 2.0, "dur": 0.24792, "note": 54, "vel": 76, "track": 7}, {"t": 2.0, "dur": 0.24792, "note": 66, "vel": 82, "track": 2}, {"t": 2.0, "dur": 0.24792, "note": 70, "vel": 81, "track": 6}, {"t": 2.0, "dur": 0.49792, "note": 70, "vel": 80, "track": 0}, {"t": 2.25, "dur": 0.24792, "note": 49, "vel": 72, "track": 7}, {"t": 2.25, "dur": 0.24792, "note": 54, "vel": 78, "track": 8}, {"t": 2.25, "dur": 0.24792, "note": 66, "vel": 69, "track": 6}, {"t": 2.25, "dur": 0.24792, "note": 78, "vel": 94, "track": 2}, {"t": 2.25, "dur": 0.24792, "note": 78, "vel": 98, "track": 3}, {"t": 2.5, "dur": 0.24792, "note": 41, "vel": 69, "track": 7}, {"t": 2.5, "dur": 0.99792, "note": 41, "vel": 69, "track": 9}, {"t": 2.5, "dur": 0.49792, "note": 53, "vel": 78, "track": 8}, {"t": 2.5, "dur": 0.24792, "note": 57, "vel": 67, "track": 2}, {"t": 2.5, "dur": 0.49792, "note": 57, "vel": 68, "track": 3}, {"t": 2.5, "dur": 0.24792, "note": 70, "vel": 88, "track": 6}, {"t": 2.5, "dur": 0.74792, "note": 70, "vel": 75, "track": 0}, {"t": 2.75, "dur": 0.24792, "note": 48, "vel": 79, "track": 7}, {"t": 2.75, "dur": 0.24792, "note": 60, "vel": 64, "track": 6}, {"t": 2.75, "dur": 0.24792, "note": 60, "vel": 82, "track": 2}, {"t": 3.0, "dur": 0.49792, "note": 53, "vel": 73, "track": 8}, {"t": 3.0, "dur": 0.74792, "note": 57, "vel": 68, "track": 7}, {"t": 3.0, "dur": 0.24792, "note": 65, "vel": 86, "track": 6}, {"t": 3.0, "dur": 0.24792, "note": 65, "vel": 90, "track": 2}, {"t": 3.0, "dur": 0.49792, "note": 65, "vel": 90, "track": 3}, {"t": 3.25, "dur": 0.24792, "note": 53, "vel": 70, "track": 7}, {"t": 3.25, "dur": 0.24792, "note": 65, "vel": 77, "track": 2}, {"t": 3.25, "dur": 0.24792, "note": 70, "vel": 88, "track": 6}, {"t": 3.25, "dur": 0.49792, "note": 70, "vel": 75, "track": 0}, {"t": 3.5, "dur": 0.24792, "note": 48, "vel": 72, "track": 7}, {"t": 3.5, "dur": 0.24792, "note": 53, "vel": 77, "track": 8}, {"t": 3.5, "dur": 0.24792, "note": 65, "vel": 66, "track": 6}, {"t": 3.5, "dur": 0.24792, "note": 77, "vel": 97, "track": 3}, {"t": 3.5, "dur": 0.24792, "note": 77, "vel": 100, "track": 2}, {"t": 3.75, "dur": 0.24792, "note": 46, "vel": 74, "track": 7}, {"t": 3.75, "dur": 0.99792, "note": 46, "vel": 65, "track": 9}, {"t": 3.75, "dur": 0.49792, "note": 58, "vel": 82, "track": 8}, {"t": 3.75, "dur": 0.24792, "note": 61, "vel": 56, "track": 2}, {"t": 3.75, "dur": 0.49792, "note": 61, "vel": 64, "track": 3}, {"t": 3.75, "dur": 0.24792, "note": 70, "vel": 88, "track": 6}, {"t": 3.75, "dur": 0.74792, "note": 70, "vel": 77, "track": 0}, {"t": 4.0, "dur": 0.24792, "note": 53, "vel": 83, "track": 7}, {"t": 4.0, "dur": 0.24792, "note": 61, "vel": 60, "track": 6}, {"t": 4.0, "dur": 0.24792, "note": 65, "vel": 83, "track": 2}, {"t": 4.25, "dur": 0.49792, "note": 58, "vel": 80, "track": 8}, {"t": 4.25, "dur": 0.74792, "note": 61, "vel": 68, "track": 7}, {"t": 4.25, "dur": 0.24792, "note": 65, "vel": 83, "track": 6}, {"t": 4.25, "dur": 0.24792, "note": 70, "vel": 88, "track": 2}, {"t": 4.25, "dur": 0.49792, "note": 70, "vel": 91, "track": 3}, {"t": 4.5, "dur": 0.24792, "note": 58, "vel": 77, "track": 7}, {"t": 4.5, "dur": 0.24792, "note": 65, "vel": 64, "track": 2}, {"t": 4.5, "dur": 0.24792, "note": 70, "vel": 86, "track": 6}, {"t": 4.5, "dur": 0.49792, "note": 70, "vel": 76, "track": 0}, {"t": 4.75, "dur": 0.24792, "note": 53, "vel": 69, "track": 7}, {"t": 4.75, "dur": 0.24792, "note": 58, "vel": 81, "track": 8}, {"t": 4.75, "dur": 0.24792, "note": 65, "vel": 69, "track": 6}, {"t": 4.75, "dur": 0.24792, "note": 77, "vel": 93, "track": 3}, {"t": 4.75, "dur": 0.24792, "note": 77, "vel": 96, "track": 2}]}, {"id": 115, "measures": "m165", "meter": [10, 16], "length_ticks": 1200, "length_beats": 2.5, "notes": [{"t": 0.0, "dur": 0.24792, "note": 44, "vel": 70, "track": 7}, {"t": 0.0, "dur": 0.99792, "note": 44, "vel": 68, "track": 9}, {"t": 0.0, "dur": 0.49792, "note": 56, "vel": 75, "track": 8}, {"t": 0.0, "dur": 0.24792, "note": 63, "vel": 60, "track": 2}, {"t": 0.0, "dur": 0.49792, "note": 63, "vel": 60, "track": 3}, {"t": 0.0, "dur": 0.24792, "note": 70, "vel": 86, "track": 6}, {"t": 0.0, "dur": 0.74792, "note": 70, "vel": 75, "track": 0}, {"t": 0.25, "dur": 0.24792, "note": 51, "vel": 81, "track": 7}, {"t": 0.25, "dur": 0.24792, "note": 63, "vel": 66, "track": 6}, {"t": 0.25, "dur": 0.24792, "note": 68, "vel": 82, "track": 2}, {"t": 0.5, "dur": 0.49792, "note": 56, "vel": 74, "track": 8}, {"t": 0.5, "dur": 0.74792, "note": 60, "vel": 63, "track": 7}, {"t": 0.5, "dur": 0.24792, "note": 68, "vel": 90, "track": 6}, {"t": 0.5, "dur": 0.24792, "note": 70, "vel": 82, "track": 2}, {"t": 0.5, "dur": 0.24792, "note": 70, "vel": 89, "track": 3}, {"t": 0.75, "dur": 0.24792, "note": 56, "vel": 75, "track": 7}, {"t": 0.75, "dur": 0.24792, "note": 68, "vel": 72, "track": 3}, {"t": 0.75, "dur": 0.24792, "note": 68, "vel": 74, "track": 2}, {"t": 0.75, "dur": 0.24792, "note": 70, "vel": 82, "track": 6}, {"t": 0.75, "dur": 0.49792, "note": 70, "vel": 79, "track": 0}, {"t": 1.0, "dur": 0.24792, "note": 51, "vel": 73, "track": 7}, {"t": 1.0, "dur": 0.24792, "note": 56, "vel": 78, "track": 8}, {"t": 1.0, "dur": 0.24792, "note": 68, "vel": 77, "track": 6}, {"t": 1.0, "dur": 0.24792, "note": 70, "vel": 93, "track": 3}, {"t": 1.0, "dur": 0.24792, "note": 70, "vel": 96, "track": 2}, {"t": 1.25, "dur": 0.24792, "note": 42, "vel": 69, "track": 7}, {"t": 1.25, "dur": 0.99792, "note": 42, "vel": 66, "track": 9}, {"t": 1.25, "dur": 0.49792, "note": 54, "vel": 71, "track": 8}, {"t": 1.25, "dur": 0.24792, "note": 61, "vel": 63, "track": 2}, {"t": 1.25, "dur": 0.49792, "note": 61, "vel": 60, "track": 3}, {"t": 1.25, "dur": 0.24792, "note": 70, "vel": 85, "track": 6}, {"t": 1.25, "dur": 0.74792, "note": 70, "vel": 74, "track": 0}, {"t": 1.5, "dur": 0.24792, "note": 49, "vel": 80, "track": 7}, {"t": 1.5, "dur": 0.24792, "note": 61, "vel": 62, "track": 6}, {"t": 1.5, "dur": 0.24792, "note": 66, "vel": 85, "track": 2}, {"t": 1.75, "dur": 0.49792, "note": 54, "vel": 74, "track": 8}, {"t": 1.75, "dur": 0.74792, "note": 58, "vel": 66, "track": 7}, {"t": 1.75, "dur": 0.24792, "note": 66, "vel": 85, "track": 6}, {"t": 1.75, "dur": 0.24792, "note": 70, "vel": 86, "track": 2}, {"t": 1.75, "dur": 0.49792, "note": 70, "vel": 89, "track": 3}, {"t": 2.0, "dur": 0.24792, "note": 54, "vel": 77, "track": 7}, {"t": 2.0, "dur": 0.24792, "note": 66, "vel": 70, "track": 2}, {"t": 2.0, "dur": 0.24792, "note": 70, "vel": 87, "track": 6}, {"t": 2.0, "dur": 0.49792, "note": 70, "vel": 75, "track": 0}, {"t": 2.25, "dur": 0.24792, "note": 49, "vel": 75, "track": 7}, {"t": 2.25, "dur": 0.24792, "note": 54, "vel": 84, "track": 8}, {"t": 2.25, "dur": 0.24792, "note": 66, "vel": 76, "track": 6}, {"t": 2.25, "dur": 0.24792, "note": 70, "vel": 95, "track": 3}, {"t": 2.25, "dur": 0.24792, "note": 70, "vel": 98, "track": 2}]}, {"id": 116, "measures": "m166-168", "meter": [10, 16], "length_ticks": 3600, "length_beats": 7.5, "notes": [{"t": 0.0, "dur": 0.24792, "note": 41, "vel": 67, "track": 7}, {"t": 0.0, "dur": 0.99792, "note": 41, "vel": 68, "track": 9}, {"t": 0.0, "dur": 0.49792, "note": 53, "vel": 77, "track": 8}, {"t": 0.0, "dur": 0.24792, "note": 60, "vel": 54, "track": 2}, {"t": 0.0, "dur": 0.49792, "note": 60, "vel": 54, "track": 3}, {"t": 0.0, "dur": 0.24792, "note": 70, "vel": 83, "track": 6}, {"t": 0.0, "dur": 0.74792, "note": 70, "vel": 76, "track": 0}, {"t": 0.25, "dur": 0.24792, "note": 48, "vel": 77, "track": 7}, {"t": 0.25, "dur": 0.24792, "note": 60, "vel": 61, "track": 6}, {"t": 0.25, "dur": 0.24792, "note": 65, "vel": 84, "track": 2}, {"t": 0.5, "dur": 0.49792, "note": 53, "vel": 82, "track": 8}, {"t": 0.5, "dur": 0.74792, "note": 57, "vel": 74, "track": 7}, {"t": 0.5, "dur": 0.24792, "note": 65, "vel": 87, "track": 6}, {"t": 0.5, "dur": 0.24792, "note": 70, "vel": 89, "track": 2}, {"t": 0.5, "dur": 0.49792, "note": 70, "vel": 92, "track": 3}, {"t": 0.75, "dur": 0.24792, "note": 53, "vel": 76, "track": 7}, {"t": 0.75, "dur": 0.24792, "note": 65, "vel": 65, "track": 2}, {"t": 0.75, "dur": 0.24792, "note": 70, "vel": 88, "track": 6}, {"t": 0.75, "dur": 0.49792, "note": 70, "vel": 76, "track": 0}, {"t": 1.0, "dur": 0.24792, "note": 48, "vel": 69, "track": 7}, {"t": 1.0, "dur": 0.24792, "note": 53, "vel": 75, "track": 8}, {"t": 1.0, "dur": 0.24792, "note": 65, "vel": 64, "track": 6}, {"t": 1.0, "dur": 0.24792, "note": 77, "vel": 92, "track": 2}, {"t": 1.0, "dur": 0.24792, "note": 77, "vel": 113, "track": 3}, {"t": 1.25, "dur": 0.24792, "note": 46, "vel": 73, "track": 7}, {"t": 1.25, "dur": 0.99792, "note": 46, "vel": 69, "track": 9}, {"t": 1.25, "dur": 0.49792, "note": 58, "vel": 82, "track": 8}, {"t": 1.25, "dur": 0.24792, "note": 61, "vel": 59, "track": 2}, {"t": 1.25, "dur": 0.49792, "note": 61, "vel": 58, "track": 3}, {"t": 1.25, "dur": 0.24792, "note": 70, "vel": 86, "track": 6}, {"t": 1.25, "dur": 0.74792, "note": 70, "vel": 77, "track": 0}, {"t": 1.5, "dur": 0.24792, "note": 53, "vel": 83, "track": 7}, {"t": 1.5, "dur": 0.24792, "note": 61, "vel": 57, "track": 6}, {"t": 1.5, "dur": 0.24792, "note": 65, "vel": 84, "track": 2}, {"t": 1.75, "dur": 0.49792, "note": 58, "vel": 77, "track": 8}, {"t": 1.75, "dur": 0.74792, "note": 61, "vel": 71, "track": 7}, {"t": 1.75, "dur": 0.24792, "note": 65, "vel": 80, "track": 6}, {"t": 1.75, "dur": 0.24792, "note": 70, "vel": 90, "track": 2}, {"t": 1.75, "dur": 0.49792, "note": 70, "vel": 82, "track": 3}, {"t": 2.0, "dur": 0.24792, "note": 58, "vel": 79, "track": 7}, {"t": 2.0, "dur": 0.24792, "note": 65, "vel": 66, "track": 2}, {"t": 2.0, "dur": 0.24792, "note": 70, "vel": 84, "track": 6}, {"t": 2.0, "dur": 0.49792, "note": 70, "vel": 77, "track": 0}, {"t": 2.25, "dur": 0.24792, "note": 53, "vel": 73, "track": 7}, {"t": 2.25, "dur": 0.24792, "note": 58, "vel": 72, "track": 8}, {"t": 2.25, "dur": 0.24792, "note": 65, "vel": 71, "track": 6}, {"t": 2.25, "dur": 0.24792, "note": 77, "vel": 111, "track": 3}, {"t": 2.25, "dur": 0.24792, "note": 77, "vel": 121, "track": 2}, {"t": 2.5, "dur": 0.24792, "note": 44, "vel": 67, "track": 7}, {"t": 2.5, "dur": 0.99792, "note": 44, "vel": 71, "track": 9}, {"t": 2.5, "dur": 0.49792, "note": 56, "vel": 73, "track": 8}, {"t": 2.5, "dur": 0.24792, "note": 70, "vel": 89, "track": 6}, {"t": 2.5, "dur": 0.74792, "note": 70, "vel": 72, "track": 0}, {"t": 2.5, "dur": 0.24792, "note": 75, "vel": 70, "track": 2}, {"t": 2.5, "dur": 0.49792, "note": 75, "vel": 72, "track": 3}, {"t": 2.75, "dur": 0.24792, "note": 51, "vel": 81, "track": 7}, {"t": 2.75, "dur": 0.24792, "note": 63, "vel": 55, "track": 2}, {"t": 2.75, "dur": 0.24792, "note": 63, "vel": 61, "track": 6}, {"t": 3.0, "dur": 0.49792, "note": 56, "vel": 78, "track": 8}, {"t": 3.0, "dur": 0.74792, "note": 60, "vel": 69, "track": 7}, {"t": 3.0, "dur": 0.24792, "note": 68, "vel": 66, "track": 3}, {"t": 3.0, "dur": 0.24792, "note": 68, "vel": 83, "track": 2}, {"t": 3.0, "dur": 0.24792, "note": 68, "vel": 87, "track": 6}, {"t": 3.25, "dur": 0.24792, "note": 56, "vel": 74, "track": 7}, {"t": 3.25, "dur": 0.24792, "note": 70, "vel": 82, "track": 2}, {"t": 3.25, "dur": 0.24792, "note": 70, "vel": 83, "track": 3}, {"t": 3.25, "dur": 0.24792, "note": 70, "vel": 83, "track": 6}, {"t": 3.25, "dur": 0.49792, "note": 70, "vel": 75, "track": 0}, {"t": 3.5, "dur": 0.24792, "note": 51, "vel": 72, "track": 7}, {"t": 3.5, "dur": 0.24792, "note": 56, "vel": 78, "track": 8}, {"t": 3.5, "dur": 0.24792, "note": 68, "vel": 70, "track": 3}, {"t": 3.5, "dur": 0.24792, "note": 68, "vel": 71, "track": 2}, {"t": 3.5, "dur": 0.24792, "note": 68, "vel": 72, "track": 6}, {"t": 3.75, "dur": 0.24792, "note": 42, "vel": 65, "track": 7}, {"t": 3.75, "dur": 0.99792, "note": 42, "vel": 67, "track": 9}, {"t": 3.75, "dur": 0.49792, "note": 54, "vel": 72, "track": 8}, {"t": 3.75, "dur": 0.24792, "note": 70, "vel": 83, "track": 6}, {"t": 3.75, "dur": 0.74792, "note": 70, "vel": 75, "track": 0}, {"t": 3.75, "dur": 0.24792, "note": 73, "vel": 83, "track": 2}, {"t": 3.75, "dur": 0.49792, "note": 73, "vel": 85, "track": 3}, {"t": 4.0, "dur": 0.24792, "note": 49, "vel": 79, "track": 7}, {"t": 4.0, "dur": 0.24792, "note": 61, "vel": 56, "track": 2}, {"t": 4.0, "dur": 0.24792, "note": 61, "vel": 60, "track": 6}, {"t": 4.25, "dur": 0.49792, "note": 54, "vel": 77, "track": 8}, {"t": 4.25, "dur": 0.74792, "note": 58, "vel": 70, "track": 7}, {"t": 4.25, "dur": 0.24792, "note": 66, "vel": 83, "track": 2}, {"t": 4.25, "dur": 0.24792, "note": 66, "vel": 84, "track": 6}, {"t": 4.25, "dur": 0.49792, "note": 66, "vel": 68, "track": 3}, {"t": 4.5, "dur": 0.24792, "note": 54, "vel": 73, "track": 7}, {"t": 4.5, "dur": 0.24792, "note": 68, "vel": 83, "track": 2}, {"t": 4.5, "dur": 0.24792, "note": 70, "vel": 85, "track": 6}, {"t": 4.5, "dur": 0.49792, "note": 70, "vel": 76, "track": 0}, {"t": 4.75, "dur": 0.24792, "note": 49, "vel": 72, "track": 7}, {"t": 4.75, "dur": 0.24792, "note": 54, "vel": 74, "track": 8}, {"t": 4.75, "dur": 0.24792, "note": 66, "vel": 68, "track": 6}, {"t": 4.75, "dur": 0.24792, "note": 66, "vel": 72, "track": 2}, {"t": 4.75, "dur": 0.24792, "note": 66, "vel": 72, "track": 3}, {"t": 5.0, "dur": 0.24792, "note": 41, "vel": 70, "track": 7}, {"t": 5.0, "dur": 0.99792, "note": 41, "vel": 69, "track": 9}, {"t": 5.0, "dur": 0.49792, "note": 53, "vel": 78, "track": 8}, {"t": 5.0, "dur": 0.24792, "note": 70, "vel": 88, "track": 6}, {"t": 5.0, "dur": 0.74792, "note": 70, "vel": 78, "track": 0}, {"t": 5.0, "dur": 0.24792, "note": 72, "vel": 88, "track": 2}, {"t": 5.0, "dur": 0.49792, "note": 72, "vel": 87, "track": 3}, {"t": 5.25, "dur": 0.24792, "note": 48, "vel": 80, "track": 7}, {"t": 5.25, "dur": 0.24792, "note": 60, "vel": 54, "track": 6}, {"t": 5.25, "dur": 0.24792, "note": 60, "vel": 59, "track": 2}, {"t": 5.5, "dur": 0.49792, "note": 53, "vel": 76, "track": 8}, {"t": 5.5, "dur": 0.74792, "note": 57, "vel": 68, "track": 7}, {"t": 5.5, "dur": 0.24792, "note": 65, "vel": 81, "track": 6}, {"t": 5.5, "dur": 0.24792, "note": 65, "vel": 86, "track": 2}, {"t": 5.5, "dur": 0.49792, "note": 65, "vel": 68, "track": 3}, {"t": 5.75, "dur": 0.24792, "note": 53, "vel": 73, "track": 7}, {"t": 5.75, "dur": 0.24792, "note": 66, "vel": 78, "track": 2}, {"t": 5.75, "dur": 0.24792, "note": 70, "vel": 91, "track": 6}, {"t": 5.75, "dur": 0.49792, "note": 70, "vel": 78, "track": 0}, {"t": 6.0, "dur": 0.24792, "note": 48, "vel": 68, "track": 7}, {"t": 6.0, "dur": 0.24792, "note": 53, "vel": 78, "track": 8}, {"t": 6.0, "dur": 0.24792, "note": 65, "vel": 67, "track": 6}, {"t": 6.0, "dur": 0.24792, "note": 65, "vel": 71, "track": 3}, {"t": 6.0, "dur": 0.24792, "note": 65, "vel": 73, "track": 2}, {"t": 6.25, "dur": 0.24792, "note": 46, "vel": 74, "track": 7}, {"t": 6.25, "dur": 0.99792, "note": 46, "vel": 71, "track": 9}, {"t": 6.25, "dur": 0.49792, "note": 58, "vel": 77, "track": 8}, {"t": 6.25, "dur": 0.24792, "note": 70, "vel": 82, "track": 6}, {"t": 6.25, "dur": 0.24792, "note": 70, "vel": 90, "track": 2}, {"t": 6.25, "dur": 0.49792, "note": 70, "vel": 86, "track": 3}, {"t": 6.25, "dur": 0.74792, "note": 70, "vel": 75, "track": 0}, {"t": 6.5, "dur": 0.24792, "note": 53, "vel": 83, "track": 7}, {"t": 6.5, "dur": 0.24792, "note": 61, "vel": 59, "track": 6}, {"t": 6.5, "dur": 0.24792, "note": 61, "vel": 62, "track": 2}, {"t": 6.75, "dur": 0.49792, "note": 58, "vel": 77, "track": 8}, {"t": 6.75, "dur": 0.74792, "note": 61, "vel": 65, "track": 7}, {"t": 6.75, "dur": 0.24792, "note": 65, "vel": 80, "track": 6}, {"t": 6.75, "dur": 0.24792, "note": 65, "vel": 82, "track": 2}, {"t": 6.75, "dur": 0.74792, "note": 65, "vel": 71, "track": 3}, {"t": 7.0, "dur": 0.24792, "note": 58, "vel": 74, "track": 7}, {"t": 7.0, "dur": 0.24792, "note": 66, "vel": 83, "track": 2}, {"t": 7.0, "dur": 0.24792, "note": 70, "vel": 86, "track": 6}, {"t": 7.0, "dur": 0.49792, "note": 70, "vel": 78, "track": 0}, {"t": 7.25, "dur": 0.24792, "note": 53, "vel": 75, "track": 7}, {"t": 7.25, "dur": 0.24792, "note": 58, "vel": 80, "track": 8}, {"t": 7.25, "dur": 0.24792, "note": 65, "vel": 69, "track": 6}, {"t": 7.25, "dur": 0.24792, "note": 65, "vel": 72, "track": 2}]}]}